<?xml version="1.0" standalone="no"?>
<!DOCTYPE svg PUBLIC "-//W3C//DTD SVG 20010904//EN"
 "http://www.w3.org/TR/2001/REC-SVG-20010904/DTD/svg10.dtd">
<svg version="1.0" xmlns="http://www.w3.org/2000/svg"
 width="671.000000pt" height="673.000000pt" viewBox="0 0 671.000000 673.000000"
 preserveAspectRatio="xMidYMid meet">
<g transform="translate(0.000000,673.000000) scale(0.100000,-0.100000)"
fill="#FFFFFF" stroke="none">
<path d="M835 6699 c-10 -27 -1 -1504 10 -1504 14 0 19 1495 5 1509 -6 6 -11
4 -15 -5z"/>
<path d="M1536 6654 c-3 -9 -6 -22 -6 -30 0 -24 -49 -124 -60 -124 -5 0 -10
-13 -10 -30 0 -29 -38 -122 -52 -128 -5 -2 -8 -9 -8 -17 0 -7 -7 -18 -15 -25
-8 -7 -15 -29 -15 -49 0 -22 3 -31 8 -23 7 10 15 10 43 0 19 -7 73 -12 121
-12 84 -1 88 -2 88 -23 0 -12 5 -25 11 -28 6 -4 8 -13 5 -21 -3 -9 4 -16 19
-20 14 -3 25 -12 25 -20 0 -20 -165 -19 -200 1 -14 8 -35 14 -48 15 -37 0 -72
29 -72 59 0 20 -2 23 -10 11 -5 -8 -10 -25 -10 -37 0 -12 -6 -24 -12 -27 -7
-2 -4 -4 7 -3 29 2 134 -23 140 -34 4 -5 59 -9 125 -9 111 0 118 1 113 19 -2
10 -16 24 -29 32 -25 13 -46 49 -60 104 -5 21 -8 25 -11 13 -3 -10 -16 -21
-31 -25 -29 -7 -171 14 -188 28 -13 11 -7 49 7 49 5 0 9 6 9 13 0 15 180 18
180 2 0 -5 8 -19 16 -30 15 -19 16 -17 10 25 -4 24 -11 49 -17 56 -6 7 -11 37
-12 68 -1 31 -5 56 -9 56 -5 0 -8 14 -8 31 0 17 -5 39 -10 50 -8 15 -7 19 4
19 23 0 31 46 13 65 -20 19 -43 19 -51 -1z m49 -15 c4 -6 -1 -16 -11 -24 -20
-14 -34 -5 -34 23 0 15 36 16 45 1z m-29 -86 c15 -21 18 -59 5 -67 -5 -4 -21
-2 -35 4 -21 8 -25 13 -17 27 5 10 12 26 15 36 3 9 8 17 12 17 4 0 13 -8 20
-17z m22 -131 c5 -26 13 -54 16 -64 6 -14 -2 -17 -58 -23 -49 -6 -69 -4 -85 8
-19 12 -20 16 -6 27 8 7 15 20 15 30 0 9 5 30 10 46 10 27 13 29 54 26 43 -4
44 -4 54 -50z"/>
<path d="M2228 6508 c7 -7 12 -42 12 -88 0 -46 -5 -81 -12 -88 -9 -9 -3 -12
28 -12 31 1 36 3 22 11 -33 19 -18 119 17 119 21 0 35 -33 35 -84 0 -41 3 -46
22 -46 17 0 19 3 10 12 -7 7 -12 33 -12 58 0 50 -13 70 -45 70 -12 0 -26 -5
-33 -12 -9 -9 -12 -3 -12 30 0 37 -3 42 -22 42 -17 0 -19 -3 -10 -12z"/>
<path d="M2868 6513 c6 -2 12 -17 12 -32 0 -25 -3 -27 -32 -23 -39 6 -58 -17
-58 -69 0 -53 19 -67 87 -67 32 1 52 3 46 5 -9 3 -13 32 -13 99 l0 94 -27 -1
c-16 0 -22 -3 -15 -6z m0 -75 c19 -19 15 -86 -6 -97 -10 -5 -23 -6 -29 -3 -18
11 -25 55 -14 85 11 29 29 35 49 15z"/>
<path d="M3538 6513 c8 -3 12 -32 12 -93 0 -61 -4 -90 -12 -93 -7 -3 5 -5 27
-5 22 0 34 2 28 5 -19 7 -16 53 2 53 8 0 15 -4 15 -8 0 -15 41 -52 57 -52 12
0 9 6 -10 26 -41 41 -44 64 -13 91 l27 23 -31 0 c-18 0 -29 -4 -25 -10 3 -6
-3 -22 -14 -36 l-21 -27 0 67 c0 66 0 66 -27 65 -16 0 -22 -3 -15 -6z"/>
<path d="M2050 6478 c1 -21 2 -21 11 -5 5 9 19 17 29 17 18 0 20 -7 20 -75 0
-60 -3 -76 -17 -84 -14 -8 -8 -10 27 -10 35 0 41 2 28 10 -15 8 -18 24 -18 84
0 73 1 75 25 75 16 0 25 -6 25 -15 0 -8 4 -15 9 -15 5 0 7 9 4 20 -5 18 -14
20 -74 20 -65 0 -69 -1 -69 -22z"/>
<path d="M3296 6473 c8 -34 14 -42 14 -20 0 8 3 22 6 31 4 11 1 16 -10 16 -13
0 -15 -6 -10 -27z"/>
<path d="M4368 6493 c8 -3 12 -29 12 -78 0 -60 -3 -76 -17 -84 -14 -8 -8 -10
27 -10 25 0 39 3 33 6 -9 3 -13 30 -13 83 0 53 4 80 13 83 6 3 -6 5 -28 5 -22
0 -34 -2 -27 -5z"/>
<path d="M3368 6468 c-10 -10 -14 -18 -8 -18 5 0 10 -28 12 -62 3 -62 3 -63
33 -65 17 -1 23 0 15 4 -24 10 -30 25 -30 75 0 40 3 47 23 51 22 4 22 4 0 6
-12 0 -23 7 -25 14 -2 9 -8 8 -20 -5z"/>
<path d="M2414 6435 c-17 -27 -14 -76 7 -102 15 -18 64 -17 79 2 11 14 10 14
-12 6 -30 -11 -58 3 -58 29 0 17 7 20 40 20 35 0 40 3 40 23 0 51 -67 66 -96
22z m70 -1 c11 -28 7 -34 -24 -34 -16 0 -30 4 -30 9 0 23 14 41 30 41 10 0 21
-7 24 -16z"/>
<path d="M2545 6452 c6 -4 23 -35 38 -70 30 -69 26 -95 -16 -112 -22 -9 -22
-9 -1 -9 30 -1 47 23 78 109 15 41 33 78 39 82 7 4 -3 8 -23 8 -23 0 -30 -3
-22 -9 11 -7 11 -16 1 -50 -7 -22 -16 -41 -20 -41 -11 0 -32 69 -25 85 4 11
-3 15 -27 15 -18 0 -27 -4 -22 -8z"/>
<path d="M2976 6438 c-34 -48 -8 -118 44 -118 16 0 36 7 44 16 18 18 21 76 6
105 -15 28 -74 26 -94 -3z m78 -19 c18 -53 -15 -107 -49 -79 -15 13 -21 90 -8
104 15 15 48 0 57 -25z"/>
<path d="M3128 6453 c16 -6 16 -105 0 -121 -9 -9 -3 -12 27 -12 32 1 37 3 23
11 -38 21 -13 131 26 116 12 -5 16 -20 16 -67 0 -59 0 -60 28 -59 15 0 21 3
15 6 -8 3 -13 24 -13 57 0 56 -12 76 -45 76 -12 0 -26 -5 -33 -12 -9 -9 -12
-9 -12 0 0 7 -10 12 -22 11 -13 0 -17 -3 -10 -6z"/>
<path d="M3708 6453 c16 -6 16 -105 0 -121 -9 -9 -3 -12 27 -12 35 0 37 1 20
13 -14 11 -17 22 -12 57 7 52 21 69 45 54 12 -8 18 -27 20 -68 3 -50 5 -56 24
-56 17 0 19 3 10 12 -7 7 -12 31 -12 54 0 23 -3 49 -6 58 -7 19 -55 21 -72 4
-9 -9 -12 -9 -12 0 0 7 -10 12 -22 11 -13 0 -17 -3 -10 -6z"/>
<path d="M3899 6444 c-21 -25 -17 -93 6 -110 25 -19 60 -18 79 2 19 18 22 94
4 112 -17 17 -73 15 -89 -4z m69 -6 c16 -16 15 -70 -2 -94 -31 -40 -68 19 -52
82 7 26 34 32 54 12z"/>
<path d="M4036 6452 c7 -4 20 -35 29 -69 18 -65 38 -81 49 -38 3 13 11 37 17
52 l11 28 17 -49 c10 -28 22 -51 28 -53 6 -2 19 22 28 54 9 32 22 64 27 71 8
9 4 12 -18 12 -20 0 -25 -3 -16 -9 11 -7 11 -17 -1 -57 l-14 -49 -19 58 c-10
31 -22 56 -28 54 -6 -2 -17 -25 -25 -50 -8 -26 -18 -47 -22 -47 -10 0 -22 77
-14 90 4 6 -7 10 -27 10 -18 0 -28 -4 -22 -8z"/>
<path d="M4548 6453 c7 -3 12 -24 12 -57 0 -56 12 -76 45 -76 12 0 26 5 33 12
9 9 12 9 12 0 0 -7 10 -12 23 -11 12 0 16 3 10 6 -9 3 -13 27 -13 69 0 63 0
64 -27 64 -19 0 -24 -3 -15 -9 9 -5 12 -25 10 -57 -3 -45 -5 -49 -28 -49 -23
0 -25 4 -28 58 -3 51 -5 57 -25 56 -12 0 -16 -3 -9 -6z"/>
<path d="M4727 6453 c-17 -16 -4 -45 28 -64 19 -12 35 -27 35 -35 0 -24 -29
-28 -52 -8 -20 19 -20 19 -17 -1 5 -24 52 -33 75 -14 24 20 16 48 -21 70 -19
12 -35 27 -35 35 0 17 32 18 48 2 9 -9 12 -8 12 5 0 13 -9 17 -33 17 -19 0
-37 -3 -40 -7z"/>
<path d="M4860 6441 c-15 -29 -12 -73 6 -99 12 -17 24 -22 47 -20 17 2 32 9
35 16 3 11 0 12 -17 3 -17 -9 -24 -8 -41 9 -30 30 -24 40 25 40 48 0 56 11 35
51 -7 13 -21 19 -45 19 -24 0 -38 -6 -45 -19z m68 -19 c3 -18 -1 -22 -22 -22
-19 0 -26 5 -26 18 0 39 43 43 48 4z"/>
<path d="M2388 6119 c7 -8 12 -43 12 -95 0 -57 -4 -84 -12 -87 -7 -3 5 -6 27
-6 22 0 35 3 28 7 -8 5 -13 41 -15 97 -3 87 -4 90 -28 93 -20 3 -23 1 -12 -9z"/>
<path d="M3048 6118 c17 -17 16 -175 0 -181 -7 -3 5 -6 26 -6 36 -1 38 0 21
13 -11 8 -16 19 -12 30 10 24 25 19 42 -14 9 -18 23 -30 36 -30 18 0 17 4 -12
40 l-33 40 29 30 29 30 -27 0 c-17 0 -25 -4 -21 -13 2 -7 -7 -24 -21 -37 l-25
-23 0 66 c0 62 -2 67 -22 67 -17 0 -19 -3 -10 -12z"/>
<path d="M3378 6118 c7 -7 12 -22 12 -34 0 -17 -5 -20 -25 -16 -52 9 -85 -62
-55 -119 12 -22 59 -26 78 -7 9 9 12 9 12 0 0 -7 10 -12 23 -11 12 0 16 3 10
6 -9 3 -13 33 -13 99 l0 94 -27 0 c-21 0 -24 -3 -15 -12z m7 -123 c0 -46 -2
-50 -24 -50 -31 0 -46 40 -31 79 7 20 16 27 33 24 19 -3 22 -9 22 -53z"/>
<path d="M3473 6112 c23 -25 24 -144 1 -166 -14 -15 -12 -16 23 -16 24 0 33 3
25 9 -9 5 -12 25 -10 57 3 45 5 49 28 49 23 0 25 -4 28 -57 3 -52 5 -58 24
-58 17 0 19 3 10 12 -7 7 -12 33 -12 59 0 54 -17 74 -55 65 -23 -6 -25 -4 -25
29 0 31 -3 35 -27 35 -25 0 -25 -1 -10 -18z"/>
<path d="M3980 6116 c0 -9 5 -16 10 -16 6 0 10 4 10 9 0 6 -4 13 -10 16 -5 3
-10 -1 -10 -9z"/>
<path d="M4158 6119 c7 -8 12 -43 12 -95 0 -57 -4 -84 -12 -87 -7 -3 5 -6 27
-6 25 0 35 2 27 8 -9 5 -12 25 -10 57 3 45 5 49 28 49 23 0 25 -4 28 -57 3
-52 5 -58 25 -57 12 0 16 3 10 6 -8 3 -13 25 -13 58 0 59 -16 80 -54 73 -22
-4 -25 -1 -28 26 -2 24 -8 32 -28 34 -20 3 -23 1 -12 -9z"/>
<path d="M4903 6116 c13 -11 17 -29 17 -89 0 -62 -3 -78 -17 -86 -14 -8 -8
-10 27 -10 25 1 37 3 28 6 -16 4 -18 17 -18 99 l0 94 -27 0 c-25 -1 -26 -2
-10 -14z"/>
<path d="M5638 6119 c6 -7 12 -23 12 -36 0 -20 -4 -22 -25 -17 -36 9 -65 -20
-65 -63 0 -61 12 -72 81 -71 33 0 56 4 50 7 -5 4 -11 47 -13 96 -3 87 -4 90
-28 93 -20 3 -23 1 -12 -9z m10 -115 c5 -64 -47 -90 -62 -31 -10 40 10 79 37
75 18 -2 23 -10 25 -44z"/>
<path d="M1290 6110 c0 -5 4 -10 9 -10 6 0 13 5 16 10 3 6 -1 10 -9 10 -9 0
-16 -4 -16 -10z"/>
<path d="M2082 6087 c-28 -30 -30 -105 -4 -137 25 -31 112 -30 112 1 0 6 -8 5
-21 -1 -55 -30 -103 33 -79 105 14 43 55 59 76 30 16 -21 30 -14 21 10 -10 25
-79 20 -105 -8z"/>
<path d="M1227 6069 c-43 -44 -28 -51 16 -7 21 21 33 38 25 38 -7 -1 -26 -14
-41 -31z"/>
<path d="M4067 6074 c-10 -13 -13 -24 -7 -24 6 0 10 -25 10 -60 l0 -60 33 1
c29 0 30 1 10 9 -20 8 -23 17 -23 59 0 42 3 50 23 56 l22 8 -22 4 c-12 2 -23
10 -25 18 -2 9 -9 5 -21 -11z"/>
<path d="M1760 6061 c24 -20 40 -26 40 -16 0 2 -15 12 -32 20 l-33 16 25 -20z"/>
<path d="M4846 6071 c-3 -5 1 -11 9 -15 8 -3 15 -1 15 4 0 13 -18 22 -24 11z"/>
<path d="M2246 6054 c-18 -18 -21 -76 -6 -105 15 -28 74 -26 94 3 47 67 -32
158 -88 102z m62 -6 c19 -19 15 -97 -4 -105 -25 -10 -49 11 -52 45 -6 55 27
89 56 60z"/>
<path d="M2496 6048 c-20 -29 -20 -82 0 -102 16 -16 84 -22 84 -8 0 5 -13 7
-30 4 -24 -3 -31 0 -39 19 -12 33 -6 39 40 39 32 0 39 4 39 19 0 48 -67 68
-94 29z m65 -16 c7 -20 5 -22 -21 -22 -23 0 -30 5 -30 19 0 36 38 38 51 3z"/>
<path d="M2638 6058 c19 -19 15 -105 -5 -117 -14 -8 -10 -10 22 -11 25 0 35 3
27 9 -9 5 -12 25 -10 57 3 45 5 49 28 49 23 0 25 -4 28 -57 3 -52 5 -58 25
-57 12 0 16 3 10 6 -15 5 -17 81 -4 101 5 8 17 12 27 10 16 -3 20 -14 22 -61
3 -50 6 -57 24 -57 15 0 18 3 10 13 -6 7 -12 34 -14 61 -4 57 -25 79 -58 58
-16 -10 -24 -10 -40 0 -16 10 -24 10 -40 0 -12 -7 -20 -8 -20 -2 0 5 -10 10
-22 10 -17 0 -19 -3 -10 -12z"/>
<path d="M2903 6055 c-9 -24 6 -31 21 -10 16 22 46 14 46 -13 0 -13 -11 -21
-37 -28 -33 -8 -38 -13 -38 -39 0 -26 4 -30 29 -33 16 -2 32 2 37 10 7 10 9
10 9 1 0 -7 10 -13 23 -12 12 0 16 3 10 6 -8 3 -13 24 -13 57 0 29 -5 57 -12
64 -17 17 -67 15 -75 -3z m63 -70 c7 -18 -13 -45 -33 -45 -23 0 -28 31 -8 46
24 18 34 18 41 -1z"/>
<path d="M3724 6048 c8 -13 20 -44 27 -70 6 -27 17 -48 24 -48 8 0 21 24 31
53 l17 52 17 -50 c9 -27 23 -50 30 -50 8 0 21 25 31 59 10 33 24 63 31 67 8 6
2 9 -20 9 -28 0 -31 -2 -22 -17 8 -13 7 -29 -3 -58 l-14 -40 -18 58 c-10 31
-22 57 -26 57 -5 0 -16 -25 -26 -56 l-17 -57 -13 29 c-16 38 -16 71 0 77 6 3
-5 6 -26 6 -37 1 -37 0 -23 -21z"/>
<path d="M3968 6058 c7 -7 12 -36 12 -64 0 -42 -4 -53 -17 -57 -10 -3 2 -5 27
-5 25 0 37 2 28 5 -15 4 -18 16 -18 69 0 59 -2 64 -22 64 -17 0 -19 -3 -10
-12z"/>
<path d="M4431 6056 c-9 -10 -9 -16 -1 -21 6 -4 17 1 24 11 15 20 36 11 36
-16 0 -12 -10 -21 -29 -25 -37 -8 -54 -28 -46 -53 8 -26 39 -33 64 -15 12 8
21 10 21 4 0 -6 10 -11 23 -10 12 0 16 3 10 6 -8 3 -13 24 -13 57 0 29 -5 57
-12 64 -16 16 -63 15 -77 -2z m57 -83 c-2 -20 -9 -29 -25 -31 -19 -3 -23 1
-23 22 0 22 10 30 43 35 5 0 7 -11 5 -26z"/>
<path d="M4578 6058 c16 -16 16 -115 0 -121 -7 -3 3 -6 22 -6 23 0 30 2 21 8
-8 6 -12 25 -11 57 4 70 2 74 -22 74 -17 0 -19 -3 -10 -12z"/>
<path d="M4625 6060 c-4 -6 5 -10 19 -10 25 0 26 -2 26 -60 0 -59 0 -60 28
-59 15 0 21 3 15 6 -8 3 -13 23 -13 49 0 25 -5 54 -10 65 -11 20 -54 26 -65 9z"/>
<path d="M4772 6061 c-14 -8 -16 -24 -10 -93 2 -21 1 -38 -3 -38 -11 0 -19
-28 -13 -44 13 -35 100 -29 114 8 12 33 -6 56 -45 56 -24 0 -35 5 -35 15 0 9
9 15 23 15 29 0 47 18 47 45 0 39 -43 58 -78 36z m48 -16 c16 -19 3 -57 -18
-53 -18 3 -27 30 -18 54 7 18 20 18 36 -1z m15 -140 c0 -15 -8 -21 -29 -23
-37 -4 -54 11 -36 33 19 23 65 16 65 -10z"/>
<path d="M5018 6060 c-39 -23 -29 -113 14 -129 26 -10 60 0 66 18 3 9 -1 9
-17 -1 -26 -16 -54 -1 -59 31 -3 18 1 21 37 21 36 0 41 3 41 23 0 42 -41 60
-82 37z m50 -12 c21 -21 13 -38 -18 -38 -18 0 -30 5 -30 13 0 13 19 37 30 37
3 0 11 -5 18 -12z"/>
<path d="M5241 6056 c-8 -9 -8 -16 -2 -20 5 -4 14 1 19 10 12 22 42 11 42 -15
0 -13 -9 -21 -29 -26 -37 -8 -54 -28 -46 -55 7 -23 53 -28 73 -8 9 9 12 9 12
0 0 -7 6 -12 13 -12 10 0 11 14 7 58 -3 31 -9 63 -13 70 -11 16 -62 15 -76 -2z
m57 -83 c-2 -20 -9 -29 -25 -31 -19 -3 -23 1 -23 22 0 22 10 30 43 35 5 0 7
-11 5 -26z"/>
<path d="M5388 6058 c19 -19 15 -105 -5 -117 -14 -8 -10 -10 22 -11 25 0 35 3
27 9 -9 5 -12 25 -10 57 3 45 5 49 31 52 27 3 27 3 27 -57 0 -60 0 -61 28 -60
15 0 21 3 15 6 -7 2 -13 22 -13 43 0 58 -15 90 -43 90 -13 0 -28 -5 -35 -12
-9 -9 -12 -9 -12 0 0 7 -10 12 -22 12 -17 0 -19 -3 -10 -12z"/>
<path d="M3200 6000 c0 -5 16 -10 35 -10 19 0 35 5 35 10 0 6 -16 10 -35 10
-19 0 -35 -4 -35 -10z"/>
<path d="M1831 5983 c7 -10 15 -20 16 -22 2 -2 3 3 3 11 0 9 -7 19 -16 22 -15
6 -15 4 -3 -11z"/>
<path d="M1183 5975 c-3 -9 -3 -18 -1 -21 3 -3 8 4 11 16 6 23 -1 27 -10 5z"/>
<path d="M1548 5953 c12 -2 30 -2 40 0 9 3 -1 5 -23 4 -22 0 -30 -2 -17 -4z"/>
<path d="M1657 5943 c18 -2 50 -2 70 0 21 2 7 4 -32 4 -38 0 -55 -2 -38 -4z"/>
<path d="M1851 5929 c-1 -15 8 -37 19 -50 20 -25 26 -21 11 9 -5 9 -14 28 -19
42 l-11 25 0 -26z"/>
<path d="M1167 5913 c-13 -21 -18 -130 -8 -157 15 -38 24 -28 10 11 -7 22 -7
48 0 89 10 54 9 76 -2 57z"/>
<path d="M1891 5784 c0 -11 3 -14 6 -6 3 7 2 16 -1 19 -3 4 -6 -2 -5 -13z"/>
<path d="M1478 5770 c12 -5 22 -17 22 -26 0 -14 -3 -14 -15 -4 -9 7 -18 10
-21 7 -3 -3 3 -10 14 -16 26 -14 112 -3 112 14 0 17 -53 35 -99 34 -32 0 -33
-1 -13 -9z"/>
<path d="M1758 5763 c-32 -8 -20 -37 19 -50 46 -14 53 -10 53 28 0 25 -3 29
-27 28 -16 -1 -36 -3 -45 -6z m27 -23 c3 -5 -3 -10 -14 -10 -12 0 -21 5 -21
10 0 6 6 10 14 10 8 0 18 -4 21 -10z"/>
<path d="M2058 5723 c16 -6 17 -164 0 -181 -9 -9 -3 -12 28 -12 31 1 36 3 22
11 -38 21 -13 131 26 116 12 -5 16 -20 16 -67 0 -59 1 -60 27 -60 21 0 24 3
15 12 -7 7 -12 33 -12 59 0 66 -27 92 -71 69 -17 -10 -19 -7 -19 25 0 30 -3
35 -22 34 -13 0 -17 -3 -10 -6z"/>
<path d="M3908 5723 c6 -2 12 -19 12 -36 0 -24 -3 -28 -12 -19 -50 50 -105
-62 -59 -119 17 -22 22 -23 50 -12 17 6 31 7 31 2 0 -5 10 -9 22 -9 17 0 19 3
10 12 -8 8 -12 45 -12 100 l0 88 -27 -1 c-16 0 -22 -3 -15 -6z m7 -118 c0 -46
-2 -50 -24 -50 -31 0 -46 40 -31 79 7 20 16 27 33 24 19 -3 22 -9 22 -53z"/>
<path d="M1180 5696 c0 -8 5 -18 10 -21 6 -3 10 1 10 9 0 8 -4 18 -10 21 -5 3
-10 -1 -10 -9z"/>
<path d="M1897 5689 c4 -13 8 -18 11 -10 2 7 -1 18 -6 23 -8 8 -9 4 -5 -13z"/>
<path d="M2264 5670 c-40 -16 -42 -109 -4 -130 50 -27 90 3 90 68 0 31 -5 45
-22 56 -25 18 -34 19 -64 6z m60 -26 c11 -29 6 -72 -10 -88 -19 -19 -26 -20
-42 -4 -13 13 -17 90 -5 101 12 13 51 7 57 -9z"/>
<path d="M2452 5671 c-7 -4 -25 -6 -40 -4 -15 2 -21 0 -14 -3 16 -7 16 -106 0
-122 -9 -9 -3 -12 28 -12 31 1 36 3 22 11 -38 21 -13 131 26 116 12 -5 16 -20
16 -67 0 -58 1 -60 26 -60 22 0 24 3 15 14 -7 8 -11 36 -9 63 3 40 6 48 23 48
18 0 20 -8 23 -62 3 -61 4 -63 29 -63 21 0 24 3 15 12 -7 7 -12 31 -12 54 0
26 -7 51 -19 65 -17 21 -21 22 -46 11 -20 -9 -31 -10 -39 -2 -12 12 -26 13
-44 1z"/>
<path d="M2670 5660 c-43 -43 -13 -130 44 -130 13 0 29 6 35 14 9 11 4 13 -26
12 -32 -1 -38 2 -41 22 -3 20 1 22 37 22 37 0 41 3 41 24 0 25 -32 56 -57 56
-7 0 -22 -9 -33 -20z m60 -4 c0 -2 3 -11 6 -20 5 -13 -1 -16 -25 -16 -29 0
-41 16 -24 33 7 8 43 10 43 3z"/>
<path d="M2863 5673 c-7 -2 -13 -9 -13 -14 0 -6 5 -7 11 -3 6 3 15 0 20 -7 10
-17 23 -5 16 16 -7 15 -13 17 -34 8z"/>
<path d="M2962 5664 c-17 -12 -22 -25 -22 -58 0 -94 101 -106 116 -14 5 30 2
41 -19 62 -30 30 -44 32 -75 10z m63 -58 c0 -36 -5 -52 -18 -60 -33 -20 -61
47 -41 99 4 10 16 15 33 13 24 -3 26 -7 26 -52z"/>
<path d="M3472 5671 c-7 -4 -25 -6 -40 -3 -22 4 -25 2 -14 -9 19 -21 16 -106
-5 -118 -15 -8 -10 -10 22 -11 30 0 36 3 27 12 -14 14 -16 86 -3 106 5 8 17
12 27 10 16 -3 20 -14 22 -66 3 -56 5 -62 24 -62 17 0 19 3 10 12 -14 14 -16
86 -3 106 5 8 17 12 27 10 16 -3 20 -14 22 -66 3 -54 5 -62 23 -62 16 0 18 3
9 19 -5 11 -10 40 -10 65 0 53 -24 75 -60 56 -14 -7 -26 -8 -39 0 -23 12 -23
12 -39 1z"/>
<path d="M3690 5660 c-42 -42 -15 -130 40 -130 35 0 60 32 60 77 0 37 -29 73
-60 73 -11 0 -29 -9 -40 -20z m70 -26 c18 -46 -9 -101 -43 -89 -19 8 -29 58
-17 90 13 34 47 33 60 -1z"/>
<path d="M4018 5669 c-29 -16 -21 -48 17 -70 19 -12 35 -27 35 -35 0 -22 -31
-30 -45 -11 -15 21 -25 22 -25 2 0 -19 48 -31 69 -18 9 6 17 21 19 35 2 20 -4
28 -32 42 -20 9 -36 23 -36 30 0 20 27 27 40 11 7 -8 17 -12 23 -8 6 4 3 11
-8 20 -22 15 -34 16 -57 2z"/>
<path d="M1327 5663 c-12 -12 -7 -60 7 -72 12 -10 13 -5 9 31 -6 49 -7 51 -16
41z"/>
<path d="M2808 5663 c16 -6 16 -105 0 -121 -9 -9 -3 -12 27 -12 33 1 37 2 22
11 -15 9 -18 21 -17 57 4 68 2 72 -22 71 -13 0 -17 -3 -10 -6z"/>
<path d="M3087 5662 c7 -4 21 -34 30 -67 10 -32 23 -60 29 -62 6 -2 18 23 29
54 l18 58 19 -57 c11 -32 24 -58 28 -58 5 0 17 26 26 58 10 31 24 63 33 70 12
10 9 12 -20 12 -22 0 -29 -3 -21 -9 11 -6 11 -17 2 -50 -6 -22 -12 -41 -15
-41 -2 0 -11 23 -20 51 -9 27 -22 48 -28 46 -6 -2 -18 -25 -28 -53 -14 -41
-18 -46 -25 -30 -4 11 -8 35 -8 53 -1 30 -4 33 -31 33 -18 0 -25 -3 -18 -8z"/>
<path d="M1200 5645 c0 -3 9 -15 20 -27 14 -16 20 -18 20 -7 0 8 -9 20 -20 27
-11 7 -20 10 -20 7z"/>
<path d="M1720 5644 c0 -3 10 -14 21 -23 19 -16 20 -20 8 -42 -8 -13 -18 -27
-24 -31 -6 -5 -6 -8 1 -8 14 0 44 44 44 63 0 8 -11 22 -25 31 -14 9 -25 14
-25 10z"/>
<path d="M1901 5623 c-1 -6 -4 -20 -7 -30 -5 -17 -5 -17 6 0 6 10 9 23 6 30
-3 9 -5 9 -5 0z"/>
<path d="M1580 5581 c0 -11 5 -23 12 -27 8 -5 9 -2 4 11 -4 11 -2 22 6 27 10
6 8 8 -4 8 -11 0 -18 -8 -18 -19z"/>
<path d="M1243 5515 c0 -38 2 -53 4 -32 2 20 2 52 0 70 -2 17 -4 1 -4 -38z"/>
<path d="M1867 5542 c-10 -10 -17 -22 -17 -26 0 -4 -7 -14 -15 -22 -8 -9 -15
-25 -15 -38 0 -12 -5 -27 -12 -34 -9 -9 -9 -12 0 -12 6 0 16 16 21 36 5 19 22
51 36 70 29 37 30 57 2 26z"/>
<path d="M1370 5512 c0 -4 10 -13 23 -21 22 -14 22 -14 3 8 -20 22 -26 25 -26
13z"/>
<path d="M1420 5476 c0 -8 73 -75 83 -76 5 0 -4 12 -20 28 -37 36 -63 56 -63
48z"/>
<path d="M1625 5475 c23 -8 125 -11 125 -3 0 4 -30 8 -67 7 -38 0 -63 -2 -58
-4z"/>
<path d="M1226 5425 c-4 -11 -12 -28 -17 -37 -18 -34 -8 -43 12 -11 11 18 19
40 16 50 -4 16 -5 16 -11 -2z"/>
<path d="M1520 5394 c0 -12 42 -44 58 -44 9 0 13 1 11 3 -30 24 -69 47 -69 41z"/>
<path d="M1765 5387 c-10 -7 -25 -18 -33 -24 -7 -7 -41 -14 -75 -15 -39 -1
-49 -3 -26 -5 26 -3 40 -11 49 -29 7 -13 17 -24 22 -24 16 0 7 -25 -15 -41
-54 -39 -280 -66 -408 -50 -12 2 -49 39 -49 50 0 6 -7 11 -15 11 -8 0 -15 9
-15 19 0 11 -5 23 -10 26 -6 4 -8 11 -5 16 10 16 -13 10 -31 -8 -17 -17 -17
-18 2 -21 11 -2 28 -16 38 -33 45 -76 51 -79 182 -79 131 0 296 30 326 59 26
25 28 84 3 75 -35 -14 -11 14 35 41 28 16 50 33 50 37 0 10 0 10 -25 -5z"/>
<path d="M1306 5335 c-11 -8 -18 -17 -15 -19 2 -2 15 4 28 15 27 22 15 26 -13
4z"/>
<path d="M1090 5280 c-13 -8 -13 -10 2 -10 9 0 20 5 23 10 8 13 -5 13 -25 0z"/>
<path d="M1850 5285 c0 -2 19 -9 42 -15 41 -12 77 -43 78 -68 0 -8 7 -30 16
-50 9 -21 20 -46 25 -57 11 -26 27 -99 43 -199 11 -68 11 -95 -3 -183 l-16
-103 -30 0 c-16 0 -39 7 -49 15 -18 14 -19 20 -8 79 15 78 16 226 2 226 -6 0
-10 -43 -10 -109 0 -60 -5 -122 -11 -138 -31 -78 -55 -423 -29 -423 6 0 10 53
10 138 0 150 12 217 37 208 8 -3 19 -6 24 -6 6 0 9 -127 8 -332 -3 -370 -6
-458 -20 -458 -14 0 -11 107 4 114 10 5 10 7 0 12 -8 3 -13 25 -13 54 0 27 -4
51 -9 54 -5 4 -5 20 1 40 13 40 1 206 -14 206 -6 0 -8 -7 -4 -15 3 -9 9 -51
12 -94 l7 -78 -42 -42 c-23 -23 -53 -46 -66 -51 -55 -21 -730 -18 -751 3 -1 1
-7 46 -12 100 -5 54 -15 104 -21 110 -16 16 -14 -9 5 -106 14 -70 16 -158 12
-708 -2 -346 0 -629 5 -629 4 0 8 42 9 93 0 50 2 322 5 602 l4 510 372 2 c389
2 399 3 440 48 14 15 20 17 26 6 5 -7 9 -228 9 -490 1 -452 -7 -613 -29 -627
-5 -3 -9 -71 -9 -152 0 -195 -8 -282 -26 -275 -9 3 -14 -2 -14 -15 0 -11 5
-22 11 -24 6 -2 8 -14 3 -32 l-7 -29 -133 5 c-74 3 -134 1 -134 -3 0 -12 42
-19 118 -19 l72 0 0 -28 c0 -60 59 -94 98 -56 15 15 13 16 -15 10 -27 -6 -34
-3 -48 18 -24 36 -13 56 29 56 29 0 35 4 40 28 16 74 25 192 26 332 0 116 4
160 15 173 8 11 11 31 8 50 -2 18 2 59 9 92 11 47 12 92 5 210 -13 197 -12
375 1 450 27 151 32 252 32 558 l-1 327 30 0 c29 0 29 1 36 70 4 39 12 70 17
70 19 0 -21 333 -41 353 -6 6 -11 21 -11 32 0 12 -8 30 -19 39 -10 9 -21 34
-25 54 -5 34 -10 39 -55 55 -49 17 -71 21 -71 12z"/>
<path d="M4806 5258 c-9 -12 -16 -27 -16 -33 -1 -16 -56 -72 -79 -80 -16 -5
-21 -2 -21 13 0 11 -7 25 -15 32 -27 23 -47 6 -70 -59 -13 -35 -31 -71 -39
-80 -15 -14 -19 -12 -46 17 -17 18 -30 37 -30 42 0 9 -48 50 -59 50 -3 0 -6
-60 -7 -132 -1 -142 -19 -301 -35 -306 -5 -2 -9 -53 -9 -113 0 -89 3 -109 15
-109 20 0 33 -57 40 -185 4 -60 11 -127 16 -147 11 -44 35 -53 25 -10 -3 15
-11 79 -16 142 -5 63 -12 132 -15 153 l-5 37 44 0 c26 0 46 5 49 13 3 10 9 10
26 0 25 -15 61 -17 61 -3 0 6 -6 10 -13 10 -8 0 -22 9 -32 20 -10 11 -23 20
-29 20 -7 0 -18 -9 -26 -20 -9 -13 -26 -20 -46 -20 -26 0 -33 5 -38 25 -4 14
-10 25 -15 25 -14 0 -25 141 -12 149 14 9 32 137 38 271 2 58 8 109 14 114 6
6 9 6 9 -1 0 -6 12 -25 27 -42 54 -61 103 -33 133 75 13 47 33 54 38 15 3 -21
8 -23 43 -18 40 5 82 43 105 96 11 26 12 25 25 -21 9 -33 18 -48 30 -48 10 0
20 6 22 13 3 6 6 -3 6 -20 1 -18 4 -33 8 -33 3 0 22 18 43 41 l36 41 24 -46
c26 -51 36 -55 66 -27 11 10 30 24 43 30 20 11 23 10 28 -8 3 -12 11 -21 19
-21 7 0 16 -11 20 -24 7 -28 -11 -66 -30 -66 -12 0 -76 -123 -76 -146 0 -5 -6
-20 -13 -34 -8 -14 -20 -61 -28 -105 -9 -52 -21 -87 -35 -102 -30 -33 -148
-92 -197 -99 -23 -4 -50 -15 -60 -25 -10 -11 -29 -19 -42 -19 -14 0 -25 -4
-25 -10 0 -18 68 -11 87 9 10 10 37 21 60 25 23 3 71 21 107 40 l66 35 -1 -82
c-1 -45 -3 -74 -6 -64 -7 26 -23 21 -23 -8 0 -16 6 -25 15 -25 22 0 21 -118
-2 -164 -20 -39 -34 -44 -53 -21 -23 28 -30 15 -30 -51 l0 -67 -32 6 c-18 3
-41 8 -50 12 -25 10 -23 -17 2 -33 11 -7 20 -20 20 -30 0 -9 11 -34 25 -54 14
-20 25 -39 25 -42 0 -4 -16 -6 -35 -6 -19 0 -54 -5 -79 -12 -39 -10 -49 -9
-97 12 -30 12 -66 32 -81 44 -15 11 -54 41 -87 64 l-61 44 -103 -4 c-93 -3
-106 -6 -153 -35 -28 -17 -64 -34 -80 -37 -50 -12 -105 -58 -137 -116 -16 -30
-33 -57 -36 -60 -18 -15 -30 -55 -36 -124 -5 -51 -12 -79 -21 -83 -8 -3 -14
-11 -14 -18 0 -7 -6 -18 -14 -24 -8 -7 -17 -24 -21 -38 -3 -15 -17 -40 -31
-56 -23 -28 -69 -117 -62 -121 2 -1 15 -7 31 -14 16 -7 27 -19 27 -31 0 -10
12 -27 26 -36 l27 -17 -7 -142 c-3 -77 -9 -158 -12 -178 -6 -35 -5 -38 17 -38
26 0 108 -27 124 -40 6 -5 40 -10 77 -12 l66 -3 6 -55 c3 -30 9 -286 13 -567
3 -282 10 -513 15 -513 18 0 3 951 -20 1223 -7 86 -7 87 15 87 32 0 29 18 -3
22 -25 3 -29 11 -59 115 -18 61 -35 137 -39 167 -3 31 -17 90 -31 132 -14 42
-25 85 -25 96 0 10 -6 21 -14 24 -8 3 -16 18 -19 34 -4 16 -13 34 -20 42 -22
20 -5 124 24 148 3 3 20 30 36 60 32 58 87 104 137 116 16 3 52 20 80 37 44
27 63 32 133 35 91 4 68 15 218 -95 16 -12 55 -34 85 -49 47 -22 63 -25 110
-19 77 10 250 10 345 0 65 -7 95 -16 160 -50 66 -35 93 -43 159 -49 50 -5 89
-14 105 -25 39 -27 112 -58 151 -65 19 -3 55 -10 80 -15 25 -6 63 -10 86 -11
22 0 44 -4 50 -9 5 -6 38 -11 74 -13 l64 -3 -55 -55 c-30 -30 -67 -71 -82 -91
l-26 -37 -221 -7 c-137 -5 -220 -11 -220 -17 0 -7 76 -8 228 -4 l227 7 25 32
c14 17 43 49 65 70 l40 39 266 -1 c249 -2 299 2 299 18 0 3 -115 5 -256 3
-140 -2 -261 -1 -268 1 -8 3 -11 17 -8 36 3 24 9 31 26 31 34 0 43 12 48 67
l5 53 -68 -3 c-51 -1 -69 -6 -69 -16 0 -10 13 -12 55 -9 l55 5 0 -33 c0 -24
-5 -34 -20 -39 -26 -8 -49 5 -93 54 -42 46 -47 49 -47 22 0 -10 20 -37 45 -60
l45 -41 -49 0 -49 0 -7 51 c-4 29 -13 53 -21 56 -9 3 -14 20 -14 44 0 26 -4
39 -14 39 -19 0 -8 -91 13 -107 9 -6 12 -15 8 -20 -11 -11 -46 32 -53 66 -3
14 -12 46 -20 70 -8 25 -14 53 -14 63 0 10 -5 18 -10 18 -7 0 -8 28 -4 80 5
52 3 80 -3 80 -6 0 -14 -35 -17 -77 -17 -202 -17 -203 -47 -236 -16 -17 -29
-35 -29 -39 0 -5 -11 -14 -25 -20 -22 -10 -28 -8 -45 10 -13 13 -20 35 -20 59
0 21 -7 65 -15 98 -9 38 -14 115 -15 211 0 160 5 181 55 249 12 17 29 44 38
60 19 35 129 151 171 180 15 11 33 25 40 31 31 29 196 49 210 25 3 -5 40 -25
81 -44 43 -21 75 -42 75 -51 0 -8 10 -23 23 -33 12 -10 33 -35 46 -56 13 -21
28 -43 35 -50 28 -28 53 -74 59 -105 7 -37 36 -104 49 -113 4 -3 12 -30 18
-60 6 -29 15 -55 20 -57 6 -2 10 -8 10 -14 0 -5 10 -23 21 -40 18 -24 23 -51
29 -146 8 -131 14 -152 41 -152 24 0 24 13 2 36 -13 13 -19 43 -24 135 -5 97
-10 123 -28 147 -11 17 -21 35 -21 40 0 6 -4 12 -10 14 -5 2 -14 28 -20 57 -6
30 -14 57 -18 60 -13 9 -42 76 -49 113 -6 31 -31 77 -59 105 -7 7 -22 29 -35
50 -13 21 -34 46 -46 56 -13 10 -23 25 -23 33 0 9 -32 30 -75 51 -41 19 -78
39 -81 44 -3 5 -42 9 -88 9 -80 0 -139 -12 -162 -34 -7 -6 -25 -20 -40 -31
-42 -29 -152 -145 -171 -180 -9 -16 -26 -43 -38 -60 -51 -70 -55 -88 -55 -269
1 -114 6 -191 15 -231 15 -62 20 -125 9 -125 -3 0 -18 9 -33 19 -19 14 -53 22
-107 27 -65 6 -92 14 -154 47 -78 42 -99 46 -297 63 -62 5 -83 10 -83 21 0 8
-11 31 -25 51 -36 53 -33 62 20 62 30 0 45 4 45 13 0 18 24 67 33 67 4 0 7 9
7 20 0 12 7 31 15 44 13 19 15 55 13 197 -3 144 0 177 12 189 8 8 22 51 29 95
8 44 20 91 28 105 7 14 13 29 13 34 0 23 64 146 76 146 40 0 46 96 9 136 -14
15 -25 31 -25 35 0 5 -6 9 -14 9 -18 0 -76 -32 -76 -42 0 -5 -6 -8 -14 -8 -15
0 -46 52 -46 77 0 24 -27 14 -59 -22 -31 -35 -31 -35 -31 -10 0 26 -18 33 -36
15 -8 -8 -16 3 -28 35 -20 51 -28 55 -50 23z m144 -1070 c0 -7 -7 -22 -15 -32
-14 -19 -15 -18 -15 12 0 22 5 32 15 32 8 0 15 -6 15 -12z m859 -305 c18 -68
39 -113 56 -119 8 -4 15 -11 15 -16 0 -12 -107 -3 -147 13 -24 9 -25 10 -8 35
9 14 25 34 36 45 11 11 19 33 19 54 0 50 15 43 29 -12z m-1869 -254 c0 -9 7
-19 15 -23 8 -3 15 -13 15 -23 0 -10 9 -47 21 -83 35 -109 38 -139 23 -192 -8
-26 -19 -48 -24 -48 -5 0 -12 -9 -15 -20 -3 -11 -9 -20 -13 -20 -12 0 -62 47
-62 57 0 6 -18 29 -40 52 -22 22 -40 48 -40 56 0 9 -11 20 -24 26 l-24 11 20
37 c11 20 28 45 38 56 10 11 22 32 25 47 4 15 13 32 21 39 8 6 14 15 14 20 0
5 8 17 18 27 18 19 32 11 32 -19z m124 -436 c14 -50 26 -94 26 -96 0 -2 -11
-2 -25 1 -24 4 -25 7 -25 78 0 41 -4 74 -9 74 -5 0 -7 9 -4 20 3 12 7 19 8 18
1 -2 14 -44 29 -95z m-150 25 c39 -34 63 -35 78 -3 20 43 28 27 28 -54 l0 -79
39 -7 c45 -7 51 -20 51 -106 l0 -56 -52 5 c-29 2 -58 8 -63 12 -16 13 -98 40
-120 40 -19 0 -20 4 -13 78 3 42 7 111 8 152 1 41 4 68 7 60 4 -8 20 -27 37
-42z"/>
<path d="M930 5230 c-19 -17 -38 -30 -43 -30 -4 0 -28 -19 -52 -42 -25 -24
-52 -49 -60 -56 -8 -7 -15 -22 -15 -33 0 -11 -7 -22 -15 -25 -8 -4 -15 -14
-15 -23 0 -9 -7 -29 -15 -45 -8 -15 -15 -46 -15 -67 0 -21 -4 -41 -10 -44 -6
-3 -10 -52 -10 -111 l0 -104 25 0 c24 0 25 -2 25 -63 0 -43 6 -75 20 -102 14
-27 20 -59 20 -103 0 -85 25 -127 82 -143 l41 -11 -6 -516 c-4 -284 -7 -594
-7 -689 0 -155 -2 -172 -17 -177 -10 -2 -4 -4 12 -3 l30 2 9 693 9 692 46 1
c25 1 50 1 54 0 5 -1 6 3 3 7 -3 5 15 17 39 27 25 9 45 20 45 25 0 5 17 25 37
44 21 19 34 38 31 42 -9 8 -68 -47 -68 -63 0 -7 -9 -13 -20 -13 -11 0 -20 -3
-20 -8 0 -9 -46 -30 -87 -38 -52 -10 -163 5 -163 22 0 8 -6 17 -14 20 -9 3
-16 31 -21 82 -4 42 -13 95 -21 117 -7 22 -14 64 -14 93 l0 52 98 0 98 0 22
-50 c24 -54 28 -85 12 -95 -5 -3 -10 -14 -9 -23 0 -11 3 -12 6 -4 2 6 13 12
24 12 11 0 22 6 25 14 3 8 19 17 36 20 18 3 39 13 47 20 9 8 61 29 116 46 55
17 109 36 120 41 59 30 80 46 77 59 -1 9 7 25 18 37 13 15 20 36 20 63 l0 40
90 0 90 0 -1 -57 c0 -38 -3 -51 -8 -39 -7 19 -8 18 -14 -3 -6 -23 -8 -24 -89
-18 -50 4 -73 3 -58 -3 14 -4 62 -8 108 -9 75 -1 107 -13 65 -24 -13 -3 -11
-5 6 -6 20 -1 22 -4 16 -28 -4 -16 -16 -36 -27 -47 -17 -16 -22 -16 -29 -5 -8
12 -11 11 -20 -3 -11 -19 -69 -25 -69 -8 0 22 -66 10 -96 -17 -17 -16 -53 -39
-80 -53 -27 -14 -54 -29 -61 -35 -6 -5 -30 -23 -52 -39 -43 -31 -51 -46 -26
-46 8 0 15 5 15 10 0 6 8 10 18 10 19 0 52 29 52 46 0 5 17 17 38 27 20 9 57
29 82 43 27 15 46 21 48 15 2 -7 32 -11 73 -11 55 0 69 3 69 15 0 8 7 15 15
15 8 0 15 5 15 10 0 6 5 10 11 10 39 0 57 69 35 134 -9 26 -16 67 -16 93 l0
46 -67 -6 c-38 -4 -88 -7 -113 -7 l-45 0 3 -43 c3 -33 -1 -47 -17 -61 -12 -11
-21 -27 -21 -38 0 -10 -5 -18 -11 -18 -7 0 -19 -8 -28 -19 -9 -10 -25 -21 -36
-24 -120 -34 -206 -64 -235 -82 -19 -12 -45 -24 -57 -27 -20 -5 -23 -2 -23 22
0 15 -7 33 -15 40 -24 20 -19 60 6 60 19 0 21 4 15 38 -3 20 -11 73 -17 117
-6 44 -13 82 -16 85 -7 7 4 -178 13 -207 6 -23 6 -23 -97 -23 -57 0 -128 3
-157 7 l-54 6 4 94 c2 66 7 96 17 102 8 5 15 31 18 60 5 71 57 183 91 199 15
6 32 22 37 34 6 12 20 25 32 28 12 3 33 15 47 28 15 12 31 22 36 22 6 0 10 7
10 15 0 21 -10 18 -50 -15z m619 -680 c17 0 31 -5 31 -11 0 -8 -13 -10 -37 -5
-21 3 -44 6 -50 6 -7 0 -13 7 -13 15 0 12 4 13 19 5 11 -5 33 -10 50 -10z"/>
<path d="M4870 4436 c0 -8 5 -18 10 -21 15 -9 12 -55 -5 -61 -18 -7 -42 16
-51 50 -10 39 -28 32 -21 -9 5 -33 45 -85 65 -85 20 0 40 38 45 88 6 50 5 52
-18 52 -15 0 -25 -6 -25 -14z"/>
<path d="M5800 4175 c0 -8 9 -20 20 -27 11 -7 20 -16 20 -20 0 -3 14 -21 32
-38 17 -18 27 -35 22 -38 -13 -9 -44 -54 -44 -64 0 -18 28 -6 40 16 9 18 23
26 49 28 33 3 36 6 41 38 3 22 8 30 13 23 4 -7 25 -20 45 -30 44 -20 82 -53
63 -53 -8 0 -11 -6 -7 -15 3 -9 0 -15 -9 -15 -8 0 -15 -4 -15 -10 0 -6 28 -10
65 -10 61 0 65 2 71 25 6 26 14 29 52 19 21 -6 22 -11 22 -99 0 -87 -10 -167
-25 -207 -5 -13 -2 -18 8 -18 11 0 18 13 22 38 8 47 23 92 24 71 2 -35 91 -84
91 -49 0 6 -6 10 -13 10 -17 0 -54 40 -58 60 -1 8 1 23 6 33 10 24 -1 33 -20
17 -13 -11 -15 -4 -15 61 l0 73 33 -31 c24 -23 45 -33 85 -38 30 -4 52 -3 52
2 0 14 -50 34 -69 28 -11 -3 -28 6 -46 25 -16 16 -35 30 -42 30 -7 0 -13 7
-13 15 0 17 -16 21 -22 5 -2 -6 -15 -4 -32 5 -39 20 -43 19 -55 -15 -5 -16
-13 -30 -16 -30 -15 0 -75 72 -75 90 0 23 -31 41 -38 22 -7 -22 -29 -13 -68
28 -22 22 -42 40 -46 40 -5 0 -8 -13 -8 -30 0 -16 5 -30 10 -30 11 0 14 -43 4
-53 -6 -5 -94 79 -94 90 0 7 -44 42 -52 43 -5 0 -8 -7 -8 -15z"/>
<path d="M5900 4000 c0 -5 5 -10 10 -10 6 0 10 5 10 10 0 6 -4 10 -10 10 -5 0
-10 -4 -10 -10z"/>
<path d="M6660 3760 c-87 -56 -99 -70 -60 -70 11 0 20 3 20 8 0 4 20 18 45 32
27 15 45 32 45 42 0 10 -1 18 -2 17 -2 0 -23 -13 -48 -29z"/>
<path d="M1562 3375 c1 -165 3 -334 7 -375 4 -41 5 87 3 285 -2 198 -5 367 -6
375 -2 8 -4 -120 -4 -285z"/>
<path d="M5920 3501 c0 -30 187 -53 416 -51 l201 2 -4 -53 c-2 -30 -5 -67 -7
-84 -5 -44 12 -225 22 -239 5 -6 12 -23 15 -37 8 -34 48 -79 70 -79 10 0 22
-11 28 -24 13 -28 49 -42 49 -20 0 8 -4 14 -8 14 -5 0 -14 11 -20 25 -6 14
-19 25 -29 25 -22 0 -62 45 -70 79 -3 14 -11 32 -16 40 -13 15 -16 335 -4 347
4 4 32 9 62 12 30 2 55 9 55 14 0 7 -37 8 -102 4 -257 -15 -577 -1 -604 27
-10 10 -54 9 -54 -2z"/>
<path d="M5366 3492 c-2 -4 -8 -40 -12 -81 -4 -47 -12 -75 -20 -78 -15 -6 -19
-29 -6 -35 9 -3 -2 -646 -14 -845 -5 -80 -3 -117 5 -127 8 -10 10 -68 5 -218
l-7 -205 -71 -17 c-39 -9 -80 -16 -91 -16 -11 -1 -29 -7 -39 -15 -25 -19 -113
-19 -181 -2 -64 17 -735 24 -735 7 0 -9 43 -11 575 -16 66 -1 136 -6 155 -13
55 -18 181 -14 210 6 17 12 25 13 28 5 2 -7 18 -12 37 -12 18 0 57 -11 86 -24
114 -49 351 -125 519 -165 96 -23 198 -52 225 -65 28 -12 91 -35 140 -50 50
-15 101 -33 115 -39 14 -6 30 -11 35 -12 41 -2 81 -68 110 -180 36 -139 53
-643 27 -805 -7 -41 -16 -101 -21 -132 -8 -47 -51 -149 -71 -168 -3 -3 -6 -16
-6 -30 -1 -14 -6 -54 -12 -89 -6 -36 -10 -67 -7 -69 9 -10 25 11 25 35 0 41
29 142 57 197 14 27 29 75 34 105 5 31 14 90 21 131 27 165 10 705 -27 845
-34 131 -62 170 -140 193 -113 34 -225 72 -267 91 -25 12 -122 39 -215 61
-182 44 -297 79 -468 145 -60 24 -119 45 -130 47 -11 2 7 10 41 17 l61 13 7
225 c4 128 4 229 -1 236 -6 7 -6 81 -2 172 4 88 8 256 8 373 1 116 5 212 9
212 4 0 28 -21 52 -46 61 -62 90 -75 181 -81 66 -5 81 -3 106 14 15 11 45 26
66 32 20 7 37 16 37 21 0 4 11 10 24 12 22 4 24 1 30 -46 11 -91 6 -289 -9
-381 -8 -49 -15 -115 -15 -146 0 -42 -5 -63 -21 -83 -12 -15 -19 -30 -16 -33
4 -3 -5 -20 -18 -38 -14 -17 -25 -37 -25 -43 0 -7 -4 -12 -9 -12 -5 0 -14 -12
-20 -27 -12 -31 -32 -65 -43 -73 -10 -8 -28 -59 -28 -81 0 -11 -7 -27 -15 -35
-8 -9 -15 -29 -15 -45 0 -16 -7 -46 -15 -66 -17 -40 -21 -173 -5 -173 6 0 10
26 10 59 0 32 7 75 15 94 8 20 15 50 15 66 0 16 7 36 15 45 8 8 15 24 15 35 0
22 18 73 28 81 11 8 31 42 43 73 6 15 15 27 20 27 5 0 9 5 9 12 0 6 11 26 25
44 14 18 25 37 25 42 0 6 5 12 11 14 6 2 13 33 15 68 9 114 5 108 71 98 70
-12 358 -4 375 9 7 6 30 13 50 17 36 7 37 6 44 -31 6 -35 71 -147 105 -183 34
-36 63 -130 40 -130 -12 0 -2 -79 15 -112 8 -15 14 -55 14 -90 0 -39 6 -71 14
-84 8 -11 17 -38 21 -60 4 -21 13 -52 20 -69 8 -16 23 -86 35 -155 20 -118 32
-171 50 -230 7 -21 9 -18 9 19 1 25 -3 58 -9 75 -5 17 -19 87 -30 156 -12 69
-27 139 -35 155 -7 17 -16 48 -20 70 -4 22 -12 46 -18 54 -11 13 -17 60 -32
251 -5 75 -27 142 -54 170 -8 8 -33 44 -56 80 -44 68 -60 117 -41 123 7 3 5
11 -6 24 -10 11 -18 25 -18 31 0 7 -4 12 -8 12 -13 0 -32 47 -32 78 0 15 -7
46 -15 70 -8 23 -18 94 -21 157 -4 66 -11 115 -17 115 -15 0 -1 -240 18 -292
8 -23 15 -55 15 -70 0 -31 19 -78 32 -78 4 0 8 -6 8 -14 0 -9 -16 -17 -42 -21
-24 -4 -49 -12 -57 -18 -16 -14 -315 -16 -375 -4 -35 8 -38 10 -31 35 11 47
17 385 7 446 -10 64 -6 96 12 96 19 0 96 62 96 77 0 20 -11 16 -59 -22 -66
-52 -141 -47 -141 10 0 12 -7 30 -15 41 -9 12 -14 43 -15 87 0 38 -4 67 -10
67 -5 0 -10 -20 -10 -45 0 -25 -4 -45 -8 -45 -5 0 -19 -23 -33 -51 l-24 -51
-61 5 c-35 3 -77 14 -96 24 -47 26 -122 76 -131 88 -8 10 -1 118 10 163 5 21
-10 31 -21 14z m50 -239 c79 -56 104 -65 188 -70 l82 -6 18 41 19 41 18 -34
c11 -19 19 -43 19 -53 0 -27 20 -42 57 -42 l34 0 -16 -30 c-9 -18 -23 -30 -35
-30 -11 0 -20 -4 -20 -9 0 -5 -17 -15 -37 -22 -21 -6 -51 -21 -66 -32 -24 -16
-39 -19 -88 -13 -76 7 -93 17 -174 95 -59 58 -66 68 -61 94 3 16 6 45 6 63 0
19 4 34 8 34 5 0 27 -12 48 -27z"/>
<path d="M6386 3349 c-3 -17 -6 -53 -6 -79 0 -51 -9 -60 -80 -80 -52 -15 -237
6 -272 31 -33 23 -38 23 -38 4 0 -28 45 -43 166 -55 102 -11 128 -10 170 2
l49 14 0 -99 0 -100 55 -18 c61 -20 120 -24 120 -9 0 6 -10 10 -22 11 -13 0
-48 8 -78 18 l-55 19 2 113 c1 63 5 147 8 187 6 72 -7 100 -19 41z"/>
<path d="M1540 2828 c-8 -46 -14 -153 -15 -238 l0 -155 -60 -3 c-57 -3 -209
12 -240 24 -9 4 -15 0 -15 -9 0 -20 80 -32 225 -32 l110 0 1 170 c1 94 7 190
13 215 6 25 11 60 11 78 0 60 -16 32 -30 -50z"/>
<path d="M1130 2492 c0 -54 10 -72 41 -72 16 0 29 5 29 10 0 6 -8 10 -17 10
-35 0 -48 16 -36 43 10 20 9 26 -3 31 -10 4 -14 -2 -14 -22z"/>
<path d="M613 2457 c-4 -8 -32 -21 -61 -31 -52 -16 -101 -57 -102 -83 0 -7 -4
-13 -8 -13 -20 0 -32 -58 -32 -155 0 -83 3 -105 14 -105 8 0 17 -8 20 -17 4
-10 4 -15 1 -11 -5 4 -393 -269 -424 -298 -2 -2 3 -6 12 -10 19 -7 407 269
407 289 0 7 4 7 9 -2 5 -8 12 -66 16 -130 4 -64 11 -133 16 -153 11 -44 35
-53 25 -10 -3 15 -11 79 -16 142 -5 63 -12 132 -15 153 l-5 37 44 0 c26 0 46
5 49 13 3 10 9 10 26 0 25 -15 61 -17 61 -3 0 6 -6 10 -13 10 -8 0 -22 9 -32
20 -10 11 -23 20 -29 20 -7 0 -18 -9 -26 -20 -17 -24 -80 -29 -80 -6 0 8 -6
21 -14 28 -20 21 -30 119 -14 154 7 16 18 33 25 37 7 4 13 13 13 20 1 26 39
56 91 73 30 10 58 23 62 31 6 10 46 13 170 13 l162 -1 27 -28 c22 -22 53 -42
85 -56 2 -1 -4 -32 -12 -69 -8 -43 -22 -76 -35 -88 -34 -32 -148 -87 -193 -94
-23 -4 -50 -15 -60 -25 -10 -11 -29 -19 -42 -19 -14 0 -25 -4 -25 -10 0 -18
68 -11 87 9 10 10 37 21 60 25 23 3 71 21 107 40 l66 35 -1 -82 c-1 -45 -3
-74 -6 -64 -7 26 -23 21 -23 -8 0 -16 6 -25 15 -25 22 0 21 -118 -2 -164 -20
-39 -34 -44 -53 -21 -23 28 -30 15 -30 -51 l0 -67 -32 6 c-18 3 -41 8 -50 12
-25 10 -23 -17 2 -33 11 -7 20 -20 20 -30 0 -9 11 -34 25 -54 14 -20 25 -39
25 -42 0 -4 -16 -6 -35 -6 -19 0 -54 -5 -79 -12 -39 -10 -49 -9 -97 12 -30 12
-66 32 -81 44 -15 11 -54 41 -87 64 l-61 44 -103 -4 c-93 -3 -106 -6 -153 -35
-28 -17 -64 -34 -80 -37 -71 -17 -150 -104 -142 -157 2 -17 8 -12 29 27 28 52
85 99 133 110 16 3 52 20 80 37 44 27 63 32 133 35 91 4 68 15 218 -95 16 -12
55 -34 85 -49 47 -22 63 -25 110 -19 77 10 250 10 345 0 65 -7 95 -16 160 -50
66 -35 93 -43 159 -49 50 -5 89 -14 105 -25 39 -27 112 -58 151 -65 19 -3 55
-10 80 -15 25 -6 63 -10 86 -11 22 0 44 -4 50 -9 5 -6 38 -11 74 -13 l64 -3
-55 -55 c-30 -30 -67 -71 -82 -91 l-26 -37 -221 -7 c-137 -5 -220 -11 -220
-17 0 -7 76 -8 228 -4 l227 7 25 32 c14 17 43 49 65 70 l40 39 266 -1 c249 -2
299 2 299 18 0 3 -115 5 -256 3 -140 -2 -261 -1 -268 1 -8 3 -11 17 -8 36 3
24 9 31 26 31 34 0 43 12 48 67 l5 53 -68 -3 c-51 -1 -69 -6 -69 -16 0 -10 13
-12 55 -9 l55 5 0 -33 c0 -24 -5 -34 -20 -39 -26 -8 -49 5 -93 54 -42 46 -47
49 -47 22 0 -10 20 -37 45 -60 l45 -41 -49 0 -49 0 -7 51 c-4 29 -13 53 -21
56 -9 3 -14 20 -14 44 0 26 -4 39 -14 39 -19 0 -8 -91 13 -107 9 -6 12 -15 8
-20 -11 -11 -46 32 -53 66 -3 14 -12 46 -20 70 -8 25 -14 53 -14 63 0 10 -5
18 -10 18 -7 0 -8 28 -4 80 5 52 3 80 -3 80 -6 0 -14 -35 -17 -77 -17 -202
-17 -203 -47 -236 -16 -17 -29 -35 -29 -39 0 -5 -11 -14 -25 -20 -22 -10 -28
-8 -45 10 -13 13 -20 35 -20 59 0 21 -7 65 -15 98 -8 33 -14 93 -15 133 0 39
-4 72 -9 72 -10 0 -20 43 -28 118 l-5 52 69 68 c101 102 123 112 245 119 98 5
106 4 152 -21 27 -14 59 -26 71 -26 28 0 117 -77 113 -98 -2 -12 -19 -15 -90
-13 -110 3 -118 -16 -9 -20 68 -4 82 -7 104 -29 13 -14 26 -34 28 -44 2 -11
10 -21 18 -24 18 -6 5 58 -15 74 -9 8 -12 21 -8 41 5 26 0 37 -31 71 -20 23
-53 46 -73 52 -20 7 -60 23 -88 37 -48 23 -60 25 -170 22 -141 -5 -160 -13
-267 -120 l-69 -69 6 -72 c7 -102 17 -158 27 -158 5 0 9 -28 9 -62 1 -35 7
-90 15 -123 15 -62 20 -125 9 -125 -3 0 -18 9 -33 19 -19 14 -53 22 -107 27
-65 6 -92 14 -154 47 -78 42 -99 46 -297 63 -62 5 -83 10 -83 21 0 8 -11 31
-25 51 -36 53 -33 62 20 62 30 0 45 4 45 13 0 18 24 67 33 67 4 0 7 9 7 20 0
12 7 31 15 44 13 19 15 55 13 197 -3 144 0 177 12 189 8 8 21 51 29 95 8 44
19 86 24 93 9 11 6 13 -15 11 -26 -4 -84 30 -101 58 -12 19 -372 19 -384 0z
m367 -699 c0 -7 -7 -22 -15 -32 -14 -19 -15 -18 -15 12 0 22 5 32 15 32 8 0
15 -6 15 -12z m859 -305 c18 -68 39 -113 56 -119 8 -4 15 -11 15 -16 0 -12
-107 -3 -147 13 -24 9 -25 10 -8 35 9 14 25 34 36 45 11 11 19 33 19 54 0 50
15 43 29 -12z"/>
<path d="M1377 2348 c4 -45 2 -56 -16 -72 -19 -17 -36 -19 -131 -18 -124 2
-148 -12 -37 -21 96 -8 172 1 192 23 19 21 17 131 -2 137 -8 3 -10 -10 -6 -49z"/>
<path d="M1650 2330 c0 -38 24 -86 49 -100 22 -11 71 -13 95 -4 17 7 22 34 6
34 -5 0 -10 -4 -10 -10 0 -13 -46 -13 -71 0 -22 12 -49 61 -49 90 0 11 -4 20
-10 20 -5 0 -10 -14 -10 -30z"/>
<path d="M2246 2280 c17 -16 133 -28 925 -96 498 -42 914 -74 924 -70 11 4 14
10 9 15 -5 4 -418 43 -919 85 -500 42 -921 78 -934 80 -22 4 -23 3 -5 -14z"/>
<path d="M1860 2249 c0 -5 5 -7 10 -4 6 3 10 8 10 11 0 2 -4 4 -10 4 -5 0 -10
-5 -10 -11z"/>
<path d="M6097 2023 c-4 -72 -11 -111 -19 -118 -8 -5 -19 -28 -25 -50 -10 -33
-9 -49 6 -94 23 -70 46 -83 36 -20 -4 24 -12 49 -17 56 -13 16 0 74 19 88 17
13 33 245 16 245 -6 0 -13 -47 -16 -107z"/>
<path d="M6136 2063 c3 -27 10 -52 15 -57 5 -6 9 -25 9 -43 0 -18 5 -33 10
-33 6 0 10 -11 10 -25 0 -14 7 -42 15 -62 10 -22 15 -68 15 -127 0 -112 9
-166 27 -173 21 -8 28 4 12 23 -9 11 -14 55 -17 137 -2 73 -9 137 -18 160 -8
20 -14 49 -14 62 0 14 -4 25 -10 25 -5 0 -10 15 -10 34 0 19 -4 38 -10 41 -5
3 -10 17 -10 30 0 30 -10 55 -22 55 -5 0 -6 -19 -2 -47z"/>
<path d="M5365 2080 c-2 -3 0 -12 4 -18 9 -16 241 -13 241 3 0 10 -239 25
-245 15z"/>
<path d="M2190 2050 c0 -11 7 -20 16 -20 8 0 12 5 9 10 -4 6 12 10 42 10 72 0
132 -41 166 -113 25 -56 22 -60 -30 -32 -48 25 -103 33 -103 15 0 -5 7 -10 17
-10 20 0 123 -52 123 -62 0 -4 7 -8 15 -8 8 0 15 5 15 10 0 6 5 10 10 10 6 0
10 -6 10 -14 0 -8 4 -16 10 -18 5 -1 14 -28 20 -58 6 -30 15 -56 20 -58 6 -2
10 -8 10 -14 0 -5 10 -23 21 -40 18 -24 23 -51 29 -146 8 -131 14 -152 41
-152 24 0 24 13 2 36 -13 13 -19 43 -24 135 -5 97 -10 123 -28 147 -11 17 -21
35 -21 40 0 6 -4 12 -10 14 -5 2 -14 28 -20 58 -6 30 -15 57 -20 58 -6 2 -10
8 -10 14 0 6 -7 16 -16 22 -23 17 -57 97 -38 89 10 -4 12 0 8 11 -3 9 -14 16
-25 16 -10 0 -22 6 -26 14 -20 34 -77 56 -145 56 -61 0 -68 -2 -68 -20z"/>
<path d="M900 2006 c0 -8 5 -18 10 -21 15 -9 12 -55 -5 -61 -18 -7 -42 16 -51
50 -10 39 -28 32 -21 -9 5 -33 45 -85 65 -85 20 0 40 38 45 88 6 50 5 52 -18
52 -15 0 -25 -6 -25 -14z"/>
<path d="M2471 1924 c0 -11 3 -14 6 -6 3 7 2 16 -1 19 -3 4 -6 -2 -5 -13z"/>
<path d="M2100 1830 c0 -6 28 -10 65 -10 37 0 65 4 65 10 0 6 -28 10 -65 10
-37 0 -65 -4 -65 -10z"/>
<path d="M2310 1834 c0 -12 55 -64 67 -64 19 0 16 12 -12 43 -23 24 -55 37
-55 21z"/>
<path d="M3196 1791 c-32 -43 -74 -81 -91 -81 -3 0 -5 18 -5 40 0 43 -18 60
-64 60 -23 0 -25 -4 -32 -60 -4 -33 -11 -63 -15 -66 -5 -3 -9 -16 -9 -30 0
-38 -24 -104 -37 -104 -8 0 -13 -13 -13 -30 0 -16 5 -30 10 -30 6 0 10 9 10
20 0 11 6 20 13 20 13 0 37 66 37 104 0 14 4 27 9 30 4 3 11 33 15 66 7 64 11
68 41 46 16 -11 17 -22 12 -85 -6 -59 -5 -71 8 -71 9 0 15 9 15 21 0 30 48 70
77 63 15 -4 42 5 79 27 56 31 57 32 38 7 -10 -14 -31 -31 -46 -37 -16 -7 -28
-20 -28 -28 0 -11 5 -13 18 -7 9 4 43 10 75 12 36 2 57 8 57 16 0 8 -12 11
-37 8 -37 -4 -38 -4 -20 15 9 11 17 29 17 41 0 27 -27 29 -70 7 l-30 -15 10
25 c13 33 13 65 1 65 -5 0 -25 -22 -45 -49z"/>
<path d="M4223 1723 c2 -49 9 -106 15 -128 6 -22 12 -88 12 -146 0 -86 -4
-115 -20 -152 -11 -26 -25 -49 -30 -52 -6 -3 -10 -21 -10 -38 0 -18 -9 -52
-20 -76 -11 -24 -20 -49 -20 -56 0 -6 -20 -43 -45 -80 -25 -38 -47 -77 -50
-86 -4 -10 -14 -21 -25 -24 -10 -3 -21 -12 -24 -20 -3 -8 -11 -15 -18 -15 -18
-1 -42 -37 -58 -85 -6 -22 -23 -57 -36 -77 -13 -21 -24 -42 -24 -48 0 -5 -4
-10 -10 -10 -5 0 -10 -12 -10 -27 l0 -27 20 22 c11 12 20 24 20 28 0 3 9 19
21 35 11 16 28 52 38 81 11 33 26 57 39 63 11 5 26 19 33 32 7 12 20 25 30 28
10 3 20 14 24 24 3 9 25 48 50 86 25 37 45 74 45 80 0 7 9 32 20 56 11 24 20
58 20 76 0 17 4 35 10 38 5 3 19 26 30 52 17 38 20 66 20 172 0 69 -6 144 -12
166 -6 22 -13 75 -15 118 -3 42 -9 77 -14 77 -7 0 -9 -33 -6 -87z"/>
<path d="M1830 1745 c0 -8 9 -20 20 -27 11 -7 20 -16 20 -20 0 -3 14 -21 32
-38 17 -18 27 -35 22 -38 -13 -9 -44 -54 -44 -64 0 -18 28 -6 40 16 9 18 23
26 49 28 33 3 36 6 41 38 3 22 8 30 13 23 4 -7 25 -20 45 -30 44 -20 82 -53
63 -53 -8 0 -11 -6 -7 -15 3 -9 0 -15 -9 -15 -8 0 -15 -4 -15 -10 0 -6 28 -10
65 -10 61 0 65 2 71 25 6 26 14 29 52 19 21 -6 22 -11 22 -99 0 -87 -10 -167
-25 -207 -5 -13 -2 -18 8 -18 11 0 18 13 22 38 8 47 23 92 24 71 2 -35 91 -84
91 -49 0 6 -6 10 -13 10 -17 0 -54 40 -58 60 -1 8 1 23 6 33 10 24 -1 33 -20
17 -13 -11 -15 -4 -15 61 l0 73 35 -34 c19 -19 35 -40 35 -48 0 -8 8 -31 19
-51 10 -20 27 -52 36 -72 14 -27 28 -40 55 -48 68 -20 140 -12 140 15 0 16
-26 19 -35 4 -8 -13 -39 -13 -85 1 -27 8 -41 21 -55 48 -9 20 -26 52 -36 72
-11 20 -19 40 -19 43 0 3 18 3 40 0 24 -4 40 -3 40 3 0 14 -50 34 -69 28 -11
-3 -28 6 -46 25 -16 16 -35 30 -42 30 -7 0 -13 7 -13 15 0 17 -16 21 -22 5 -2
-6 -15 -4 -32 5 -39 20 -43 19 -55 -15 -5 -16 -13 -30 -16 -30 -15 0 -75 72
-75 90 0 23 -31 41 -38 22 -7 -22 -29 -13 -68 28 -22 22 -42 40 -46 40 -5 0
-8 -13 -8 -30 0 -16 5 -30 10 -30 11 0 14 -43 4 -53 -6 -5 -94 79 -94 90 0 7
-44 42 -52 43 -5 0 -8 -7 -8 -15z"/>
<path d="M3346 1634 c-3 -9 -6 -25 -6 -37 0 -11 -12 -33 -27 -49 -30 -31 -24
-49 10 -29 21 13 21 12 5 -4 -19 -20 -82 -45 -115 -45 -28 0 -73 -20 -73 -33
0 -5 12 -6 28 -3 15 4 45 11 67 16 84 19 94 23 112 42 13 15 18 37 19 89 0 66
-7 87 -20 53z"/>
<path d="M1930 1570 c0 -5 5 -10 10 -10 6 0 10 5 10 10 0 6 -4 10 -10 10 -5 0
-10 -4 -10 -10z"/>
<path d="M4571 1468 c1 -126 24 -288 40 -288 5 0 9 -6 9 -13 0 -41 133 -101
248 -112 54 -5 80 -13 100 -30 18 -14 48 -25 87 -30 63 -7 212 -75 315 -144
57 -38 121 -61 225 -81 33 -6 77 -16 99 -22 l39 -10 -6 -111 c-11 -190 -22
-253 -51 -291 -14 -19 -26 -40 -26 -46 0 -6 -11 -27 -24 -48 -13 -20 -27 -53
-31 -72 -4 -19 -16 -46 -26 -59 -11 -13 -19 -30 -19 -38 0 -7 -7 -16 -15 -19
-8 -4 -15 -12 -15 -20 0 -8 -4 -14 -10 -14 -5 0 -10 -4 -10 -10 0 -5 9 -10 20
-10 11 0 20 6 20 14 0 8 7 16 15 20 8 3 15 12 15 19 0 8 8 25 19 38 10 13 22
40 26 59 4 19 18 52 31 72 13 21 24 42 24 48 0 6 12 27 26 46 32 41 41 100 50
318 7 145 6 148 -13 142 -49 -15 -270 45 -343 95 -103 68 -251 136 -315 144
-39 5 -69 16 -87 30 -20 17 -46 25 -100 30 -115 11 -248 71 -248 112 0 7 -4
13 -9 13 -16 0 -39 161 -40 278 -1 34 -5 62 -11 62 -6 0 -10 -30 -9 -72z"/>
<path d="M2883 1473 c-13 -8 -23 -21 -23 -27 0 -7 -19 -22 -42 -35 -36 -18
-109 -66 -190 -123 -10 -7 -18 -16 -18 -20 0 -12 29 -10 43 2 24 22 143 100
185 121 23 13 42 29 42 36 0 7 9 17 20 23 11 6 20 17 20 25 0 19 -9 18 -37 -2z"/>
<path d="M6590 1388 c1 -23 24 -44 55 -52 17 -4 38 -9 48 -12 11 -3 17 0 17 9
0 9 -14 17 -37 22 -21 4 -43 15 -51 26 -15 22 -32 25 -32 7z"/>
<path d="M3005 1335 c-33 -30 -66 -55 -72 -55 -7 0 -13 -3 -13 -7 -1 -15 -85
-98 -112 -112 -15 -8 -32 -27 -37 -44 -6 -16 -19 -35 -28 -43 -22 -15 -12 -28
16 -19 11 3 25 21 31 39 6 19 22 39 38 47 27 14 111 97 112 112 0 4 6 7 13 7
18 0 127 99 127 116 0 23 -11 16 -75 -41z"/>
<path d="M0 1168 c0 -18 9 -62 21 -98 34 -107 38 -139 24 -186 -7 -24 -20 -50
-29 -59 -9 -9 -16 -28 -16 -43 1 -26 1 -26 15 -8 8 11 15 23 15 28 0 4 5 8 10
8 6 0 10 -33 10 -79 l0 -79 39 -7 c45 -7 51 -20 51 -106 l0 -56 -52 5 c-29 2
-59 9 -66 15 -16 12 -26 3 -19 -18 6 -14 34 -18 125 -19 12 0 22 -3 23 -6 0
-3 4 -105 8 -227 6 -197 11 -247 25 -232 5 5 -12 440 -22 552 -7 86 -7 87 15
87 32 0 29 18 -3 22 -25 3 -29 11 -59 115 -18 61 -35 137 -39 167 -3 31 -17
90 -31 132 -14 42 -25 85 -25 95 0 10 -4 21 -10 24 -6 4 -10 -7 -10 -27z m94
-405 c14 -50 26 -94 26 -96 0 -2 -11 -2 -25 1 -24 4 -25 7 -25 78 0 41 -4 74
-9 74 -5 0 -7 9 -4 20 3 12 7 19 8 18 1 -2 14 -44 29 -95z"/>
<path d="M1950 1071 c0 -30 187 -53 416 -51 l201 2 -4 -53 c-2 -30 -5 -67 -7
-84 -5 -44 12 -225 22 -239 5 -6 12 -23 15 -37 8 -34 48 -79 70 -79 10 0 22
-11 28 -24 6 -13 21 -27 33 -30 35 -9 116 -7 116 4 0 6 -17 10 -37 10 -57 0
-79 9 -92 36 -6 13 -18 24 -28 24 -22 0 -62 45 -70 79 -3 14 -11 32 -16 40
-13 15 -16 335 -4 347 4 4 32 9 62 12 30 2 55 9 55 14 0 7 -37 8 -102 4 -257
-15 -577 -1 -604 27 -10 10 -54 9 -54 -2z"/>
<path d="M1396 1062 c-2 -4 -8 -40 -12 -81 -4 -47 -12 -75 -20 -78 -15 -6 -19
-29 -6 -35 10 -3 -3 -719 -14 -810 -6 -48 -4 -58 8 -58 18 0 28 182 28 487 0
100 4 183 8 183 4 0 28 -21 52 -46 61 -62 90 -75 181 -81 66 -5 81 -3 106 14
15 11 45 26 66 32 20 7 37 16 37 21 0 4 11 10 24 12 22 4 24 1 30 -46 11 -91
6 -289 -9 -381 -17 -104 -19 -195 -5 -195 6 0 10 18 10 39 0 66 3 69 68 58 70
-11 357 -3 374 10 7 6 29 13 50 17 35 6 37 5 43 -26 10 -51 38 -98 57 -98 17
0 16 4 -5 38 -28 43 -39 90 -23 95 7 3 5 11 -6 24 -10 11 -18 25 -18 31 0 7
-4 12 -8 12 -13 0 -32 47 -32 78 0 15 -7 46 -15 70 -8 23 -18 94 -21 157 -4
66 -11 115 -17 115 -15 0 -1 -240 18 -292 8 -23 15 -55 15 -70 0 -31 19 -78
32 -78 4 0 8 -6 8 -14 0 -9 -16 -17 -42 -21 -24 -4 -49 -12 -57 -18 -16 -14
-315 -16 -375 -4 -35 8 -38 10 -31 35 11 47 17 385 7 446 -10 64 -6 96 12 96
19 0 96 62 96 77 0 20 -11 16 -59 -22 -66 -52 -141 -47 -141 10 0 12 -7 30
-15 41 -9 12 -14 43 -15 87 0 38 -4 67 -10 67 -5 0 -10 -20 -10 -45 0 -25 -4
-45 -8 -45 -5 0 -19 -23 -33 -51 l-24 -51 -61 5 c-35 3 -77 14 -96 24 -47 26
-122 76 -131 88 -8 10 -1 118 10 163 5 21 -10 31 -21 14z m50 -239 c79 -56
104 -65 188 -70 l82 -6 18 41 19 41 18 -34 c11 -19 19 -43 19 -53 0 -27 20
-42 57 -42 l34 0 -16 -30 c-9 -18 -23 -30 -35 -30 -11 0 -20 -4 -20 -9 0 -5
-17 -15 -37 -22 -21 -6 -51 -21 -66 -32 -24 -16 -39 -19 -88 -13 -76 7 -93 17
-174 95 -59 58 -66 68 -61 94 3 16 6 45 6 63 0 19 4 34 8 34 5 0 27 -12 48
-27z"/>
<path d="M2416 919 c-3 -17 -6 -53 -6 -79 0 -51 -9 -60 -80 -80 -52 -15 -237
6 -272 31 -33 23 -38 23 -38 4 0 -28 45 -43 166 -55 102 -11 128 -10 170 2
l49 14 0 -99 0 -100 55 -18 c61 -20 120 -24 120 -9 0 6 -10 10 -22 11 -13 0
-48 8 -78 18 l-55 19 2 113 c1 63 5 147 8 187 6 72 -7 100 -19 41z"/>
<path d="M4865 838 c-3 -40 -11 -81 -17 -93 -16 -28 -48 -155 -48 -189 0 -15
-13 -54 -29 -85 -16 -31 -37 -81 -45 -112 -9 -31 -24 -67 -35 -80 -10 -13 -21
-38 -25 -55 -7 -30 -89 -124 -109 -124 -5 0 -19 -10 -31 -23 -26 -27 -54 -41
-126 -60 l-55 -15 58 -1 c62 -1 103 15 143 56 12 13 26 23 31 23 20 0 102 94
109 124 4 17 15 42 25 55 11 13 26 49 35 80 8 31 29 81 45 112 16 31 29 70 29
85 0 34 32 160 47 189 6 11 14 49 18 85 3 36 9 73 11 83 3 10 0 17 -9 17 -11
0 -16 -19 -22 -72z"/>
</g>
</svg>
