<?xml version="1.0" encoding="UTF-8" standalone="no"?>
<!-- Created with Inkscape (http://www.inkscape.org/) -->

<svg
   width="197.81389mm"
   height="39.991444mm"
   viewBox="0 0 197.81389 39.991444"
   version="1.1"
   id="svg1"
   xmlns="http://www.w3.org/2000/svg"
   xmlns:svg="http://www.w3.org/2000/svg">
  <defs
     id="defs1" />
  <g
     id="layer1"
     transform="translate(0.60913607,-27.089729)">
    <path
       style="fill:#ffdd55;stroke-width:1.5"
       id="path1"
       d="m 13.74121,66.58003 c 0.448466,-0.148614 0.885821,-0.313497 1.352694,-0.397973 0.368034,-0.05565 0.74104,-0.05547 1.112307,-0.05635 0.425866,5.29e-4 0.851673,-0.0024 1.277551,-5.29e-4 0.40408,0.0024 0.808162,0.0039 1.212247,0.0047 0.424073,0.0339 0.858057,0.113916 1.269965,0.230021 0.535821,0.13172 1.075211,0.281043 1.623495,0.339656 0.641932,0.135448 1.29141,0.232357 1.944656,0.29152 0.44278,0.02318 0.891445,0.06785 1.330669,-0.005 0,0 -3.21284,-2.287231 -3.21284,-2.287231 v 0 c -0.425507,0.0081 -0.851325,-0.01042 -1.275143,-0.04912 -0.644104,-0.06806 -1.281886,-0.176376 -1.916946,-0.303273 -0.536726,-0.119978 -1.078591,-0.216739 -1.608646,-0.365945 -0.445168,-0.09381 -0.893769,-0.195781 -1.351647,-0.173178 -0.400671,5.29e-4 -0.801342,0.0013 -1.202014,0.0019 -0.430945,-9e-5 -0.861872,-0.008 -1.292764,-0.0016 -0.386251,0.01156 -0.773789,0.03397 -1.150665,0.126359 -0.465208,0.120359 -0.90977,0.305142 -1.379373,0.408935 z" />
    <path
       style="fill:#ffdd55;stroke-width:1.5"
       id="path2"
       d="m 44.782771,66.445404 c 0.627052,-0.0695 1.247233,-0.184607 1.874515,-0.254203 0.531209,-0.05438 1.065392,-0.06343 1.598903,-0.06585 0.441368,-1.77e-4 0.882732,-5.29e-4 1.324097,-2.6e-5 0.494964,0.0056 0.989867,-0.0026 1.484802,-0.0046 0.717632,-0.0098 1.435354,-0.0067 2.153005,-5.29e-4 0.549732,-0.0024 1.099454,0.0034 1.649171,0.0069 0.505463,0.0036 1.010944,-0.0037 1.516386,-0.0087 0.651999,-0.0013 1.304022,0.0064 1.955974,-0.0024 0.405051,-0.007 0.810165,-0.0039 1.215237,-0.0016 0,0 -3.154019,-2.291529 -3.154019,-2.291529 v 0 c -0.40645,0.0024 -0.81294,0.0054 -1.219372,-0.0016 -0.654156,-0.0085 -1.308372,-0.0013 -1.962573,-0.0024 -0.513432,-0.005 -1.026904,-0.01228 -1.540354,-0.0087 -0.543399,0.0035 -1.086802,0.0093 -1.630217,0.0069 -0.718172,0.0064 -1.436415,0.0092 -2.154568,-7.94e-4 -0.499975,-0.0021 -0.999913,-0.0108 -1.499926,-0.007 -0.44337,-7.94e-4 -0.886846,-0.005 -1.330142,0.005 -0.535273,0.01662 -1.070973,0.04371 -1.602288,0.113895 -0.637659,0.0858 -1.27201,0.196549 -1.915228,0.234929 z" />
    <path
       style="fill:#ffdd55;stroke-width:1.5"
       id="path3"
       d="m 21.696989,66.835128 c 1.10866,-0.03557 2.218165,-0.02458 3.327192,-0.0181 0.791956,0.0049 1.583906,0.01061 2.375838,0.01836 0.482566,0.0013 0.965121,0.0051 1.447684,0.0072 0.09688,0.04751 0.214289,0.03798 0.311811,0.08342 0.0823,0.03836 0.308124,0.192101 0.229355,0.146939 -1.096997,-0.628991 -2.194902,-1.2564 -3.292355,-1.884603 0,0 3.690928,1.451591 3.690928,1.451591 v 0 c -1.026361,-0.594923 -2.583989,-2.125694 -4.132854,-2.117283 -0.475901,0.0021 -0.951792,0.006 -1.427696,0.0072 -0.775076,0.0078 -1.55017,0.01347 -2.32527,0.01836 -1.125648,0.0067 -2.251707,0.01656 -3.377015,-0.0181 z" />
    <path
       style="fill:#999999;stroke-width:1.5"
       d="m 20.347356,58.543269 c -0.942722,-0.605274 -2.435735,-1.28093 -3.569712,-0.713941 -0.05321,0.02661 0.05321,0.151876 0,0.178485 -0.106428,0.05321 -0.244087,-0.03763 -0.356971,0 -0.435253,0.145084 -0.992632,0.568857 -1.427885,0.713941 -0.07446,0.02482 -1.09939,0.05695 -1.249399,0.35697 -0.141004,0.282009 0.07783,0.759614 0,1.070915 -0.382466,1.529865 -0.15592,2.264918 0.713943,3.56971 0.150098,0.225148 0.666304,0.460084 0.892428,0.535459 0.112884,0.03763 0.257965,-0.06601 0.356971,0 0.110692,0.0738 0.0595,0.297476 0.178485,0.35697 0.159643,0.07982 0.366131,-0.05644 0.535457,0 0.05644,0.01881 -0.05321,0.151879 0,0.178486 0.27134,0.13567 0.640011,0.01021 0.892428,0.178485 0.23914,0.159427 0.446337,0.446257 0.713942,0.535458 0.206449,0.06882 2.355917,0.249926 2.498798,0.178486 0.520308,-0.260155 1.68036,-1.218893 1.963341,-1.784858 0.109704,-0.219406 0.05678,-0.500957 0.178486,-0.713941 0.125234,-0.21916 0.384007,-0.333524 0.535457,-0.535456 0.07139,-0.09519 -0.066,-0.257966 0,-0.356973 0.314207,-0.471311 0.528233,-0.692269 0.713942,-1.249397 0.111607,-0.334823 -0.251739,-0.929056 -0.535457,-1.070915 -0.106428,-0.05321 -0.272832,0.08414 -0.356971,0 -0.04207,-0.04207 0.04207,-0.136416 0,-0.178485 -0.04207,-0.04207 -0.136416,0.04207 -0.178485,0 -0.04207,-0.04207 0.04207,-0.136416 0,-0.178485 -0.04207,-0.04207 -0.136416,0.04207 -0.178486,0 -0.04207,-0.04207 0.02661,-0.125272 0,-0.178485 -0.119528,-0.239057 -0.4258,-0.247317 -0.535457,-0.356974 -0.04207,-0.04207 0.033,-0.128981 0,-0.178485 -0.140015,-0.210023 -0.28304,-0.535456 -0.535456,-0.535456 -0.420695,0 -1.004876,0.520819 -1.249399,0.178486 -0.285162,-0.399225 0.302792,-0.940277 0.356971,-1.427885 0.0093,-0.08362 -0.140858,-0.10323 -0.178486,-0.178485 -0.05333,-0.10667 0.117496,-0.356971 -0.178485,-0.356971 -0.0595,0 0,0.118988 0,0.178485 0,0.178486 0,0.356971 0,0.535456 0,0.416468 0,0.832932 0,1.2494 z"
       id="path5" />
    <path
       style="fill:#333333;stroke-width:1.5"
       d="M 0.89242788,55.687499 C 1.1899038,55.865984 1.6063702,56.520431 1.7848558,56.222958 1.9633413,55.925481 0.614897,55.479351 0.89242788,55.687499 c 0.62057792,0.465434 1.41482272,0.700881 1.96334142,1.2494 0.042069,0.04207 -0.042069,0.136416 0,0.178485 0.1881402,0.18814 0.525802,0.16883 0.7139422,0.35697 0.04207,0.04207 -0.049503,0.145484 0,0.178486 0.1667528,0.11117 0.9332071,0.219265 1.0709134,0.356973 0.04207,0.04207 0,0.118988 0,0.178485 0.1784856,0.05949 0.367179,0.09434 0.5354569,0.178485 0.3317369,0.165868 0.5521568,0.543806 0.8924277,0.713941 0.3520381,0.17602 0.709972,0.354987 1.0709134,0.535459 0.3384971,0.169249 0.6048634,-0.01323 0.8924279,0.178485 0.2380065,0.158671 0.4482621,0.581102 0.7139424,0.713941 0.053214,0.02661 0.136416,-0.04207 0.1784856,0 0.04207,0.04207 -0.04207,0.136417 0,0.178486 0.2237713,0.223771 1.2838782,0.552696 1.6063702,0.713943 0.214183,0.10709 0.321274,0.428366 0.535457,0.535456 0.31795,0.158975 0.72804,0.0642 1.070913,0.178485 0.251449,0.08382 0.867507,0.713944 1.070914,0.713944 0.214512,0 -0.205288,-0.383773 -0.356972,-0.535458 -0.257433,-0.257432 -0.371785,-0.74357 -0.535456,-1.070912 -0.09519,-0.190386 0.09519,-0.523558 0,-0.713944 -0.02661,-0.05321 -0.136417,0.04207 -0.178486,0 -0.08251,-0.08251 0.05388,-0.427691 0,-0.535456 -0.200204,-0.400407 -0.255599,-0.472641 -0.535457,-0.892429 -0.170717,-0.256074 -0.06522,-1.022858 -0.178485,-1.249396 -0.202669,-0.405339 -0.317702,-1.101254 -0.535457,-1.427885 0.01782,-0.353592 -0.262901,-0.08442 -0.356971,-0.178485 -0.101517,-0.101518 -0.1182,-0.890059 -0.178486,-1.070915 -0.135629,-0.406887 -0.35191,-0.703821 -0.5354563,-1.070914 -0.053214,-0.106429 0.053214,-0.250542 0,-0.356971 C 9.5764518,53.243649 9.7544018,52.885607 9.6382212,52.653244 9.4839424,52.344687 9.3377791,52.252654 9.1027643,51.939303 9.0229432,51.832874 9.018349,51.676403 8.9242788,51.58233 c -0.04207,-0.04207 -0.1364163,0.04207 -0.1784856,0 C 8.5347954,51.371333 8.8430879,50.608714 8.5673077,50.332933 8.4638575,50.229481 7.9568153,50.079412 7.8533653,49.97596 7.7592951,49.88189 7.76895,49.713059 7.6748798,49.618989 7.5418444,49.485954 7.2959652,49.544866 7.1394229,49.440504 6.895721,49.278037 6.6934426,48.816037 6.6039663,48.726563 c -0.042069,-0.04207 -0.1364162,0.04207 -0.1784855,0 -0.04207,-0.04207 0.042069,-0.136417 0,-0.178485 C 6.2798388,48.402435 5.9753391,48.40832 5.7115384,48.012619 5.5949389,47.837719 5.4711668,47.473576 5.3545673,47.298678 5.1958964,47.060672 4.7734651,46.850416 4.6406249,46.584734 4.5084801,46.320445 4.0251882,45.987824 3.9266825,45.692308 c -0.037628,-0.112884 0.066004,-0.257966 0,-0.356973 C 3.8528879,45.224644 3.688702,45.216347 3.5697115,45.15685 3.5102162,44.978364 3.4753647,44.789672 3.3912259,44.621394 3.2883935,44.415728 3.1497177,44.080646 3.0342549,43.907453 2.8942392,43.697429 2.6116822,43.597763 2.498798,43.371994 2.2384941,42.851387 1.655266,41.814519 1.249399,41.408654 c -0.042069,-0.04207 -0.1364161,0.04207 -0.1784855,0 -0.18814037,-0.18814 -0.16883087,-0.525801 -0.35697121,-0.713944 -0.0271604,-0.02716 -0.86122518,-0.566658 -0.89242787,-0.535456 -0.40281474,0.402815 -0.35697115,3.083894 -0.35697115,3.926684 0,2.022835 0,4.045672 0,6.06851 0,0.488156 -0.16577847,2.345724 0,2.677281 0.0701818,0.140365 0.27491179,0.631884 0.35697115,0.713944 0.0420695,0.04207 0.13641613,-0.04207 0.17848558,0 0.08413891,0.08414 -0.08413891,0.272831 0,0.356971 0.04206945,0.04207 0.11899038,0 0.17848558,0 0.11899038,0.118991 0.2636274,0.216955 0.35697115,0.35697 0.27214142,0.408213 0.22219023,0.956151 0.35697115,1.427885 z"
       id="path6" />
    <path
       style="fill:#e3e2db;stroke-width:1.5"
       id="path7"
       d="m 13.558335,56.447639 c -0.139058,-0.423696 -0.346213,-0.81352 -0.578129,-1.191895 -0.194083,-0.304236 -0.224708,-0.657662 -0.282345,-1.003797 -0.129711,-0.56664 -0.08729,-1.12794 0.04889,-1.687293 0.251603,-0.68148 0.61618,-1.329177 1.06255,-1.902378 0.221437,-0.305612 0.645521,-0.59445 0.700673,-0.998773 0.0082,-0.06004 -0.0086,-0.120878 -0.01291,-0.181319 -0.179719,-0.47665 -0.453907,-0.909302 -0.706771,-1.349129 -0.345791,-0.526016 -0.676382,-1.062053 -0.996447,-1.604089 -0.221646,-0.446942 -0.480419,-0.873723 -0.712785,-1.314847 -0.195214,-0.392594 -0.236358,-0.834544 -0.307501,-1.261568 -0.109632,-0.58805 -0.101917,-1.181375 0.07208,-1.75373 0.245314,-0.567026 0.747681,-0.957834 1.194351,-1.363853 0.472337,-0.393377 0.997469,-0.715878 1.408459,-1.177157 0.353418,-0.412862 0.656347,-0.852985 0.830699,-1.369484 0.01576,-0.07267 0.03152,-0.14533 0.04728,-0.217993 0,0 -0.07049,-0.03783 -0.07049,-0.03783 v 0 c -0.01562,0.0724 -0.03124,0.144804 -0.04685,0.217207 -0.173679,0.515615 -0.476378,0.954665 -0.829087,1.366692 -0.411067,0.46077 -0.936301,0.782794 -1.408021,1.176441 -0.447751,0.407051 -0.950722,0.799065 -1.196516,1.36757 -0.174792,0.573286 -0.18344,1.167749 -0.07377,1.757 0.07111,0.427641 0.112217,0.870252 0.306416,1.263881 0.231946,0.441438 0.491607,0.86783 0.712626,1.315201 0.319761,0.542184 0.650325,1.078264 0.996485,1.604005 0.252378,0.439398 0.525237,0.871318 0.708293,1.345906 0.0048,0.05949 0.0222,0.11929 0.01442,0.178459 -0.05304,0.403291 -0.479949,0.691605 -0.699347,0.99646 -0.446888,0.574244 -0.812077,1.222799 -1.064217,1.905315 -0.136779,0.560139 -0.180175,1.122553 -0.05036,1.690169 0.05799,0.346718 0.08739,0.701307 0.281048,1.006589 0.231667,0.378007 0.439759,0.766662 0.579034,1.189918 z" />
    <path
       style="fill:#e3e2db;stroke-width:1.5"
       id="path8"
       d="m 14.220272,53.794768 c 0.367821,-0.471689 0.735834,-0.943121 1.105404,-1.413433 0.405755,-0.578567 0.834883,-1.142183 1.215618,-1.737792 0.16816,-0.36981 0.458241,-0.759648 0.476352,-1.182052 0.0035,-0.08149 -0.0157,-0.16238 -0.02355,-0.243568 -0.09688,-0.511553 -0.400396,-0.95165 -0.6925,-1.372237 -0.319992,-0.554919 -0.795149,-0.980287 -1.253976,-1.415741 -0.397843,-0.392329 -0.805794,-0.773932 -1.228745,-1.139089 -0.388853,-0.321286 -0.821388,-0.581157 -1.225402,-0.88187 -0.114823,-0.07393 -0.812153,-0.751742 -0.721595,-0.825553 0.356587,-0.290639 1.370289,0.695153 -0.249636,-0.529926 -0.222851,-0.497469 -0.292228,-1.0317 -0.327203,-1.569696 -0.0088,-0.473154 -0.04907,-0.950531 0.0019,-1.42213 0.02632,-0.403365 0.24578,-0.748009 0.377371,-1.121193 0.108689,-0.340643 0.127659,-0.698341 0.139812,-1.05293 -0.0065,-0.28184 -0.07906,-0.55099 -0.153147,-0.820606 0,0 -0.07223,-0.03439 -0.07223,-0.03439 v 0 c 0.0741,0.268949 0.14708,0.537255 0.15422,0.818439 -0.01196,0.353819 -0.0305,0.710787 -0.138665,1.050776 -0.131621,0.373812 -0.351663,0.718876 -0.378244,1.122818 -0.05178,0.471942 -0.0111,0.949796 -0.0026,1.42336 0.03469,0.538718 0.103421,1.073854 0.325987,1.572231 -0.158033,0.0011 -0.541238,-0.140255 -0.474097,0.0028 0.126826,0.270245 0.500296,0.329649 0.723273,0.52814 0.07568,0.06737 0.102452,0.175072 0.160206,0.258323 0.154503,0.222708 0.339884,0.412086 0.560232,0.569992 0.403695,0.301122 0.836255,0.56075 1.225615,0.881335 0.423079,0.364961 0.831205,0.746284 1.228889,1.13874 0.458457,0.435388 0.93505,0.85925 1.25461,1.414238 0.291991,0.419431 0.595589,0.858567 0.694219,1.368549 0.0082,0.08051 0.02781,0.160666 0.02461,0.241528 -0.01671,0.421333 -0.307707,0.810612 -0.474868,1.179393 -0.380621,0.595373 -0.809576,1.158796 -1.215224,1.737122 -0.36968,0.470487 -0.737895,0.942022 -1.105722,1.413968 z" />
    <path
       style="fill:#ffdd55;stroke-width:1.5"
       id="path1-3"
       d="m 77.867614,66.012011 c 0.448466,-0.148614 0.885821,-0.313497 1.352694,-0.397973 0.368034,-0.05565 0.74104,-0.05547 1.112307,-0.05635 0.425866,5.29e-4 0.851673,-0.0024 1.277551,-5.29e-4 0.40408,0.0024 0.808162,0.0039 1.212247,0.0047 0.424073,0.0339 0.858057,0.113916 1.269965,0.230021 0.535821,0.13172 1.075211,0.281043 1.623495,0.339656 0.641932,0.135448 1.29141,0.232357 1.944656,0.29152 0.44278,0.02318 0.891445,0.06785 1.330669,-0.005 0,0 -3.21284,-2.287231 -3.21284,-2.287231 v 0 c -0.425507,0.0081 -0.851325,-0.01042 -1.275143,-0.04912 -0.644104,-0.06806 -1.281886,-0.176376 -1.916946,-0.303273 -0.536726,-0.119978 -1.078591,-0.216739 -1.608646,-0.365945 -0.445168,-0.09381 -0.893769,-0.195781 -1.351647,-0.173178 -0.400671,5.29e-4 -0.801342,0.0013 -1.202014,0.0019 -0.430945,-9e-5 -0.861872,-0.008 -1.292764,-0.0016 -0.386251,0.01156 -0.773789,0.03397 -1.150665,0.126359 -0.465208,0.120359 -0.90977,0.305142 -1.379373,0.408935 z" />
    <path
       style="fill:#ffdd55;stroke-width:1.5"
       id="path2-5"
       d="m 108.90918,65.877385 c 0.62705,-0.0695 1.24723,-0.184607 1.87451,-0.254203 0.53121,-0.05438 1.06539,-0.06343 1.5989,-0.06585 0.44137,-1.77e-4 0.88274,-5.29e-4 1.3241,-2.6e-5 0.49496,0.0056 0.98987,-0.0026 1.4848,-0.0046 0.71763,-0.0098 1.43536,-0.0067 2.15301,-5.29e-4 0.54973,-0.0024 1.09945,0.0034 1.64917,0.0069 0.50546,0.0036 1.01094,-0.0037 1.51638,-0.0087 0.652,-0.0013 1.30403,0.0064 1.95598,-0.0024 0.40505,-0.007 0.81016,-0.0039 1.21524,-0.0016 0,0 -3.15402,-2.291529 -3.15402,-2.291529 v 0 c -0.40645,0.0024 -0.81294,0.0054 -1.21938,-0.0016 -0.65415,-0.0085 -1.30837,-0.0013 -1.96257,-0.0024 -0.51343,-0.005 -1.0269,-0.01228 -1.54035,-0.0087 -0.5434,0.0035 -1.0868,0.0093 -1.63022,0.0069 -0.71817,0.0064 -1.43641,0.0092 -2.15457,-7.94e-4 -0.49997,-0.0021 -0.99991,-0.0108 -1.49992,-0.007 -0.44337,-7.94e-4 -0.88685,-0.005 -1.33015,0.005 -0.53527,0.01662 -1.07097,0.04371 -1.60228,0.113895 -0.63766,0.0858 -1.27201,0.196549 -1.91523,0.234929 z" />
    <path
       style="fill:#ffdd55;stroke-width:1.5"
       id="path3-6"
       d="m 85.823393,66.267109 c 1.10866,-0.03557 2.218165,-0.02458 3.327192,-0.0181 0.791956,0.0049 1.583906,0.01061 2.375838,0.01836 0.482566,0.0013 0.965121,0.0051 1.447684,0.0072 0.09688,0.04751 0.214289,0.03798 0.311811,0.08342 0.0823,0.03836 0.308124,0.192101 0.229355,0.146939 -1.096997,-0.628991 -2.194902,-1.2564 -3.292355,-1.884603 0,0 3.690928,1.451591 3.690928,1.451591 v 0 c -1.026361,-0.594923 -2.583989,-2.125694 -4.132854,-2.117283 -0.475901,0.0021 -0.951792,0.006 -1.427696,0.0072 -0.775076,0.0078 -1.55017,0.01347 -2.32527,0.01836 -1.125648,0.0067 -2.251707,0.01656 -3.377015,-0.0181 z" />
    <path
       style="fill:#999999;stroke-width:1.5"
       d="m 84.47376,57.97525 c -0.942722,-0.605274 -2.435735,-1.28093 -3.569712,-0.713941 -0.05321,0.02661 0.05321,0.151876 0,0.178485 -0.106428,0.05321 -0.244087,-0.03763 -0.356971,0 -0.435253,0.145084 -0.992632,0.568857 -1.427885,0.713941 -0.07446,0.02482 -1.09939,0.05695 -1.249399,0.35697 -0.141004,0.282009 0.07783,0.759614 0,1.070915 -0.382466,1.529865 -0.15592,2.264918 0.713943,3.56971 0.150098,0.225148 0.666304,0.460084 0.892428,0.535459 0.112884,0.03763 0.257965,-0.06601 0.356971,0 0.110692,0.0738 0.0595,0.297476 0.178485,0.35697 0.159643,0.07982 0.366131,-0.05644 0.535457,0 0.05644,0.01881 -0.05321,0.151879 0,0.178486 0.27134,0.13567 0.640011,0.01021 0.892428,0.178485 0.23914,0.159427 0.446337,0.446257 0.713942,0.535458 0.206449,0.06882 2.355917,0.249926 2.498798,0.178486 0.520308,-0.260155 1.68036,-1.218893 1.963341,-1.784858 0.109704,-0.219406 0.05678,-0.500957 0.178486,-0.713941 0.125234,-0.21916 0.384007,-0.333524 0.535457,-0.535456 0.07139,-0.09519 -0.066,-0.257966 0,-0.356973 0.314207,-0.471311 0.528233,-0.692269 0.713942,-1.249397 0.111607,-0.334823 -0.251739,-0.929056 -0.535457,-1.070915 -0.106428,-0.05321 -0.272832,0.08414 -0.356971,0 -0.04207,-0.04207 0.04207,-0.136416 0,-0.178485 -0.04207,-0.04207 -0.136416,0.04207 -0.178485,0 -0.04207,-0.04207 0.04207,-0.136416 0,-0.178485 -0.04207,-0.04207 -0.136416,0.04207 -0.178486,0 -0.04207,-0.04207 0.02661,-0.125272 0,-0.178485 -0.119528,-0.239057 -0.4258,-0.247317 -0.535457,-0.356974 -0.04207,-0.04207 0.033,-0.128981 0,-0.178485 -0.140015,-0.210023 -0.28304,-0.535456 -0.535456,-0.535456 -0.420695,0 -1.004876,0.520819 -1.249399,0.178486 -0.285162,-0.399225 0.302792,-0.940277 0.356971,-1.427885 0.0093,-0.08362 -0.140858,-0.10323 -0.178486,-0.178485 -0.05333,-0.10667 0.117496,-0.356971 -0.178485,-0.356971 -0.0595,0 0,0.118988 0,0.178485 0,0.178486 0,0.356971 0,0.535456 0,0.416468 0,0.832932 0,1.2494 z"
       id="path5-2" />
    <path
       style="fill:#333333;stroke-width:1.5"
       d="m 65.018832,55.11948 c 0.297476,0.178485 0.713942,0.832932 0.892428,0.535459 0.178485,-0.297477 -1.169959,-0.743607 -0.892428,-0.535459 0.620578,0.465434 1.414823,0.700881 1.963341,1.2494 0.04207,0.04207 -0.04207,0.136416 0,0.178485 0.188141,0.18814 0.525802,0.16883 0.713943,0.35697 0.04207,0.04207 -0.0495,0.145484 0,0.178486 0.166752,0.11117 0.933207,0.219265 1.070913,0.356973 0.04207,0.04207 0,0.118988 0,0.178485 0.178486,0.05949 0.367179,0.09434 0.535457,0.178485 0.331737,0.165868 0.552157,0.543806 0.892428,0.713941 0.352038,0.17602 0.709972,0.354987 1.070913,0.535459 0.338497,0.169249 0.604863,-0.01323 0.892428,0.178485 0.238006,0.158671 0.448262,0.581102 0.713942,0.713941 0.05321,0.02661 0.136416,-0.04207 0.178486,0 0.04207,0.04207 -0.04207,0.136417 0,0.178486 0.223771,0.223771 1.283878,0.552696 1.60637,0.713943 0.214183,0.10709 0.321274,0.428366 0.535457,0.535456 0.31795,0.158975 0.72804,0.0642 1.070913,0.178485 0.251449,0.08382 0.867507,0.713944 1.070914,0.713944 0.214512,0 -0.205288,-0.383773 -0.356972,-0.535458 -0.257433,-0.257432 -0.371785,-0.74357 -0.535456,-1.070912 -0.09519,-0.190386 0.09519,-0.523558 0,-0.713944 -0.02661,-0.05321 -0.136417,0.04207 -0.178486,0 -0.08251,-0.08251 0.05388,-0.427691 0,-0.535456 -0.200204,-0.400407 -0.255599,-0.472641 -0.535457,-0.892429 -0.170717,-0.256074 -0.06522,-1.022858 -0.178485,-1.249396 -0.202669,-0.405339 -0.317702,-1.101254 -0.535457,-1.427885 0.01782,-0.353592 -0.262901,-0.08442 -0.356971,-0.178485 -0.101517,-0.101518 -0.1182,-0.890059 -0.178486,-1.070915 -0.135629,-0.406887 -0.35191,-0.703821 -0.535456,-1.070914 -0.05321,-0.106429 0.05321,-0.250542 0,-0.356971 -0.240255,-0.480509 -0.0623,-0.838551 -0.178486,-1.070914 -0.154279,-0.308557 -0.300442,-0.40059 -0.535457,-0.713941 -0.07982,-0.106429 -0.08442,-0.2629 -0.178485,-0.356973 -0.04207,-0.04207 -0.136416,0.04207 -0.178486,0 -0.210998,-0.210997 0.09729,-0.973616 -0.178485,-1.249397 -0.10345,-0.103452 -0.610493,-0.253521 -0.713943,-0.356973 -0.09407,-0.09407 -0.08441,-0.262901 -0.178485,-0.356971 -0.133036,-0.133035 -0.378915,-0.07412 -0.535457,-0.178485 -0.243702,-0.162467 -0.44598,-0.624467 -0.535457,-0.713941 -0.04207,-0.04207 -0.136416,0.04207 -0.178485,0 -0.04207,-0.04207 0.04207,-0.136417 0,-0.178485 -0.145642,-0.145643 -0.450142,-0.139758 -0.713943,-0.535459 -0.116599,-0.1749 -0.240371,-0.539043 -0.356971,-0.713941 -0.158671,-0.238006 -0.581102,-0.448262 -0.713942,-0.713944 -0.132145,-0.264289 -0.615437,-0.59691 -0.713942,-0.892426 -0.03763,-0.112884 0.066,-0.257966 0,-0.356973 -0.07379,-0.110691 -0.237981,-0.118988 -0.356971,-0.178485 -0.0595,-0.178486 -0.09435,-0.367178 -0.178486,-0.535456 -0.102832,-0.205666 -0.241508,-0.540748 -0.356971,-0.713941 -0.140016,-0.210024 -0.422573,-0.30969 -0.535457,-0.535459 -0.260304,-0.520607 -0.843532,-1.557475 -1.249399,-1.96334 -0.04207,-0.04207 -0.136416,0.04207 -0.178485,0 -0.188141,-0.18814 -0.168831,-0.525801 -0.356972,-0.713944 -0.02716,-0.02716 -0.861225,-0.566658 -0.892428,-0.535456 -0.402814,0.402815 -0.356971,3.083894 -0.356971,3.926684 0,2.022835 0,4.045672 0,6.06851 0,0.488156 -0.165778,2.345724 0,2.677281 0.07018,0.140365 0.274912,0.631884 0.356971,0.713944 0.04207,0.04207 0.136417,-0.04207 0.178486,0 0.08414,0.08414 -0.08414,0.272831 0,0.356971 0.04207,0.04207 0.11899,0 0.178486,0 0.11899,0.118991 0.263627,0.216955 0.356971,0.35697 0.272141,0.408213 0.22219,0.956151 0.356971,1.427885 z"
       id="path6-9" />
    <path
       style="fill:#e3e2db;stroke-width:1.5"
       id="path7-1"
       d="m 77.684739,55.87962 c -0.139058,-0.423696 -0.346213,-0.81352 -0.578129,-1.191895 -0.194083,-0.304236 -0.224708,-0.657662 -0.282345,-1.003797 -0.129711,-0.56664 -0.08729,-1.12794 0.04889,-1.687293 0.251603,-0.68148 0.61618,-1.329177 1.06255,-1.902378 0.221437,-0.305612 0.645521,-0.59445 0.700673,-0.998773 0.0082,-0.06004 -0.0086,-0.120878 -0.01291,-0.181319 -0.179719,-0.47665 -0.453907,-0.909302 -0.706771,-1.349129 -0.345791,-0.526016 -0.676382,-1.062053 -0.996447,-1.604089 -0.221646,-0.446942 -0.480419,-0.873723 -0.712785,-1.314847 -0.195214,-0.392594 -0.236358,-0.834544 -0.307501,-1.261568 -0.109632,-0.58805 -0.101917,-1.181375 0.07208,-1.75373 0.245314,-0.567026 0.747681,-0.957834 1.194351,-1.363853 0.472337,-0.393377 0.997469,-0.715878 1.408459,-1.177157 0.353418,-0.412862 0.656347,-0.852985 0.830699,-1.369484 0.01576,-0.07267 0.03152,-0.14533 0.04728,-0.217993 0,0 -0.07049,-0.03783 -0.07049,-0.03783 v 0 c -0.01562,0.0724 -0.03124,0.144804 -0.04685,0.217207 -0.173679,0.515615 -0.476378,0.954665 -0.829087,1.366692 -0.411067,0.46077 -0.936301,0.782794 -1.408021,1.176441 -0.447751,0.407051 -0.950722,0.799065 -1.196516,1.36757 -0.174792,0.573286 -0.18344,1.167749 -0.07377,1.757 0.07111,0.427641 0.112217,0.870252 0.306416,1.263881 0.231946,0.441438 0.491607,0.86783 0.712626,1.315201 0.319761,0.542184 0.650325,1.078264 0.996485,1.604005 0.252378,0.439398 0.525237,0.871318 0.708293,1.345906 0.0048,0.05949 0.0222,0.11929 0.01442,0.178459 -0.05304,0.403291 -0.479949,0.691605 -0.699347,0.99646 -0.446888,0.574244 -0.812077,1.222799 -1.064217,1.905315 -0.136779,0.560139 -0.180175,1.122553 -0.05036,1.690169 0.05799,0.346718 0.08739,0.701307 0.281048,1.006589 0.231667,0.378007 0.439759,0.766662 0.579034,1.189918 z" />
    <path
       style="fill:#e3e2db;stroke-width:1.5"
       id="path8-2"
       d="m 78.346676,53.226749 c 0.367821,-0.471689 0.735834,-0.943121 1.105404,-1.413433 0.405755,-0.578567 0.834883,-1.142183 1.215618,-1.737792 0.16816,-0.36981 0.458241,-0.759648 0.476352,-1.182052 0.0035,-0.08149 -0.0157,-0.16238 -0.02355,-0.243568 -0.09688,-0.511553 -0.400396,-0.95165 -0.6925,-1.372237 -0.319992,-0.554919 -0.795149,-0.980287 -1.253976,-1.415741 -0.397843,-0.392329 -0.805794,-0.773932 -1.228745,-1.139089 -0.388853,-0.321286 -0.821388,-0.581157 -1.225402,-0.88187 -0.114823,-0.07393 -0.812153,-0.751742 -0.721595,-0.825553 0.356587,-0.290639 1.370289,0.695153 -0.249636,-0.529926 -0.222851,-0.497469 -0.292228,-1.0317 -0.327203,-1.569696 -0.0088,-0.473154 -0.04907,-0.950531 0.0019,-1.42213 0.02632,-0.403365 0.24578,-0.748009 0.377371,-1.121193 0.108689,-0.340643 0.127659,-0.698341 0.139812,-1.05293 -0.0065,-0.28184 -0.07906,-0.55099 -0.153147,-0.820606 0,0 -0.07223,-0.03439 -0.07223,-0.03439 v 0 c 0.0741,0.268949 0.14708,0.537255 0.15422,0.818439 -0.01196,0.353819 -0.0305,0.710787 -0.138665,1.050776 -0.131621,0.373812 -0.351663,0.718876 -0.378244,1.122818 -0.05178,0.471942 -0.0111,0.949796 -0.0026,1.42336 0.03469,0.538718 0.103421,1.073854 0.325987,1.572231 -0.158033,0.0011 -0.541238,-0.140255 -0.474097,0.0028 0.126826,0.270245 0.500296,0.329649 0.723273,0.52814 0.07568,0.06737 0.102452,0.175072 0.160206,0.258323 0.154503,0.222708 0.339884,0.412086 0.560232,0.569992 0.403695,0.301122 0.836255,0.56075 1.225615,0.881335 0.423079,0.364961 0.831205,0.746284 1.228889,1.13874 0.458457,0.435388 0.93505,0.85925 1.25461,1.414238 0.291991,0.419431 0.595589,0.858567 0.694219,1.368549 0.0082,0.08051 0.02781,0.160666 0.02461,0.241528 -0.01671,0.421333 -0.307707,0.810612 -0.474868,1.179393 -0.380621,0.595373 -0.809576,1.158796 -1.215224,1.737122 -0.36968,0.470487 -0.737895,0.942022 -1.105722,1.413968 z" />
    <path
       style="fill:#e6e6e6;stroke-width:1.5"
       d="m 82.817307,54.081129 c 0.03454,2.7583 -0.178485,5.276757 -0.178485,8.03185 0,0.255651 -0.162711,1.443662 0,1.60637 0.08509,0.08509 1.145461,0.02598 1.249397,0 0.356582,-0.08914 0.599146,-0.388813 0.892429,-0.535455 0.106429,-0.05321 0.272833,0.08414 0.356971,0 0.04207,-0.04207 -0.04207,-0.136417 0,-0.178486 0.04281,-0.04281 3.54294,0 3.926683,0 0.475774,0 1.54703,-0.208155 1.963341,0 0.48051,0.240255 0.838552,0.0623 1.070914,0.178486 0.04647,0.02323 0.217443,0.318013 0.356971,0.178485 0.04207,-0.04207 -0.033,-0.128982 0,-0.178485 0.09334,-0.140015 0.263628,-0.216956 0.35697,-0.356971 0.166323,-0.249484 0.339368,-5.925233 0.178486,-6.246995 -0.03763,-0.07526 -0.140857,-0.10323 -0.178486,-0.178485 -0.185081,-0.370163 0.233598,-1.908231 -0.178485,-2.320314 -0.08611,-0.08611 -1.044395,0.0088 -1.070914,0 -0.203504,-0.06783 -0.336286,-0.277302 -0.535456,-0.356971 -0.559218,-0.223689 -2.119603,-0.290023 -2.677284,-0.178485 -0.601546,0.120309 -0.914165,0.278596 -1.427885,0.535456 -0.159642,0.07982 -0.362299,-0.04329 -0.535456,0 -0.308258,0.07707 -0.590298,0.256262 -0.892426,0.356971 -0.323064,0.107688 -0.749546,0.07136 -1.070914,0.178485 -0.159642,0.05322 -0.20646,0.432228 -0.356971,0.356973 -0.457766,-0.228883 -0.832935,-0.594953 -1.2494,-0.892429 z"
       id="path9" />
    <path
       style="fill:#e6e6e6;stroke-width:1.5"
       d="m 104.59255,54.259614 c -0.0595,0.297477 -0.14499,0.590918 -0.17849,0.892429 -0.0608,0.546886 0.19043,3.9028 0,4.283655 -0.20333,0.406667 -0.17848,0.754927 -0.17848,1.249397 0,0.169264 -0.10779,0.963128 0,1.070914 0.29511,0.295111 1.22675,-0.791861 1.42788,-0.892427 0.33317,-0.166587 0.91623,0.166585 1.2494,0 0.25769,-0.128849 0.45625,-0.228123 0.71394,-0.356973 0.10777,-0.05388 0.45295,0.08251 0.53546,0 0.0421,-0.04207 -0.0421,-0.136416 0,-0.178485 0.17134,-0.171344 0.84557,0.11267 1.07091,0 0.0753,-0.03763 0.0987,-0.151879 0.17849,-0.178485 0.54246,-0.180822 3.52603,0.222162 3.74819,0 0.12621,-0.126209 0,-1.051145 0,-1.2494 0,-0.417623 -0.18773,-1.409377 0,-1.784855 0.0753,-0.150511 0.26363,-0.216956 0.35698,-0.356971 0.10706,-0.160594 -0.0489,-0.518546 0,-0.713943 0.13077,-0.5231 0.41529,-3.154418 0,-3.569711 -0.11773,-0.117729 -2.5067,0.08727 -2.85577,0 -0.43907,-0.109765 -0.82755,-0.25151 -1.2494,-0.356971 -0.84412,-0.211029 -3.09494,0.32752 -3.92669,0.535456 -0.86189,0.215474 0.009,0.08482 -0.53545,0.356971 -0.0328,0.01638 -0.53546,-0.0131 -0.53546,0 0,0.420695 0.11899,0.832935 0.17849,1.249399 z"
       id="path10" />
    <path
       style="fill:#4d4d4d;stroke-width:1.5"
       d="m 92.634013,53.724158 c 1.665867,0 3.331731,0 4.997596,0 1.35822,0 2.572021,-0.206454 3.926681,-0.35697 0.74362,-0.08263 1.79679,0.234 2.4988,0 0.0798,-0.02661 0.0969,-0.158081 0.17849,-0.178485 0.21206,-0.05302 0.63618,0 0.89242,0 0.22434,0 1.45383,-0.152543 1.60637,0 0.23311,0.233111 -0.53545,1.439751 -0.53545,1.784855 0,1.061466 0.27005,3.922025 -0.17849,4.81911 -0.16658,0.333174 0.16659,0.916226 0,1.2494 -0.13015,0.260305 -0.28553,0.285527 -0.35697,0.35697 -0.0421,0.04207 0.0421,0.136417 0,0.178485 -0.0841,0.08414 -0.25796,-0.066 -0.35697,0 -0.58112,0.387414 -0.10362,0.332016 -0.71394,0.535456 -0.61939,0.206465 -2.63075,0 -3.39123,0 -0.79527,0 -2.784476,-0.20225 -3.391223,0 -1.10788,0.369295 0.593198,-0.01445 -0.892429,0.356973 -0.288595,0.07215 -0.599001,-0.0489 -0.892429,0 -0.131226,0.02188 -0.226518,0.152395 -0.356971,0.178486 -0.493271,0.09865 -1.710764,0.0348 -2.141826,0.178485 -0.31355,0.104516 -1.638625,0.681688 -1.963343,0.356971 -0.31332,-0.31332 -0.178485,-6.562844 -0.178485,-7.496395 0,-0.253442 -0.326118,-1.458738 -0.178486,-1.60637 0.04207,-0.04207 0.120767,0.01442 0.178486,0 0.4202,-0.10505 0.832934,-0.237979 1.249399,-0.356971 z"
       id="path11" />
    <path
       style="fill:#999999;stroke-width:1.5"
       d="m 81.389423,56.936899 c 0.237979,0 0.713941,0.237979 0.713941,0 0,-0.237983 -0.899774,-0.148667 -0.713941,0 1.849181,1.479343 1.319818,0.140837 1.784855,1.070914 0.197321,0.394639 0.110776,0.05539 0.356971,0.178485 0.272272,0.136136 0.447749,0.40236 0.713943,0.535456 0.190384,0.09519 0.523558,-0.09519 0.713941,0 0.190799,0.0954 0.166175,0.261572 0.356971,0.35697 0.106429,0.05322 0.272833,-0.08414 0.356973,0 0.04207,0.04207 -0.04207,0.136417 0,0.178486 0.04207,0.04207 0.136414,-0.04207 0.178485,0 0.133742,0.133741 0.178486,0.493175 0.178486,0.713943 0,0.348724 0.03885,3.530865 0,3.569711 -0.0067,0.0067 -1.545701,0.178485 -1.784856,0.178485 -0.643797,0 -1.701001,0.206439 -2.320313,0 -0.369811,-0.123269 -0.798238,-0.619752 -1.070912,-0.892426 -0.557295,-0.557294 -0.890757,-1.064228 -1.070914,-1.784855 -0.05772,-0.230876 0.05772,-0.483069 0,-0.713944 -0.139949,-0.559795 -0.178486,-1.013404 -0.178486,-1.60637 0,-0.245721 -0.414551,-1.013333 -0.178485,-1.2494 0.104219,-0.104219 0.568902,0.05439 0.713941,0 0.424252,-0.159094 0.832932,-0.35697 1.2494,-0.535455 z"
       id="path12" />
    <path
       style="fill:#ffdd55;stroke-width:1.5"
       id="path1-3-6"
       d="m 133.48949,65.69278 c 0.44846,-0.148614 0.88582,-0.313497 1.35269,-0.397973 0.36803,-0.05565 0.74104,-0.05547 1.11231,-0.05635 0.42586,5.29e-4 0.85167,-0.0024 1.27755,-5.29e-4 0.40408,0.0024 0.80816,0.0039 1.21225,0.0047 0.42407,0.0339 0.85805,0.113916 1.26996,0.230021 0.53582,0.13172 1.07521,0.281043 1.6235,0.339656 0.64193,0.135448 1.29141,0.232357 1.94465,0.29152 0.44278,0.02318 0.89145,0.06785 1.33067,-0.005 0,0 -3.21284,-2.287231 -3.21284,-2.287231 v 0 c -0.42551,0.0081 -0.85132,-0.01042 -1.27514,-0.04912 -0.64411,-0.06806 -1.28189,-0.176376 -1.91695,-0.303273 -0.53672,-0.119978 -1.07859,-0.216739 -1.60864,-0.365945 -0.44517,-0.09381 -0.89377,-0.195781 -1.35165,-0.173178 -0.40067,5.29e-4 -0.80134,0.0013 -1.20202,0.0019 -0.43094,-9e-5 -0.86187,-0.008 -1.29276,-0.0016 -0.38625,0.01156 -0.77379,0.03397 -1.15066,0.126359 -0.46521,0.120359 -0.90977,0.305142 -1.37938,0.408935 z" />
    <path
       style="fill:#ffdd55;stroke-width:1.5"
       id="path2-5-0"
       d="m 164.53105,65.558154 c 0.62705,-0.0695 1.24723,-0.184607 1.87451,-0.254203 0.53121,-0.05438 1.06539,-0.06343 1.5989,-0.06585 0.44137,-1.77e-4 0.88274,-5.29e-4 1.3241,-2.6e-5 0.49496,0.0056 0.98987,-0.0026 1.4848,-0.0046 0.71763,-0.0098 1.43536,-0.0067 2.15301,-5.29e-4 0.54973,-0.0024 1.09945,0.0034 1.64917,0.0069 0.50546,0.0036 1.01094,-0.0037 1.51638,-0.0087 0.652,-0.0013 1.30403,0.0064 1.95598,-0.0024 0.40505,-0.007 0.81016,-0.0039 1.21524,-0.0016 0,0 -3.15402,-2.291529 -3.15402,-2.291529 v 0 c -0.40645,0.0024 -0.81294,0.0054 -1.21938,-0.0016 -0.65415,-0.0085 -1.30837,-0.0013 -1.96257,-0.0024 -0.51343,-0.005 -1.0269,-0.01228 -1.54035,-0.0087 -0.5434,0.0035 -1.0868,0.0093 -1.63022,0.0069 -0.71817,0.0064 -1.43641,0.0092 -2.15457,-7.94e-4 -0.49997,-0.0021 -0.99991,-0.0108 -1.49992,-0.007 -0.44337,-7.94e-4 -0.88685,-0.005 -1.33015,0.005 -0.53527,0.01662 -1.07097,0.04371 -1.60228,0.113895 -0.63766,0.0858 -1.27201,0.196549 -1.91523,0.234929 z" />
    <path
       style="fill:#ffdd55;stroke-width:1.5"
       id="path3-6-6"
       d="m 141.44527,65.947878 c 1.10866,-0.03557 2.21816,-0.02458 3.32719,-0.0181 0.79195,0.0049 1.5839,0.01061 2.37584,0.01836 0.48256,0.0013 0.96512,0.0051 1.44768,0.0072 0.0969,0.04751 0.21429,0.03798 0.31181,0.08342 0.0823,0.03836 0.30812,0.192101 0.22936,0.146939 -1.097,-0.628991 -2.19491,-1.2564 -3.29236,-1.884603 0,0 3.69093,1.451591 3.69093,1.451591 v 0 c -1.02636,-0.594923 -2.58399,-2.125694 -4.13286,-2.117283 -0.4759,0.0021 -0.95179,0.006 -1.42769,0.0072 -0.77508,0.0078 -1.55017,0.01347 -2.32527,0.01836 -1.12565,0.0067 -2.25171,0.01656 -3.37702,-0.0181 z" />
    <path
       style="fill:#999999;stroke-width:1.5"
       d="m 140.09563,57.656019 c -0.94272,-0.605274 -2.43573,-1.28093 -3.56971,-0.713941 -0.0532,0.02661 0.0532,0.151876 0,0.178485 -0.10643,0.05321 -0.24409,-0.03763 -0.35697,0 -0.43525,0.145084 -0.99263,0.568857 -1.42789,0.713941 -0.0745,0.02482 -1.09939,0.05695 -1.24939,0.35697 -0.14101,0.282009 0.0778,0.759614 0,1.070915 -0.38247,1.529865 -0.15592,2.264918 0.71394,3.56971 0.1501,0.225148 0.6663,0.460084 0.89243,0.535459 0.11288,0.03763 0.25796,-0.06601 0.35697,0 0.11069,0.0738 0.0595,0.297476 0.17848,0.35697 0.15965,0.07982 0.36613,-0.05644 0.53546,0 0.0564,0.01881 -0.0532,0.151879 0,0.178486 0.27134,0.13567 0.64001,0.01021 0.89243,0.178485 0.23914,0.159427 0.44633,0.446257 0.71394,0.535458 0.20645,0.06882 2.35592,0.249926 2.4988,0.178486 0.52031,-0.260155 1.68036,-1.218893 1.96334,-1.784858 0.1097,-0.219406 0.0568,-0.500957 0.17848,-0.713941 0.12524,-0.21916 0.38401,-0.333524 0.53546,-0.535456 0.0714,-0.09519 -0.066,-0.257966 0,-0.356973 0.31421,-0.471311 0.52823,-0.692269 0.71394,-1.249397 0.11161,-0.334823 -0.25174,-0.929056 -0.53545,-1.070915 -0.10643,-0.05321 -0.27284,0.08414 -0.35697,0 -0.0421,-0.04207 0.0421,-0.136416 0,-0.178485 -0.0421,-0.04207 -0.13642,0.04207 -0.17849,0 -0.0421,-0.04207 0.0421,-0.136416 0,-0.178485 -0.0421,-0.04207 -0.13642,0.04207 -0.17849,0 -0.0421,-0.04207 0.0266,-0.125272 0,-0.178485 -0.11952,-0.239057 -0.4258,-0.247317 -0.53545,-0.356974 -0.0421,-0.04207 0.033,-0.128981 0,-0.178485 -0.14002,-0.210023 -0.28304,-0.535456 -0.53546,-0.535456 -0.42069,0 -1.00487,0.520819 -1.2494,0.178486 -0.28516,-0.399225 0.30279,-0.940277 0.35697,-1.427885 0.009,-0.08362 -0.14085,-0.10323 -0.17848,-0.178485 -0.0533,-0.10667 0.11749,-0.356971 -0.17849,-0.356971 -0.0595,0 0,0.118988 0,0.178485 0,0.178486 0,0.356971 0,0.535456 0,0.416468 0,0.832932 0,1.2494 z"
       id="path5-2-2" />
    <path
       style="fill:#333333;stroke-width:1.5"
       d="m 181.6752,49.094983 c -0.17849,0.29748 -0.83294,0.71395 -0.53546,0.89243 0.29747,0.17849 0.7436,-1.16996 0.53546,-0.89243 -0.46544,0.62058 -0.70089,1.41483 -1.2494,1.96335 -0.0421,0.0421 -0.13642,-0.0421 -0.17849,0 -0.18814,0.18814 -0.16883,0.5258 -0.35697,0.71394 -0.0421,0.0421 -0.14548,-0.0495 -0.17849,0 -0.11117,0.16675 -0.21926,0.93321 -0.35697,1.07091 -0.0421,0.0421 -0.11899,0 -0.17848,0 -0.0595,0.17849 -0.0943,0.36718 -0.17849,0.53546 -0.16587,0.33174 -0.5438,0.55216 -0.71394,0.89243 -0.17602,0.35203 -0.35499,0.70997 -0.53546,1.07091 -0.16925,0.3385 0.0132,0.60486 -0.17848,0.89243 -0.15867,0.238 -0.58111,0.44826 -0.71394,0.71394 -0.0266,0.0532 0.0421,0.13642 0,0.17849 -0.0421,0.0421 -0.13642,-0.0421 -0.17849,0 -0.22377,0.22377 -0.5527,1.28387 -0.71394,1.60637 -0.10709,0.21418 -0.42837,0.32127 -0.53546,0.53545 -0.15897,0.31795 -0.0642,0.72804 -0.17848,1.07092 -0.0838,0.25144 -0.71395,0.8675 -0.71395,1.07091 0,0.21451 0.38377,-0.20529 0.53546,-0.35697 0.25743,-0.25744 0.74357,-0.37179 1.07091,-0.53546 0.19039,-0.0952 0.52356,0.0952 0.71395,0 0.0532,-0.0266 -0.0421,-0.13642 0,-0.17848 0.0825,-0.0825 0.42769,0.0539 0.53545,0 0.40041,-0.20021 0.47264,-0.2556 0.89243,-0.53546 0.25607,-0.17072 1.02286,-0.0652 1.2494,-0.17849 0.40534,-0.20267 1.10125,-0.3177 1.42788,-0.53545 0.35359,0.0178 0.0844,-0.2629 0.17849,-0.35697 0.10151,-0.10152 0.89006,-0.1182 1.07091,-0.17849 0.40689,-0.13563 0.70382,-0.35191 1.07092,-0.53546 0.10642,-0.0532 0.25054,0.0532 0.35697,0 0.48051,-0.24025 0.83855,-0.0623 1.07091,-0.17848 0.30856,-0.15428 0.40059,-0.30044 0.71394,-0.53546 0.10643,-0.0798 0.2629,-0.0844 0.35697,-0.17848 0.0421,-0.0421 -0.0421,-0.13642 0,-0.17849 0.211,-0.211 0.97362,0.0973 1.2494,-0.17849 0.10345,-0.10345 0.25352,-0.61049 0.35697,-0.71394 0.0941,-0.0941 0.26291,-0.0844 0.35698,-0.17848 0.13303,-0.13304 0.0741,-0.37892 0.17848,-0.53546 0.16247,-0.2437 0.62447,-0.44598 0.71394,-0.53546 0.0421,-0.0421 -0.0421,-0.13641 0,-0.17848 0.0421,-0.0421 0.13642,0.0421 0.17849,0 0.14564,-0.14564 0.13975,-0.45014 0.53546,-0.71395 0.1749,-0.11659 0.53904,-0.24037 0.71394,-0.35697 0.238,-0.15867 0.44826,-0.5811 0.71394,-0.71394 0.26429,-0.13214 0.59691,-0.61544 0.89243,-0.71394 0.11288,-0.0376 0.25796,0.066 0.35697,0 0.11069,-0.0738 0.11899,-0.23798 0.17848,-0.35697 0.17849,-0.0595 0.36718,-0.0943 0.53546,-0.17849 0.20567,-0.10283 0.54075,-0.24151 0.71394,-0.35697 0.21003,-0.14001 0.30969,-0.42257 0.53546,-0.53546 0.52061,-0.2603 1.55748,-0.84353 1.96334,-1.24939 0.0421,-0.0421 -0.0421,-0.13642 0,-0.17849 0.18814,-0.18814 0.5258,-0.16883 0.71394,-0.35697 0.0272,-0.0272 0.56666,-0.86123 0.53546,-0.89243 -0.40281,-0.40281 -3.08389,-0.35697 -3.92668,-0.35697 -2.02284,0 -4.04568,0 -6.06851,0 -0.48816,0 -2.34573,-0.16578 -2.67728,0 -0.14037,0.0702 -0.63189,0.27491 -0.71395,0.35697 -0.0421,0.0421 0.0421,0.13642 0,0.17849 -0.0841,0.0841 -0.27283,-0.0841 -0.35697,0 -0.0421,0.0421 0,0.11899 0,0.17848 -0.11899,0.11899 -0.21695,0.26363 -0.35697,0.35697 -0.40821,0.27214 -0.95615,0.22219 -1.42788,0.35697 z"
       id="path6-9-6" />
    <path
       style="fill:#e3e2db;stroke-width:1.5"
       id="path7-1-1"
       d="m 175.78618,55.203418 c -0.13906,-0.423696 -0.34621,-0.81352 -0.57813,-1.191895 -0.19408,-0.304236 -0.22471,-0.657662 -0.28234,-1.003797 -0.12971,-0.56664 -0.0873,-1.12794 0.0489,-1.687293 0.2516,-0.68148 0.61618,-1.329177 1.06255,-1.902378 0.22143,-0.305612 0.64552,-0.59445 0.70067,-0.998773 0.008,-0.06004 -0.009,-0.120878 -0.0129,-0.181319 -0.17972,-0.47665 -0.45391,-0.909302 -0.70677,-1.349129 -0.34579,-0.526016 -0.67638,-1.062053 -0.99645,-1.604089 -0.22164,-0.446942 -0.48042,-0.873723 -0.71278,-1.314847 -0.19522,-0.392594 -0.23636,-0.834544 -0.3075,-1.261568 -0.10964,-0.58805 -0.10192,-1.181375 0.0721,-1.75373 0.24531,-0.567026 0.74768,-0.957834 1.19435,-1.363853 0.47233,-0.393377 0.99747,-0.715878 1.40846,-1.177157 0.35341,-0.412862 0.65634,-0.852985 0.8307,-1.369484 0.0158,-0.07267 0.0315,-0.14533 0.0473,-0.217993 0,0 -0.0705,-0.03783 -0.0705,-0.03783 v 0 c -0.0156,0.0724 -0.0312,0.144804 -0.0468,0.217207 -0.17368,0.515615 -0.47638,0.954665 -0.82909,1.366692 -0.41107,0.46077 -0.9363,0.782794 -1.40802,1.176441 -0.44775,0.407051 -0.95072,0.799065 -1.19652,1.36757 -0.17479,0.573286 -0.18344,1.167749 -0.0738,1.757 0.0711,0.427641 0.11222,0.870252 0.30642,1.263881 0.23194,0.441438 0.4916,0.86783 0.71262,1.315201 0.31976,0.542184 0.65033,1.078264 0.99649,1.604005 0.25238,0.439398 0.52524,0.871318 0.70829,1.345906 0.005,0.05949 0.0222,0.11929 0.0144,0.178459 -0.053,0.403291 -0.47995,0.691605 -0.69935,0.99646 -0.44688,0.574244 -0.81207,1.222799 -1.06421,1.905315 -0.13678,0.560139 -0.18018,1.122553 -0.0504,1.690169 0.058,0.346718 0.0874,0.701307 0.28105,1.006589 0.23166,0.378007 0.43975,0.766662 0.57903,1.189918 z" />
    <path
       style="fill:#e3e2db;stroke-width:1.5"
       id="path8-2-8"
       d="m 176.44812,52.550547 c 0.36782,-0.471689 0.73583,-0.943121 1.1054,-1.413433 0.40576,-0.578567 0.83489,-1.142183 1.21562,-1.737792 0.16816,-0.36981 0.45824,-0.759648 0.47635,-1.182052 0.004,-0.08149 -0.0157,-0.16238 -0.0236,-0.243568 -0.0969,-0.511553 -0.40039,-0.95165 -0.6925,-1.372237 -0.31999,-0.554919 -0.79515,-0.980287 -1.25397,-1.415741 -0.39785,-0.392329 -0.8058,-0.773932 -1.22875,-1.139089 -0.38885,-0.321286 -0.82139,-0.581157 -1.2254,-0.88187 -0.11482,-0.07393 -0.81215,-0.751742 -0.7216,-0.825553 0.35659,-0.290639 1.37029,0.695153 -0.24963,-0.529926 -0.22285,-0.497469 -0.29223,-1.0317 -0.3272,-1.569696 -0.009,-0.473154 -0.0491,-0.950531 0.002,-1.42213 0.0263,-0.403365 0.24578,-0.748009 0.37737,-1.121193 0.10869,-0.340643 0.12766,-0.698341 0.13981,-1.05293 -0.007,-0.28184 -0.0791,-0.55099 -0.15315,-0.820606 0,0 -0.0722,-0.03439 -0.0722,-0.03439 v 0 c 0.0741,0.268949 0.14708,0.537255 0.15422,0.818439 -0.012,0.353819 -0.0305,0.710787 -0.13866,1.050776 -0.13162,0.373812 -0.35167,0.718876 -0.37825,1.122818 -0.0518,0.471942 -0.0111,0.949796 -0.003,1.42336 0.0347,0.538718 0.10342,1.073854 0.32599,1.572231 -0.15803,0.0011 -0.54124,-0.140255 -0.4741,0.0028 0.12683,0.270245 0.5003,0.329649 0.72328,0.52814 0.0757,0.06737 0.10245,0.175072 0.1602,0.258323 0.1545,0.222708 0.33989,0.412086 0.56023,0.569992 0.4037,0.301122 0.83626,0.56075 1.22562,0.881335 0.42308,0.364961 0.8312,0.746284 1.22889,1.13874 0.45845,0.435388 0.93505,0.85925 1.25461,1.414238 0.29199,0.419431 0.59559,0.858567 0.69422,1.368549 0.008,0.08051 0.0278,0.160666 0.0246,0.241528 -0.0167,0.421333 -0.30771,0.810612 -0.47487,1.179393 -0.38062,0.595373 -0.80958,1.158796 -1.21523,1.737122 -0.36968,0.470487 -0.73789,0.942022 -1.10572,1.413968 z" />
    <path
       style="fill:#e6e6e6;stroke-width:1.5"
       d="m 138.43918,53.940384 c 0.0345,2.7583 -0.17849,5.276757 -0.17849,8.03185 0,0.255651 -0.16271,1.443662 0,1.60637 0.0851,0.08509 1.14547,0.02598 1.2494,0 0.35658,-0.08914 0.59915,-0.388813 0.89243,-0.535455 0.10643,-0.05321 0.27283,0.08414 0.35697,0 0.0421,-0.04207 -0.0421,-0.136417 0,-0.178486 0.0428,-0.04281 3.54294,0 3.92668,0 0.47578,0 1.54703,-0.208155 1.96335,0 0.48051,0.240255 0.83855,0.0623 1.07091,0.178486 0.0465,0.02323 0.21744,0.318013 0.35697,0.178485 0.0421,-0.04207 -0.033,-0.128982 0,-0.178485 0.0933,-0.140015 0.26363,-0.216956 0.35697,-0.356971 0.16632,-0.249484 0.33937,-5.925233 0.17849,-6.246995 -0.0376,-0.07526 -0.14086,-0.10323 -0.17849,-0.178485 -0.18508,-0.370163 0.2336,-1.908231 -0.17848,-2.320314 -0.0861,-0.08611 -1.0444,0.0088 -1.07092,0 -0.2035,-0.06783 -0.33628,-0.277302 -0.53545,-0.356971 -0.55922,-0.223689 -2.11961,-0.290023 -2.67729,-0.178485 -0.60154,0.120309 -0.91416,0.278596 -1.42788,0.535456 -0.15965,0.07982 -0.3623,-0.04329 -0.53546,0 -0.30826,0.07707 -0.5903,0.256262 -0.89243,0.356971 -0.32306,0.107688 -0.74954,0.07136 -1.07091,0.178485 -0.15964,0.05322 -0.20646,0.432228 -0.35697,0.356973 -0.45777,-0.228883 -0.83294,-0.594953 -1.2494,-0.892429 z"
       id="path9-7" />
    <path
       style="fill:#e6e6e6;stroke-width:1.5"
       d="m 160.21442,55.368267 c -0.0595,0.297477 -0.14499,0.590918 -0.17849,0.892429 -0.0608,0.546886 0.19043,3.9028 0,4.283655 -0.20333,0.406667 -0.17848,0.754927 -0.17848,1.249397 0,0.169264 -0.10779,0.963128 0,1.070914 0.29511,0.295111 1.22675,-0.791861 1.42788,-0.892427 0.33317,-0.166587 0.91623,0.166585 1.2494,0 0.25769,-0.128849 0.45625,-0.228123 0.71394,-0.356973 0.10777,-0.05388 0.45295,0.08251 0.53546,0 0.0421,-0.04207 -0.0421,-0.136416 0,-0.178485 0.17134,-0.171344 0.84557,0.11267 1.07091,0 0.0753,-0.03763 0.0987,-0.151879 0.17849,-0.178485 0.54246,-0.180822 3.52603,0.222162 3.74819,0 0.12621,-0.126209 0,-1.051145 0,-1.2494 0,-0.417623 -0.18773,-1.409377 0,-1.784855 0.0753,-0.150511 0.26363,-0.216956 0.35698,-0.356971 0.10706,-0.160594 -0.0489,-0.518546 0,-0.713943 0.13077,-0.5231 0.41529,-3.154418 0,-3.569711 -0.11773,-0.117729 -2.5067,0.08727 -2.85577,0 -0.43907,-0.109765 -0.82755,-0.25151 -1.2494,-0.356971 -0.84412,-0.211029 -3.09494,0.32752 -3.92669,0.535456 -0.86189,0.215474 0.009,0.08482 -0.53545,0.356971 -0.0328,0.01638 -0.53546,-0.0131 -0.53546,0 0,0.420695 0.11899,0.832935 0.17849,1.249399 z"
       id="path10-9" />
    <path
       style="fill:#4d4d4d;stroke-width:1.5"
       d="m 148.0774,53.940384 c 1.66586,0 3.33173,0 4.99759,0 1.35822,0 2.57202,-0.206454 3.92668,-0.35697 0.74362,-0.08263 1.79679,0.234 2.4988,0 0.0798,-0.02661 0.0969,-0.158081 0.17849,-0.178485 0.21206,-0.05302 0.63618,0 0.89242,0 0.22434,0 1.45383,-0.152543 1.60637,0 0.23311,0.233111 -0.53545,1.439751 -0.53545,1.784855 0,1.061466 0.27005,3.922025 -0.17849,4.81911 -0.16658,0.333174 0.16659,0.916226 0,1.2494 -0.13015,0.260305 -0.28553,0.285527 -0.35697,0.35697 -0.0421,0.04207 0.0421,0.136417 0,0.178485 -0.0841,0.08414 -0.25796,-0.066 -0.35697,0 -0.58112,0.387414 -0.10362,0.332016 -0.71394,0.535456 -0.61939,0.206465 -2.63075,0 -3.39123,0 -0.79527,0 -2.78447,-0.20225 -3.39122,0 -1.10788,0.369295 0.5932,-0.01445 -0.89243,0.356973 -0.28859,0.07215 -0.599,-0.0489 -0.89243,0 -0.13122,0.02188 -0.22652,0.152395 -0.35697,0.178486 -0.49327,0.09865 -1.71076,0.0348 -2.14183,0.178485 -0.31355,0.104516 -1.63862,0.681688 -1.96334,0.356971 -0.31332,-0.31332 -0.17848,-6.562844 -0.17848,-7.496395 0,-0.253442 -0.32612,-1.458738 -0.17849,-1.60637 0.0421,-0.04207 0.12077,0.01442 0.17849,0 0.4202,-0.10505 0.83293,-0.237979 1.2494,-0.356971 z"
       id="path11-2" />
    <path
       style="fill:#999999;stroke-width:1.5"
       d="m 137.0113,56.617668 c 0.23797,0 0.71394,0.237979 0.71394,0 0,-0.237983 -0.89978,-0.148667 -0.71394,0 1.84918,1.479343 1.31981,0.140837 1.78485,1.070914 0.19732,0.394639 0.11078,0.05539 0.35697,0.178485 0.27227,0.136136 0.44775,0.40236 0.71394,0.535456 0.19039,0.09519 0.52356,-0.09519 0.71395,0 0.19079,0.0954 0.16617,0.261572 0.35697,0.35697 0.10643,0.05322 0.27283,-0.08414 0.35697,0 0.0421,0.04207 -0.0421,0.136417 0,0.178486 0.0421,0.04207 0.13641,-0.04207 0.17848,0 0.13375,0.133741 0.17849,0.493175 0.17849,0.713943 0,0.348724 0.0388,3.530865 0,3.569711 -0.007,0.0067 -1.5457,0.178485 -1.78486,0.178485 -0.64379,0 -1.701,0.206439 -2.32031,0 -0.36981,-0.123269 -0.79824,-0.619752 -1.07091,-0.892426 -0.5573,-0.557294 -0.89076,-1.064228 -1.07091,-1.784855 -0.0577,-0.230876 0.0577,-0.483069 0,-0.713944 -0.13995,-0.559795 -0.17849,-1.013404 -0.17849,-1.60637 0,-0.245721 -0.41455,-1.013333 -0.17849,-1.2494 0.10422,-0.104219 0.56891,0.05439 0.71395,0 0.42425,-0.159094 0.83293,-0.35697 1.2494,-0.535455 z"
       id="path12-0" />
    <path
       style="fill:#999999;stroke-width:1.5"
       d="m 170.45372,55.865985 c -0.29747,0.178485 -1.07091,0.237982 -0.89242,0.535459 0.17848,0.297473 1.20271,-0.690603 0.89242,-0.535459 -0.54787,0.273936 -1.0585,0.618493 -1.60637,0.892429 -0.17345,0.08673 -0.54048,0.09176 -0.71394,0.178485 -0.15051,0.07526 -0.20646,0.281715 -0.35697,0.356971 -0.0532,0.02661 -0.13642,-0.04207 -0.17849,0 -0.0421,0.04207 0.0421,0.136416 0,0.178485 -0.13303,0.133035 -0.37891,0.07413 -0.53545,0.178485 -0.32223,0.214818 -0.54888,0.542169 -0.89243,0.713944 -0.10643,0.05321 -0.27283,-0.08414 -0.35697,0 -0.10851,0.108508 -0.17849,1.324065 -0.17849,1.60637 0,0.423691 -0.44385,1.611088 -0.17848,2.141826 0.15936,0.318725 1.72927,1.221608 2.14182,1.427885 0.3784,0.189201 1.35241,0 1.78486,0 0.19825,0 1.12319,0.126209 1.2494,0 0.0421,-0.04207 -0.0421,-0.136417 0,-0.178485 0.0892,-0.08924 0.44621,0.08924 0.53546,0 0.0421,-0.04207 -0.0421,-0.136417 0,-0.178486 0.11899,-0.118991 0.59495,0.118991 0.71394,0 0.0714,-0.07144 0.0967,-0.226816 0.35697,-0.35697 0.10643,-0.05322 0.27283,0.08414 0.35697,0 0.23345,-0.23345 0.36864,-0.54129 0.71394,-0.713944 0.10643,-0.05321 0.27283,0.08414 0.35697,0 0.0421,-0.04207 -0.033,-0.128982 0,-0.178485 0.0933,-0.140015 0.28172,-0.20646 0.35698,-0.356971 0.0532,-0.106428 -0.066,-0.257966 0,-0.35697 0.0738,-0.110694 0.2629,-0.08442 0.35697,-0.178486 0.0421,-0.04207 -0.0421,-0.136416 0,-0.178487 0.0421,-0.04207 0.12527,0.02661 0.17848,0 0.01,-0.005 0.69521,-0.854967 0.71394,-0.892427 0.0714,-0.142788 -0.0714,-0.392668 0,-0.535458 0.18371,-0.367419 0.60669,-1.10693 0.35698,-1.60637 -0.35947,-0.718918 -0.77406,-1.131031 -1.42789,-1.784856 -0.13772,-0.137723 -0.60891,-0.50387 -0.71394,-0.713941 -0.0266,-0.05322 0.0532,-0.151879 0,-0.178485 -0.10643,-0.05322 -0.25797,0.066 -0.35697,0 -0.2915,-0.194329 -0.20932,-0.535458 -0.71394,-0.535458 -0.53546,0 -1.07092,0 -1.60638,0 -0.0595,0 -0.16214,-0.05721 -0.17848,0 -0.11558,0.404508 -0.11899,0.832934 -0.17849,1.249399 z"
       id="path13" />
    <path
       style="fill:#999999;stroke-width:1.5"
       d="m 171.34615,54.4381 c -0.29748,0.178486 -1.07091,0.237982 -0.89243,0.535459 0.17849,0.297473 1.22154,-0.645163 0.89243,-0.535459 -1.45849,0.486164 -1.01344,0.713944 -1.96334,0.713944 -0.48526,0 -0.21107,0.02172 -0.71394,0.356971 -0.099,0.066 -0.27283,-0.08414 -0.35697,0 -0.0421,0.04207 0.0421,0.136416 0,0.178485 -0.0421,0.04207 -0.12899,-0.033 -0.17849,0 -0.14001,0.09334 -0.21696,0.263628 -0.35697,0.35697 -0.1732,0.115464 -0.50828,0.254141 -0.71394,0.356974 -0.10643,0.05321 -0.27283,-0.08414 -0.35697,0 -0.2174,0.217392 -0.0836,0.398772 -0.35697,0.535455 -0.31214,0.156065 -0.88295,0.516499 -1.07092,0.892427 -0.0714,0.14279 0.0714,0.392668 0,0.535458 -0.0376,0.07526 -0.14086,0.10323 -0.17848,0.178485 -0.0743,0.148606 0.11321,0.600726 0,0.713941 -0.0595,0.0595 -0.23799,0.118992 -0.17849,0.178486 0.1843,0.184301 1.93979,0.178488 2.32031,0.178488 0.26564,0 1.80243,0.339399 1.96334,0.178485 0.0421,-0.04207 -0.0421,-0.136417 0,-0.178485 0.19787,-0.197872 1.13395,-0.304554 1.2494,-0.535459 0.0532,-0.106428 -0.0376,-0.244086 0,-0.35697 0.16334,-0.490027 0.44496,-0.845924 0.71395,-1.2494 0.21766,-0.326498 -0.052,-1.368917 0,-1.784855 0.0522,-0.417447 0.11899,-0.832932 0.17848,-1.2494 z"
       id="path14" />
    <text
       xml:space="preserve"
       style="font-size:3.175px;text-align:start;writing-mode:lr-tb;direction:ltr;text-anchor:start;fill:#ffffff;stroke-width:1.5"
       x="16.956129"
       y="44.799877"
       id="text14"><tspan
         id="tspan14"
         style="fill:#ffffff;stroke-width:1.5"
         x="16.956129"
         y="44.799877">Soldering Iron</tspan></text>
    <text
       xml:space="preserve"
       style="font-size:3.175px;text-align:start;writing-mode:lr-tb;direction:ltr;text-anchor:start;fill:#ffffff;stroke-width:1.5"
       x="22.846155"
       y="57.829327"
       id="text15"><tspan
         id="tspan15"
         style="fill:#ffffff;stroke-width:1.5"
         x="22.846155"
         y="57.829327">Solder</tspan></text>
    <text
       xml:space="preserve"
       style="font-size:3.175px;text-align:start;writing-mode:lr-tb;direction:ltr;text-anchor:start;fill:#ffffff;stroke-width:1.5"
       x="41.051682"
       y="57.650845"
       id="text16"><tspan
         id="tspan16"
         style="fill:#ffffff;stroke-width:1.5"
         x="41.051682"
         y="57.650845">Contact Pad</tspan></text>
    <text
       xml:space="preserve"
       style="font-size:3.175px;text-align:start;writing-mode:lr-tb;direction:ltr;text-anchor:start;fill:#ffffff;stroke-width:1.5"
       x="92.8125"
       y="47.655651"
       id="text17"><tspan
         id="tspan17"
         style="fill:#ffffff;stroke-width:1.5"
         x="92.8125"
         y="47.655651">Diode</tspan></text>
    <path
       style="fill:#e3e2db;stroke-width:1.5"
       id="path17"
       d="m 6.4611207,44.847076 c -0.033428,-1.297708 0.040488,-2.590621 0.1528395,-3.882761 0.1826598,-1.914332 0.7089682,-3.764224 1.3437943,-5.57163 0.4533866,-1.271754 1.0111089,-2.506615 1.7241317,-3.653808 0.6436478,-1.017067 1.6010328,-1.691511 2.6543168,-2.229374 0.890432,-0.361016 1.795374,-0.650553 2.762307,-0.655471 1.031887,0.05232 1.83722,0.490273 2.658932,1.074475 0.973341,0.757542 1.669679,1.781003 2.266751,2.845181 0.572563,1.086681 1.096114,2.200762 1.585409,3.32735 0.340256,0.817229 0.720301,1.615808 1.044053,2.439839 0.07769,0.227251 0.304571,0.580337 0.131177,0.82803 -0.179565,0.256505 -0.639634,0.213159 -0.896941,0.222043 -0.67596,-0.06251 -1.310892,-0.291528 -1.916647,-0.585356 -0.291435,-0.158795 -0.193865,-0.206819 0.06455,-0.239075 0.336458,-0.02265 0.674126,-0.01685 1.011138,-0.01553 0.361291,0.0019 0.722585,0.0029 1.083881,0.0035 0.453843,0.03002 0.695235,-0.123571 0.993653,-0.442939 0.424408,-0.52433 0.704943,-1.142984 0.979726,-1.753806 0.230377,-0.474755 0.422027,-0.966994 0.604788,-1.461588 0,0 -0.06995,-0.03882 -0.06995,-0.03882 v 0 c -0.182651,0.494438 -0.37421,0.986523 -0.604519,1.461106 -0.274384,0.610026 -0.554422,1.22799 -0.978395,1.751534 -0.297956,0.318378 -0.537954,0.467424 -0.990017,0.437475 -0.361291,-5.29e-4 -0.722582,-0.0016 -1.08387,-0.0035 -0.337214,-0.0013 -0.675142,-0.0072 -1.011751,0.01638 -0.433021,0.05714 -0.227344,0.176254 0.0633,0.33516 0.60638,0.293524 1.242479,0.521587 1.919003,0.582253 0.263498,-0.0098 0.72001,0.03088 0.90248,-0.230891 0.17449,-0.250328 -0.0491,-0.602287 -0.129017,-0.832345 -0.323653,-0.824153 -0.703483,-1.622867 -1.043934,-2.440096 -0.489048,-1.126881 -1.012933,-2.241005 -1.585075,-3.328088 -0.596545,-1.065035 -1.292749,-2.089332 -2.265383,-2.848435 -0.845695,-0.60275 -1.735472,-1.1019 -2.798092,-1.150834 -0.963681,0.0071 -1.877406,0.296571 -2.764426,0.65854 -1.054142,0.53916 -2.01232,1.214786 -2.6565991,2.233062 -0.7132904,1.147709 -1.2713904,2.383028 -1.7249931,3.655327 -0.63515,1.807972 -1.1617483,3.658462 -1.3447437,5.5734 -0.1124847,1.292342 -0.1866529,2.585456 -0.1531575,3.883377 z" />
    <path
       style="fill:#1a1a1a;stroke-width:1.5"
       id="path18"
       d="m 28.595322,59.521547 c -0.38458,0.462272 -0.904451,0.784365 -1.414129,1.091583 -0.485351,0.220417 -0.516488,0.278474 -0.70953,-0.182239 -0.159817,-0.374547 -0.114695,-0.706096 0.156789,-1.008962 0.242888,-0.160679 0.234813,0.15063 0.262342,0.334917 0.0087,0.353185 0.05216,0.698638 0.109445,1.046795 0.03728,0.432208 0.164066,0.56588 0.545672,0.73265 0.377203,0.0623 0.755094,0.129217 1.134626,0.18034 0.259659,0.02782 0.130429,0.01569 0.387672,0.0365 0,0 -0.06434,-0.04755 -0.06434,-0.04755 v 0 c -0.257077,-0.02103 -0.127934,-0.0088 -0.387421,-0.03684 -0.379151,-0.05139 -0.757134,-0.116972 -1.133554,-0.18174 -0.306176,-0.04979 -0.383837,-0.387617 -0.410795,-0.64821 -0.05727,-0.348144 -0.101809,-0.693412 -0.109506,-1.046679 -0.03061,-0.209566 -0.111482,-0.600128 -0.402587,-0.411604 -0.27236,0.305186 -0.321361,0.639199 -0.161005,1.016905 0.208122,0.501263 0.375971,0.496652 0.849366,0.259156 0.51008,-0.307826 1.030115,-0.630475 1.415164,-1.093226 z" />
    <path
       style="fill:#1a1a1a;stroke-width:1.5"
       id="path19"
       d="m 47.798495,59.923957 c -0.03872,0.567666 0.185226,1.056947 0.496821,1.512044 0.251251,0.359079 0.288406,0.566988 -0.09357,0.82025 -0.33642,0.167608 -0.697833,0.18474 -1.063188,0.140227 -0.05375,-0.05008 -0.408181,-0.03086 -0.09193,-0.03725 0.124428,-0.0026 0.265192,-0.03704 0.38658,-0.06315 0.32326,-0.06663 0.640429,-0.153162 0.92492,-0.323572 0.361055,-0.256371 0.654952,-0.582165 0.951171,-0.907108 0.246724,-0.231301 0.125842,-0.115041 0.362789,-0.348641 0,0 -0.06818,-0.04185 -0.06818,-0.04185 v 0 c -0.236998,0.233561 -0.116044,0.117173 -0.363014,0.349004 -0.295645,0.324411 -0.589171,0.64965 -0.949923,0.905121 -0.284308,0.169116 -0.600966,0.254976 -0.923457,0.321389 -0.182215,0.03836 -0.72123,0.08118 -0.164806,0.19385 0.366676,0.04363 0.729692,0.02461 1.066406,-0.144883 0.382336,-0.256284 0.353978,-0.468342 0.09953,-0.831419 -0.311619,-0.45371 -0.537838,-0.940692 -0.498878,-1.507694 z" />
    <text
       xml:space="preserve"
       style="font-size:7.05556px;text-align:start;writing-mode:lr-tb;direction:ltr;text-anchor:start;fill:#ffffff;stroke-width:1.5"
       x="2.855768"
       y="32.127403"
       id="text19"><tspan
         id="tspan19"
         style="font-size:7.05556px;fill:#ffffff;stroke-width:1.5"
         x="2.855768"
         y="32.127403">1</tspan></text>
    <text
       xml:space="preserve"
       style="font-size:7.05556px;text-align:start;writing-mode:lr-tb;direction:ltr;text-anchor:start;fill:#ffffff;stroke-width:1.5"
       x="65.147224"
       y="32.305889"
       id="text20"><tspan
         id="tspan20"
         style="font-size:7.05556px;fill:#ffffff;stroke-width:1.5"
         x="65.147224"
         y="32.305889">2</tspan></text>
    <text
       xml:space="preserve"
       style="font-size:7.05556px;text-align:start;writing-mode:lr-tb;direction:ltr;text-anchor:start;fill:#ffffff;stroke-width:1.5"
       x="131.18692"
       y="33.019833"
       id="text21"><tspan
         id="tspan21"
         style="font-size:7.05556px;fill:#ffffff;stroke-width:1.5"
         x="131.18692"
         y="33.019833">3</tspan></text>
  </g>
</svg>
