<?xml version="1.0" standalone="no"?>
<!DOCTYPE svg PUBLIC "-//W3C//DTD SVG 20010904//EN"
 "http://www.w3.org/TR/2001/REC-SVG-20010904/DTD/svg10.dtd">
<svg version="1.0" xmlns="http://www.w3.org/2000/svg"
 width="1554.000000pt" height="1554.000000pt" viewBox="0 0 1554.000000 1554.000000"
 preserveAspectRatio="xMidYMid meet">
<metadata>
Created by potrace 1.14, written by Peter Selinger 2001-2017
</metadata>
<g transform="translate(0.000000,1554.000000) scale(0.100000,-0.100000)"
fill="#000000" stroke="none">
<path d="M7440 15374 c-494 -20 -780 -52 -1195 -135 -2377 -476 -4378 -1988
-5441 -4111 -452 -903 -702 -1815 -785 -2858 -16 -201 -16 -821 0 -1020 97
-1218 440 -2310 1044 -3330 256 -431 563 -846 924 -1247 149 -167 192 -208
201 -198 5 6 42 114 83 241 l74 231 5 -329 5 -328 42 -38 c177 -158 336 -297
343 -300 4 -1 6 8 3 20 -20 117 -192 1332 -189 1335 3 3 972 -699 2155 -1559
2133 -1550 2151 -1563 2208 -1571 32 -4 100 -6 150 -5 l93 3 -2256 1640 -2255
1640 193 32 c106 18 928 159 1827 314 899 154 1637 277 1641 272 4 -4 287
-872 629 -1928 343 -1056 629 -1935 637 -1954 l14 -34 158 8 c86 4 213 7 282
6 l126 -1 898 2767 c494 1523 902 2772 906 2776 4 4 213 -385 465 -865 252
-480 477 -908 499 -950 22 -42 38 -79 36 -81 -3 -2 -43 -29 -89 -60 -84 -56
-107 -64 -80 -30 13 17 13 17 -11 2 -14 -9 -26 -24 -28 -33 -7 -32 39 -16 129
45 50 33 92 59 94 57 20 -19 715 -1362 709 -1368 -5 -4 -695 -506 -1534 -1115
-839 -609 -1531 -1113 -1539 -1120 -37 -35 409 26 764 105 1076 239 2075 674
2912 1266 73 52 136 94 140 94 9 0 59 39 175 136 40 34 105 84 143 113 85 63
272 238 545 510 113 113 208 205 212 205 10 1 205 222 259 292 l39 51 0 647
c0 525 2 647 13 643 78 -30 324 -132 329 -136 4 -4 17 -137 29 -296 11 -160
24 -298 28 -308 5 -15 21 2 75 84 l69 103 -7 121 c-4 66 -9 145 -11 175 -5 53
-3 50 37 -62 24 -65 46 -118 50 -118 4 0 14 12 21 28 14 25 6 50 -129 427
-405 1135 -497 1395 -493 1399 2 2 376 249 831 550 455 301 829 555 832 564 2
9 7 47 11 85 l7 67 -1739 0 -1738 0 190 125 190 125 -50 0 c-48 0 -60 -6 -253
-135 -111 -74 -202 -141 -202 -148 0 -6 205 -147 455 -312 250 -165 454 -303
455 -306 0 -9 -180 -234 -188 -234 -4 0 -418 122 -920 270 l-914 270 -206 243
c-114 134 -208 247 -210 251 -1 4 66 29 150 54 l153 46 -1833 0 c-1741 1
-1833 2 -1828 19 3 9 345 1520 761 3357 416 1837 758 3348 761 3358 5 16 55
17 861 17 l856 0 -6 -32 c-3 -18 -289 -1287 -636 -2820 -347 -1533 -631 -2792
-631 -2798 0 -7 527 -10 1650 -10 908 0 1650 3 1650 6 0 3 -302 384 -671 846
-368 462 -669 841 -667 843 2 1 230 -148 508 -332 501 -331 999 -661 1842
-1218 l437 -289 -133 -90 c-73 -50 -270 -181 -438 -291 -288 -189 -306 -202
-311 -234 -4 -19 -5 -36 -4 -37 1 -2 203 130 447 292 245 163 457 302 471 309
30 16 -97 97 1117 -708 338 -224 618 -407 623 -407 5 0 9 13 9 29 0 31 58 -8
-1266 867 -227 150 -414 276 -417 281 -3 4 71 222 164 483 93 261 180 507 194
545 189 535 301 845 305 845 5 0 195 -527 389 -1075 21 -60 64 -182 96 -270
31 -88 166 -465 298 -837 133 -373 245 -674 250 -669 15 15 21 820 8 1026 -12
190 -37 465 -43 470 -2 2 -92 -24 -202 -56 -109 -33 -200 -58 -201 -57 -10 13
-106 300 -102 304 3 4 112 9 241 12 l236 5 0 23 0 24 -235 2 -235 3 185 233
c117 146 185 240 185 255 -1 61 -19 44 -215 -203 -110 -137 -202 -246 -206
-242 -6 7 -365 1011 -376 1051 -4 16 97 -46 378 -232 211 -140 385 -253 387
-252 2 2 0 18 -3 36 -7 37 -1 33 -578 413 -220 144 -260 167 -272 155 -7 -8
-88 -225 -180 -484 -92 -258 -170 -475 -174 -481 -4 -8 -54 3 -158 34 l-153
45 0 1386 c1 1311 2 1385 18 1365 9 -11 280 -350 601 -752 321 -403 586 -731
588 -728 6 6 -178 417 -265 591 -368 737 -855 1409 -1447 2000 -1033 1029
-2329 1742 -3771 2074 -429 98 -747 146 -1129 171 -165 11 -805 20 -955 14z
m-220 -1440 c0 -33 -951 -4882 -980 -4995 -126 -498 -397 -938 -770 -1251
-488 -410 -1089 -642 -1875 -724 -213 -23 -812 -26 -1005 -6 -672 70 -1159
262 -1502 590 -230 221 -363 459 -428 767 -41 195 -36 535 11 754 l11 51 758
0 758 0 -8 -37 c-22 -99 -31 -245 -20 -339 43 -387 308 -625 775 -697 390 -60
800 -5 1106 149 346 173 583 450 683 795 9 30 230 1148 491 2484 261 1337 477
2440 480 2453 l5 22 755 0 c691 0 755 -1 755 -16z m5093 -4298 c733 -217 1429
-422 1547 -457 118 -34 218 -65 222 -68 4 -3 -58 -188 -138 -411 -80 -223
-155 -431 -166 -462 -16 -48 -22 -56 -36 -49 -10 6 -244 160 -522 345 -278
184 -898 594 -1377 912 -480 317 -873 579 -873 581 0 1 3 3 6 3 3 0 605 -177
1337 -394z m-5822 -2941 c557 -135 1014 -247 1016 -248 1 -2 -386 -97 -860
-211 l-862 -208 -815 -335 c-448 -184 -826 -339 -838 -344 -22 -8 -21 -5 10
31 277 330 1325 1559 1330 1559 3 1 462 -109 1019 -244z m3662 165 c-8 -30
-18 -58 -22 -63 -4 -4 -56 7 -117 25 l-109 32 130 32 c72 17 131 30 132 30 1
-1 -5 -26 -14 -56z m3075 -34 c-24 -30 -119 -151 -213 -270 -93 -118 -175
-213 -182 -211 -13 4 -782 511 -797 526 -6 5 238 9 613 9 l623 0 -44 -54z
m512 -163 l0 -216 -161 204 c-89 112 -166 210 -172 217 -7 9 26 12 162 12
l171 0 0 -217z m-206 -402 c97 -272 175 -495 174 -497 -5 -4 -810 533 -810
540 0 4 96 129 213 277 l214 269 16 -48 c9 -26 96 -269 193 -541z m65 277
l141 -178 -2 -240 -3 -240 -149 417 c-82 230 -151 425 -154 433 -4 13 -3 13
10 0 8 -8 79 -95 157 -192z m-5060 -340 l675 -163 -672 -3 c-370 -1 -974 -1
-1343 0 l-671 3 664 161 c365 89 665 163 668 163 3 1 308 -71 679 -161z m4829
-280 c325 -217 351 -236 335 -250 -23 -19 -1081 -718 -1098 -724 -9 -4 -590
228 -603 241 -2 2 188 244 423 538 l426 536 82 -53 c45 -29 241 -159 435 -288z
m-3969 -62 c-4 -3 -6164 -2008 -6383 -2076 -49 -16 -84 -24 -79 -19 5 5 655
479 1443 1053 l1435 1044 1794 1 c987 1 1792 -1 1790 -3z m-4269 -290 c-8 -7
-485 -354 -1060 -771 -575 -417 -1060 -770 -1079 -784 -19 -14 169 214 418
506 249 293 458 536 464 540 17 11 1250 521 1262 522 5 1 3 -5 -5 -13z m8819
-473 l50 -143 -99 0 -100 0 1 278 0 277 49 -135 c26 -74 71 -199 99 -277z
m-1531 -260 c9 -4 -4 -17 -34 -36 l-47 -31 -34 39 c-18 22 -47 57 -64 77 l-30
37 98 -40 c54 -22 104 -43 111 -46z m1633 -27 c16 -44 29 -85 29 -90 0 -6 -63
-29 -140 -52 l-140 -41 0 134 0 134 111 -3 111 -3 29 -79z m-2333 -256 c73
-52 132 -98 132 -101 0 -9 -456 -311 -473 -312 -15 -2 -110 119 -105 133 8 21
300 381 307 378 5 -2 67 -46 139 -98z m2462 -95 c37 -104 67 -191 65 -193 -1
-1 -96 37 -211 84 -115 47 -215 88 -222 91 -9 4 -12 24 -10 67 l3 61 140 42
c77 23 146 41 154 40 8 -1 41 -80 81 -192z"/>
<path d="M15318 6129 c-42 -118 -212 -594 -377 -1058 -166 -464 -299 -846
-296 -849 9 -9 187 367 235 498 27 74 53 134 58 133 15 -4 53 95 38 99 -9 2 5
51 43 158 44 121 60 155 72 152 12 -2 19 8 26 35 6 21 38 126 71 233 33 107
79 258 101 335 46 155 114 451 109 467 -2 6 -38 -85 -80 -203z"/>
</g>
</svg>
