<?xml version="1.0" encoding="UTF-8" standalone="no"?>
<!-- Created with Inkscape (http://www.inkscape.org/) -->

<svg
   width="194.27625mm"
   height="98.050957mm"
   viewBox="0 0 194.27625 98.050957"
   version="1.1"
   id="svg1"
   xmlns="http://www.w3.org/2000/svg"
   xmlns:svg="http://www.w3.org/2000/svg">
  <defs
     id="defs1">
    <rect
       x="589.37909"
       y="9.6270561"
       width="460.45096"
       height="508.13083"
       id="rect61" />
    <rect
       x="363.24042"
       y="361.09561"
       width="516.3045"
       height="151.21317"
       id="rect60" />
    <rect
       x="96.233307"
       y="68.205147"
       width="137.59039"
       height="83.099152"
       id="rect59" />
  </defs>
  <g
     id="layer1"
     transform="translate(-7.7066018,-6.371938)">
    <path
       style="fill:#cccccc;fill-opacity:1;stroke-width:0.264583"
       id="path1"
       d="m 17.287485,46.635455 c -1.783423,0.717087 -2.730745,2.578627 -3.295228,4.316209 -0.06309,0.632039 -0.315695,1.370258 -0.173385,2.015791 0.24038,1.090388 0.956286,2.037517 1.557899,2.945689 0.80824,0.977312 1.712601,1.893112 2.82838,2.519889 2.579951,1.449265 3.536553,2.287793 5.961867,2.641309 1.281992,0.07762 2.653876,0.193635 3.848488,-0.381527 0.271164,-0.130553 0.517322,-0.307692 0.775981,-0.461539 1.906916,-1.858584 2.49247,-4.267914 2.890607,-6.803221 0.276051,-1.775566 0.271338,-3.577883 0.248333,-5.369808 -0.07553,-0.783103 0.128802,-1.676789 -0.2311,-2.414186 -0.07547,-0.154635 -0.193138,-0.284832 -0.289706,-0.427249 -1.674265,-1.265745 -0.780457,-0.625282 -4.484669,-2.659872 -0.337502,-0.185378 -0.879215,-0.345234 -1.256917,-0.409792 -0.452359,-0.07732 -0.983474,-0.0875 -1.440913,-0.108191 -0.830873,0.04938 -1.703664,-0.08619 -2.51625,0.149024 -0.387385,0.112136 -0.672631,0.292304 -1.024386,0.483045 -0.961032,0.619789 -1.790382,1.427982 -2.493942,2.324856 -0.525818,0.853332 -1.036088,1.714942 -1.528756,2.587864 -0.05645,0.161425 -0.112893,0.322849 -0.169339,0.484274 0,0 3.446149,1.895732 3.446149,1.895732 v 0 c 0.04195,-0.138676 0.08389,-0.277355 0.125843,-0.416031 0.497535,-0.847174 0.974994,-1.704641 1.490409,-2.541296 0.686098,-0.841867 1.465605,-1.627249 2.406648,-2.183083 0.364296,-0.173709 0.563533,-0.295963 0.956079,-0.382259 0.798857,-0.175622 1.641076,-0.07018 2.449499,-0.08962 0.692878,0.05459 1.348674,0.120933 2.002095,0.377664 0.202681,0.07963 0.77811,0.388718 0.593174,0.27374 -1.980342,-1.231185 -3.84451,-2.172512 -2.17597,-1.31808 0.112919,0.101272 0.246301,0.183571 0.338756,0.303814 0.48649,0.632708 0.196141,1.57825 0.311875,2.302552 0.07339,1.783376 0.105828,3.574576 -0.137337,5.348158 -0.374361,2.422755 -0.832929,4.767804 -2.759702,6.477291 -0.247449,0.131953 -0.483531,0.28789 -0.742347,0.395859 -1.169482,0.487859 -2.505286,0.324852 -3.730119,0.230677 -2.06051,-0.402403 -2.74698,-1.194922 0.713351,1.079886 0.321014,0.211031 -0.67699,-0.367467 -0.989477,-0.590934 -0.863228,-0.61731 -1.180488,-1.022294 -1.911563,-1.78757 -0.563607,-0.82088 -1.283897,-1.72883 -1.56167,-2.709415 -0.170702,-0.60261 0.0357,-1.320459 0.0765,-1.918999 0.48444,-1.678652 1.372148,-3.413247 3.14949,-3.969692 z" />
    <path
       style="fill:#cccccc;fill-opacity:1;stroke-width:0.264583"
       id="path2"
       d="m 21.605121,59.836851 c 0.378504,2.891883 0.394662,5.820476 0.373269,8.732888 -0.008,0.681484 -0.03213,1.362564 -0.05772,2.043549 0,0 3.502777,1.790059 3.502777,1.790059 v 0 c -0.0089,-0.70028 -0.02178,-1.40049 -0.03802,-2.100643 -0.06145,-2.910814 -0.103333,-5.823495 -0.253163,-8.731279 z" />
    <path
       style="fill:#cccccc;fill-opacity:1;stroke-width:0.264583"
       id="path3"
       d="m 26.440897,48.128091 c 1.801765,0.169913 3.675047,-0.04005 5.42812,-0.486076 1.102828,-0.396822 1.730407,-1.333887 2.131634,-2.387942 0,0 -3.441213,-1.906693 -3.441213,-1.906693 v 0 c -0.327215,0.959281 -0.901814,1.759519 -1.902542,2.078633 -1.744234,0.424564 -3.580645,0.638537 -5.362802,0.346853 z" />
    <path
       style="fill:#cccccc;fill-opacity:1;stroke-width:0.264583"
       id="path4"
       d="m 24.773735,48.477796 c 1.865859,0.07959 3.917795,0.433547 5.7255,-0.238151 0.264924,-0.09844 0.497231,-0.268814 0.74585,-0.403222 0.740881,-0.595342 1.087334,-1.487562 1.585634,-2.268297 0,0 -3.397199,-1.980303 -3.397199,-1.980303 v 0 c -0.456438,0.72377 -0.766273,1.559377 -1.439373,2.1175 -0.224137,0.112091 -0.435467,0.254672 -0.672412,0.336272 -1.814923,0.625033 -3.832078,0.256551 -5.686519,0.102439 z" />
    <path
       style="fill:#cccccc;fill-opacity:1;stroke-width:0.264583"
       id="path5"
       d="m 23.639848,46.591637 c 1.684345,-0.02994 3.365807,-0.01788 5.048097,-0.110238 0,0 -3.094171,-2.223664 -3.094171,-2.223664 v 0 c -1.708479,0.08317 -3.416418,0.07453 -5.126457,0.02892 z" />
    <path
       style="fill:#cccccc;fill-opacity:1;stroke-width:0.264583"
       id="path6"
       d="m 18.729233,62.494678 c -1.443604,0.691451 -2.938078,1.239171 -4.455072,1.739966 -1.220815,0.285885 -2.410583,0.694465 -3.559396,1.202375 -1.167724,0.493464 -2.126469,1.28774 -3.0081633,2.178309 0,0 3.3487943,2.050053 3.3487943,2.050053 v 0 c 0.848751,-0.855676 1.773436,-1.611323 2.906085,-2.065801 1.15029,-0.483473 2.34533,-0.832998 3.543741,-1.173723 1.516657,-0.517882 2.984311,-1.153274 4.482655,-1.72022 z" />
    <path
       style="fill:#cccccc;fill-opacity:1;stroke-width:0.264583"
       id="path7"
       d="m 21.755217,66.510373 c 1.976574,0.148378 3.911534,0.601567 5.868717,0.892543 0.71565,0.07174 1.450319,0.18425 2.172708,0.142443 0.57641,-0.03336 1.160356,-0.186761 1.726186,-0.29551 0.696,0.0159 1.446422,-0.589317 2.114606,-0.565957 0.128339,0.0045 0.2502,0.05801 0.375298,0.08701 0.141804,0.06635 0.561216,0.276932 0.425408,0.199046 -0.939448,-0.538763 -1.874623,-1.086741 -2.837524,-1.582369 -0.202811,-0.104394 0.3698,0.267234 0.55119,0.405534 0.505918,0.385731 0.710883,0.595887 1.272993,0.930294 1.348293,0.802116 2.714291,1.574083 4.071437,2.361123 0.935929,0.431112 0.485524,0.218255 1.352021,0.636876 0,0 -3.051548,-2.43301 -3.051548,-2.43301 v 0 c -0.850612,-0.406107 -0.41244,-0.19222 -1.313717,-0.643295 0.853003,0.496845 1.699604,1.004845 2.559008,1.490535 0.23763,0.134295 -0.469967,-0.278844 -0.693116,-0.436033 -0.199657,-0.140645 -0.384085,-0.301792 -0.573376,-0.456107 -1.46517,-1.194456 -3.059102,-2.418088 -4.930039,-2.819781 -0.886074,0.01955 -1.670207,0.458028 -2.545189,0.578326 -1.257379,0.248745 -2.502745,0.312796 -3.774545,0.0784 -1.973568,-0.300805 -3.932189,-0.699487 -5.917321,-0.925293 z" />
    <path
       style="fill:#cccccc;fill-opacity:1;stroke-width:0.264583"
       id="path8"
       d="m 22.686431,69.20821 c 0.201776,1.773346 0.476699,3.539612 0.643908,5.317106 0.08462,0.917345 0.04115,1.83759 0.02928,2.756498 -0.01119,0.672881 -0.01644,1.345827 -0.01872,2.018789 0,0 3.516447,1.791965 3.516447,1.791965 v 0 c -0.0016,-0.671155 -0.0033,-1.3424 0.01185,-2.013437 0.02657,-0.940461 0.03784,-1.882431 -0.05515,-2.820289 -0.171622,-1.7761 -0.518379,-3.530557 -0.600492,-5.316058 z" />
    <path
       style="fill:#cccccc;fill-opacity:1;stroke-width:0.264583"
       id="path9"
       d="m 23.473241,77.948993 c 0.417788,1.987798 0.804691,4.068646 0.539682,6.099794 -0.368277,1.400169 -1.5269,2.304095 -2.484755,3.310792 -0.520561,0.575683 -0.88196,1.265907 -1.300305,1.914043 0,0 3.393174,1.979332 3.393174,1.979332 v 0 c 0.398825,-0.631139 0.73553,-1.308184 1.246594,-1.860026 1.00561,-1.072544 2.195841,-2.051259 2.574894,-3.535735 0.04502,-0.298829 0.121835,-0.594572 0.135051,-0.896483 0.01363,-0.311073 -0.03349,-0.621866 -0.05499,-0.932495 -0.10168,-1.468892 -0.256326,-2.935898 -0.514917,-4.386079 z" />
    <path
       style="fill:#cccccc;fill-opacity:1;stroke-width:0.264583"
       id="path10"
       d="m 23.579759,74.985403 c 1.422384,2.278433 2.240079,4.864748 3.018808,7.416567 0.351571,1.055526 0.456565,2.162738 0.72458,3.237934 0.273103,1.020077 0.775081,1.928106 1.33132,2.814878 0.498007,0.697333 0.524436,1.543897 0.666166,2.359319 0.04376,0.177299 0.08751,0.354597 0.13127,0.531897 0,0 3.543086,1.688777 3.543086,1.688777 v 0 c -0.04893,-0.164883 -0.09786,-0.329766 -0.146797,-0.494652 -0.04794,-0.313616 -0.123354,-0.623006 -0.161808,-0.937927 C 32.618471,91.046 32.61025,90.514624 32.259812,90.036244 31.684454,89.190691 31.16426,88.322257 30.86305,87.336327 30.590717,86.235782 30.461727,85.104474 30.06513,84.035812 29.226383,81.501524 28.435744,78.926676 27.179484,76.560404 Z" />
    <path
       style="fill:#cccccc;fill-opacity:1;stroke-width:0.264583"
       id="path11"
       d="m 22.799646,92.254019 c 0.169763,-0.177824 0.339526,-0.355651 0.509289,-0.533477 0,0 -3.321375,-2.035342 -3.321375,-2.035342 v 0 c -0.179761,0.171699 -0.359522,0.343398 -0.539283,0.515096 z" />
    <path
       style="fill:#cccccc;fill-opacity:1;stroke-width:0.264583"
       id="path12"
       d="m 89.55783,35.895862 c -0.366699,1.633318 -0.518525,3.320515 -0.01217,4.948846 0.379251,1.219615 0.897959,1.98534 1.526302,3.082573 0.331827,0.462806 0.623808,0.956963 0.995487,1.388419 0.341267,0.396156 0.697711,0.795682 1.134118,1.083699 2.29294,1.513295 3.492031,2.563294 5.838602,2.938148 1.249571,0.199615 1.660591,0.106526 2.907441,0.03038 1.39023,-0.315209 3.10427,-0.805937 3.83287,-2.187149 0.38793,-0.735405 0.40956,-1.420411 0.52306,-2.224773 -0.008,-2.673011 0.10005,-5.450742 -0.37725,-8.089575 -0.0812,-0.249293 -0.13643,-0.508571 -0.24352,-0.747881 -0.75245,-1.681517 -3.51375,-2.668731 -4.6639,-3.171725 -0.14039,-0.0614 -1.307696,0.305821 -1.425097,0.340178 -1.836052,0.445756 -3.701346,0.754422 -5.520624,1.277657 -1.480905,0.628912 -2.659541,1.730705 -3.289316,3.213626 -0.179178,0.751269 -0.119001,0.370359 -0.179948,1.142823 0,0 3.483745,1.800934 3.483745,1.800934 v 0 c 0.02574,-0.698849 -0.01222,-0.35446 0.111924,-1.033386 0.540078,-1.390518 1.687883,-2.407576 3.076638,-2.930969 1.822646,-0.522232 3.685088,-0.83538 5.529668,-1.259057 0.22348,-0.04993 0.44263,-0.126685 0.67045,-0.149778 0.2079,-0.02106 0.79138,0.146841 0.62662,0.01831 -0.87363,-0.681551 -1.88201,-1.170236 -2.83271,-1.739366 -0.16401,-0.09818 0.33352,0.193967 0.47174,0.325991 0.4594,0.438817 0.4623,0.638268 0.70199,1.22945 0.63939,2.597623 0.46862,5.329923 0.46445,7.984389 -0.0944,0.716444 -0.10951,1.372772 -0.45386,2.028005 -0.67784,1.289831 -2.29634,1.699739 -3.590967,1.953657 -1.197705,0.03895 -1.645176,0.124791 -2.836981,-0.127495 -0.455618,-0.09645 -1.633101,-0.770374 -1.334776,-0.412758 0.50174,0.601462 1.246635,1.037061 2.00822,1.220049 1.047982,0.251802 -3.74495,-2.382535 -2.193838,-2.37532 -0.602282,-1.005554 -1.176055,-1.837756 -1.55335,-2.959227 -0.521163,-1.549106 -0.39083,-3.156596 0.05436,-4.698952 z" />
    <path
       style="fill:#cccccc;fill-opacity:1;stroke-width:0.264583"
       id="path13"
       d="m 110.80517,34.09846 c -1.80834,0.931579 -4.07376,1.790663 -5.05127,3.727058 -0.15911,0.315185 -0.23188,0.666978 -0.34781,1.000466 -0.0459,0.375709 -0.20365,0.754431 -0.13762,1.127125 0.31048,1.752368 1.92328,3.529344 3.36151,4.438248 4.65476,2.941624 3.63051,2.463012 7.30188,3.487727 2.00467,0.259424 4.25596,0.343236 6.03337,-0.851728 1.13687,-0.764328 2.26136,-2.256851 2.91055,-3.437618 0.3374,-0.613671 0.55015,-1.288041 0.82523,-1.932061 0.55261,-2.037038 1.24654,-4.232733 -0.20384,-6.085414 -1.19527,-1.526805 -4.89352,-3.043931 -5.71461,-3.486618 -0.53164,-0.09287 -1.05866,-0.217961 -1.59495,-0.278614 -1.08463,-0.122672 -2.30396,-0.09678 -3.39013,-0.06447 -0.15853,0.0047 -3.22557,0.141144 -3.43978,0.163023 -0.4438,0.04533 -0.88001,0.147111 -1.32002,0.220668 0,0 3.12428,2.190927 3.12428,2.190927 v 0 c 0.41783,-0.07147 0.8319,-0.170304 1.2535,-0.214408 0.48197,-0.05042 2.98458,-0.146 3.42326,-0.153776 1.05177,-0.01865 2.30986,-0.02341 3.3571,0.135808 0.52621,0.08001 1.03822,0.235186 1.55732,0.352777 -0.62455,-0.428204 -1.21147,-0.917286 -1.87366,-1.28461 -0.42255,-0.234394 0.81873,0.530905 1.14966,0.882999 0.32395,0.34466 0.62189,0.736963 0.7889,1.179499 0.50938,1.349748 -0.0497,3.313581 -0.35205,4.628703 -0.25731,0.625965 -0.44973,1.282721 -0.77193,1.877891 -0.65567,1.211151 -1.64001,2.483927 -2.82558,3.231631 -1.75231,1.105136 -3.9077,0.980009 -5.84472,0.681477 -0.73564,-0.231788 -1.44308,-0.802317 -2.20692,-0.695359 -0.49407,0.06918 1.58191,1.198311 1.24542,0.829992 -0.47256,-0.51726 -1.16292,-0.794885 -1.66229,-1.286301 -0.5087,-0.500589 -1.55059,-1.959866 -1.72522,-2.745888 -0.0764,-0.343744 0.0735,-0.7004 0.11031,-1.050599 0.097,-0.305046 0.15277,-0.626483 0.29116,-0.915139 0.90677,-1.8914 3.16651,-2.724914 4.96191,-3.479887 z" />
    <path
       style="fill:#cccccc;fill-opacity:1;stroke-width:0.264583"
       id="path14"
       d="m 129.87023,34.952625 c -0.57171,2.089615 -1.62349,4.721455 -1.40837,6.900669 0.0446,0.45167 0.22149,0.880298 0.33223,1.320445 1.40277,2.353019 4.15202,4.045535 6.90061,3.409008 1.65688,-0.383701 3.04866,-1.376746 4.40631,-2.337472 2.50636,-1.964192 2.727,-3.300314 2.67568,-6.313773 -0.0577,-1.543465 -0.0131,-3.209287 -1.09564,-4.448646 -1.15364,-1.320765 -4.88357,-2.906762 -5.34534,-3.153968 -1.89806,-0.447566 -3.89559,-0.518853 -5.73858,0.217051 -0.32327,0.129082 -0.6176,0.321305 -0.9264,0.481957 0,0 3.22414,2.118424 3.22414,2.118424 v 0 c 0.29029,-0.143682 0.56752,-0.317511 0.87087,-0.431046 1.79638,-0.67232 3.76175,-0.530675 5.57219,-0.01926 -0.7077,-0.471702 -1.40352,-0.961718 -2.12309,-1.415105 -0.32726,-0.206209 0.66516,0.406344 0.94535,0.673031 1.17153,1.115078 1.15226,2.753929 1.2188,4.251063 0.0135,2.831047 -0.0925,4.136091 -2.46354,6.01251 -1.30613,0.919181 -2.66586,1.894907 -4.29178,2.158196 -0.49263,0.07977 -1.6477,-0.470863 -1.49713,0.0049 0.23641,0.747051 1.19408,1.067271 1.92543,1.348502 0.38218,0.14696 -0.54204,-0.613838 -0.81307,-0.920758 -0.13509,-0.408956 -0.34444,-0.800494 -0.40528,-1.226865 -0.29145,-2.042162 0.78343,-4.807426 1.45988,-6.726981 z" />
    <path
       style="fill:#cccccc;fill-opacity:1;stroke-width:0.264583"
       id="path15"
       d="m 101.95624,21.318575 c -1.32417,1.194068 -2.866579,2.498982 -3.166465,4.380031 -0.06456,0.40496 -7.94e-4,0.820147 -0.0013,1.230222 0.198329,0.408485 0.316973,0.866426 0.594984,1.225458 0.336534,0.434612 0.748231,0.825272 1.216221,1.113599 2.77568,1.710097 5.53814,3.486629 8.90155,3.255605 0.74058,-0.05087 1.46054,-0.266416 2.19082,-0.399626 2.70922,-0.872482 5.60091,-2.397932 6.58388,-5.282182 0.1052,-0.308673 0.13315,-0.638477 0.19972,-0.957715 0.0103,-0.588811 0.053,-1.049953 -0.0658,-1.629195 -0.57145,-2.785706 -3.54495,-3.532509 -5.76729,-4.764319 -2.76796,-0.797402 -5.5392,-0.410374 -8.28771,0.221161 0,0 3.10423,2.150211 3.10423,2.150211 v 0 c 2.81855,-0.644193 5.37648,-0.934581 8.1813,0.01033 -0.72842,-0.473709 -1.42424,-1.001789 -2.18526,-1.421128 -0.26365,-0.145279 0.48057,0.368395 0.68152,0.592532 0.76435,0.852547 0.92889,1.920897 0.92491,3.023735 -0.0442,0.297689 -0.05,0.603659 -0.13252,0.893066 -0.57558,2.018153 -2.37401,3.495007 -4.21659,4.328309 -0.65642,0.296868 -1.35958,0.477121 -2.03936,0.71568 -1.91658,0.27691 -2.25105,0.490696 -4.13335,0.149002 -0.66424,-0.120578 -1.51754,-1.065958 -1.94987,-0.547468 -0.39562,0.474454 0.9318,0.853837 1.50741,1.078101 0.85917,0.334745 -2.86457,-1.763123 -1.88807,-2.021724 -0.0177,-0.370337 -0.10091,-0.743349 -0.0531,-1.111012 0.23304,-1.791226 1.81326,-3.110225 3.1267,-4.152497 z" />
    <path
       style="fill:#cccccc;fill-opacity:1;stroke-width:0.264583"
       id="path16"
       d="m 123.84259,18.242644 c -0.28481,0.146674 -0.60914,0.233962 -0.85444,0.440023 -1.42096,1.193665 -2.43322,3.703571 -2.63466,5.513241 -0.0531,0.476975 0.0136,0.959746 0.0204,1.43962 0.138,0.44839 0.20297,0.92617 0.414,1.345169 0.93762,1.861582 3.80306,2.95039 5.1761,3.65248 0.40113,0.205113 0.86377,0.310534 1.31427,0.315381 1.27371,0.01371 2.16084,-0.510019 3.29611,-0.99061 0.50739,-0.383363 1.05182,-0.722088 1.52217,-1.150089 1.46507,-1.333166 2.65143,-3.273703 3.06765,-5.226307 0.0718,-0.337116 0.0802,-0.684692 0.12039,-1.027038 0.002,-0.426913 0.051,-1.216783 -0.11699,-1.642362 -0.3849,-0.975294 -1.37073,-1.564732 -2.2366,-2.039271 -1.44705,-0.793048 -2.91111,-1.554658 -4.36666,-2.331987 -0.3264,-0.125334 -0.65281,-0.250668 -0.97921,-0.376002 0,0 3.03165,2.378748 3.03165,2.378748 v 0 c 0.31922,0.124967 0.63845,0.249934 0.95767,0.374902 -0.74181,-0.473659 -1.5086,-0.910284 -2.22541,-1.420977 -0.30915,-0.22026 0.67682,0.345976 0.99878,0.547061 1.31184,0.819338 1.51366,1.202112 1.51664,2.724404 -0.0261,0.324844 -0.0245,0.65311 -0.0783,0.974532 -0.31951,1.90949 -1.40374,3.78508 -2.84621,5.064174 -0.45459,0.403096 -0.98674,0.709134 -1.48012,1.063702 -1.21591,0.457801 -1.87624,0.873731 -3.2042,0.754594 -0.43729,-0.03923 -1.55668,-0.71325 -1.25747,-0.391953 0.5602,0.60153 1.30981,1.063551 2.09852,1.295056 0.81644,0.239646 -2.79076,-2.106872 -1.32871,-2.179577 -0.0268,-0.453848 -0.1179,-0.908466 -0.0803,-1.361546 0.13858,-1.669984 1.13009,-4.161507 2.52475,-5.1747 0.25866,-0.187912 0.58596,-0.255967 0.87894,-0.383951 z" />
    <path
       style="fill:#cccccc;fill-opacity:1;stroke-width:0.264583"
       id="path17"
       d="m 145.06616,47.226323 c -0.34322,1.970495 -0.61303,4.156067 0.3009,6.035439 0.78659,1.617522 1.52529,1.995652 2.86315,3.122692 2.67643,1.40915 6.73993,4.578236 10.20885,3.01298 1.20232,-0.542518 1.46333,-1.089369 2.29337,-2.077234 1.57406,-2.689891 2.26017,-5.720217 2.63612,-8.783108 0.0824,-0.6712 0.17834,-1.34384 0.18768,-2.020014 0.008,-0.591466 -0.0902,-1.179597 -0.13531,-1.769396 -0.34596,-1.600581 -1.05076,-2.756143 -2.49492,-3.574399 -1.45722,-0.825653 -3.91694,-2.559701 -6.03491,-2.733476 -0.6083,-0.04991 -1.22037,0.02766 -1.83055,0.04149 -0.66164,0.157104 -1.34808,0.232799 -1.98491,0.471313 -2.91449,1.091565 -5.11411,3.556442 -6.68387,6.160053 -0.26069,0.432401 -0.46035,0.898782 -0.69052,1.348171 0,0 3.29595,1.870067 3.29595,1.870067 v 0 c 0.2012,-0.447008 0.36631,-0.912087 0.60361,-1.341027 1.43991,-2.602759 3.64404,-4.951714 6.52676,-5.918504 0.63129,-0.211717 1.30622,-0.259234 1.95933,-0.388853 0.60821,0.02027 1.22106,-0.01685 1.82462,0.06083 0.46699,0.0601 1.59355,0.763633 1.36842,0.350113 -0.36546,-0.671269 -1.30448,-0.807762 -1.88697,-1.302602 -0.36772,-0.31238 0.87195,0.435917 1.23749,0.75085 0.98448,0.848204 0.98893,1.344115 1.43117,2.534434 0.0663,0.576164 0.18891,1.148614 0.19885,1.728496 0.0116,0.675145 -0.0634,1.349777 -0.13456,2.021261 -0.31798,2.999007 -1.01268,5.962091 -2.62949,8.544805 -0.33506,0.380979 -0.61982,0.812917 -1.00517,1.142937 -1.17356,1.005049 -2.64171,1.196142 -4.11864,0.905203 -0.64084,-0.126238 -1.28979,-0.843793 -1.87787,-0.559578 -0.44268,0.21395 0.77716,0.602499 1.16574,0.903748 -1.297,-1.004348 -2.12116,-1.415523 -2.91511,-2.902553 -0.957,-1.792393 -0.67214,-3.891664 -0.23194,-5.769928 z" />
    <path
       style="fill:#cccccc;fill-opacity:1;stroke-width:0.264583"
       id="path18"
       d="m 150.31326,25.971629 c -2.37189,1.240309 -3.46094,1.870914 -4.36299,4.585367 -0.23012,0.692473 -0.43555,1.405763 -0.49091,2.133367 -0.0507,0.666639 0.11772,1.331939 0.17658,1.997909 0.2515,0.518347 0.396,1.104021 0.75449,1.55504 1.04227,1.311283 5.79764,2.561212 5.8762,2.570271 0.57161,0.06591 0.99594,-0.599479 1.40169,-1.007451 1.20462,-1.21122 1.54024,-2.297287 2.269,-3.834688 0.71892,-1.784967 1.26309,-3.638124 1.55371,-5.541695 0.0475,-0.311074 0.19303,-1.350024 0.0544,-1.748375 -0.069,-0.198178 -0.2477,-0.338782 -0.37155,-0.508173 -1.36585,-0.691014 -2.7317,-1.382027 -4.09755,-2.073041 0,0 3.10146,2.355178 3.10146,2.355178 v 0 c -0.8777,-0.586172 -1.75541,-1.172344 -2.63312,-1.758517 0.16691,0.08665 0.3945,0.104769 0.50072,0.259953 0.21579,0.315259 0.11569,1.487616 0.0958,1.69807 -0.17921,1.897962 -0.67916,3.740722 -1.38829,5.507805 -0.71229,1.422297 -1.08065,2.523585 -2.25954,3.612568 -0.37994,0.350962 -1.42806,0.316873 -1.31617,0.821851 0.19351,0.873303 1.48853,1.093611 1.91485,1.87996 0.47804,0.881724 -3.61397,-2.405367 -2.11995,-2.135256 -0.0858,-0.633204 -0.29131,-1.26151 -0.25752,-1.899611 0.0372,-0.703124 0.24048,-1.393404 0.4672,-2.060011 0.83525,-2.455757 2.13189,-3.26445 4.36605,-4.265096 z" />
    <path
       style="fill:#cccccc;fill-opacity:1;stroke-width:0.264583"
       id="path19"
       d="m 124.58885,50.712057 c -0.35882,3.257092 -0.73222,6.766155 1.73641,9.40222 0.61452,0.656199 1.43013,1.089792 2.1452,1.634689 3.1629,1.519369 4.80695,3.4057 8.08052,2.58006 0.75123,-0.189471 1.49557,-0.52488 2.08438,-1.028427 1.94502,-1.663375 2.53542,-4.490419 3.08616,-6.83142 0.009,-1.854346 0.18336,-2.219127 -0.45927,-3.953648 -0.96972,-2.617359 -3.40079,-3.608787 -5.80228,-4.844912 -0.30668,-0.157858 -0.67704,-0.132302 -1.01556,-0.198454 -1.51284,-0.01005 -0.73876,-0.03275 -2.32199,0.07652 0,0 3.1095,2.234017 3.1095,2.234017 v 0 c 1.56601,-0.05846 0.80655,-0.07378 2.27863,0.03111 0.31328,0.09267 1.19308,0.484386 0.93983,0.278 -0.70108,-0.571362 -1.47302,-1.091451 -2.32166,-1.404149 -0.40705,-0.149987 0.67387,0.556519 0.94351,0.896339 1.19016,1.499952 1.5043,3.275251 1.41668,5.147379 -0.16024,0.75492 -0.25204,1.527681 -0.48071,2.264759 -0.706,2.275616 -1.86144,4.63105 -4.42514,5.190469 -0.7655,0.167037 -1.6537,-0.329112 -2.35035,0.02946 -0.31391,0.161573 0.4051,0.57835 0.60764,0.867527 -0.71956,-0.499642 -1.53452,-0.884248 -2.15869,-1.498928 -2.53198,-2.493508 -2.18796,-5.919999 -1.64155,-9.074505 z" />
    <path
       style="fill:#cccccc;fill-opacity:1;stroke-width:0.264583"
       id="path20"
       d="m 108.06568,53.539323 c 0.0774,2.59638 -0.16448,5.328716 1.12729,7.70354 0.24717,0.454398 0.61289,0.83345 0.91933,1.250174 1.95029,1.4071 2.88987,2.211594 5.88401,2.883914 0.57515,0.129148 1.13344,-0.345237 1.65923,-0.611735 1.83263,-0.928876 3.1219,-2.466769 4.45974,-3.968893 1.28816,-1.507789 2.27179,-3.242636 2.02635,-5.291699 -0.0353,-0.294796 -0.13332,-0.578646 -0.19998,-0.867971 -1.69042,-2.451555 -5.01629,-3.554944 -7.80467,-4.397525 0,0 3.01615,2.33341 3.01615,2.33341 v 0 c 0.41487,0.132702 0.83662,0.245539 1.2446,0.398106 0.46395,0.173492 1.71426,0.933746 1.3685,0.579069 -0.33696,-0.345651 -3.44522,-2.28265 -1.32557,-0.583125 0.0812,0.263435 0.19667,0.518668 0.24361,0.79031 0.33471,1.937173 -0.58479,3.648993 -1.75536,5.112848 -1.2887,1.457719 -2.55305,2.973028 -4.38278,3.782912 -0.50263,0.222475 -1.65788,-0.09731 -1.58703,0.44777 0.10567,0.812879 1.37797,0.947793 1.85509,1.61435 0.27681,0.386712 -0.81607,-0.488574 -1.22411,-0.732861 -0.32809,-0.388578 -0.71959,-0.731481 -0.98427,-1.165736 -1.37896,-2.26236 -1.12269,-4.985078 -1.06357,-7.505462 z" />
    <path
       style="fill:#cccccc;fill-opacity:1;stroke-width:0.264583"
       id="path21"
       d="m 93.708682,54.183449 c -0.86849,1.995823 -1.26392,4.108116 -0.489995,6.213019 0.189775,0.51615 0.435403,1.02179 0.766307,1.461024 0.31332,0.415891 0.759619,0.712404 1.139428,1.068605 1.503342,0.835303 2.929234,1.828509 4.510024,2.505908 0.429864,0.184206 0.940634,0.09979 1.402734,0.02783 1.59342,-0.248126 2.86031,-1.403281 3.76626,-2.662618 0.36179,-0.50292 0.63074,-1.066517 0.94611,-1.599774 0.72831,-1.728986 1.63031,-4.10205 1.36706,-6.042729 -0.0304,-0.223774 -0.11789,-0.435988 -0.17684,-0.653984 -1.86334,-2.243886 -4.81493,-2.991599 -7.526338,-3.546118 0,0 3.038788,2.306161 3.038788,2.306161 v 0 c 0.42461,0.09296 0.8532,0.169313 1.27383,0.27889 0.44604,0.116197 1.62754,0.745053 1.32428,0.397941 -0.59878,-0.685371 -1.5259,-0.992396 -2.28382,-1.496221 -0.20792,-0.138216 0.42247,0.266205 0.6337,0.399306 0.0784,0.186979 0.19,0.363294 0.23525,0.560938 0.0534,0.233365 0.0517,0.476599 0.0571,0.715941 0.0412,1.810274 -0.42194,3.568023 -1.18157,5.203323 -0.85482,1.411107 -1.64961,2.808938 -3.233379,3.533804 -0.410115,0.187703 -0.858068,0.311856 -1.307677,0.347583 -0.436962,0.03472 -1.52617,-0.519721 -1.307568,-0.13978 0.390538,0.678776 1.311066,0.856809 1.9666,1.285214 -0.400516,-0.31732 -0.866526,-0.566129 -1.201544,-0.951963 -0.350946,-0.404175 -0.614529,-0.885957 -0.822569,-1.379151 -0.847756,-2.009751 -0.457419,-4.02408 0.484487,-5.908254 z" />
    <path
       style="fill:#cccccc;fill-opacity:1;stroke-width:0.264583"
       id="path22"
       d="m 98.017742,66.324715 c 0.209544,1.600459 0.528886,3.184488 0.67039,4.793519 0.06853,0.873734 0.03274,1.73445 -0.140896,2.592451 -0.203136,1.048745 -0.355613,2.108893 -0.602432,3.148857 -0.06215,0.158742 -0.124304,0.317484 -0.186455,0.476226 0,0 3.426881,1.911646 3.426881,1.911646 v 0 c 0.0697,-0.175202 0.13939,-0.350401 0.20908,-0.525602 0.25737,-1.04031 0.41911,-2.103544 0.61837,-3.155895 0.18653,-0.892691 0.28707,-1.78625 0.19047,-2.69943 -0.17114,-1.609799 -0.55589,-3.19006 -0.65827,-4.807198 z" />
    <path
       style="fill:#cccccc;fill-opacity:1;stroke-width:0.264583"
       id="path23"
       d="m 95.306871,74.213383 c 3.621627,0.522663 7.204309,1.253379 10.854549,1.548045 1.67835,0.09154 0.89354,0.09625 2.35437,0.02061 0,0 -3.13536,-2.253355 -3.13536,-2.253355 v 0 c -1.38545,0.07129 -0.63509,0.06308 -2.25121,-0.0084 -3.666793,-0.305607 -7.285959,-0.975156 -10.900093,-1.651447 z" />
    <path
       style="fill:#cccccc;fill-opacity:1;stroke-width:0.264583"
       id="path24"
       d="m 98.017742,74.9752 c 0.444351,1.874735 0.88392,3.740772 1.057634,5.663301 0.0052,1.358508 0.0021,1.73523 1.013774,2.727407 0.70407,0.575992 1.45207,1.114094 1.83716,1.958787 0,0 3.5687,1.661104 3.5687,1.661104 v 0 c -0.32784,-1.06385 -0.94302,-1.458949 -1.78014,-2.143096 -1.13197,-0.904332 -1.10563,-1.064519 -1.151,-2.470403 -0.21001,-1.913126 -0.62842,-3.781806 -1.01899,-5.662526 z" />
    <path
       style="fill:#cccccc;fill-opacity:1;stroke-width:0.264583"
       id="path25"
       d="m 97.663189,81.171271 c 0.188444,1.807763 -0.205626,3.57687 -0.759137,5.284541 0,0 3.372858,1.852168 3.372858,1.852168 v 0 c 0.55165,-1.748948 0.9581,-3.553348 0.90165,-5.400259 z" />
    <path
       style="fill:#cccccc;fill-opacity:1;stroke-width:0.264583"
       id="path26"
       d="m 114.29624,64.907543 c 0.88567,2.8542 1.02171,5.884209 1.07623,8.853342 -0.072,1.038865 0.11011,2.145808 -0.24706,3.144557 -0.22967,0.578001 -0.23858,1.193956 -0.25087,1.805956 0,0 3.50532,1.793912 3.50532,1.793912 v 0 c 0.009,-0.566653 0.005,-1.142905 0.20801,-1.681348 0.0562,-0.153477 0.18334,-0.480155 0.2064,-0.634947 0.1322,-0.88728 -0.0966,-1.822392 -0.0248,-2.70991 -0.12063,-2.971295 -0.2476,-5.982079 -0.9246,-8.88614 z" />
    <path
       style="fill:#cccccc;fill-opacity:1;stroke-width:0.264583"
       id="path27"
       d="m 119.48639,76.324403 c 0.32378,0.103386 0.65103,0.196491 0.97134,0.310161 0.36793,0.130567 0.73828,0.257979 1.09246,0.422225 0.38846,0.180149 1.51152,0.80551 1.1311,0.608938 -0.70299,-0.363257 -1.3156,-0.996862 -2.09891,-1.109035 -0.52203,-0.07476 0.83982,0.639312 1.23748,0.985679 0.37722,0.328559 0.7232,0.691358 1.0848,1.037037 0.28825,0.310874 0.57651,0.621749 0.86476,0.932624 0,0 3.52152,1.475142 3.52152,1.475142 v 0 c -0.29523,-0.321117 -0.59047,-0.642234 -0.8857,-0.963353 -0.59688,-0.591159 -1.57525,-1.6182 -2.28183,-2.080363 -2.47942,-1.621761 -4.90208,-3.193823 -7.75021,-3.999585 z" />
    <path
       style="fill:#cccccc;fill-opacity:1;stroke-width:0.264583"
       id="path28"
       d="m 116.42697,76.404966 c 0.23839,2.270398 0.35126,4.558991 0.12704,6.835842 -0.1182,1.200253 -0.25734,1.814607 -0.47351,2.957655 -0.30689,1.062881 -0.0183,0.739238 -0.5565,1.175911 0,0 3.36886,2.038752 3.36886,2.038752 v 0 c 0.50416,-0.707225 0.263,-0.257868 0.55207,-1.426863 0.15659,-0.986883 0.33599,-2.03485 0.4311,-3.025738 0.2181,-2.272255 0.13592,-4.547084 0.0242,-6.822072 z" />
    <path
       style="fill:#cccccc;fill-opacity:1;stroke-width:0.264583"
       id="path29"
       d="m 114.86682,80.866214 c -0.86852,0.877478 -1.99122,1.405028 -3.06088,1.986386 0,0 3.19687,2.08579 3.19687,2.08579 v 0 c 1.09543,-0.607883 2.23094,-1.173901 3.18162,-2.003941 z" />
    <path
       style="fill:#cccccc;fill-opacity:1;stroke-width:0.264583"
       id="path30"
       d="m 117.66307,83.334362 c 0.87627,1.41715 1.85621,2.778662 2.54352,4.302291 0,0 3.55718,1.630267 3.55718,1.630267 v 0 c -0.66381,-1.540695 -1.65882,-2.903667 -2.51954,-4.336211 z" />
    <path
       style="fill:#cccccc;fill-opacity:1;stroke-width:0.264583"
       id="path31"
       d="m 133.31375,64.639668 c 0.0312,3.04491 0.21577,6.109594 -0.17004,9.14132 -0.0642,0.504605 -0.16997,1.003051 -0.25495,1.504577 -0.11556,0.993272 -0.5563,1.925629 -0.70196,2.911438 -0.0514,0.348173 -0.0413,0.650107 -0.0449,1.002797 0.0968,2.324354 0.11436,4.650817 0.0905,6.976774 -0.0188,1.061008 -0.0353,2.121971 -0.0287,3.183138 0,0 3.50055,1.784274 3.50055,1.784274 v 0 c 0.01,-1.071478 0.001,-2.142993 -0.0269,-3.214196 -0.0457,-2.314419 -0.0772,-4.629636 -0.0387,-6.944415 0.01,-1.337842 0.34582,-2.617878 0.59233,-3.929375 0.23678,-1.562229 0.29239,-1.706173 0.39112,-3.360076 0.14514,-2.431666 0.0309,-4.869714 0.13327,-7.30268 z" />
    <path
       style="fill:#cccccc;fill-opacity:1;stroke-width:0.264583"
       id="path32"
       d="m 127.16883,72.642478 c 0.0936,1.736447 -0.0388,3.481781 0.10306,5.216218 0.027,0.329964 0.0375,0.667006 0.13138,0.984467 0.0562,0.189883 0.20659,0.337891 0.30988,0.506838 1.3754,0.515528 2.67041,1.351145 4.12619,1.546585 0.42155,0.05659 0.6295,-0.572323 0.93628,-0.866942 0.70805,-0.679989 1.36973,-1.40739 2.08192,-2.083048 0.85825,-0.814224 1.01398,-0.894385 1.92286,-1.581489 0.65702,-0.256561 1.63593,-1.020577 2.40109,-0.917805 0.20438,0.02745 0.73943,0.365585 0.55393,0.275497 -0.91313,-0.443455 -1.74543,-1.117523 -2.73684,-1.335611 -0.35493,-0.07808 0.43247,0.584181 0.6487,0.876271 0.77565,1.354799 1.44407,2.766375 2.26337,4.095861 0,0 3.56782,1.567836 3.56782,1.567836 v 0 c -0.88082,-1.310749 -1.5728,-2.730508 -2.30589,-4.126989 -1.3579,-2.135664 -0.5823,-1.201307 -4.5291,-3.47009 -0.19576,-0.112533 -0.4436,-0.120457 -0.66898,-0.106532 -0.88618,0.05476 -1.67508,0.743752 -2.43782,1.097534 -0.92215,0.735039 -1.03697,0.792655 -1.91805,1.643952 -1.10714,1.069726 -0.90967,1.015066 -2.09061,2.040027 -0.2968,0.257588 -1.13559,0.396923 -0.92619,0.729469 0.61464,0.976067 1.81798,1.420175 2.72697,2.130264 -0.15254,-0.108437 -0.37378,-0.157985 -0.45763,-0.32531 -0.20043,-0.399984 -0.26426,-1.945286 -0.27299,-2.261992 -0.0355,-1.28664 0.0374,-2.577126 0.0472,-3.863615 z" />
    <path
       style="fill:#cccccc;fill-opacity:1;stroke-width:0.264583"
       id="path33"
       d="m 131.31421,84.531395 c -0.88176,1.877443 -2.14721,3.527454 -3.37858,5.183079 -0.0607,0.0655 -0.12141,0.131003 -0.18212,0.196503 0,0 3.41492,2.010413 3.41492,2.010413 v 0 c 0.0399,-0.07886 0.0797,-0.157716 0.11954,-0.236572 1.10916,-1.760442 2.49182,-3.343434 3.44504,-5.206812 z" />
    <path
       style="fill:#cccccc;fill-opacity:1;stroke-width:0.264583"
       id="path34"
       d="m 131.1197,85.476145 c 1.48938,1.358366 3.1411,2.540082 4.82744,3.64208 0,0 3.6402,1.417751 3.6402,1.417751 v 0 c -1.69103,-1.074748 -3.36668,-2.208737 -4.84908,-3.560974 z" />
    <path
       style="fill:#cccccc;fill-opacity:1;stroke-width:0.264583"
       id="path35"
       d="m 152.89418,61.281156 c 0.59565,3.634898 0.69613,7.334186 0.67443,11.011244 -0.0293,0.3195 -0.0587,0.639 -0.088,0.9585 0,0 3.42741,1.776802 3.42741,1.776802 v 0 c 0.0169,-0.337754 0.0339,-0.675508 0.0508,-1.013262 -0.1129,-3.679155 -0.22273,-7.36397 -0.57843,-11.028875 z" />
    <path
       style="fill:#cccccc;fill-opacity:1;stroke-width:0.264583"
       id="path36"
       d="m 150.17837,68.859158 c -0.89105,1.373058 -1.90208,2.659698 -2.90147,3.953539 -0.0634,0.08208 -1.17109,1.56704 -1.42446,1.784919 -0.0819,0.07042 -0.20884,0.05513 -0.31326,0.08269 1.10433,0.54061 2.20867,1.08122 3.31301,1.62183 0,0 -3.60863,-1.622949 -3.60863,-1.622949 v 0 c 1.19971,0.721135 2.39941,1.44227 3.59911,2.163406 0.69763,-0.54364 1.14712,-1.404462 1.66961,-2.1032 0.98112,-1.312063 1.98909,-2.605923 3.00623,-3.8901 z" />
    <path
       style="fill:#cccccc;fill-opacity:1;stroke-width:0.264583"
       id="path37"
       d="m 151.2563,67.194069 c 2.63298,3.958267 6.04662,7.319624 9.45367,10.606487 0,0 3.45563,1.419717 3.45563,1.419717 v 0 c -3.42712,-3.168377 -6.86623,-6.452359 -9.33418,-10.449427 z" />
    <path
       style="fill:#cccccc;fill-opacity:1;stroke-width:0.264583"
       id="path38"
       d="m 155.94334,73.346185 c -0.0887,3.705394 -0.4721,7.390664 -1.02559,11.053074 -0.0658,0.404101 -0.13168,0.808202 -0.19751,1.212302 0,0 3.38424,1.782869 3.38424,1.782869 v 0 c 0.0464,-0.414626 0.0929,-0.829249 0.13933,-1.243875 0.4359,-3.66123 0.87137,-7.322992 1.15782,-10.998639 z" />
    <path
       style="fill:#cccccc;fill-opacity:1;stroke-width:0.264583"
       id="path39"
       d="m 153.91016,83.413631 c -1.01233,1.125209 -2.08304,2.199912 -3.17509,3.247374 -0.8483,0.813676 -1.96793,1.927034 -3.01471,2.547117 -0.23092,0.136787 -0.51241,0.159896 -0.76862,0.239845 1.09316,0.5247 2.18632,1.049401 3.27948,1.574101 0,0 -3.58255,-1.66225 -3.58255,-1.66225 v 0 c 1.17919,0.747718 2.35838,1.495436 3.53757,2.243154 1.41453,-0.78912 2.50643,-1.913269 3.6963,-3.000404 1.14269,-1.04403 2.30496,-2.065251 3.39125,-3.169418 z" />
    <path
       style="fill:#cccccc;fill-opacity:1;stroke-width:0.264583"
       id="path40"
       d="m 153.39079,82.88085 c 1.52265,1.380786 2.75827,3.03671 4.20617,4.488341 1.51985,1.175671 0.24486,0.217213 4.11297,2.445748 0,0 -3.07043,-2.472174 -3.07043,-2.472174 v 0 c 3.14727,1.840193 4.01295,2.328105 2.57009,1.510561 -1.52647,-1.357444 -2.7122,-3.056218 -4.18741,-4.468309 z" />
    <path
       style="fill:#cccccc;fill-opacity:1;stroke-width:0.264583"
       id="path41"
       d="m 157.99431,62.039018 c -0.39638,-1.095658 -0.37185,-2.552594 -0.85883,-3.58739 -1.27777,-0.441484 -2.48309,-1.257404 -3.83331,-1.324457 -0.38753,-0.01923 -0.23261,0.740918 -0.32401,1.118002 -0.49156,2.028008 -0.7254,4.126212 -1.06959,6.183149 0,0 3.36772,1.780518 3.36772,1.780518 v 0 c 0.21292,-1.550805 0.41097,-3.11835 0.72032,-4.653372 0.099,-0.491347 0.21834,-0.978879 0.35365,-1.461492 0.0922,-0.32888 0.55635,-0.716418 0.32828,-0.970682 -0.86406,-0.963301 -2.12476,-1.477688 -3.18715,-2.216534 0.081,0.05122 0.19393,0.07136 0.24311,0.153651 0.11955,0.200054 0.21957,0.92492 0.25669,1.112346 0.1415,0.714375 0.32579,1.419214 0.47598,2.131687 z" />
    <path
       style="fill:#cccccc;fill-opacity:1;stroke-width:0.264583"
       id="path42"
       d="m 147.92496,48.396707 c 0.78644,-0.01246 1.57304,-0.01609 2.35957,-0.01529 0.3418,2.65e-4 1.08246,-0.0296 1.43737,0.09411 0.16555,0.0577 0.29252,0.193336 0.43877,0.290004 -1.01624,-0.533887 -1.9702,-1.208548 -3.04874,-1.601655 -0.18334,-0.06682 0.14389,0.365085 0.18143,0.556577 0.0406,0.207365 0.0761,1.688677 0.19054,1.768663 1.12599,0.787345 2.37058,1.389737 3.55588,2.084607 0.92748,-0.949261 0.9203,-1.986483 2.36546,-2.318734 -0.42042,-0.574389 1.48606,0.555308 1.15106,0.386974 -0.99875,-0.501848 -1.9303,-1.144418 -2.96682,-1.5627 -0.19716,-0.07956 0.25987,0.33727 0.37426,0.51649 0.10853,0.170059 0.1955,0.352952 0.29325,0.529426 0.95085,1.998774 1.95059,2.140001 4.56298,3.275923 0.15988,0.06952 0.85479,-0.407099 0.93625,-0.457737 0.76117,-0.729295 1.11801,-1.736543 1.96925,-2.386468 0,0 -3.33809,-2.090369 -3.33809,-2.090369 v 0 c -0.39114,0.343106 -0.70427,0.69873 -0.99407,1.133744 -0.18491,0.277572 -0.37559,0.649584 -0.60052,0.903976 -0.097,0.109744 -0.21883,0.194813 -0.32824,0.292219 -0.13607,0.06419 -0.26334,0.151987 -0.40821,0.192577 -0.12195,0.03416 -0.48181,-0.04585 -0.37889,0.02794 0.95873,0.687351 2.00153,1.249289 3.01123,1.859291 0.11137,0.06728 -0.22441,-0.137097 -0.31507,-0.230431 -0.26419,-0.27201 -0.3814,-0.57858 -0.54958,-0.91326 -1.00402,-2.064004 -1.49277,-1.770435 -4.33587,-3.558863 -0.40828,-0.256823 -0.88601,-0.231531 -1.33309,-0.13046 -0.6265,0.249063 -1.02616,0.528299 -1.44108,1.077931 -0.18201,0.241091 -0.44196,0.740378 -0.66761,0.974669 -0.0444,0.04607 -0.11589,0.05418 -0.17384,0.08127 1.05456,0.669118 2.05949,1.423752 3.16367,2.007354 0.12852,0.06793 -0.11749,-0.268655 -0.14433,-0.411522 -0.0533,-0.283859 -0.0358,-1.928659 -0.17492,-2.044576 -1.11501,-0.928886 -2.41639,-1.607915 -3.62458,-2.411875 -1.387,-0.466061 -2.9101,-0.101304 -4.34789,-0.230548 z" />
    <path
       style="fill:#cccccc;fill-opacity:1;stroke-width:0.264583"
       id="path43"
       d="m 127.2751,53.634578 c 0.69892,0.181319 1.39215,0.391756 2.04571,0.703408 1.08008,0.515044 4.24036,2.394001 -1.51973,-0.860634 1.62734,1.265915 2.93271,2.305524 5.0181,3.208565 0.17465,0.07563 1.20998,-0.67596 1.27708,-0.72132 0.60187,-0.302014 0.91221,-1.082154 1.56673,-1.297911 0.0932,-0.03071 0.37839,0.07617 0.29301,0.02784 -1.03151,-0.583872 -2.07152,-1.1586 -3.15193,-1.646095 -0.17258,-0.07787 0.26616,0.269362 0.39924,0.40404 1.62779,2.220299 1.48762,2.023126 4.9965,3.813762 0.15676,0.07999 0.36144,0.02267 0.52657,-0.03817 0.174,-0.06412 0.30204,-0.215218 0.45306,-0.322829 0.81363,-0.862454 0.51548,-2.210448 1.09586,-3.178559 0.0735,-0.122618 0.19876,-0.205544 0.29815,-0.308313 0.68666,-0.289227 1.40918,-0.03322 2.06402,0.228322 0,0 -3.09332,-2.40274 -3.09332,-2.40274 v 0 c -0.80715,-0.218 -1.6013,-0.376854 -2.33476,0.142833 -0.1191,0.146092 -0.26557,0.273614 -0.35731,0.438272 -0.50786,0.911593 -0.27898,2.119164 -0.97657,2.939452 -0.10588,0.04428 -0.20304,0.126738 -0.31764,0.132844 -0.14185,0.0076 -0.53361,-0.172945 -0.41568,-0.09377 4.73411,3.178408 2.70399,1.847604 1.66633,0.184267 -1.09137,-1.606074 -0.48526,-0.872704 -4.08679,-2.564916 -0.28425,-0.133559 -1.61046,1.266195 -1.90079,1.4283 -0.19808,0.109776 -0.37937,0.257794 -0.59424,0.329324 -0.14908,0.04963 -0.59893,-0.06558 -0.47068,0.02519 5.49641,3.889912 2.87523,1.618609 1.68279,0.692589 -2.38788,-1.413433 -4.58253,-2.972287 -7.27343,-3.679671 z" />
    <path
       style="fill:#cccccc;fill-opacity:1;stroke-width:0.264583"
       id="path44"
       d="m 108.03148,52.931242 c 0.21637,0.184041 0.44061,0.359219 0.64911,0.552124 0.6085,0.562965 0.76588,0.777304 1.31305,1.401533 0.24332,0.277585 0.74328,0.899535 1.08928,1.104445 1.30975,0.775655 2.66442,1.472835 3.99662,2.209249 1.29388,0.08998 2.26047,-0.803433 3.40016,-1.224446 0.4677,-0.172776 0.62645,-0.150448 1.08921,-0.174501 0.133,0.01429 0.2691,0.01098 0.39901,0.04289 0.28291,0.06951 0.54174,0.214995 0.81701,0.310383 0.39938,0.138401 0.78799,0.218675 1.20543,0.275481 0.74642,0.07857 1.40873,-0.373361 2.09665,-0.609568 0,0 -3.26022,-2.20164 -3.26022,-2.20164 v 0 c -0.64782,0.240977 -1.27782,0.599217 -1.98892,0.438189 -0.82851,-0.172302 -1.61434,-0.592952 -2.47501,-0.527939 -0.52172,0.09464 -0.59833,0.08124 -1.12426,0.307915 -1.05408,0.454294 -1.9998,1.216763 -3.2206,0.948004 6.69517,4.142095 2.6639,1.746412 2.10462,1.234985 -0.88298,-0.807426 -1.49935,-1.890649 -2.43206,-2.655408 z" />
    <path
       style="fill:#cccccc;fill-opacity:1;stroke-width:0.264583"
       id="path45"
       d="m 94.580301,56.326317 c 0.74268,-0.03527 1.494465,0.0019 2.201717,0.254299 0.201965,0.0721 0.767115,0.3825 0.58188,0.274436 -3.388275,-1.976665 -3.666059,-2.238872 -2.371955,-1.215358 0.889238,0.829641 1.569085,1.840677 2.576734,2.534065 1.293802,0.734071 2.574903,1.49101 3.881413,2.202215 1.10631,0.602229 1.77208,-0.263702 2.16397,-1.18409 0.0975,-0.176128 0.10554,-1.445538 0.50387,-1.375399 0.19873,0.03499 0.30875,0.260257 0.45515,0.399116 -1.00098,-0.559451 -1.9861,-1.148289 -3.00295,-1.678358 -0.27516,-0.143439 0.46833,0.413634 0.73744,0.568113 1.24475,0.714534 2.48515,1.438283 3.75623,2.104856 0.11859,0.06219 0.26344,0.04813 0.39516,0.07219 0,0 -3.13238,-2.399009 -3.13238,-2.399009 v 0 c -1.45422,-0.498406 -0.43584,-0.175839 2.64935,1.6505 0.12822,0.0759 -0.26423,-0.139237 -0.38715,-0.223467 -0.13081,-0.08964 -0.23781,-0.212016 -0.37189,-0.296685 -1.22801,-0.775454 -2.47446,-1.52132 -3.71169,-2.281979 -0.12739,-0.04052 -0.24854,-0.118194 -0.38218,-0.12157 -0.81219,-0.02053 -0.8422,1.120677 -0.93858,1.663131 -0.15433,0.398047 -0.320838,0.850392 -0.819819,0.919842 -1.088024,0.151437 -4.426121,-2.563667 1.857459,1.388838 -0.17629,-0.0897 -0.36448,-0.159118 -0.52888,-0.269116 C 99.853145,58.750832 99.375059,57.760673 98.614186,57.110939 96.51377,55.1025 94.188969,53.967213 91.399832,54.015571 Z" />
    <path
       style="fill:#cccccc;fill-opacity:1;stroke-width:0.264583"
       id="path46"
       d="m 88.217919,38.564962 c 2.331651,2.033913 4.0425,3.203522 7.064798,4.600631 0.22238,0.102798 0.489887,0.0093 0.73483,0.014 0.921708,0.01006 1.553475,-1.036195 2.482752,-0.896032 0.164732,0.02484 0.596334,0.297267 0.449006,0.219498 -1.003628,-0.52978 -2.012056,-1.05042 -3.018084,-1.575628 1.021022,1.767581 2.399356,5.155726 5.347669,3.546687 1.06923,-0.711417 2.31852,-1.004181 3.57506,-1.162 0,0 -3.19801,-2.252387 -3.19801,-2.252387 v 0 c -1.2769,0.217699 -2.530764,0.556146 -3.650081,1.230844 -1.519507,0.407146 -0.566677,0.05273 2.644851,2.000443 0.11537,0.06997 -0.22445,-0.154625 -0.31379,-0.255754 -0.395843,-0.448114 -0.548103,-1.056119 -0.7845,-1.588363 -1.238263,-0.779817 -2.440268,-1.620417 -3.71479,-2.339451 -0.159575,-0.09003 -0.363323,-0.07971 -0.545891,-0.06426 -0.877575,0.07427 -1.506508,0.85929 -2.412619,0.817946 -1.606079,-0.237204 -1.050189,-0.244319 1.91991,1.517785 0.2614,0.155083 -0.50097,-0.344747 -0.742601,-0.529127 -0.546489,-0.417002 -1.0756,-0.856498 -1.603264,-1.297082 -0.202472,-0.169059 -0.398068,-0.346187 -0.597104,-0.51928 z" />
    <path
       style="fill:#cccccc;fill-opacity:1;stroke-width:0.264583"
       id="path47"
       d="m 108.33618,36.744928 c 1.27597,1.142926 2.27199,2.55011 3.47474,3.761621 2.81143,1.786972 2.87996,2.563119 4.99297,1.838791 0.46379,-0.158986 0.71617,-0.285832 1.18019,-0.104029 -8.12777,-4.549148 0.35605,0.361825 0.58714,0.444751 0.31088,0.111554 0.58397,-0.31015 0.86285,-0.487106 1.00523,-0.637836 1.92005,-1.412658 2.86633,-2.131999 1.08648,-0.702104 1.51301,-0.661165 2.62935,-0.210608 0,0 -3.10906,-2.421091 -3.10906,-2.421091 v 0 c -1.11806,-0.325755 -1.8282,-0.134541 -2.7748,0.580559 -0.89217,0.70571 -1.79443,1.550117 -2.83798,2.03068 -0.22697,0.104523 -0.91544,0.02035 -0.72669,0.184097 0.10885,0.09443 9.07265,5.389949 -0.65603,-0.366816 -0.62456,0.006 -1.13661,0.315402 -1.74645,0.373367 -1.30487,0.124023 -2.68469,-1.390827 2.35748,1.756788 -1.28656,-1.117036 -2.22212,-2.582965 -3.46866,-3.744838 z" />
    <path
       style="fill:#cccccc;fill-opacity:1;stroke-width:0.264583"
       id="path48"
       d="m 128.57638,37.792892 c 1.74572,1.224894 3.54114,2.252139 5.53977,3.108757 0.7306,0.313134 2.28688,-0.154401 3.00417,-0.395531 1.05349,-0.578636 1.41968,-1.063181 2.63089,-0.879965 0.69041,-0.04922 1.28238,-0.412623 1.86156,-0.758817 0,0 -3.28469,-2.135799 -3.28469,-2.135799 v 0 c -0.5524,0.298607 -1.10726,0.599218 -1.75705,0.543087 -1.07671,-0.02397 -1.73306,0.567232 -2.65316,1.051867 -0.74298,0.220752 -0.99227,0.353959 -1.80487,0.333306 -0.34915,-0.0089 -1.28276,-0.389181 -1.03845,-0.139581 0.67127,0.685819 1.61727,1.033582 2.42329,1.554435 0.42609,0.275333 -1.67061,-1.037611 -1.26238,-0.850064 z" />
    <path
       style="fill:#cccccc;fill-opacity:1;stroke-width:0.264583"
       id="path49"
       d="m 150.7746,31.277864 c 0.80113,0.164266 1.54811,0.483092 2.37265,0.538017 0.54037,0.03599 1.09941,-0.03984 1.63549,-0.09297 0,0 -3.1697,-2.261426 -3.1697,-2.261426 v 0 c -0.61252,0.04484 -0.93646,0.09615 -1.56263,0.02117 -0.8207,-0.09827 -1.58943,-0.411771 -2.38857,-0.601472 z" />
    <path
       style="fill:#cccccc;fill-opacity:1;stroke-width:0.264583"
       id="path50"
       d="m 104.3121,24.968308 c 1.49626,-0.01662 2.99278,-0.01752 4.48911,-0.0075 0.18203,0.03128 0.70243,0.192194 0.5461,0.09384 -0.97028,-0.610441 -1.99489,-1.131718 -3.0179,-1.648941 -0.109,-0.05511 0.15635,0.195115 0.26236,0.255773 1.22134,0.698858 2.41137,1.471477 3.70869,2.016488 0.11193,0.04702 0.81549,-0.621631 0.84323,-0.646459 0.1351,-0.141592 0.27261,-0.280932 0.40531,-0.424775 0.1646,-0.178414 0.47915,-0.576527 0.71359,-0.724579 0.0559,-0.03529 0.25149,-0.0105 0.19367,-0.04251 -3.69655,-2.045614 -4.10578,-2.556471 -3.0535,-1.406623 1.2268,1.647581 3.25651,3.015597 5.35436,2.99603 0.49792,-0.105297 0.97583,-0.256805 1.45284,-0.431226 0,0 -3.24646,-2.201448 -3.24646,-2.201448 v 0 c -0.45525,0.139413 -0.90863,0.29042 -1.39047,0.298819 -1.53175,-0.14909 -2.37868,-1.182865 2.34915,1.682173 0.10895,0.06602 -0.23749,-0.09666 -0.34397,-0.166587 -0.2924,-0.192008 -0.35222,-0.320628 -0.56124,-0.595796 -0.77287,-1.59615 -0.23531,-0.672937 -3.86972,-2.362164 -0.0869,-0.04038 -0.16501,0.09931 -0.2373,0.162179 -0.39711,0.345369 -0.69058,0.79546 -1.09615,1.132861 -0.12428,0.09382 -0.23529,0.208459 -0.37283,0.281467 -1.0705,0.568229 -5.04943,-2.110761 2.76558,2.00551 0.13643,0.07186 -0.0734,-0.333023 -0.20378,-0.415282 -3.41943,-2.156674 -2.42573,-1.998536 -4.36137,-2.15448 -1.50321,0.01025 -3.00662,0.0088 -4.50977,-0.0075 z" />
    <path
       style="fill:#cccccc;fill-opacity:1;stroke-width:0.264583"
       id="path51"
       d="m 122.02153,21.91635 c 1.73442,1.13372 1.36081,0.90854 4.61297,2.649451 0.55246,0.295737 1.37584,0.45465 1.97916,0.203523 0.23415,-0.09746 0.42339,-0.279379 0.63508,-0.419068 0.75295,-0.697727 1.49219,-1.597637 2.60778,-1.64999 0.18001,-0.0084 0.35843,0.03777 0.53765,0.05666 0.56092,0.127348 1.12647,0.222078 1.69525,0.305183 0,0 -3.13,-2.349261 -3.13,-2.349261 v 0 c -0.57576,-0.09634 -1.14838,-0.217168 -1.73071,-0.267599 -1.61821,0.07776 -2.11109,0.763497 -3.2545,1.781546 -0.68046,0.341273 -0.98846,0.414998 -1.74322,0.175113 -0.21969,-0.06982 -0.83072,-0.393943 -0.63724,-0.268635 0.86216,0.558369 4.00149,2.344395 2.08167,1.249415 z" />
    <path
       style="fill:#cccccc;fill-opacity:1;stroke-width:0.264583"
       id="path52"
       d="m 98.068695,46.821841 c 0.474681,1.200258 0.592857,2.290008 0.426088,3.555616 -0.08621,0.57113 -0.02508,0.299897 -0.175422,0.815451 0,0 3.457749,1.891223 3.457749,1.891223 v 0 c 0.17708,-0.571801 0.11203,-0.279042 0.19358,-0.878625 0.0748,-0.583325 0.17577,-1.193626 0.11806,-1.783467 -0.0641,-0.655142 -0.31555,-1.287327 -0.45566,-1.926224 z" />
    <path
       style="fill:#cccccc;fill-opacity:1;stroke-width:0.264583"
       id="path53"
       d="m 113.51653,45.779811 c 0.14682,0.730128 0.19418,1.460773 0.20005,2.202712 0,0 3.46667,1.769319 3.46667,1.769319 v 0 c 0.0156,-0.7541 -0.0252,-1.49016 -0.13958,-2.237457 z" />
    <path
       style="fill:#cccccc;fill-opacity:1;stroke-width:0.264583"
       id="path54"
       d="m 132.98012,45.419375 c 0.14308,0.958715 0.078,0.472754 0.19416,1.45802 0,0 3.48883,1.728806 3.48883,1.728806 v 0 c -0.10496,-0.984461 -0.053,-0.50038 -0.15585,-1.452253 z" />
    <path
       style="fill:#cccccc;fill-opacity:1;stroke-width:0.264583"
       id="path59"
       d="m 25.507645,56.320549 c 1.36138,0.0866 0.664793,0.03602 2.089627,0.153575 0,0 -3.091461,-2.285312 -3.091461,-2.285312 v 0 c -1.457169,-0.120933 -0.736236,-0.06529 -2.162757,-0.167474 z" />
    <text
       xml:space="preserve"
       transform="scale(0.26458333)"
       id="text59"
       style="font-style:normal;font-variant:normal;font-weight:normal;font-stretch:normal;font-size:64px;font-family:'JetBrainsMono Nerd Font Mono';-inkscape-font-specification:'JetBrainsMono Nerd Font Mono';white-space:pre;shape-inside:url(#rect59);fill:#cccccc;fill-opacity:1"><tspan
         x="96.232422"
         y="125.65962"
         id="tspan1">Me</tspan></text>
    <text
       xml:space="preserve"
       transform="matrix(0.26458333,0,0,0.26458333,-29.916262,-6.4878641)"
       id="text60"
       style="font-style:normal;font-variant:normal;font-weight:normal;font-stretch:normal;font-size:64px;font-family:'JetBrainsMono Nerd Font Mono';-inkscape-font-specification:'JetBrainsMono Nerd Font Mono';white-space:pre;shape-inside:url(#rect60);fill:#cccccc;fill-opacity:1"><tspan
         x="363.24023"
         y="418.55025"
         id="tspan2">The cool kids</tspan></text>
    <text
       xml:space="preserve"
       transform="matrix(0.26458333,0,0,0.26458333,-37.125,2.5230583)"
       id="text61"
       style="font-style:normal;font-variant:normal;font-weight:normal;font-stretch:normal;font-size:29.3333px;font-family:'JetBrainsMono Nerd Font Mono';-inkscape-font-specification:'JetBrainsMono Nerd Font Mono';white-space:pre;shape-inside:url(#rect61);fill:#cccccc;fill-opacity:1"><tspan
         x="589.37891"
         y="35.960256"
         id="tspan3">Where I want to be</tspan></text>
    <path
       style="fill:#cccccc;fill-opacity:1;stroke-width:0.264583"
       id="path61"
       d="m 178.04062,18.455253 c 0.44431,3.308479 0.79067,6.647991 0.68961,9.991977 -0.0261,0.863602 -0.11983,1.723834 -0.17974,2.585751 -0.25811,2.685527 -0.89374,5.302785 -2.2369,7.660513 -0.63474,1.114198 -1.33477,2.009675 -2.08838,3.035697 -1.13703,1.463747 -2.44602,2.815836 -4.05507,3.762097 -0.57413,0.337638 -1.42937,0.713457 -2.04389,0.99549 -0.71126,0.348199 -1.50371,0.374303 -2.25521,0.573476 -0.18614,0.04933 -0.36148,0.135636 -0.54869,0.180703 -0.1419,0.03416 -0.55979,-0.0186 -0.43429,0.05593 1.03721,0.615895 2.1605,1.073693 3.24075,1.610538 0.0574,-0.229929 0.0808,-0.471205 0.17233,-0.689788 0.26076,-0.622313 1.13135,-2.080392 1.4395,-2.586122 0.92674,-1.520928 1.93674,-2.981105 2.95912,-4.438332 0.2965,-0.370798 0.59301,-0.741596 0.88951,-1.112393 0.0812,0.143393 0.4073,0.448106 0.2435,0.43018 -1.1442,-0.125216 -2.28146,-1.158168 -3.36574,-0.771866 -0.66852,0.238183 -0.23008,1.400696 -0.3584,2.098691 -0.11668,0.634722 -0.74388,3.782137 -0.88414,4.488437 -0.0198,0.126904 -0.57203,2.530017 -0.0791,2.904894 1.41518,1.07619 3.03594,1.89774 4.70266,2.516619 0.67689,0.251346 1.44408,0.05197 2.16591,0.03381 1.53777,-0.03869 2.50595,-0.181959 4.00163,-0.35565 0.46057,-0.06962 0.92115,-0.139237 1.38172,-0.208854 0,0 -3.11565,-2.187483 -3.11565,-2.187483 v 0 c -0.44024,0.07749 -0.88048,0.154983 -1.32072,0.232474 -1.40378,0.17536 -2.48427,0.353814 -3.92528,0.334116 -0.72455,-0.0099 -1.93554,-0.85734 -2.16714,-0.170733 -0.24188,0.717097 0.99393,1.288555 1.72799,1.472647 0.91701,0.229975 -2.42142,-3.562848 -0.11538,-2.833889 0.42208,-2.275451 0.38156,-2.154269 0.89026,-4.482417 0.15168,-0.694235 0.77627,-1.436556 0.47228,-2.078863 -0.66155,-1.397813 -1.97501,-2.389405 -3.09279,-3.458086 -0.10512,-0.100499 -0.32211,-0.0079 -0.42608,0.0938 -0.34158,0.334065 -0.56664,0.769432 -0.84995,1.154147 -1.03096,1.463497 -2.03671,2.934605 -2.99255,4.448606 -0.24227,0.383741 -1.33141,2.114336 -1.57817,2.60441 -0.15205,0.301961 -0.25045,0.628071 -0.37568,0.942107 1.19525,0.754923 2.33915,1.598017 3.58573,2.264767 0.0608,0.03252 0.79119,-0.218921 0.96668,-0.265811 0.76044,-0.203171 1.54919,-0.307221 2.25792,-0.677232 0.6012,-0.296096 1.4913,-0.718969 2.04775,-1.063311 1.61669,-1.000437 2.95278,-2.381824 4.06967,-3.907938 1.09851,-1.55303 2.24399,-3.095122 2.99565,-4.857742 0.81871,-1.919867 1.09224,-4.023534 1.32352,-6.076428 0.0595,-0.872342 0.1519,-1.743062 0.17857,-2.617026 0.10066,-3.299092 -0.1469,-6.609911 -0.39798,-9.89546 z" />
  </g>
</svg>
