<?xml version="1.0" encoding="UTF-8" standalone="no"?>
<!-- Created with Inkscape (http://www.inkscape.org/) -->

<svg
   version="1.1"
   id="svg1"
   width="671.02618"
   height="671.32343"
   viewBox="0 0 671.02618 671.32343"
   xmlns="http://www.w3.org/2000/svg"
   xmlns:svg="http://www.w3.org/2000/svg">
  <defs
     id="defs1" />
  <g
     id="g1"
     transform="translate(191.59441,-100.26754)">
    <path
       style="fill:#FFFFFF"
       d="m -174.66852,770.84215 c -0.0552,-0.1375 -0.43137,-10.26369 -0.83599,-22.50266 -0.85227,-25.77965 0.17153,-23.02563 -8.87225,-23.86616 -6.69825,-0.62254 -7.19145,-0.82998 -7.19145,-3.02478 0,-2.69663 1.19067,-3.03652 3,-0.8564 0.79521,0.95816 3.0068,1.5 6.12245,1.5 7.69036,0 7.15281,-13.10733 -0.59719,-14.56124 -3.45043,-0.6473 -3.45043,-0.6473 -3.73784,-9.29303 -0.27117,-8.15703 -0.36714,-8.49029 -1.69793,-5.89573 -0.77578,1.5125 -1.78828,2.75 -2.25,2.75 -1.39689,0 -0.93975,-6.8414 0.51453,-7.70031 4.15183,-2.4521 4.9783,-12.88443 1.50674,-19.01927 -2.44382,-4.31864 -3.94033,-17.28042 -1.99512,-17.28042 0.6239,0 1.13236,0.7875 1.12992,1.75 -0.002,0.9625 1.14968,5.575 2.5603,10.25 1.41061,4.675 2.94164,10.075 3.40228,12 0.46064,1.925 1.62051,6.65 2.57748,10.5 0.95697,3.85 2.2415,9.7 2.8545,13 1.07672,5.79629 1.22689,6.01079 4.42293,6.31789 3.71831,0.35727 3.89696,2.48203 0.25353,3.01543 -2.20454,0.32275 -2.25748,0.57652 -1.66908,8 0.33423,4.21668 0.87612,16.44168 1.2042,27.16668 0.32808,10.725 1.00192,19.9275 1.49741,20.45 1.55288,1.63753 1.08372,7.55 -0.59911,7.55 -0.825,0 -1.54514,-0.1125 -1.60031,-0.25 z m -6.48669,-69 c -0.39697,-1.2375 -1.06295,-3.74815 -1.47994,-5.57922 -1.20925,-5.30999 -1.93306,-4.93709 -1.93306,0.99589 0,5.76413 0.4278,6.83333 2.73406,6.83333 0.99979,0 1.19413,-0.64402 0.67894,-2.25 z m -3.413,-14.25 c 0,-0.275 -0.225,-0.5 -0.5,-0.5 -0.275,0 -0.5,0.225 -0.5,0.5 0,0.275 0.225,0.5 0.5,0.5 0.275,0 0.5,-0.225 0.5,-0.5 z m 127.505805,52.75 c 0.28581,-16.9125 0.7407,-36.4875 1.01086,-43.5 0.31563,-8.19281 0.13237,-12.75 -0.51273,-12.75 -1.50337,0 -1.21003,-2.70693 0.35857,-3.30886 0.87081,-0.33416 1.61397,-3.07494 2.05936,-7.59492 0.42043,-4.26665 1.31558,-7.6908 2.25655,-8.63177 2.38047,-2.38047 2.58404,-1.29287 1.31947,7.04954 -1.39424,9.19785 -0.85836,12.05323 2.41634,12.87513 1.3374,0.33566 3.70382,1.62293 5.25871,2.86059 10.39026,8.27044 18.79836,8.97502 22.65014,1.89803 1.52252,-2.79737 3.19768,-5.35155 3.72257,-5.67595 0.5249,-0.3244 0.95436,-2.36327 0.95436,-4.53081 0,-2.83643 0.42041,-3.94098 1.5,-3.94098 1.17149,0 1.5,1.35322 1.5,6.179 0,5.62638 1.05155,10.86803 2.9733198,14.821 1.17606,2.41911 7.89216,2.47557 11.11416,0.0934 6.95203,-5.13985 10.0106002,-6.31466 11.9263402,-4.58093 8.69296,7.86702 34.92272,3.84765 35.08586,-5.37645 0.12199,-6.89744 1.01475,-10.34087 2.83863,-10.94883 1.1612,-0.38707 1.27281,2.6122 0.69557,18.6904 -0.77762,21.6593 -1.18698,20.72815 9.61612,21.87331 3.92599,0.41617 4.75,0.85256 4.75,2.51558 0,2.57122 -6.9104,1.99372 -14.34924,-1.19915 l -4.84923,-2.08137 0.34923,-8.99351 c 0.19208,-4.94642 0.12424,-8.99076 -0.15076,-8.98742 -0.275,0.003 -2.3,0.50717 -4.5,1.1196 -4.95433,1.37918 -26.84358,-0.58959 -30.20525,-2.71673 -1.99451,-1.26205 -2.47231,-1.14534 -5.0000002,1.22139 -1.53711,1.43924 -4.03225,3.05544 -5.54475,3.59156 -1.51249996,0.53612 -2.76214996,1.49324 -2.77700996,2.12694 -0.0149,0.63369 -0.12735,13.36244 -0.25,28.28611 l -0.22299004,27.13393 5.89669,0.61607 c 22.7873302,2.38073 44.4793002,-0.93813 41.3007402,-6.319 -0.93359,-1.5804 -1.69743,-4.24538 -1.69743,-5.92214 0,-2.82554 -0.78413,-5.44934 -3.20709,-10.73132 -1.39357,-3.03793 -1.56615,-26.62153 -0.19828,-27.09535 0.73096,-0.2532 1.3098,3.62258 1.74229,11.66604 0.3776,7.02257 1.27635,13.54988 2.15537,15.65367 0.82924,1.98465 1.50771,4.97352 1.50771,6.64193 0,1.66842 1.02774,4.42596 2.28386,6.12788 3.41041,4.62074 4.7326,8.26207 4.11724,11.33896 -0.39187,1.95942 0.19282,3.85159 2.02392,6.54984 3.06524,4.51684 3.09585,4.70559 0.76304,4.70559 -1.97187,0 -6.18806,-5.02676 -6.18806,-7.37772 0,-4.44802 -4.63008,-5.60844 -8.90395,-2.23157 -0.92645,0.73201 -8.49389,1.10929 -22.25003,1.10929 H -2.5682752 l 3e-5,4.25 c 3e-5,3.24391 -0.3819,4.25 -1.61338,4.25 -1.42198,0 -1.54171,-1.27553 -1.00907,-10.75 2.50201,-44.50544 1.4684,-57.89986 -3.80904,-49.36078 -0.30227,0.48907 -1.7913198,1.19911 -3.3090198,1.57786 -1.5177,0.37875 -4.27175,1.83949 -6.12012,3.24609 -7.08956,5.39509 -19.82331,2.53485 -29.38933,-6.60139 l -4.75,-4.5366 -0.003,17.46241 c -0.0066,33.08735 -1.03126,48.96241 -3.16049,48.96241 -1.77165,0 -1.82826,-1.30829 -1.33071,-30.75 z m 36.71736,-27.78014 c 2.35226,-1.39157 5.51434,-3.01059 7.02684,-3.59782 1.5125,-0.58723 2.75,-1.44237 2.75,-1.90031 0,-0.45795 0.9635198,-0.97643 2.1411498,-1.15218 3.94062,-0.58811 4.40298,-4.81955 0.52663,-4.81955 -3.7381798,0 -5.6521098,-1.49337 -5.7032198,-4.45 -0.10905,-6.30901 -3.68756,-7.4109 -5.44839,-1.67766 -1.00847,3.28358 -14.78599,2.78296 -19.50897,-0.70889 -1.60942,-1.1899 -3.37445,-2.16345 -3.9223,-2.16345 -0.54784,0 -2.65386,-1.125 -4.68004,-2.5 -2.02617,-1.375 -4.12194,-2.5 -4.65725,-2.5 -1.65701,0 -0.40916,14.28309 1.2953,14.82638 0.8014,0.25544 3.70709,2.72979 6.45709,5.49856 7.63628,7.68841 16.26172,9.55903 23.72316,5.14492 z m 263.776835,57.65897 c 0,-0.47914 2.28926,-1.17485 5.08725,-1.54602 5.7476,-0.76244 8.07279,-1.88665 12.06397,-5.83281 1.52976,-1.5125 3.19314,-2.75 3.69641,-2.75 1.24768,0 10.15115,-9.24265 10.15183,-10.53856 3e-4,-0.57121 0.91239,-2.82121 2.02688,-5 1.11448,-2.17879 2.92814,-6.98082 4.03035,-10.67118 1.10221,-3.69036 2.4776,-7.00244 3.05643,-7.36017 1.75969,-1.08755 4.88688,-9.38327 4.88688,-12.96377 0,-5.1345 2.00794,-13.6156 4.01687,-16.96632 0.98925,-1.65 2.11757,-6.0375 2.50738,-9.75 0.4808,-4.57905 1.13473,-6.75 2.03323,-6.75 1.66423,0 2.77219,1.67822 1.59023,2.40871 -0.4867,0.3008 -1.20601,3.80556 -1.59847,7.78835 -0.39245,3.98279 -1.19901,8.14853 -1.79235,9.25719 -1.22396,2.28699 -3.75261,14.76498 -3.75828,18.54575 -0.002,1.375 -1.59248,5.13474 -3.53425,8.35498 -1.94177,3.22023 -4.00167,8.17023 -4.57754,11 -0.57588,2.82976 -1.82889,6.27002 -2.78447,7.64502 -0.95557,1.375 -2.07034,3.4 -2.47726,4.5 -1.5775,4.26438 -7.26605,11.5154 -10.12509,12.90613 -1.65,0.80262 -4.8,3.06423 -7,5.0258 -3.93402,3.50768 -17.5,5.59831 -17.5,2.6969 z m 115.02224,0.12117 c 0.0122,-0.4125 0.90222,-1.875 1.97776,-3.25 1.07554,-1.375 1.96553,-3.02797 1.97776,-3.67327 0.0122,-0.64531 1.10952,-2.46544 2.43842,-4.04475 1.3289,-1.5793 2.72971,-4.54274 3.11292,-6.58542 0.38321,-2.04268 1.47731,-4.72254 2.43133,-5.95526 0.95402,-1.23271 2.01735,-3.40137 2.36295,-4.81924 0.34559,-1.41786 1.77071,-3.81055 3.16691,-5.31708 2.81507,-3.03752 5.48559,-18.47724 5.50164,-31.80798 0.008,-6.98006 -1.83511,-8.76592 -9.07526,-8.79142 -0.87084,-0.003 -1.87324,-0.29549 -2.22757,-0.64982 -0.35433,-0.35433 -5.35234,-1.85488 -11.1067,-3.33457 -8.20164,-2.10899 -11.60988,-3.5475 -15.77243,-6.65705 -2.92048,-2.18169 -7.78497,-5.0105 -10.80997,-6.28624 -3.025,-1.27575 -7.3,-3.34737 -9.5,-4.6036 -2.2,-1.25623 -6.42228,-2.6023 -9.38285,-2.99128 -2.96057,-0.38898 -6.78557,-1.52548 -8.5,-2.52556 -1.74202,-1.01617 -6.3826,-2.1332 -10.51931,-2.53209 -8.22938,-0.79354 -22.51769,-7.15744 -24.52981,-10.92537 -0.58742,-1.1 -1.3872,-2.24023 -1.7773,-2.53385 -2.34967,-1.76851 -3.57693,-35.96615 -1.29073,-35.96615 1.16574,0 1.51585,1.39273 1.57115,6.25 0.33971,29.84156 6.01618,37.88331 28.0279,39.70664 7.69814,0.63767 9.36548,1.10949 11.68987,3.30794 1.98889,1.88113 4.295,2.75741 8.65708,3.28952 3.2703,0.39893 8.06065,1.78745 10.64522,3.08561 2.58458,1.29816 5.10521,2.36029 5.6014,2.36029 0.49619,0 5.28572,2.7 10.64341,6 5.35769,3.3 10.28636,6.00277 10.95261,6.00616 0.66625,0.003 2.56136,0.72228 4.21136,1.59754 4.02221,2.13362 20.59725,5.44514 23.48049,4.69115 2.49898,-0.6535 2.78481,27.7865 0.3107,30.91509 -0.5611,0.70953 -1.27333,3.87449 -1.58273,7.03323 -0.33769,3.4476 -1.39111,6.90679 -2.6355,8.65437 -1.14013,1.60116 -2.08548,3.51673 -2.10078,4.25683 -0.0153,0.7401 -1.37485,3.1261 -3.02122,5.30223 -1.64637,2.17613 -3.265,5.65513 -3.59697,7.73112 -0.33196,2.07599 -1.22241,4.28812 -1.97878,4.91585 -0.75637,0.62772 -1.37521,2.00034 -1.37521,3.05026 0,1.04992 -0.675,2.16796 -1.5,2.48454 -0.825,0.31659 -1.5,1.20246 -1.5,1.96862 0,0.81921 -1.02978,1.39301 -2.5,1.39301 -1.375,0 -2.48999,-0.3375 -2.47776,-0.75 z m 84.33397,-2 c 1.12956,-6.03022 1.96461,-12.83698 1.76544,-14.39065 -0.19774,-1.54254 1.92356,-5.94632 5.47585,-11.3678 0.85799,-1.30947 1.9734,-4.99326 2.47868,-8.1862 0.50527,-3.19294 1.45864,-9.18035 2.1186,-13.30535 3.78238,-23.64152 0.20618,-74.91813 -6.11661,-87.70169 -1.14299,-2.31094 -2.07817,-4.6576 -2.07817,-5.21482 0,-1.13234 -4.05301,-3.63654 -5.30485,-3.27766 -0.44267,0.12691 -1.7803,-0.45249 -2.97251,-1.28755 -1.19221,-0.83505 -3.16597,-1.51828 -4.38613,-1.51828 -1.22016,0 -2.49174,-0.44216 -2.82574,-0.98257 -0.33399,-0.54042 -4.52305,-2.17404 -9.30902,-3.63028 -4.78596,-1.45623 -11.12837,-3.71767 -14.09423,-5.02541 -5.83648,-2.57348 -22.26075,-6.7398 -31.10752,-7.891 -3.025,-0.39364 -8.425,-1.98001 -12,-3.52527 -3.575,-1.54527 -11,-4.22973 -16.5,-5.96548 -5.5,-1.73574 -11.36316,-3.99162 -13.02924,-5.01306 -3.24779,-1.99117 -6.43205,-2.19505 -21.14137,-1.35365 -5.54787,0.31735 -10.68336,0.0743 -13,-0.61527 -2.37069,-0.70565 -16.97124,-1.3386 -38.32939,-1.66162 -34.66387,-0.52426 -36.67575,-0.66494 -33.97104,-2.37545 2.02909,-1.28324 46.67652,-1.2465 47.47104,0.0391 0.33992,0.55 2.58992,1 5,1 2.41008,0 4.66008,-0.45 5,-1 0.74477,-1.20507 10.70644,-1.34443 12.05,-0.16858 3.92118,3.43174 18.33446,4.19122 22.17713,1.16858 1.39842,-1.1 3.2694,-1.99423 4.15773,-1.98718 0.88833,0.007 4.82088,-0.73685 8.739,-1.65311 l 7.12387,-1.66592 0.18574,-62.0969 c 0.19507,-65.21169 0.41391,-78.71326 1.29989,-80.19453 0.29684,-0.4963 0.86475,-4.19778 1.26201,-8.22551 0.48515,-4.91874 1.19323,-7.50386 2.1566,-7.87354 2.31113,-0.88686 2.48763,0.0631 1.34297,7.22838 -1.47489,9.23243 -0.76457,11.81749 3.80556,13.84954 3.73476,1.66061 5.62486,2.74168 10.21936,5.84512 6.3815,4.31049 13.22306,3.41149 16.28783,-2.14028 1.54422,-2.79734 3.23172,-5.08607 3.75,-5.08607 0.51827,0 0.94231,-2.025 0.94231,-4.5 0,-3.33333 0.38889,-4.5 1.5,-4.5 1.18627,0 1.5,1.42222 1.5,6.8 0,3.74 0.49831,7.29831 1.10735,7.90735 0.60904,0.60904 1.41243,2.61154 1.78531,4.45 1.02441,5.05081 16.10734,3.75252 16.10734,-1.3865 0,-0.42399 0.51289,-0.77089 1.13976,-0.77089 0.62686,0 1.74624,-0.7875 2.48749,-1.75 1.26853,-1.64714 1.45133,-1.62132 3.11025,0.43937 2.03583,2.52891 3.6534,2.97679 15.34538,4.24894 14.11713,1.53602 19.9102,-0.5892 19.92813,-7.31075 0.0199,-7.45012 1.10508,-11.75222 2.87741,-11.40678 1.40506,0.27386 1.54856,1.78555 1.11983,11.79666 -0.27046,6.31541 -0.49546,14.63256 -0.5,18.48256 l -0.008,7 7.24772,2 c 4.55594,1.25721 7.24857,2.51598 7.25,3.38929 0.003,1.84605 -9.11146,0.84488 -12.2367,-1.34413 -1.21357,-0.84984 -3.00615,-1.54516 -3.98378,-1.54516 -1.58342,0 -1.77749,-1.07905 -1.77749,-9.88303 v -9.88304 l -4.25,1.49407 c -4.42814,1.55668 -29.75,0.0789 -29.75,-1.73618 0,-2.34845 -4.24318,-1.47553 -7.85487,1.61595 -2.17968,1.86572 -4.62654,3.39223 -5.43746,3.39223 -2.1297,0 -2.58096,2.9057 -1.49275,9.61191 0.98384,6.06302 0.42054,39.84931 -0.74189,44.49798 -0.91947,3.67707 36.81363,6.47136 39.02697,2.89011 0.33992,-0.55 1.68718,-1 2.99392,-1 5.77884,0 7.86199,-1.73207 5.57694,-4.63705 -1.23365,-1.56833 -2.07086,-4.10532 -2.07086,-6.2753 0,-2.00345 -0.68446,-4.61984 -1.52102,-5.8142 -2.81724,-4.02217 -4.81223,-30.33142 -2.41245,-31.81457 2.01424,-1.24487 2.43471,0.73165 3.00984,14.14823 0.35205,8.21272 1.03313,13.90239 1.75,14.61926 0.6455,0.6455 1.17363,3.02378 1.17363,5.28507 0,2.88347 0.67201,4.83073 2.25,6.51976 3.01931,3.23177 4.93329,7.04877 4.32689,8.62903 -0.57068,1.48717 1.91561,10.36875 3.14933,11.25009 1.55501,1.11085 6.99894,8.5881 8.76632,12.04056 1.69556,3.31215 3.82743,15.62105 5.30804,30.64728 0.38468,3.90399 1.20324,7.72899 1.81903,8.5 0.61579,0.77101 1.42156,3.20184 1.79062,5.40184 0.36906,2.2 1.04779,5.125 1.50829,6.5 0.46049,1.375 1.64311,7 2.62804,12.5 0.98492,5.5 2.16508,10.49636 2.62258,11.10303 1.32482,1.7568 2.31213,19.39697 1.08564,19.39697 -0.57459,0 -1.29093,-1.6875 -1.59187,-3.75 -0.30095,-2.0625 -1.24712,-7.575 -2.10262,-12.25 -0.8555,-4.675 -1.84226,-10.19847 -2.19281,-12.27438 -0.35055,-2.07591 -1.02664,-4.01497 -1.50242,-4.30902 -0.47578,-0.29405 -0.86506,-1.77207 -0.86506,-3.28449 0,-1.51242 -0.66069,-3.62336 -1.4682,-4.69098 -0.8075,-1.06762 -1.4825,-3.12205 -1.5,-4.5654 -0.0175,-1.44335 -0.7068,-4.53743 -1.5318,-6.87573 -0.825,-2.3383 -1.51595,-6.78238 -1.53544,-9.87573 -0.0195,-3.09335 -0.67854,-6.74927 -1.46456,-8.12427 -0.78602,-1.375 -1.44508,-3.8725 -1.46456,-5.55 -0.0195,-1.6775 -0.59794,-3.62029 -1.28544,-4.31732 -1.00151,-1.01538 -0.90211,-1.52435 0.5,-2.56024 2.23073,-1.64809 2.20504,-2.99461 -0.12142,-6.36293 -9.15876,-13.26038 -14.13104,-21.49247 -14.14389,-23.41658 -0.0202,-3.0199 -1.49392,-5.39603 -2.41871,-3.89969 -0.37621,0.60872 -1.69246,1.10676 -2.925,1.10676 -1.23254,0 -2.80362,0.5625 -3.49129,1.25 -0.92066,0.92043 -6.77377,1.25 -22.20008,1.25 h -20.94977 l 8e-5,5.05064 c 8e-5,4.89556 -1.72116,10.42565 -3.24992,10.44156 -0.4125,0.004 -0.75,0.72432 -0.75,1.60007 0,0.87575 -0.9,2.73644 -2,4.13486 -1.1,1.39842 -2,3.1569 -2,3.90773 0,0.75083 -0.39541,1.36514 -0.87868,1.36514 -0.48327,0 -1.44228,1.36066 -2.13114,3.0237 -0.68885,1.66303 -1.78022,3.35053 -2.42527,3.75 -1.76033,1.09013 -4.56491,7.66328 -4.56491,10.69886 0,1.46866 -0.675,3.3453 -1.5,4.1703 -0.825,0.825 -1.5,3.04285 -1.5,4.92857 0,1.88571 -0.34043,3.42857 -0.75652,3.42857 -1.36311,0 -3.24348,7.85155 -3.24348,13.54327 0,3.46186 -0.37901,5.34052 -1,4.95673 -1.25754,-0.7772 -1.32511,-15.76543 -0.0769,-17.05 0.50773,-0.5225 1.37352,-3.2 1.92399,-5.95 1.81555,-9.07007 3.93653,-16.74675 4.80141,-17.37827 1.46717,-1.07131 5.00877,-6.51194 7.71367,-11.84982 1.42987,-2.82171 3.06566,-5.41831 3.63509,-5.77024 0.56943,-0.35193 0.75584,-1.09208 0.41424,-1.6448 -0.34159,-0.55271 0.43857,-2.13193 1.73369,-3.50938 4.65903,-4.95514 6.97461,-64.34749 2.50881,-64.34749 -1.39478,0 -2.79268,0.41538 -3.10645,0.92306 -0.31377,0.50769 -2.02782,1.24095 -3.80902,1.62946 -1.78119,0.38852 -4.51056,1.77314 -6.06526,3.07694 -5.93668,4.9786 -20.69757,1.72631 -28.91935,-6.37184 l -4.75392,-4.68244 -0.0884,20.96241 c -0.0486,11.52933 -0.41717,28.16241 -0.81898,36.96241 -0.45237,9.90742 -0.36374,16.48603 0.23277,17.27639 0.56874,0.75358 0.74093,6.42599 0.42037,13.84861 -0.29863,6.91472 -0.163,12.19034 0.30138,11.72361 1.5905,-1.59855 25.45288,-0.0503 25.45288,1.65139 0,2.05285 -24.37791,2.79604 -25.6558,0.78215 -0.45073,-0.71032 -0.8204,3.05779 -0.82889,8.4488 -0.0167,10.5975 0.38096,9.90647 -6.31813,10.98012 -4.08892,0.65532 -1.66394,2.46663 7.30282,5.45475 5.225,1.7412 10.85,3.8284 12.5,4.63823 5.47179,2.68557 11.88809,4.63106 22,6.67063 5.5,1.10935 11.8,2.66963 14,3.46728 2.2,0.79766 6.7,2.13667 10,2.97559 3.3,0.83891 10.88329,3.30214 16.85175,5.47384 l 10.85176,3.94855 -0.69738,-3.16997 c -0.38358,-1.74348 -1.01205,-8.11997 -1.39663,-14.16997 -0.38457,-6.05 -1.18563,-12.125 -1.78012,-13.5 -0.59449,-1.375 -1.41219,-4.975 -1.81712,-8 -0.40492,-3.025 -1.08031,-5.95 -1.50086,-6.5 -1.19086,-1.55742 -2.27977,-12.5 -1.24389,-12.5 1.15472,0 3.23247,4.49173 3.23247,6.98804 0,1.04166 0.45,2.17204 1,2.51196 0.55,0.33992 1,2.16648 1,4.05902 0,1.89254 0.40469,3.44098 0.89931,3.44098 1.13367,0 1.91418,6.0124 2.92086,22.5 0.50571,8.28268 1.31738,13.86387 2.23678,15.38065 1.12682,1.85895 1.16776,2.48031 0.18682,2.83541 -1.88038,0.6807 -0.4421,2.28177 2.06525,2.299 7.79015,0.0535 13.23195,4.19161 15.76085,11.98494 3.48261,10.73239 3.93013,12.51113 3.93013,15.621 0,1.63845 0.44199,3.42099 0.98219,3.96119 3.73091,3.73091 3.24923,75.39392 -0.54314,80.8083 -0.79148,1.12999 -1.43905,3.74156 -1.43905,5.8035 0,2.06194 -1.04967,6.12431 -2.33261,9.0275 -1.97228,4.4631 -4.23487,12.62104 -6.24825,22.52851 -0.25149,1.2375 -1.15943,2.25 -2.01765,2.25 -1.16047,0 -1.42837,-0.70483 -1.04528,-2.75 z M 375.95073,469.6455 c 1.76424,-1.34565 4.39847,-2.7455 5.85383,-3.11077 1.45537,-0.36528 2.89343,-1.06429 3.1957,-1.55336 0.30226,-0.48907 1.39086,-0.88922 2.41912,-0.88922 2.21392,0 5.01241,-2.55229 5.01241,-4.57143 0,-0.94949 -1.10667,-1.42857 -3.3,-1.42857 -3.62606,0 -5.7,-1.4864 -5.7,-4.08519 0,-0.92685 -0.59222,-3.09366 -1.31604,-4.81512 l -1.31604,-3.12994 -1.97688,3.76513 c -3.54345,6.74879 -16.86187,4.94505 -30.64104,-4.14978 -2.75,-1.81512 -2.75,-1.81512 -2.75,1.17489 0,1.64451 -0.28514,4.41571 -0.63364,6.15823 -1.96741,9.83701 22.75637,23.03923 31.15258,16.63513 z M 78.019375,721.59215 c -1.27431,-1.375 -2.97167,-2.5 -3.77192,-2.5 -1.99479,0 -5.62527,-4.36479 -6.42945,-7.72989 -0.36409,-1.52356 -1.03255,-3.24527 -1.48546,-3.82602 -1.13913,-1.46066 -2.8888,-21.00107 -2.34544,-26.19409 0.24458,-2.3375 0.6341,-6.1039 0.8656,-8.36979 l 0.42091,-4.11978 -20.67091,0.19137 c -26.98124,0.24978 -41.1709102,-1.32474 -41.1709102,-4.56843 0,-1.69318 1.79778,-1.66608 14.0000002,0.21107 6.48749,0.99802 15.84212,1.38598 29.5,1.22346 32.69816,-0.3891 32.79966,-0.38664 33.20237,0.80488 0.2394,0.70832 -1.67885,1.29346 -5.19664,1.58519 -3.06686,0.25433 -6.12278,1.01241 -6.79092,1.68462 -1.92067,1.93237 -1.47528,31.58762 0.50871,33.87157 0.82932,0.95471 1.78352,2.90022 2.12044,4.32336 0.80772,3.41178 4.40682,7.91248 6.32741,7.91248 0.83942,0 2.7873,1.35 4.32863,3 2.32805,2.49218 3.58087,3 7.40121,3 2.52933,0 4.59879,0.45 4.59879,1 0,2.38802 -12.97986,1.12477 -15.41242,-1.5 z M 193.43179,710.24219 c 0,-1.60771 1.36828,-4.73881 3.13909,-7.18335 1.7265,-2.38337 3.86683,-6.38838 4.75628,-8.90004 2.1102,-5.95886 3.8381,-8.17382 8.13835,-10.43247 2.45444,-1.28916 4.08428,-3.18718 5.33635,-6.2144 0.99145,-2.3971 3.24259,-6.28468 5.00254,-8.63907 3.29199,-4.40391 6.62739,-13.47861 6.62739,-18.03132 0,-1.41615 1.60654,-4.9766 3.57008,-7.91211 4.2033,-6.28394 4.84944,-27.16707 1.08137,-34.95004 -2.07166,-4.27904 -2.00089,-16.94717 0.0985,-17.64088 0.9132,-0.30174 1.25,1.31898 1.25,6.01508 0,3.74186 0.82551,8.89585 1.97541,12.33333 3.26236,9.75238 2.88853,27.9467 -0.72541,35.30556 -1.5125,3.07982 -3.26536,7.84967 -3.89524,10.59967 -1.60546,7.00933 -4.22347,13.81657 -5.77341,15.01179 -0.72163,0.55648 -2.77871,3.93148 -4.57128,7.5 -1.79257,3.56851 -3.76566,6.79265 -4.38464,7.16475 -5.37588,3.23168 -16.62538,19.7407 -16.62538,24.39837 0,0.79668 -3.46208,4.42509 -4.22224,4.42509 -0.42777,0 -0.77776,-1.28248 -0.77776,-2.84996 z M -46.058565,666.10774 c -1.52765,-2.47177 2.33169,-2.98522 22.5518,-3.00028 21.2519498,-0.0158 24.9385598,-0.76302 24.9385598,-5.0545 0,-0.52871 2.5875,-3.54868 5.75,-6.71105 l 5.7500002,-5.74976 -5.0000002,-0.27114 c -2.75,-0.14913 -5.9,-0.68609 -6.99999996,-1.19325 -1.1,-0.50715 -3.80000004,-1.13599 -6.00000004,-1.39742 -2.2,-0.26143 -6.0249998,-0.99449 -8.4999998,-1.62901 -2.475,-0.63453 -6.075,-1.38126 -8,-1.6594 -1.925,-0.27815 -4.91801,-1.14563 -6.65113,-1.92775 -1.73312,-0.78212 -3.49064,-1.42203 -3.90561,-1.42203 -0.41496,0 -2.19746,-1.10062 -3.96111,-2.44582 -2.49101,-1.89998 -4.96693,-2.60143 -11.09439,-3.14313 -7.39348,-0.65363 -10.78402,-1.80887 -20.54205,-6.99922 -1.45986,-0.77651 -5.13486,-1.41183 -8.16667,-1.41183 -3.1425,0 -5.67107,-0.4761 -5.88151,-1.10742 -0.59904,-1.7971 -22.457205,-2.06162 -26.620335,-0.32215 -4.72846,1.97568 -9.13188,1.77754 -12.6772,-0.57043 -1.65,-1.09275 -3.65081,-1.98979 -4.44624,-1.99341 -1.57726,-0.007 -6.83163,-3.38447 -14.39355,-9.25154 -6.4219,-4.98255 -18.57144,-5.55476 -25.88336,-1.21902 -2.35227,1.39482 -5.85185,3.21611 -7.77685,4.04732 -10.53265,4.54797 -12.15635,5.75565 -14.28128,10.62216 -2.48929,5.70094 -3.71872,6.10684 -3.71872,1.22777 0,-6.45629 8.56979,-14.33938 15.66667,-14.41132 1.19167,-0.0121 2.31667,-0.35946 2.5,-0.77196 1.76385,-3.96867 9.62435,-6.75918 19.95791,-7.08515 l 10.62457,-0.33514 -0.77981,-3.66486 c -0.42889,-2.01567 -1.09505,-8.61485 -1.48036,-14.66485 -0.84016,-13.19214 -0.79164,-13.08852 -4.80046,-10.25148 -1.75368,1.24108 -3.91662,2.70537 -4.80652,3.25399 -0.8899,0.54862 -3.91279,2.79749 -6.71753,4.99749 -18.06027,14.16621 -24.46696,18.11686 -27.31725,16.84503 -1.92733,-0.86 7.84621,-9.34503 10.76413,-9.34503 0.43639,0 2.25768,-1.4192 4.04731,-3.15378 1.78964,-1.73458 4.79555,-4.09708 6.67982,-5.25 11.32151,-6.92727 20.86051,-15.59622 17.16152,-15.59622 -1.23868,0 -1.5,-1.84064 -1.5,-10.56574 0,-11.2746 0.34991,-12.5042 5.01033,-17.60671 1.64996,-1.80648 3.22447,-3.99195 3.4989,-4.85662 0.54602,-1.72035 5.84138,-3.97093 9.34316,-3.97093 1.21571,0 2.46941,-0.675 2.78599,-1.5 1.35448,-3.52972 36.605636,-2.02192 42.109315,1.80114 2.91186,2.0227 5.62368,3.15759 7.00231,2.93045 1.5351,-0.25291 2.25,0.12801 2.25,1.19886 0,0.86325 -0.45,1.56955 -1,1.56955 -0.55,0 -1,1.01267 -1,2.25037 0,1.23771 -0.75392,5.40021 -1.67538,9.25 -1.09075,4.55709 -1.8759,13.5262 -2.25,25.70294 -0.39809,12.95751 -0.95863,19.08629 -1.82462,19.95 -0.6875,0.68568 -1.25,2.07081 -1.25,3.07807 0,1.00727 -0.63502,2.07507 -1.41115,2.3729 -0.77613,0.29783 -1.999368,2.5337 -2.718311,4.96861 -1.282426,4.34331 -1.388219,4.42711 -5.588854,4.42711 -5.08397,0 -5.23158,0.57584 -1.281685,5 1.65,1.84812 3,4.12135 3,5.05162 0,1.38663 1.3965,1.80959 7.75,2.34727 19.16872,1.62221 23.23007,2.17999 24.40062,3.35111 0.68716,0.6875 1.94688,1.25819 2.79938,1.2682 0.8525,0.01 3.42982,1.29258 5.72739,2.85017 3.39677,2.30277 5.71014,2.95979 12.37982,3.51602 4.51133,0.37623 9.14414,1.34366 10.29512,2.14984 1.15097,0.80617 2.50053,1.46577 2.99901,1.46577 1.22284,0 -0.0387,-9.00742 -1.87807,-13.40973 -0.8103,-1.93932 -1.47327,-6.15049 -1.47327,-9.35815 0,-3.20767 -0.49012,-6.32224 -1.08915,-6.92127 -0.59904,-0.59904 -1.32004,-6.42654 -1.60223,-12.95 l -0.51306,-11.86085 6.35222,-6 c 13.48514,-12.73741 31.7079698,-17.11852 43.3987,-10.43386 9.5719,5.47312 13.45352,6.77182 13.45352,4.50125 0,-4.11598 20.95311,-0.76688 22.83333,3.64963 0.18334,0.43064 1.14769,0.78298 2.14301,0.78298 1.93116,0 3.42352,2.544 2.43276,4.14708 -0.32856,0.53162 -0.27846,2.17851 0.11134,3.65976 0.65502,2.48907 0.77049,2.5416 1.52386,0.69316 0.72493,-1.77868 0.82291,-1.70753 0.88541,0.64301 0.0387,1.45366 0.74529,2.90203 1.57029,3.21862 0.825,0.31658 1.5,1.22722 1.5,2.02365 0,0.79643 0.50707,1.61708 1.12683,1.82366 0.61976,0.20659 1.35735,2.83159 1.63909,5.83334 0.28174,3.00174 0.78973,5.68272 1.12886,5.95772 4.80212,3.89404 6.36302,8.33661 7.02691,19.99971 0.36961,6.4932 1.18616,12.42531 1.81455,13.18248 0.6284,0.75717 1.10115,2.83227 1.05057,4.61133 -0.13764,4.84091 0.55807,4.82748 7.00758,-0.13531 3.25419,-2.50404 7.51295,-5.31399 9.4639,-6.24434 1.95096,-0.93034 4.02566,-2.74165 4.61044,-4.02512 0.58479,-1.28346 2.20356,-2.61977 3.59726,-2.96957 1.98116,-0.49724 2.534005,-1.26686 2.534005,-3.52759 0,-1.59037 0.44085,-2.89159 0.97968,-2.89159 1.42925,0 5.02032,-7.49193 5.02032,-10.47373 0,-1.40437 0.42694,-3.3348 0.94876,-4.28984 0.52182,-0.95504 1.22804,-3.89828 1.56938,-6.54054 0.91696,-7.0979 8.7752,-7.05212 9.28936,0.0541 0.16912,2.3375 0.67094,4.25 1.11514,4.25 1.54881,0 5.72098,-3.87824 8.52496,-7.92438 3.72713,-5.37825 7.0754,-5.68593 6.24584,-0.57394 -0.51691,3.18533 -0.39915,3.41119 1.30342,2.5 4.77028,-2.55297 9.25893,1.57533 5.99236,5.51131 -1.03761,1.25024 -0.82595,1.48701 1.32932,1.48701 2.82083,0 3.92022,1.01972 2.86548,2.65783 -1.36749,2.12383 -15.18402,2.33102 -15.18402,0.2277 0,-1.12838 0.95707,-2.08764 2.45898,-2.46459 1.35244,-0.33944 2.98254,-1.24802 3.62245,-2.01905 1.7356,-2.09127 0.36089,-1.7062 -4.20996,1.17925 -2.57132,1.6232 -4.89698,2.37829 -6.26647,2.03457 -2.53884,-0.63721 -7.605,3.19365 -7.605,5.75064 0,0.89851 -0.70225,1.63365 -1.56055,1.63365 -1.329,0 -1.45966,-1.02393 -0.88056,-6.90089 0.61679,-6.25942 0.49407,-7.0004 -1.32018,-7.97135 -2.09643,-1.12198 -3.23871,1.47907 -3.23871,7.3748 0,1.2389 -0.675,2.81275 -1.5,3.49744 -0.825,0.68469 -1.5,2.39534 -1.5,3.80145 0,3.13802 -2.10893,9.19856 -3.20089,9.19856 -0.43951,0 -0.79911,0.65948 -0.79911,1.46552 0,1.67972 -5.413245,7.53448 -6.966295,7.53448 -0.56853,0 -1.0337,0.58314 -1.0337,1.29588 0,0.71273 -5.0625,4.61223 -11.25,8.66556 -6.1875,4.05332 -11.4,7.74518 -11.58333,8.20412 -0.50246,1.25781 -3.94555,1.00124 -4.7847,-0.35654 -0.40484,-0.65504 -0.2064,-1.36754 0.44098,-1.58334 2.75303,-0.91767 0.83843,-2.22568 -3.25785,-2.22568 -8.65354,0 -10.82619,-1.66314 -15.67627,-12 -1.67739,-3.575 -3.55828,-7.54734 -4.17974,-8.82743 -2.64969,-5.45785 -4.70909,-4.715 -4.70909,1.69863 0,5.55379 0.1378,5.90552 2.11147,5.3894 1.92267,-0.50279 2.0479,-0.26269 1.40048,2.68501 -0.75267,3.42688 3.12201,9.05439 6.23416,9.05439 0.75456,0 1.09381,0.45 0.75389,1 -1.091,1.76527 -5.43088,1.06912 -7.74186,-1.24186 -2.24187,-2.24187 -2.24187,-2.24187 -3.09532,2.42958 -0.74677,4.08751 -2.97561,6.83282 -4.39501,5.41343 -0.24526,-0.24527 0.0442,-3.60456 0.64313,-7.4651 1.70357,-10.97977 1.44635,-23.78497 -0.49273,-24.52906 -2.78447,-1.0685 -4.17159,-0.65808 -4.70796,1.39301 -0.461,1.76288 -1.36401,2 -7.61663,2 -6.62395,0 -9.06366,-1.03005 -5.59362,-2.36163 2.7427,-1.05247 0.76929,-6.63837 -2.34524,-6.63837 -0.54345,0 -1.13809,-0.39052 -1.32143,-0.86782 -0.92475,-2.40755 -4.61228,-2.14906 -5.24392,0.36761 -0.4557802,1.81596 -1.5076302,2.73385 -3.6160802,3.15554 -2.02915,0.40583 -2.97333,1.19007 -2.97333,2.46967 0,1.03125 -0.45,1.875 -1,1.875 -0.55,0 -1,-0.54 -1,-1.2 0,-0.93333 -0.26667,-0.93333 -1.19999996,0 -1.33358004,1.33358 -4.80000004,1.6387 -4.80000004,0.42251 0,-1.02555 3.09685,-5.52424 4.44204004,-6.45281 0.66823,-0.46127 0.0352,-1.75058 -1.71840004,-3.5 -8.6368098,-8.6161 -9.7141998,-14.41109 -1.47364,-7.92634 0.9625,0.75742 1.75,1.60845 1.75,1.89119 0,0.77537 6.5476,7.76545 7.27389,7.76545 0.34753,0 0.3654,-2.25 0.0397,-5 -0.6423,-5.42327 1.13646,-6.90957 3.8895,-3.25 3.0338702,4.03288 5.6811502,5.59096 7.2654202,4.27614 2.22223,-1.84429 4.52628,-0.48622 4.56793,2.69248 0.0532,4.05761 6.99698,9.42332 8.15249,6.29969 0.97592,-2.63815 3.58485,-3.64068 5.82831,-2.23962 0.96377,0.60189 2.70416,0.84542 3.86753,0.54119 1.22102,-0.3193 2.11523,-0.0811 2.11523,0.56349 0,0.61415 0.59081,1.11663 1.31291,1.11663 0.7221,0 2.55645,1.29798 4.07634,2.8844 1.62701,1.69824 4.27416,3.1373 6.43709,3.49937 4.65287,0.7789 6.64355,2.04692 5.67464,3.61464 -0.47938,0.77565 -2.01952,1.01685 -4.21648,0.66033 -2.98001,-0.48359 -3.36233,-0.32512 -2.74986,1.13979 0.39126,0.93581 1.21853,3.05147 1.83837,4.70147 0.61984,1.65 1.68949,3.59464 2.37699,4.32143 0.6875,0.72678 1.25,1.65594 1.25,2.06479 0,0.94489 6.58423,4.11378 8.5475,4.11378 3.07498,0 5.47695,-2.26164 3.74612,-3.52725 -1.19438,-0.87335 -1.74441,-4.21604 -2.35819,-14.33135 -0.84652,-13.95085 -0.5565,-13.08918 -7.055,-20.96106 -0.59919,-0.72582 -1.3294,-3.20082 -1.62269,-5.5 -0.60033,-4.70608 -3.35392,-10.85021 -4.00227,-8.93034 -0.46101,1.36511 -4.25547,1.75512 -4.25547,0.43739 0,-0.96558 -9.36717,-5.18739 -11.50954,-5.18739 -0.81975,0 -1.49046,-0.675 -1.49046,-1.5 0,-1.91787 4.13122,-1.90534 9.5,0.0288 2.2,0.79257 4.10522,1.44782 4.23382,1.4561 0.50722,0.0327 -3.3024,-7.55789 -4.35534,-8.67789 -7.71754,-8.20906 -21.28407,-8.50865 -15.2422,-0.33659 1.43707,1.94374 1.97207,3.83793 1.66839,5.90703 -0.28566,1.94631 0.0299,3.22879 0.87415,3.55276 0.72665,0.27884 1.32118,1.3311 1.32118,2.33837 0,1.00726 0.46475,2.29613 1.03278,2.86416 1.14259,1.14259 0.28255,4.36722 -1.16477,4.36722 -0.5049,0 -1.18801,-1.35 -1.51801,-3 -0.33,-1.65 -0.96161,-3 -1.40357,-3 -0.44197,0 -1.59104,-0.7875 -2.55351,-1.75 -1.29052,-1.29057 -3.80333,-1.84343 -9.57143,-2.10589 -11.6849702,-0.53163 -11.1212002,-3.14407 0.67851,-3.14407 6.68221,0 8.5,-0.30415 8.5,-1.42219 0,-1.90405 -9.03059,-9.5632 -11.28518,-9.57135 -0.98185,-0.004 -2.98675,-0.79396 -4.45533,-1.75646 -7.9476002,-5.20883 -30.85315,-2.39591 -36.23835,4.45025 -1.19235,1.51583 -3.3088,3.50447 -4.70323,4.4192 -6.1381,4.02654 -7.71787,10.69434 -4.80709,20.28948 0.81905,2.69991 1.49621,7.64991 1.5048,11 0.009,3.35009 0.66756,8.79107 1.46438,12.09107 0.79682,3.3 1.46479,7.81249 1.48438,10.02776 0.12643,14.2961 13.27207,5.81284 14.50169,-9.35836 1.20678,-14.88947 2.00076,-19.49691 3.4421698,-19.97473 1.16518,-0.38626 1.29683,0.85111 0.76275,7.16925 -0.40525,4.79417 -0.27806,7.63608 0.34176,7.63608 0.54299,0 0.98725,1.14735 0.98725,2.54966 0,1.40231 0.75028,3.98981 1.66729,5.75 0.91701,1.76019 2.02,4.55034 2.45108,6.20034 0.72106,2.75994 0.76769,2.68192 0.58271,-0.97499 -0.15607,-3.08525 0.19063,-4.05297 1.54892,-4.32333 1.43443004,-0.28551 1.75000004,0.37724 1.75000004,3.67531 0,2.33818 0.57073996,4.35861 1.36251996,4.82332 0.74939,0.43983 1.76381,3.04969 2.25428,5.79969 0.86849,4.86958 0.98945,5.0081 4.63748,5.31037 4.6594102,0.38607 4.7147002,-0.53717 0.24569,-4.103 -3.68359,-2.93914 -4.92088,-7.70737 -1.99997,-7.70737 0.825,0 1.5,0.47656 1.5,1.05902 0,0.58246 0.53931,0.7257 1.19846,0.31833 3.5252002,-2.1787 15.0704502,-1.51228 14.4420302,0.83363 -0.33725,1.25896 -0.61933,3.79061 -0.62684,5.62588 -0.0113,2.76316 -0.5156,3.52633 -2.93318,4.43887 -3.16897,1.19615 -4.85167,5.4911 -2.50425,6.39189 0.73096,0.2805 12.8256,0.35753 26.87699,0.17119 14.05138,-0.18635 25.54771,-0.0494 25.54738,0.3042 -10e-4,1.56332 -4.77241,1.85699 -30.169,1.85699 h -27.00484 l -5.1633702,5.43986 c -2.83986,2.99192 -5.83838,6.34125 -6.66338,7.44295 -1.87542996,2.50445 -46.0349798,4.48764 -47.4903598,2.13278 z m 44.4903598,-27.01559 c 0,-0.55 -0.45728,-1 -1.01618,-1 -1.23951,0 -3.417,-4.8622 -5.03821,-11.25 -1.44443,-5.69129 -2.9349198,-6.19257 -2.9733898,-1 -0.0209,2.82175 -0.76866,4.47713 -3.02083,6.6875 -1.64618,1.61563 -2.83774,3.41562 -2.6479,4 0.71663,2.20602 14.6965098,4.64357 14.6965098,2.5625 z m 23.0000002,-3.64217 c 0,-1.93431 -0.39209,-2.42135 -1.58179,-1.96482 -0.86998,0.33385 -3.23248,0.62018 -5.25,0.6363 l -3.66821,0.0293 3.28449,2.98741 c 3.87282,3.52253 7.21551,2.74045 7.21551,-1.68819 z M 0.43179484,634.59215 c 0,-0.275 -0.225,-0.5 -0.5,-0.5 -0.275,0 -0.5,0.225 -0.5,0.5 0,0.275 0.225,0.5 0.5,0.5 0.275,0 0.5,-0.225 0.5,-0.5 z M -105.31821,617.42408 c 5.392448,-0.59596 5.467752,-0.72827 2.75,-4.83193 -1.09275,-1.65 -1.98978,-3.77713 -1.99341,-4.72695 -0.004,-0.94982 -1.13159,-2.46407 -2.50659,-3.36501 -4.40891,-2.88883 -3.25094,-4.699 2.5,-3.90804 l 5.000005,0.68768 V 595.745 c 0,-6.19754 1.065074,-7.49117 4.606994,-5.59559 2.111344,1.12996 2.60011,1.05019 3.872846,-0.63205 1.69305,-2.23781 2.14235,-16.42521 0.52016,-16.42521 -0.55,0 -1,-1.35 -1,-3 0,-1.65 0.45,-3 1,-3 0.55603,0 1,-2.67523 1,-6.02568 v -6.02568 l -3.25,1.66707 c -1.7875,0.9169 -4.294171,2.48063 -5.57038,3.47497 -1.276209,0.99433 -4.426205,2.1177 -7.000005,2.49636 -2.57379,0.37866 -5.56724,1.30148 -6.65212,2.05072 -2.28191,1.57592 -8.5275,1.84123 -8.5275,0.36224 0,-0.55 0.83864,-1 1.86364,-1 1.025,0 2.9375,-1.05849 4.25,-2.35219 1.41904,-1.39872 4.08218,-2.5726 6.56988,-2.89593 11.076342,-1.4396 20.662475,-8.76407 21.699265,-16.57975 0.37136,-2.79946 1.11216,-5.35998 1.64621,-5.69005 1.52398,-0.94187 1.13639,-2.48208 -0.62462,-2.48208 -1.90071,0 -7.371463,-3.68777 -9.211074,-6.20908 -2.055501,-2.81719 -31.632891,-2.70656 -33.147761,0.124 -0.6427,1.20089 -2.91083,2.31939 -6.08287,2.99967 -4.93194,1.05771 -9.85556,4.91771 -9.93106,7.78572 -0.0174,0.66017 -0.80846,1.63506 -1.75795,2.16642 -2.4936,1.39549 -3.19612,15.1228 -0.87262,17.05113 0.87943,0.72987 1.59896,1.94693 1.59896,2.70458 0,2.03916 4.74238,1.6972 7.92879,-0.57173 2.71601,-1.93397 10.07121,1.06691 10.07121,4.109 0,1.23995 -5.76925,1.02266 -6.55385,-0.24684 -0.48382,-0.78285 -0.97617,-0.78285 -1.75901,0 -0.59793,0.59792 -3.07092,1.08713 -5.49554,1.08713 -4.06701,0 -4.36607,0.17425 -3.86168,2.25 0.3007,1.2375 0.81973,6.75 1.15341,12.25 0.33367,5.5 1.35381,12.36012 2.26697,15.24471 1.19871,3.78665 1.35711,5.54788 0.56978,6.33521 -1.18175,1.18175 4.96058,7.38281 9.67992,9.77249 1.375,0.69624 5.2,2.82069 8.5,4.721 4.5795,2.6371 6.71025,3.3164 9,2.86928 1.65,-0.3222 5.1375,-0.82204 7.75,-1.11076 z m -0.56287,-36.38011 c -3.11767,-3.27172 -4.65061,-9.23832 -2.68553,-10.4528 1.44146,-0.89087 2.96131,1.1524 2.98309,4.01043 0.0224,2.94061 3.46037,4.86414 5.11987,2.86457 0.995944,-1.20004 1.014615,-1.95355 0.0853,-3.44165 -2.04974,-3.28215 -1.45988,-4.93237 1.76305,-4.93237 2.952885,0 2.952885,0 2.369031,5.25 -1.0004,8.99558 -4.878501,11.69313 -9.634791,6.70182 z m 11.812875,15.04818 c 0.339919,-0.55 0.141476,-1 -0.440983,-1 -0.582459,0 -1.059017,0.45 -1.059017,1 0,0.55 0.198442,1 0.440983,1 0.242541,0 0.719098,-0.45 1.059017,-1 z m 174.93153,69.88922 c -0.37757,-0.61093 0.44865,-2.07343 1.83605,-3.25 1.38741,-1.17657 2.78905,-3.31975 3.11477,-4.76263 0.37763,-1.67286 1.68382,-3.07557 3.60493,-3.87132 1.657,-0.68635 3.01272,-1.64332 3.01272,-2.12659 0,-0.48327 0.5625,-0.88153 1.25,-0.885 0.6875,-0.003 2.00626,-1.33551 2.93058,-2.96008 0.92431,-1.62456 3.538645,-4.20922 5.809625,-5.74368 2.27098,-1.53445 5.74951,-4.47742 7.73006,-6.53992 3.96777,-4.13195 6.27973,-4.79468 6.27973,-1.80011 0,1.22842 -3.23753,4.65095 -8.75,9.25 -4.8125,4.01506 -8.886125,7.596 -9.052505,7.95765 -0.90616,1.96961 -4.51924,5.25985 -7.35651,6.69918 -2.06463,1.04737 -3.51434,2.70028 -3.99773,4.55805 -1.06458,4.09141 -4.78456,6.10724 -6.41172,3.47445 z M 472.78775,637.85233 c -4.72862,-1.14065 -7.75088,-5.28767 -4.70528,-6.45638 0.95066,-0.3648 2.12342,0.0344 2.79355,0.95082 0.63526,0.86876 2.82018,1.89196 4.85539,2.27377 2.716,0.50952 3.70038,1.19663 3.70038,2.5829 0,2.07023 -0.53513,2.1225 -6.64404,0.64889 z M 121.43179,627.41716 c 0,-1.35779 5.51474,-4.32501 8.03827,-4.32501 3.64252,0 10.16339,-2.25734 8.85564,-3.06557 -0.84643,-0.52312 -0.57538,-1.57302 0.96437,-3.7354 1.17795,-1.65428 2.14172,-3.914 2.14172,-5.02161 0,-3.24844 1.09054,-5.17742 2.92704,-5.17742 8.97351,0 -0.15891,18.4213 -9.92991,20.02993 -3.57342,0.5883 -7.95963,1.32147 -9.74713,1.62926 -1.7875,0.30779 -3.25,0.15741 -3.25,-0.33418 z m 294.2,-26.52501 c -0.66,-0.66 -1.2,-2.26458 -1.2,-3.56574 0,-1.30116 -0.48589,-3.27364 -1.07976,-4.38329 -1.16186,-2.17097 0.52928,-11.80265 2.27184,-12.93896 0.49593,-0.3234 1.1734,-5.3859 1.50548,-11.25 0.48308,-8.53052 0.90295,-10.66201 2.10025,-10.66201 1.76567,0 1.17513,23.78066 -0.61806,24.88891 -1.53254,0.94716 -2.54461,7.76756 -1.26956,8.55559 1.24266,0.768 1.51138,10.5555 0.28981,10.5555 -0.44,0 -1.34,-0.54 -2,-1.2 z M 41.958755,591.68234 c -3.98045,-3.75404 -4.29913,-4.59019 -1.74947,-4.59019 2.2311,0 5.89612,2.52161 7.19646,4.95132 1.83039,3.42012 -1.68482,3.18706 -5.44699,-0.36113 z M 222.09327,544.34215 c -0.36386,-27.9125 -0.94647,-53.3081 -1.29468,-56.43467 l -0.63312,-5.68466 -6.61684,-0.63006 c -3.63926,-0.34652 -7.51684,-0.98857 -8.61684,-1.42676 -4.49859,-1.79205 -9.27614,-3.07385 -11.45692,-3.07385 -2.15162,0 -2.27344,-0.30271 -1.72679,-4.29091 2.6094,-19.03766 1.81761,-34.70909 -1.75365,-34.70909 -0.75184,0 -1.8228,-1.30755 -2.37991,-2.90566 -0.55711,-1.59812 -1.98926,-3.21555 -3.18257,-3.59429 -3.27433,-1.03923 -0.54339,-9.76218 4.55618,-14.55298 1.34401,-1.26263 2.44366,-2.69195 2.44366,-3.17625 0,-1.81896 4.08953,-9.77082 5.02499,-9.77082 0.53626,0 0.97501,-1.77344 0.97501,-3.94098 0,-2.16754 0.45,-4.2191 1,-4.55902 0.55,-0.33992 1,-2.13992 1,-4 0,-1.86008 0.45,-3.66008 1,-4 0.55,-0.33992 1,-1.49148 1,-2.55902 0,-1.06754 0.39541,-1.94098 0.87868,-1.94098 0.48327,0 1.45519,-1.4625 2.15982,-3.25 2.94667,-7.47511 10.62408,-13.75 16.8233,-13.75 1.08434,0 2.12153,-0.38274 2.30487,-0.85054 1.48408,-3.78683 9.56067,-6.58289 20.14703,-6.97477 9.54973,-0.35351 10.73135,-0.59166 10.10911,-2.03749 -0.38753,-0.90046 -1.0709,-5.2372 -1.51861,-9.6372 -1.91769,-18.84678 -3.24505,-25.5 -5.08742,-25.5 -1.30737,0 -0.3783,-23.57912 1.30028,-33 0.63698,-3.575 1.25113,-12.55164 1.36478,-19.94808 0.12526,-8.15274 0.61215,-13.58325 1.2365,-13.79137 1.16788,-0.38929 7.28166,4.461 7.28166,5.77682 0,7.69916 7.32437,6.00176 9.63489,-2.23285 0.92411,-3.29351 2.28531,-6.2204 3.02489,-6.50421 2.31021,-0.88651 6.17896,0.61626 6.82476,2.65099 1.12559,3.54641 8.14219,-1.56231 9.98779,-7.27202 1.57199,-4.86325 4.67127,-4.30576 6.39762,1.15077 0.98099,3.10065 1.6766,4.0234 2.45,3.25 1.40889,-1.40889 4.4107,-1.38811 4.88467,0.0338 0.21993,0.65978 1.57882,0.10896 3.33333,-1.35114 2.9746,-2.47546 5.46205,-2.64794 5.46205,-0.37875 0,2.2269 2.4818,6.60031 3.75,6.60823 0.6875,0.004 1.25,-0.36997 1.25,-0.83168 0,-1.06092 4.53359,-3.16052 6.82437,-3.16052 6.19823,0 9.95455,14.13308 4.67563,17.59196 -1.375,0.90093 -2.5,1.99619 -2.5,2.43392 0,0.43772 -1.60682,4.32346 -3.57072,8.63499 -1.96389,4.31152 -3.97414,8.73913 -4.46721,9.83913 -0.49307,1.1 -1.33291,5.32417 -1.86632,9.38704 -0.53341,4.06287 -1.44816,7.86537 -2.03279,8.45 -0.67038,0.67038 -1.06296,7.58713 -1.06296,18.7281 0,16.15095 -0.17143,17.88308 -2,20.20773 -1.1,1.39842 -2,3.02323 -2,3.61069 0,0.58746 -0.89832,2.54148 -1.99626,4.34227 -1.09795,1.80079 -1.99795,4.06167 -2,5.02417 -0.003,1.40133 -0.88166,1.75 -4.41012,1.75 -5.06763,0 -5.38999,1.96377 -0.99943,6.08848 1.32319,1.24308 2.40581,2.85671 2.40581,3.58583 0,0.91274 1.47961,1.33038 4.75,1.34075 2.6125,0.008 6.55,0.66353 8.75,1.4561 2.2,0.79258 6.48166,1.46081 9.51481,1.48495 3.53293,0.0281 6.85584,0.76264 9.24637,2.04389 2.05237,1.1 4.19214,2 4.75507,2 0.56292,0 2.70205,1.05562 4.75362,2.34583 2.676,1.6829 5.96588,2.54661 11.6415,3.05632 4.35125,0.39077 8.83888,1.36015 9.97251,2.15417 4.25717,2.98185 4.51618,0.76637 1.23412,-10.55632 -1.18165,-4.07655 -1.59733,-9.95658 -1.60613,-22.71958 -0.0128,-18.51358 0.15331,-19.23761 6.37202,-27.78042 1.20111,-1.65 2.70729,-4.20643 3.34707,-5.68095 0.63978,-1.47453 2.52961,-3.69116 4.19963,-4.92585 1.67001,-1.23469 4.10078,-3.85331 5.40171,-5.81916 1.30094,-1.96584 3.66909,-4.24921 5.26257,-5.07415 1.59348,-0.82494 4.02401,-2.67454 5.40118,-4.11022 4.24477,-4.4251 23.31317,-7.18045 26.64366,-3.84996 1.24293,1.24293 8.57042,5.43845 13.11029,7.50659 1.7875,0.8143 3.25,1.90067 3.25,2.41416 0,0.95178 8.93246,13.11486 11.56406,15.74645 2.10536,2.10537 3.08239,4.29355 3.87508,8.67874 0.74292,4.10991 3.79512,10.52306 5.51372,11.58522 0.56305,0.34798 1.48669,3.07388 2.05253,6.05755 0.56584,2.98367 2.14611,7.11322 3.51171,9.17678 1.36559,2.06356 2.4829,4.88657 2.4829,6.27336 0,1.38679 0.40783,2.52144 0.90629,2.52144 0.49846,0 1.06096,4.57541 1.25,10.16757 0.23624,6.98849 0.73455,10.29757 1.59371,10.58333 2.09718,0.69755 1.53962,5.2491 -0.64301,5.2491 -2.69919,0 -3.22255,-1.97974 -4.15868,-15.73127 -0.75823,-11.13822 -1.06123,-12.47779 -3.39048,-14.98978 -1.4068,-1.51717 -2.55783,-3.3256 -2.55783,-4.01872 0,-0.69312 -0.38704,-1.26022 -0.8601,-1.26022 -0.47305,0 -1.11549,-2.47459 -1.42765,-5.49908 -0.31215,-3.0245 -1.26285,-6.19437 -2.11265,-7.04418 -1.77855,-1.77855 -5.5996,-10.03788 -5.5996,-12.10373 0,-1.51736 -4.45543,-8.9513 -6.72519,-11.22106 -0.77692,-0.77691 -2.16126,-2.58693 -3.07631,-4.02226 -0.91506,-1.43533 -2.45906,-3.19771 -3.43112,-3.91639 -0.97206,-0.71869 -1.76738,-1.93463 -1.76738,-2.7021 0,-1.4796 -11.14312,-8.4912 -13.49456,-8.4912 -0.76307,0 -1.66552,-0.45 -2.00544,-1 -0.70712,-1.14415 -16.41598,-1.34744 -18.1349,-0.23469 -5.98163,3.87228 -23.30001,20.82868 -23.34193,22.85406 -0.0127,0.61566 -1.82317,3.38008 -4.02317,6.14316 -2.2,2.76309 -4,5.72031 -4,6.57161 0,0.85131 -0.45,1.82594 -1,2.16586 -1.58108,0.97716 -1.17669,28.97318 0.52,36 0.79682,3.3 1.45579,7.84276 1.46438,10.09501 0.0713,18.69822 13.30225,5.3636 15.01581,-15.13349 0.8399,-10.04666 1.56432,-14.18576 2.58349,-14.76121 0.77898,-0.43983 1.41632,-1.45233 1.41632,-2.25 0,-0.79767 0.3375,-1.43609 0.75,-1.41871 0.83064,0.035 6.25,4.62546 6.25,5.29405 0,0.23188 1.81112,2.39096 4.0247,4.79797 l 4.0247,4.37638 -0.66238,-5.75 c -0.80357,-6.97559 0.50829,-7.51479 5.47418,-2.25 3.37849,3.58185 5.66683,4.41591 6.36544,2.32009 0.6636,-1.99082 3.77117,-0.0328 3.80663,2.39853 0.0729,4.9975 7.33766,10.42393 8.38243,6.26125 0.64253,-2.56008 3.86404,-3.45429 5.12048,-1.42132 0.37502,0.60679 1.89235,0.7866 3.55538,0.42134 2.45741,-0.53974 3.55177,-0.015 7.1548,3.43068 2.58719,2.4742 5.23306,4.08455 6.75364,4.11045 3.41661,0.0582 6.75025,2.62873 5.2956,4.08338 -1.02068,1.02068 -2.64185,0.73412 -9.7956,-1.73148 -0.55,-0.18956 -2.0125,-1.08091 -3.25,-1.98076 -2.25,-1.6361 -2.25,-1.6361 -2.25,3.45448 0,4.30922 0.25197,4.9939 1.64155,4.46067 1.41312,-0.54227 1.54274,-0.10321 0.93147,3.15513 -0.73994,3.94424 2.84567,9.53756 6.11407,9.53756 0.7221,0 1.31291,0.45 1.31291,1 0,1.748 -5.0825,1.07744 -8.09563,-1.06809 -2.90437,-2.0681 -2.90437,-2.0681 -2.90437,0.4349 0,3.86361 -1.77379,7.63319 -3.59183,7.63319 -1.30276,0 -1.48911,-0.56726 -0.90341,-2.75 1.50428,-5.60599 1.75915,-28.46728 0.32749,-29.37483 -2.42486,-1.53717 -4.83225,-0.97679 -4.83225,1.12483 0,1.82222 -0.66667,2 -7.5,2 -8.23055,0 -8.20964,0.0127 -5.87039,-3.55746 1.56705,-2.39162 1.52282,-2.57886 -1.15205,-4.87731 -3.90599,-3.35632 -7.29133,-3.87089 -7.67744,-1.16698 -0.23149,1.62112 -1.1237,2.1707 -3.9016,2.40326 -3.20164,0.26804 -3.55067,0.56734 -3.14377,2.69585 0.35355,1.84952 0.0353,2.37449 -1.39852,2.30708 -1.02093,-0.048 -2.52055,0.0889 -3.33249,0.30415 -2.33512,0.61913 -2.34939,-3.38193 -0.021,-5.8812 2.0814,-2.23412 2.0814,-2.23412 -0.21069,-4.59747 -1.26065,-1.29984 -2.77424,-3.18404 -3.36353,-4.18712 -2.15091,-3.66118 -3.1494,-2.50946 -3.70231,4.27049 -0.30568,3.74832 -0.14445,6.93594 0.36014,7.12004 0.50249,0.18334 0.91361,1.43529 0.91361,2.78212 0,1.34683 0.675,4.06429 1.5,6.03879 0.825,1.97451 1.5,4.40849 1.5,5.40887 0,1.00037 0.5064,2.13183 1.12534,2.51435 0.78191,0.48325 0.99421,-0.42768 0.69567,-2.98489 -0.37981,-3.25335 -0.1913,-3.64629 1.62466,-3.38648 1.54518,0.22107 2.13654,1.16036 2.38603,3.7899 0.18244,1.92279 0.74435,3.99319 1.2487,4.60088 0.50434,0.6077 1.20374,3.19701 1.55422,5.75402 0.63723,4.64911 0.63723,4.64911 5.7513,4.6187 4.27966,-0.0254 4.78776,-0.21045 3.11408,-1.13385 -6.0091,-3.31535 -10.17331,-10.83574 -5.99996,-10.83574 0.825,0 1.50689,0.5625 1.51531,1.25 0.009,0.77413 0.29501,0.86931 0.75,0.25 0.40408,-0.55 3.98944,-1.11874 7.96746,-1.26388 l 7.23277,-0.26387 -0.56771,4.76387 c -0.80908,6.78927 -0.97116,7.08425 -4.08877,7.44176 -2.38293,0.27325 -2.80906,0.77722 -2.80906,3.32212 v 3 l 23.43112,0.26888 c 14.9398,0.17143 23.80036,-0.10036 24.45,-0.75 1.47422,-1.47422 4.31604,-1.25044 4.94532,0.38942 0.89362,2.32875 -3.01999,2.65696 -30.50217,2.55804 l -26.08753,-0.0939 -5.11837,5.46599 c -2.8151,3.00629 -5.79337,6.38432 -6.61837,7.50673 -2.03467,2.76817 -47,4.58343 -47,1.89741 0,-1.29181 3.25047,-1.63198 21.55639,-2.25598 l 21.5564,-0.7348 2.6936,-3.56516 c 1.48149,-1.96084 4.94361,-5.84249 7.69361,-8.6259 l 5,-5.06073 -5.66691,-0.29742 c -3.41835,-0.17941 -6.14526,-0.87379 -6.87245,-1.75 -0.66304,-0.79892 -2.83793,-1.45049 -4.83308,-1.44794 -9.70526,0.0124 -27.57029,-4.83207 -31.60355,-8.56997 -1.98029,-1.83527 -4.1255,-2.43527 -10.74903,-3.00641 -4.89646,-0.42222 -9.69792,-1.47187 -11.76017,-2.5709 -1.91686,-1.02155 -4.01983,-1.85736 -4.67328,-1.85736 -0.65344,0 -2.46011,-1.05941 -4.0148,-2.35425 -4.18315,-3.48396 -27.35056,-5.07915 -45.0653,-3.10297 -4.79335,0.53473 -7.02913,0.32081 -9.65113,-0.92342 -1.87691,-0.89065 -3.77036,-1.61936 -4.20768,-1.61936 -0.99326,0 -7.34213,-4.27852 -13.8807,-9.35425 -6.4647,-5.01839 -19.65541,-5.1839 -27.25205,-0.34195 -2.32657,1.48291 -4.57657,2.68979 -5,2.68195 -4.43054,-0.082 -13.55532,6.93194 -15.95517,12.26425 -1.4233,3.1625 -2.95526,5.75 -3.40435,5.75 -3.44157,0 -4.93813,11.42946 -2.09501,16 1.19745,1.925 2.17887,4.01436 2.18092,4.64301 0.002,0.62866 0.61568,1.37784 1.36361,1.66484 0.76595,0.29392 1.66422,2.81611 2.05671,5.77483 0.38326,2.88915 1.33717,6.78554 2.11981,8.65865 0.78263,1.87311 1.7265,6.41008 2.09749,10.08216 0.37099,3.67208 1.22478,7.57651 1.89732,8.67651 1.08061,1.76743 3.2866,9.69055 4.94204,17.75 0.46232,2.25077 1.10032,2.75 3.51443,2.75 2.21099,0 2.80543,0.3756 2.37396,1.5 -0.31659,0.825 -1.48528,1.5 -2.5971,1.5 -1.91732,0 -1.98833,0.42519 -1.37797,8.25 2.23369,28.63566 3.59118,121.75 1.77496,121.75 -0.46116,0 -1.13618,-22.8375 -1.50004,-50.75 z m -3.67679,-71 c -0.0179,-6.70054 -0.39034,-7.4341 -4.73469,-9.32422 -3.23814,-1.40884 -3.25,-1.44048 -3.25,-8.66989 0,-6.90029 -1.16214,-9.56787 -2.28975,-5.25589 -0.6314,2.41448 -4.85988,2.72956 -6.71025,0.5 -0.68469,-0.825 -1.86479,-1.5 -2.62244,-1.5 -0.75766,0 -1.44251,-0.5625 -1.5219,-1.25 -0.0794,-0.6875 -0.64189,4.825 -1.25,12.25 l -1.10566,13.5 4.95884,0.77183 c 2.72737,0.42451 5.92684,1.40609 7.10995,2.18129 1.1831,0.7752 3.90162,1.58973 6.04115,1.81006 2.13954,0.22034 4.22756,0.47626 4.64006,0.56872 0.4125,0.0924 0.74311,-2.4194 0.73469,-5.5819 z m -2.56657,-14.72021 c -0.34099,-1.35861 -1.1998,-4.84611 -1.90847,-7.75 l -1.28849,-5.27979 -0.11058,7.75 c -0.10194,7.14422 0.0472,7.75 1.90847,7.75 1.64782,0 1.90506,-0.45419 1.39907,-2.47021 z m -9.99118,-12.27979 c 1.24004,-3.28696 3.0464,-6.25 3.81019,-6.25 1.36167,0 0.81154,-10.48549 -0.66038,-12.58696 -0.78279,-1.11759 -2.14828,-4.93022 -3.03442,-8.47251 -0.88614,-3.54229 -2.00488,-7.34053 -2.48607,-8.44053 -0.4812,-1.1 -1.13942,-2.82094 -1.46271,-3.8243 -0.83204,-2.5823 -3.68922,0.67444 -6.9766,7.95222 -0.77709,1.72036 -1.91735,3.43971 -2.53393,3.82077 -3.12106,1.92892 -6.00491,10.119 -4.00322,11.36907 1.05611,0.65955 1.9202,1.78575 1.9202,2.50266 0,0.7169 1.2375,2.21879 2.75,3.33752 1.5125,1.11874 3.42214,3.34086 4.24364,4.93806 2.89743,5.63331 7.322,8.59971 8.4333,5.654 z m 6.23973,-2.91667 c -0.36667,-0.36666 -0.66667,-0.0667 -0.66667,0.66667 0,0.73333 0.3,1.03333 0.66667,0.66667 0.36666,-0.36667 0.36666,-0.96667 0,-1.33334 z m 183.33333,-47.33333 c 0,-0.55 -0.45728,-1 -1.01618,-1 -1.25274,0 -3.41446,-4.86406 -5.11089,-11.5 l -1.27821,-5 -0.79781,3.82737 c -0.44192,2.12003 -2.13587,5.16543 -3.79736,6.82692 -3.69287,3.69288 -3.72065,4.32375 -0.24955,5.6683 5.59602,2.16765 12.25,2.8072 12.25,1.17741 z m 22,-3.21398 c 0,-2.32476 -0.35603,-2.86338 -1.58179,-2.39301 -0.86998,0.33385 -3.00748,0.62018 -4.75,0.6363 l -3.16821,0.0293 3.23646,2.94449 c 3.86143,3.5131 6.26354,3.04634 6.26354,-1.21708 z m -20,-1.28602 c 0,-0.275 -0.225,-0.5 -0.5,-0.5 -0.275,0 -0.5,0.225 -0.5,0.5 0,0.275 0.225,0.5 0.5,0.5 0.275,0 0.5,-0.225 0.5,-0.5 z M 286.74753,374.89692 c 1.20134,-0.65737 3.88008,-1.44487 5.95276,-1.75 l 3.76849,-0.55477 -2.51849,-3.69695 c -1.38518,-2.03332 -2.5185,-4.40994 -2.5185,-5.28138 0,-0.87144 -0.675,-1.84346 -1.5,-2.16004 -4.12453,-1.58274 -1.56099,-4.27462 3.5,-3.67522 l 5,0.59217 v -6.13929 c 0,-5.91792 1.58258,-8.24173 3.5,-5.13929 1.21583,1.96726 3.29888,0.9436 4.88606,-2.40113 2.13462,-4.49839 2.21346,-14.59887 0.11394,-14.59887 -1,0 -1.5,-1 -1.5,-3 0,-2 0.5,-3 1.5,-3 1.16667,0 1.5,-1.33333 1.5,-6 0,-3.3 -0.24735,-6 -0.54966,-6 -0.99969,0 -6.90991,3.25129 -9.30989,5.12148 -1.29775,1.01129 -4.5524,2.12959 -7.23255,2.48513 -2.68016,0.35553 -5.38596,1.26449 -6.0129,2.01991 -1.60895,1.93866 -8.895,1.83503 -8.895,-0.12652 0,-0.90726 0.92744,-1.5 2.34699,-1.5 1.29084,0 3.3847,-0.9 4.65301,-2 1.37464,-1.19222 3.7588,-2.00595 5.90301,-2.01474 1.97834,-0.008 4.72199,-0.65613 6.09699,-1.44004 1.375,-0.78392 3.85,-2.06729 5.5,-2.85196 6.47607,-3.0797 8.92096,-6.65828 10.40152,-15.22464 0.75748,-4.38274 1.98811,-8.67749 2.73472,-9.54389 0.74661,-0.86639 2.30608,-4.46639 3.46549,-8 2.7993,-8.53159 4.63331,-11.92473 6.44539,-11.92473 2.29997,0 4.05132,-4.574 2.47746,-6.47039 -0.69821,-0.84128 -1.88937,-1.52961 -2.64702,-1.52961 -0.75766,0 -1.37756,-0.71776 -1.37756,-1.59502 0,-1.30948 -0.79273,-1.13045 -4.42807,1 -5.92232,3.47071 -6.87354,3.30558 -9.02306,-1.56643 l -1.83603,-4.16144 -3.25816,3.66144 c -3.5898,4.03413 -5.45468,4.64957 -5.45468,1.80012 0,-1.42228 -0.56259,-1.75378 -2.38513,-1.40538 -2.05765,0.39335 -2.596,-0.14056 -3.92105,-3.88867 -0.84476,-2.38954 -1.57145,-3.60948 -1.61487,-2.71098 -0.2716,5.62012 -14.08117,11.7899 -15.3687,6.86636 -0.8472,-3.23971 -2.48441,-2.29623 -3.18217,1.8338 -1.84941,10.94658 -16.52808,14.63986 -16.52808,4.15859 0,-6.72369 -2.01137,1.88348 -2.39706,10.25761 -0.76969,16.71201 -1.66309,25.09934 -2.82347,26.50713 -1.23954,1.50383 -0.23172,12.44539 1.51915,16.49287 1.35205,3.12552 5.57587,3.81109 7.70138,1.25 1.43402,-1.72788 5.56977,-2.00514 6.53812,-0.43832 0.36089,0.58393 1.73745,1.47279 3.05902,1.97525 4.60885,1.75228 2.34181,2.76307 -6.19714,2.76307 -9.88757,0 -13.63568,18.68002 -6.44426,32.1173 0.91289,1.70574 0.90976,2.53984 -0.0137,3.65253 -0.96757,1.16585 -0.67307,1.85391 1.53789,3.59305 1.50405,1.18308 3.47385,2.88842 4.37735,3.78963 0.90349,0.90121 2.76771,2.19874 4.14271,2.88339 1.375,0.68466 5.2,2.78077 8.5,4.65804 6.55985,3.73168 8.51896,4.11483 11.81574,2.31083 z m 4.43426,-36.78915 c -1.9453,-2.04297 -2.75,-3.9309 -2.75,-6.45185 0,-4.43687 2.5477,-4.89955 3.48482,-0.63287 0.72815,3.31521 2.91194,5.55996 4.47138,4.59617 1.32901,-0.82137 1.35858,-4.21449 0.0438,-5.02707 -2.36023,-1.4587 -1.04039,-4.5 1.95289,-4.5 2.95288,0 2.95288,0 2.36903,5.25 -0.99479,8.94513 -4.88105,11.69201 -9.57192,6.76562 z m 10.91667,14.31771 c -0.36667,-0.36666 -0.66667,-0.0667 -0.66667,0.66667 0,0.73333 0.3,1.03333 0.66667,0.66667 0.36666,-0.36667 0.36666,-0.96667 0,-1.33334 z M 17.431795,588.09215 c 0,-0.57143 3,-1 7,-1 4,0 7,0.42857 7,1 0,0.57143 -3,1 -7,1 -4,0 -7,-0.42857 -7,-1 z M 195.43179,559.52663 c -21.64162,-2.53979 -50.49574,-5.28352 -62,-5.89558 -23.12818,-1.23048 -65.554235,-4.72833 -67.499995,-5.56509 -1.1,-0.47304 -8.3,-1.35211 -16,-1.95349 -13.6354,-1.06493 -18.49858,-2.23182 -18.50136,-4.4393 -0.002,-1.26495 10.40893,-0.96943 13.50136,0.38326 1.84205,0.80575 22.3939,2.51557 96.999995,8.06998 15.4,1.14652 29.125,2.47343 30.5,2.94869 1.375,0.47526 12.52946,1.65678 24.78769,2.6256 19.0921,1.50893 22.245,1.98588 21.98996,3.32647 -0.39898,2.09713 -8.68135,2.2711 -23.77765,0.49946 z M -23.140865,547.78331 c -3.33755,-2.87084 -4.92736,-12.69116 -2.05457,-12.69116 0.97371,0 1.62723,0.82318 1.62723,2.04966 0,2.35364 2.74465,8.09677 4.38953,9.18503 1.64232,1.08655 5.61047,0.92057 5.61047,-0.23469 0,-0.55 0.675,-1 1.5,-1 1.99705,0 1.92964,3.62116 -0.0818,4.39301 -3.44735,1.32287 -8.3585,0.56242 -10.99087,-1.70185 z m -46.92734,0.30884 c -0.33992,-0.55 -2.61648,-1 -5.05902,-1 -2.44254,0 -4.44098,-0.44763 -4.44098,-0.99473 0,-0.60381 4.1429,-0.95079 10.54188,-0.88292 11.99489,0.12723 14.46889,-0.99075 14.44447,-6.52734 -0.033,-7.47864 -0.60952,-7.99032 -10.23635,-9.08505 -4.83656,-0.55 -5.75,-0.96736 -5.75,-2.62723 0,-1.75505 0.41486,-1.88537 3.75,-1.17804 2.0625,0.43742 9.15,0.79531 15.75,0.79531 h 12 l 0.074,-16 c 0.0823,-17.77698 1.83984,-30.5 4.21335,-30.5 1.18246,0 1.34589,1.01851 0.84243,5.25 -0.34356,2.8875 -0.88462,7.95 -1.20235,11.25 -0.31773,3.3 -1.08479,7.04027 -1.70458,8.31171 -0.84785,1.73928 -0.82925,2.78832 0.0751,4.23643 1.47701,2.36507 1.60178,17.33636 0.16683,20.0176 -0.87134,1.62811 -2.13755,1.93426 -8,1.93426 h -6.96478 v 6.06574 c 0,7.90277 -1.11984,9.93426 -5.47617,9.93426 -1.87319,0 -3.68391,0.45 -4.02383,1 -0.33992,0.55 -2.36492,1 -4.5,1 -2.13508,0 -4.16008,-0.45 -4.5,-1 z m 64.4999998,-2 c 0,-0.55 0.70156,-1 1.55902,-1 0.85746,0 1.2809,0.45 0.94098,1 -0.33992,0.55 -1.04148,1 -1.55902,1 -0.51754,0 -0.94098,-0.45 -0.94098,-1 z m -6.4432998,-5.22251 c -0.85618,-1.22237 -1.5567,-3.47237 -1.5567,-5 0,-2.76099 -0.0401,-2.77757 -6.75,-2.79114 -7.84891,-0.0159 -11.25,-0.74277 -11.25,-2.40439 0,-0.85601 3.67678,-1.17051 13.25,-1.13337 l 13.2499998,0.0514 -0.24274,-3.94547 c -0.13571,-2.20574 0.27747,-4.26697 0.93702,-4.6746 0.82012,-0.50686 1.30906,-6.92524 1.60392,-21.05453 0.30307,-14.5234 0.78908,-20.75358 1.70258,-21.8254 2.79998,-3.28525 3.42811,-15.72489 3.21417,-63.65464 -0.11822,-26.48505 0.12255,-47.94599 0.53505,-47.69098 0.4125,0.25501 0.75,2.71365 0.75,5.46365 0,3.07869 0.38426,4.76252 1,4.38197 2.20139,-1.36053 1.26819,-65.5 -0.953,-65.5 -2.85268996,0 -4.03484996,5.48458 -4.04141996,18.75 -0.004,8.81139 0.28869,11.25 1.35196,11.25 0.92647996,0 1.56154996,1.95181 1.99999996,6.14669 1.27348,12.18394 0.89804,15.25669 -2.36588996,19.36382 -5.35063004,6.73289 -4.50021004,6.60631 -45.73683984,6.80762 l -37.25394,0.18187 -0.003,41 c -0.004,50.49474 -0.87468,78.5 -2.44051,78.5 -0.82789,0 -1.019,-16.56064 -0.72064,-62.44493 0.43159,-66.37297 -0.54344,-83.64896 -4.6325,-82.07984 -0.7524,0.28863 -2.905991,0.52478 -4.786007,0.52478 h -3.418213 v 33.8 c 0,20.89445 -0.376713,34.17671 -0.986622,34.78662 -0.600093,0.6001 -1.089803,14.48824 -1.250003,35.45 -0.26338,34.46338 -0.26338,34.46338 -3.01338,34.7798 -1.96427,0.22602 -2.75,-0.13113 -2.75,-1.25 0,-0.86153 0.61758,-1.56642 1.37239,-1.56642 1.1423,0 1.49726,-11.32622 2.11714,-67.5541 0.81543,-73.96567 1.05908,-70.30651 -4.68863,-70.4141 -3.61104,-0.0676 -6.79994,-6.21151 -6.81294,-13.12619 -0.009,-4.97659 -0.56708,-7.37651 -2.5,-10.75768 -1.87745,-3.28415 -2.48796,-5.79933 -2.48796,-10.25 0,-5.23126 -0.22606,-5.89793 -2,-5.89793 -2.23276,0 -3.17554,-22.15544 -1,-23.5 0.55,-0.33992 1.00684,-2.27898 1.01519,-4.30902 0.0193,-4.68595 2.31687,-12.46833 3.82995,-12.97269 0.63517,-0.21173 1.15486,-0.96595 1.15486,-1.67604 0,-1.73716 11.55958,-13.54225 13.26062,-13.54225 0.74088,0 2.8736,-1.575 4.739385,-3.5 3.741877,-3.86064 5,-4.33026 5,-1.86635 0,2.03679 -4.448094,6.08899 -8.750005,7.97121 -1.7875,0.78209 -3.25,1.92883 -3.25,2.54832 0,1.48422 -3.07438,3.77486 -5.12032,3.81502 -2.01658,0.0396 -6.6557,12.57236 -7.23708,19.55127 -0.26884,3.22726 -1.02351,5.28532 -2.27255,6.19747 -1.57892,1.15306 -1.87005,2.72083 -1.87005,10.07058 v 8.70491 l 4.5,0.67966 c 11.87547,1.79362 26.284895,0.99065 25.519499,-1.42209 -0.930075,-2.93186 -1.938217,-21.43008 -1.125875,-20.65848 0.342514,0.32534 1.092234,4.3357 1.666041,8.91193 0.57381,4.57622 1.49506,9.16454 2.04722,10.19625 1.37815,2.5751 0.16917,5.8003 -2.174268,5.8003 -2.300826,0 -2.492137,1.87798 -0.464415,4.55887 0.807503,1.06762 1.482503,2.92222 1.500003,4.12132 0.0366,2.50826 3.1279,2.03534 9.95449,-1.52288 2.01126,-1.04833 5.10145,-2.22334 6.86708,-2.61114 1.76563,-0.38779 3.21023,-1.03258 3.21023,-1.43286 0,-0.40028 3.18923,-1.55496 7.08719,-2.56596 3.89795,-1.011 7.32109,-2.44774 7.60698,-3.19276 0.2859,-0.74503 1.37166,-1.35459 2.41282,-1.35459 1.31918,0 1.89301,-0.71084 1.89301,-2.34501 0,-1.28976 0.94591,-3.20105 2.10203,-4.24732 1.7123,-1.54962 1.99771,-2.66333 1.5394,-6.00704 l -0.56261,-4.10473 11.02139,-0.66939 c 12.93634,-0.7857 12.89979,-0.79958 12.89979,4.89756 0,2.42332 0.70372,6.47879 1.56382,9.01216 2.29983,6.774 0.31612,13.46377 -3.99239,13.46377 -1.93632,0 -1.9469,-0.91948 -0.0396,-3.44113 2.00425,-2.64985 1.85972,-5.54121 -0.2818,-5.63782 -1.04544,-0.0472 -1.24674,-0.28201 -0.5,-0.58333 3.3266,-1.34231 0.48015,-2.33772 -6.6849,-2.33772 -4.3642,0 -9.05434,-0.42561 -10.42254,-0.9458 -2.45668,-0.93403 -5.82533,1.09636 -4.31868,2.60301 1.35256,1.35256 -7.58964,6.36068 -14.01679,7.85016 -6.02688,1.39671 -13.91722,4.58766 -18.30712,7.40361 -2.97729,1.90982 -8.34416,4.08902 -10.070305,4.08902 -0.969665,0 -1.963921,0.5625 -2.209457,1.25 -0.245536,0.6875 -0.793992,0.92654 -1.218792,0.53121 -0.424799,-0.39534 -0.0426,-1.83255 0.849333,-3.19381 1.663244,-2.53844 1.31067,-8.5874 -0.50053,-8.5874 -0.494863,0 -1.327475,-1.125 -1.850249,-2.5 -0.918152,-2.41492 -1.261458,-2.5 -10.088095,-2.5 h -9.1376 l 0.49824,6.75 c 1.07522,14.56677 2.97543,24.70209 4.88522,26.0567 1.01323,0.71869 1.84223,1.89731 1.84223,2.61916 0,1.40841 5.03286,2.54507 11.348876,2.56313 4.119393,0.0118 10.637429,-2.54346 11.950819,-4.68504 0.43983,-0.71717 1.67733,-1.30395 2.75,-1.30395 1.07267,0 1.95808,-0.5625 1.96759,-1.25 0.0211,-1.52449 4.33746,-5.75 5.87367,-5.75 3.90828,0 -5.42185,10.24331 -11.14848,12.23962 -2.79768,0.97527 -2.81995,1.03954 -0.96066,2.77173 1.49037,1.38849 2.04629,3.78611 2.5618,11.04864 0.36211,5.10144 0.80332,9.42027 0.98046,9.59742 2.19849,2.19848 69.61203,2.45798 75.3144898,0.28991 6.6606,-2.53236 10.67696,-8.65446 9.98994,-15.22756 -0.34568,-3.30723 -0.6285,-6.8557 -0.6285,-7.8855 0,-1.49784 -0.50005996,-1.74686 -2.5,-1.2449 -4.22073,1.05933 -2.78203,-34.93252 1.60762004,-40.21779 0.98374996,-1.18446 1.49521996,-5.44691 1.74279996,-14.52401 0.19274,-7.06616 0.75524,-12.84756 1.25,-12.84756 1.30881,0 1.10238,17.96882 -0.27497,23.93584 -1.36092,5.89584 0.12698,7.97421 5.75034,8.03236 6.6668102,0.0689 7.0743502,-30.40826 0.60373,-45.14852 -3.40887,-7.76549 -4.17904,-9.88923 -4.21279,-11.61673 -0.12802,-6.55306 -24.9667298,-13.84088 -24.9667298,-7.32539 0,3.28848 -1.91796,4.04984 -17.25,6.84762 -1.5125,0.276 -2.75,0.90074 -2.75,1.38832 0,1.06157 -25.04953,1.17598 -26.53391,0.12119 -0.56865,-0.40408 -2.76036,-2.87219 -4.87046,-5.48469 -3.89971,-4.82819 -6.05168,-5.64666 -9.70535,-3.69128 -1.08803,0.58229 -4.09594,1.24953 -6.68426,1.48274 -3.86855,0.34857 -4.20526,0.26149 -1.89209,-0.48933 1.54767,-0.50235 3.34767,-1.33253 4,-1.84486 0.65234,-0.51232 2.53156,-1.25422 4.17605,-1.64867 1.64449,-0.39444 3.21949,-1.02657 3.5,-1.40474 0.28051,-0.37816 1.54841,-1.35498 2.81756,-2.17071 7.45081,-4.78893 8.61089,-20.07871 2.48465,-32.74756 -4.8135,-9.95414 -6.41915,-22.50863 -3.28019,-25.64759 0.5434,-0.5434 0.988,-1.93699 0.988,-3.09687 0,-1.15988 0.66069,-2.98238 1.4682,-4.05 0.8075,-1.06762 1.4825,-2.93317 1.5,-4.14567 0.0419,-2.90577 4.28884,-7.04806 9.52906,-9.29428 3.32615,-1.42576 4.34424,-2.45869 4.83324,-4.9037 0.83324,-4.16617 3.6695,-4.20648 3.6695,-0.0522 0,2.85227 0.20601,3.0196 3.25,2.63969 1.7875,-0.22309 2.4625,-0.21218 1.5,0.0242 -3.08525,0.75784 -1.8702,2.29075 1.81574,2.29075 1.96116,0 4.44045,0.46813 5.50954,1.04029 1.06909,0.57216 5.652,0.90966 10.18426,0.75 7.74247,-0.27274 8.06121,-0.3693 5.27434,-1.5977 -2.34949,-1.03562 -2.66306,-1.49471 -1.50835,-2.20836 1.16097,-0.71752 1.20497,-1.15373 0.21611,-2.14259 -0.6829,-0.6829 -1.24103,-1.93914 -1.24028,-2.79164 0.001,-1.24782 -1.03754,-1.48516 -5.32758,-1.21744 -2.93093,0.1829 -7.99404,-0.21346 -11.25137,-0.8808 -3.25732,-0.66735 -6.93491,-1.2021 -8.17241,-1.18834 -3.39509,0.0377 -3.07953,-5.35903 0.54165,-9.26342 3.2682,-3.52379 6.20835,-10.74505 6.20835,-15.24825 0,-2.00159 0.64897,-3.53341 1.75,-4.13066 2.25653,-1.22404 5.01301,-6.53561 6.03086,-11.62109 1.27026,-6.34661 7.16088,-6.11652 7.20383,0.28139 0.008,1.25476 -0.65145,2.53724 -1.46638,2.84996 -1.06193,0.4075 -1.21983,1.05786 -0.55737,2.29567 0.50837,0.94991 1.21201,5.29242 1.56363,9.65004 0.35162,4.35762 1.27744,9.61955 2.05737,11.69318 2.29764,6.1088 1.92682,9.92079 -0.66251,6.81056 -2.33014,-2.79889 -18.92002,-3.96582 -18.91962,-1.3308 1e-4,0.6875 -0.48111,1.25 -1.06936,1.25 -0.58825,0 -0.92575,1.00644 -0.75,2.23654 0.54506,3.81488 19.67293,5.58765 21.72482,2.01346 0.86118,-1.50008 1.0997,-1.28906 1.67021,1.47758 0.36605,1.77516 1.28632,3.74276 2.04503,4.37244 0.75872,0.62968 1.37949,1.59176 1.37949,2.13795 0,1.08229 8.0619,8.76203 9.19803,8.76203 5.5988498,0 13.5072298,17.61119 14.3697398,32 0.18133004,3.025 0.62534004,7.41572 0.98668004,9.75715 0.74184,4.80697 -1.15093004,10.674 -5.13795004,15.92613 -1.32907,1.7508 -2.4165,3.80088 -2.4165,4.55572 0,2.53134 -5.0074298,8.23673 -9.5185698,10.8453 -5.64362,3.26344 -3.91228,4.48334 7.5185698,5.29757 12.67413,0.90278 17,3.33106 17,9.54274 0,1.00677 0.675,2.3907 1.5,3.07539 0.825,0.68469 1.5000002,2.33062 1.5000002,3.65763 0,1.327 0.62534,3.4094 1.38964,4.62755 0.76431,1.21815 1.70262,5.58982 2.08513,9.71482 0.38252,4.125 1.13984,8.03546 1.68293,8.6899 1.84782,2.2267 2.34007,16.18186 0.59442,16.85173 -1.04517,0.40107 -1.75234,2.63613 -2.22217,7.02332 -0.64035,5.97952 -0.86299,6.43505 -3.14506,6.43505 -2.4559202,0 -2.4559202,0 -2.4009802,32.25 0.0595,34.91636 -0.50984,45.76102 -2.62228,49.95034 -0.7489,1.48519 -1.36163,4.65769 -1.36163,7.05 0,2.39231 -0.48886,4.83852 -1.08634,5.436 -0.72723,0.72723 -0.89554,5.00815 -0.50913,12.95 0.31748,6.52502 0.82274,17.26366 1.12282,23.86366 0.30007,6.6 1.04701,12.99716 1.65985,14.21591 0.76219,1.51573 0.79204,2.62166 0.0945,3.5 -1.74186,2.19332 -3.49439,11.53917 -2.77663,14.80711 0.46626,2.12288 0.21768,3.64592 -0.78248,4.79414 -1.15316,1.32388 -1.59989996,6.58893 -2.09431996,24.68284 -0.78618,28.77149 -0.73202,28.5 -5.68582004,28.5 -4.6666898,0 -5.6368598,1.29124 -3.46297,4.60901 1.38787,2.11816 2.14479,2.41279 4.73633,1.84359 2.62964,-0.57756 2.9886,-0.42764 2.43433,1.01676 -0.35757,0.93182 -0.65013,1.88241 -0.65013,2.11243 0,1.683 -8.0823398,0.13874 -9.4432998,-1.8043 z M 5.4317948,384.59215 c 0,-2.475 -0.45,-4.5 -1,-4.5 -0.55,0 -1,2.025 -1,4.5 0,2.475 0.45,4.5 1,4.5 0.55,0 1,-2.025 1,-4.5 z M -29.938055,298.21994 c 1.06221,-2.14243 1.22271,-2.19086 1.65699,-0.5 0.26447,1.02972 0.53306,-0.26529 0.59686,-2.87779 l 0.116,-4.75 h -8.39931 -8.3993 l -0.3579,4.5 c -0.34278,4.30991 -0.24392,4.5 2.34029,4.5 1.484,0 2.99155,0.47467 3.3501,1.05483 1.25281,2.02708 7.82626,0.6345 9.09627,-1.92704 z m -10.71798,-47.65937 c 10.42484,-1.45401 12.71223,-2.15357 17.73711,-5.4246 2.53326,-1.64907 -1.62024,-7.04382 -5.42313,-7.04382 -3.46324,0 -8.68786,-2.3201 -10.54873,-4.68437 -1.00242,-1.2736 -2.35242,-2.31771 -3,-2.32026 -0.64758,-0.003 -2.52742,-1.26922 -4.17742,-2.81483 -5.99993,-5.62033 -8.5,-6.79292 -8.5,-3.98668 0,1.33313 -0.64102,3.29739 -1.42449,4.36501 -1.27322,1.73499 -1.36704,1.30362 -0.88349,-4.06213 0.38665,-4.29046 0.0798,-7.10709 -1.07551,-9.87212 -1.96712,-4.708 -2.20182,-11.98869 -0.36651,-11.3697 0.6875,0.23187 1.28197,1.50687 1.32103,2.83333 0.20296,6.89061 2.51263,12.43041 6.22101,14.92122 2.03938,1.36979 5.07533,3.91511 6.74657,5.65627 11.09782,11.56213 29.68793,10.97054 33.55964,-1.06797 0.7248298,-2.25377 1.5659598,-4.32277 1.8691698,-4.59777 6.22623,-5.64691 8.92557004,-29.74467 4.03258,-36 -1.07554,-1.375 -1.96553,-3.62758 -1.97776,-5.00574 -0.09,-10.14432 -9.9974298,-16.98408 -24.6583898,-17.02337 -7.49148,-0.0201 -13.02817,-0.61988 -17.83606,-1.93221 -14.85341,-4.05429 -22.17178,3.41164 -24.95808,25.46132 -0.77339,6.12032 2.27708,17.64356 5.60976,21.19104 4.46373,4.75142 3.46463,20.21712 -1.82909,28.31363 -2.42195,3.70426 -2.27905,7.99533 0.26625,7.99533 0.76085,0 1.38337,0.38115 1.38337,0.84699 0,6.23004 9.63546,8.1706 27.91217,5.62143 z m -7.16217,-5.1307 c 0.6875,-0.27741 1.8125,-0.27741 2.5,0 0.6875,0.27741 0.125,0.50439 -1.25,0.50439 -1.375,0 -1.9375,-0.22698 -1.25,-0.50439 z m -17.75,-3.23073 c 0,-0.49116 0.675,-1.15203 1.5,-1.46862 0.825,-0.31658 1.5,-1.10261 1.5,-1.74674 0,-1.56334 3.0697,-3.8202 5.25,-3.85983 2.37696,-0.0432 2.21971,1.68435 -0.22391,2.45992 -1.08566,0.34457 -2.83792,1.7249 -3.89392,3.06739 -1.90711,2.42448 -4.13217,3.25798 -4.13217,1.54788 z m 32.2,-1.30699 c -1.55662,-1.55662 -1.53022,-2.8 0.0594,-2.8 0.6927,0 1.82152,0.9 2.50848,2 1.45285,2.32638 -0.44904,2.91889 -2.56793,0.8 z m 8.8,-15.9383 c -10.54296,-1.14554 -11,-1.22271 -11,-1.85749 0,-0.42966 12.17462,-0.45994 19.25,-0.0479 0.4125,0.024 0.75,0.71868 0.75,1.54368 0,0.825 -0.3375,1.42724 -0.75,1.33831 -0.4125,-0.0889 -4.125,-0.5284 -8.25,-0.97661 z m -8.25,-8.9418 c -2.66875,-1.55441 -2.17619,-4.59612 0.868,-5.36016 3.37042,-0.84592 4.41719,0.21015 1.97693,1.9945 -1.71371,1.2531 -1.73829,1.45352 -0.24843,2.02523 1.93521,0.74261 2.22081,2.43433 0.4035,2.39012 -0.6875,-0.0167 -2.0375,-0.48908 -3,-1.04969 z m 12.25,0.5801 c 0,-0.275 0.9,-1.4 2,-2.5 2.39688,-2.39688 2.48522,-3.37192 0.48661,-5.37054 -0.83237,-0.83236 -1.7502,-3.002 -2.03963,-4.82142 -0.52623,-3.30804 -0.52623,-3.30804 1.12035,0.44196 0.90562,2.0625 2.2253,3.75 2.93264,3.75 2.11803,0 2.58596,2.93316 0.96727,6.06335 -1.2638,2.44393 -5.46724,4.31733 -5.46724,2.43665 z m -6.5,-1.5 c 0.33992,-0.55 1.26648,-1 2.05902,-1 0.79254,0 1.44098,0.45 1.44098,1 0,0.55 -0.92656,1 -2.05902,1 -1.13246,0 -1.7809,-0.45 -1.44098,-1 z m 12.5,-14.70363 c -5.49141,-1.02299 -5.17017,-5.68251 0.45471,-6.5953 5.7404398,-0.93155 7.3618598,-0.0423 6.6157298,3.62829 -0.67243,3.30804 -2.07663,3.89729 -7.0704398,2.96701 z m 1,-2.73735 c 0,-0.24254 -0.45,-0.7191 -1,-1.05902 -0.55,-0.33992 -1,-0.14147 -1,0.44099 0,0.58246 0.45,1.05901 1,1.05901 0.55,0 1,-0.19844 1,-0.44098 z m -31.96013,-0.011 c -2.17351,-2.61892 -0.83128,-5.02201 2.98514,-5.34449 6.65596,-0.56243 14.13896,4.36834 9.3932,6.18946 -3.08988,1.1857 -11.14964,0.63552 -12.37834,-0.84497 z m 2.6268,-2.21471 c -0.36667,-0.36666 -0.96667,-0.36666 -1.33334,0 -0.36666,0.36667 -0.06666,0.66667 0.66667,0.66667 0.73333,0 1.03333,-0.3 0.66667,-0.66666 z m 23.33333,-4.27431 c 0,-1.68246 0.45,-3.05902 1,-3.05902 0.55,0 1,1.09845 1,2.44099 0,1.34254 -0.45,2.71909 -1,3.05901 -0.58342,0.36058 -1,-0.65628 -1,-2.44098 z m -12.82114,-1.14422 c -1.14835,-1.83881 -1.08951,-2.04424 0.49797,-1.73852 0.99011,0.19068 1.95087,1.12902 2.13501,2.08521 0.45939,2.38542 -1.05094,2.18655 -2.63298,-0.34669 z m -16.17886,-2.9148 c 0,-0.55 0.70156,-1 1.55902,-1 0.85746,0 1.2809,0.45 0.94098,1 -0.33992,0.55 -1.04148,1 -1.55902,1 -0.51754,0 -0.94098,-0.45 -0.94098,-1 z m 37.5,0 c -0.33992,-0.55 -2.27898,-1.00689 -4.30902,-1.01531 -2.75124,-0.0114 -3.30907,-0.26212 -2.19098,-0.98469 1.97089,-1.27368 6,-1.27368 6,0 0,0.55 0.64844,1 1.44098,1 0.7925398,0 1.7190998,0.45 2.0590198,1 0.33992,0.55 -0.057,1 -0.88197,1 -0.825,0 -1.7781098,-0.45 -2.1180298,-1 z m -31.5,-2 c 1.9805,-1.27989 10,-1.27989 10,0 0,0.5525 -2.57312,0.99315 -5.75,0.98469 -4.0814,-0.0109 -5.31471,-0.29662 -4.25,-0.98469 z m -10.66166,-2.73842 c 0.60828,-0.98423 1.98403,-1.29645 12.16166,-2.76006 3.98788,-0.57348 3.99197,-0.57063 1.35008,0.94113 -3.25137,1.86052 -14.4709,3.37087 -13.51174,1.81893 z m 23.88179,-1.78938 c -1.11074,-1.25989 -0.25175,-1.37005 6.5,-0.83358 10.2898,0.8176 11.78178,2.37212 2.22987,2.32335 -5.21904,-0.0267 -7.83327,-0.47277 -8.72987,-1.48977 z m 8.77987,-2.17997 c -3.575,-0.17733 -7.49673,-0.83322 -8.71495,-1.45754 -1.43618,-0.73602 -5.30374,-0.93228 -11,-0.5582 -6.36339,0.41789 -7.95808,0.31052 -5.78505,-0.3895 6.10284,-1.96598 31.21647,-0.57565 33.65174,1.86301 0.99783,0.99922 0.95735,1.21135 -0.20174,1.05732 -0.7975,-0.10597 -4.375,-0.33776 -7.95,-0.51509 z m -12.16898,-41.80308 c 0.18206,-0.17482 -0.10318,-1.14389 -0.63387,-2.1535 -0.53069,-1.00961 -1.28585,-3.77271 -1.67814,-6.14022 -1.07063,-6.46144 -7.44044,-6.09334 -9.03665,0.52222 -0.55971,2.3197 -1.55655,4.75654 -2.21521,5.4152 -2.83198,2.83199 10.63251,5.17102 13.56387,2.3563 z m -2.83102,-16.79802 c 0,-2.64766 -2.41976,-6.44309 -3.24678,-5.09262 -0.53533,0.87417 -1.08826,5.13137 -0.86391,6.65149 0.30214,2.04719 4.11069,0.6029 4.11069,-1.55887 z m 1.5,-11.69113 c 0.33992,-0.55 -0.33508,-1 -1.5,-1 -1.16492,0 -1.83992,0.45 -1.5,1 0.33992,0.55 1.01492,1 1.5,1 0.48508,0 1.16008,-0.45 1.5,-1 z m -43.89301,420.41821 c -1.31026,-3.41449 -0.67006,-9.41821 1.0043,-9.41821 1.29731,0 1.4844,0.67637 0.96014,3.47094 -0.58618,3.12458 -0.3977,3.53456 1.88871,4.10841 1.39692,0.35061 2.53986,1.26368 2.53986,2.02906 0,1.98427 -5.62278,1.81699 -6.39301,-0.1902 z m -67.606995,-14.91821 c 0,-0.275 0.225,-0.5 0.5,-0.5 0.275,0 0.5,0.225 0.5,0.5 0,0.275 -0.225,0.5 -0.5,0.5 -0.275,0 -0.5,-0.225 -0.5,-0.5 z m 620.58758,-35 c -1.27431,-1.375 -3.0366,-2.5 -3.9162,-2.5 -1.79148,0 -6.67138,-6.60672 -6.67138,-9.03213 0,-0.86233 -0.48018,-2.04805 -1.06706,-2.63493 -0.58688,-0.58688 -1.29617,-4.61438 -1.57618,-8.95 -0.28002,-4.33562 -1.01574,-8.92321 -1.63495,-10.19465 -0.84661,-1.73839 -0.82772,-2.78906 0.0762,-4.23643 0.66109,-1.0586 1.20199,-4.92035 1.20199,-8.58168 v -6.65696 l -18.25,0.5712 c -25.03424,0.78355 -42.75,-1.30029 -42.75,-5.02853 0,-1.4554 5.1288,-1.71461 6.55,-0.33104 1.96374,1.91174 36.84404,2.76094 59.2,1.44129 9.96621,-0.58829 10.25,-0.54636 10.25,1.51441 0,1.90351 -0.56288,2.11945 -5.52475,2.11945 -7.31509,0 -11.64177,30.11877 -5.08495,35.39725 0.7534,0.60651 1.63609,2.25547 1.96153,3.66436 0.71237,3.08397 4.69925,7.93839 6.51971,7.93839 1.74559,0 5.05351,4.05766 5.09519,6.25 0.0469,2.4673 -1.66997,2.17325 -4.37915,-0.75 z m -510.931575,-10.25 c -1.36844,-20.66489 -0.7959,-64.25 0.844,-64.25 1.29438,0 1.50062,3.5298 1.50455,25.75 0.002,14.1625 0.29625,30.8125 0.65279,37 0.55475,9.62761 0.43163,11.25 -0.85373,11.25 -1.18911,0 -1.63645,-2.03091 -2.14761,-9.75 z M 478.01474,423.22636 c -0.43077,-0.697 -0.51316,-1.53733 -0.18309,-1.86741 0.89497,-0.89496 1.87077,0.4213 1.38739,1.87145 -0.33872,1.01617 -0.57427,1.01538 -1.2043,-0.004 z M 466.4471,401.84215 c 0.0232,-1.89651 1.07367,-2.98602 5.98469,-6.20733 2.475,-1.62344 5.0625,-3.36478 5.75,-3.86964 0.91637,-0.67292 1.25,-0.21137 1.25,1.72928 0,1.82246 -0.70099,2.91649 -2.25,3.51157 -1.2375,0.47541 -3.51068,2.03927 -5.05152,3.47525 -2.97813,2.77546 -5.70851,3.42927 -5.68317,1.36087 z M -72.568205,331.7978 c 0,-1.50408 9.86013,-8.70565 11.91947,-8.70565 0.59429,0 1.08053,-0.45728 1.08053,-1.01618 0,-0.5589 1.6875,-1.7964 3.75,-2.75 2.0625,-0.9536 4.8704,-2.74632 6.23978,-3.98382 2.56633,-2.31917 10.01022,-3.24871 10.01022,-1.25 0,1.5978 5.00364,1.15409 5.63837,-0.5 0.72352,-1.88545 2.09414,-1.91034 3.93306,-0.0714 1.85832,1.85832 1.82405,3.57143 -0.0714,3.57143 -0.825,0 -1.5,0.675 -1.5,1.5 0,1.70316 -13.41158,2.2611 -14.43781,0.60063 -0.7924,-1.28212 -16.56222,6.76716 -16.56222,8.4537 0,1.67741 -3.45412,4.05305 -7.25,4.98633 -2.08509,0.51265 -2.75,0.31075 -2.75,-0.83504 z m 31,-16.20565 c 0,-0.275 -0.225,-0.5 -0.5,-0.5 -0.275,0 -0.5,0.225 -0.5,0.5 0,0.275 0.225,0.5 0.5,0.5 0.275,0 0.5,-0.225 0.5,-0.5 z m -67.539995,-64.75 c -1.62983,-4.26907 0.10555,-150.23536 1.78999,-150.55969 1.65429,-0.318525 1.75,3.82389 1.75,75.73637 0,77.11325 -0.29392,83.32583 -3.53999,74.82332 z M 13.681795,216.7001 c 1.39627,-1.05992 1.75,-2.86261 1.75,-8.9185 0,-6.17367 -0.32657,-7.78028 -1.75,-8.60935 -1.44957,-0.8443 -1.19206,-1.0245 1.5,-1.04969 2.91653,-0.0273 3.25,0.26318 3.25,2.83092 0,2.51461 0.30363,2.80328 2.50575,2.38232 3.95818,-0.75665 5.49425,1.3063 5.49425,7.37879 0,2.95766 0.45,5.37756 1,5.37756 0.55,0 1,0.45 1,1 0,5.30852 -4.93664,0.32659 -5.20228,-5.25 -0.4144,-8.69941 -4.11044,-9.5029 -4.59998,-1 -0.18416,3.19866 0.10889,5.25 0.75,5.25 0.57874,0 1.05226,0.45 1.05226,1 0,0.55 -1.9125,0.98569 -4.25,0.9682 -3.74835,-0.028 -4.04344,-0.18861 -2.5,-1.36025 z m 19.40499,-0.43669 c -2.28419,-2.524 -2.18066,-9.38556 0.17375,-11.51627 5.26016,-4.76038 12.05863,0.65815 10.51424,8.3801 -0.98421,4.92105 -7.37549,6.79644 -10.68799,3.13617 z m 6.84501,-5.65756 c 0,-5.16459 -2.56801,-7.59195 -4.61486,-4.36209 -2.26224,3.56973 -0.57873,10.08942 2.49214,9.65126 1.83933,-0.26244 2.12272,-0.96857 2.12272,-5.28917 z m 6.5,6.59329 c 0,-0.49116 0.675,-1.15203 1.5,-1.46862 1.72948,-0.66366 2.14657,-9.12074 0.5,-10.13837 -1.69104,-1.04512 -1.10908,-2.5 1,-2.5 1.1,0 2,0.54 2,1.2 0,0.93333 0.26667,0.93333 1.2,0 1.496,-1.496 5.0423,-1.5577 6.48713,-0.11287 0.78285,0.78285 1.2752,0.78285 1.75902,0 2.66589,-4.31349 7.55385,-0.0344 7.55385,6.61287 0,2.915 0.45,5.3 1,5.3 0.55,0 1,0.45 1,1 0,5.30852 -4.93664,0.32659 -5.20228,-5.25 -0.4144,-8.69941 -4.11044,-9.5029 -4.59998,-1 -0.18416,3.19866 0.10889,5.25 0.75,5.25 0.57874,0 1.05226,0.45 1.05226,1 0,5.30852 -4.93664,0.32659 -5.20228,-5.25 -0.4144,-8.69941 -4.11044,-9.5029 -4.59998,-1 -0.18416,3.19866 0.10889,5.25 0.75,5.25 0.57874,0 1.05226,0.45 1.05226,1 0,0.55 -1.8,1 -4,1 -2.2,0 -4,-0.40186 -4,-0.89301 z m 28.65499,-0.93573 c -2.28419,-2.524 -2.18066,-9.38556 0.17375,-11.51627 3.84841,-3.48276 8.25808,-1.8232 9.55242,3.59501 0.6429,2.69122 0.56036,2.75 -3.86211,2.75 -4.78776,0 -5.9513,1.56644 -2.98944,4.02458 1.16961,0.97068 2.11105,1.00455 4,0.14388 1.97353,-0.8992 2.47039,-0.84972 2.47039,0.24599 0,2.97012 -6.84064,3.52411 -9.34501,0.75681 z m 6.34501,-8.70264 c 0,-2.08934 -2.99356,-3.089 -4.08561,-1.36434 -1.42463,2.24991 -1.07101,2.89572 1.58561,2.89572 1.57833,0 2.5,-0.56457 2.5,-1.53138 z m 6,9.53138 c 0,-0.55 0.45,-1 1,-1 0.55,0 1,-2.475 1,-5.5 0,-3.025 -0.45,-5.5 -1,-5.5 -0.55,0 -1,-0.45 -1,-1 0,-0.55 1.125,-1 2.5,-1 1.375,0 2.5,0.54 2.5,1.2 0,0.93333 0.26667,0.93333 1.2,0 1.49611,-1.49611 4.46034,-1.5586 5.35385,-0.11287 1.085285,1.75604 -1.2194,3.43533 -2.85348,2.07916 -0.76141,-0.63191 -1.68048,-0.85284 -2.04238,-0.49095 -1.06112,1.06112 -0.75426,10.32466 0.34201,10.32466 0.55,0 1,0.45 1,1 0,0.55 -1.8,1 -4,1 -2.2,0 -4,-0.45 -4,-1 z m 15.556695,-1.22251 c -3.717945,-5.30812 -0.5691,-12.77749 5.3866,-12.77749 3.54868,0 6.0567,3.10568 6.0567,7.5 0,4.6306 -2.48682,7.5 -6.5,7.5 -2.36599,0 -3.85573,-0.66979 -4.9433,-2.22251 z m 8.0679,-2.41792 c 0.92765,-3.69605 -0.72757,-7.85957 -3.1246,-7.85957 -2.68337,0 -4.23844,4.58388 -2.70031,7.95971 1.56638,3.43784 4.95154,3.37964 5.82491,-0.10014 z m 8.83803,-1.85957 c -0.96771,-3.575 -2.14268,-6.5 -2.61105,-6.5 -0.46837,0 -0.85158,-0.45 -0.85158,-1 0,-0.55 1.575,-1 3.5,-1 3.22302,0 4.82866,1.38577 2.51045,2.16667 -0.63865,0.21513 -0.58919,1.75173 0.13947,4.33333 l 1.12902,4 1.6763,-4.93859 c 2.2428,-6.60754 3.5091,-6.69021 5.60959,-0.36624 l 1.75937,5.29699 1.21674,-3.49608 c 0.70457,-2.02447 0.8468,-3.89597 0.3379,-4.44608 -1.59942,-1.72893 -0.91643,-2.55 2.12116,-2.55 1.65,0 3,0.45 3,1 0,0.55 -0.41094,1 -0.91319,1 -0.50225,0 -1.75304,2.8125 -2.77952,6.25 -2.28289,7.64499 -4.05074,7.99534 -6.30743,1.25 l -1.67278,-5 -1.7439,5.25 c -2.32937,7.01249 -3.97497,6.67641 -6.12055,-1.25 z m 28.53737,5.5 c 0,-0.55 0.45,-1 1,-1 0.55,0 1,-2.475 1,-5.5 0,-3.025 -0.45,-5.5 -1,-5.5 -0.55,0 -1,-0.39317 -1,-0.87371 0,-0.48055 4.53749,-0.86122 10.08332,-0.84595 11.3745,0.0313 11.91668,0.43101 11.91668,8.78476 0,2.16419 0.45,3.9349 1,3.9349 0.55,0 1,0.45 1,1 0,0.55 -1.125,1 -2.5,1 -2.32008,0 -2.5,-0.34608 -2.5,-4.80887 0,-5.08689 -1.92216,-8.97531 -3.8483,-7.78489 -1.40956,0.87116 -1.54878,10.59376 -0.1517,10.59376 0.55,0 1,0.45 1,1 0,0.55 -1.125,1 -2.5,1 -2.35674,0 -2.5,-0.30816 -2.5,-5.37756 0,-5.39282 -1.73254,-8.52381 -3.9562,-7.14951 -1.44076,0.89044 -1.31717,9.8537 0.1562,11.32707 0.93333,0.93333 0.26667,1.2 -3,1.2 -2.31,0 -4.2,-0.45 -4.2,-1 z m 29.20758,0.14945 c -3.12429,-1.98207 -3.10734,-11.32621 0.0242,-13.31383 4.6852,-2.97378 9.76827,0.62803 9.76827,6.92169 0,6.06808 -5.07815,9.38291 -9.79242,6.39214 z m 6.29242,-6.64945 c 0,-6.81251 -4.76683,-7.83896 -5.31663,-1.14484 -0.42749,5.20485 0.35167,6.84987 3.06216,6.46498 1.99601,-0.28344 2.25447,-0.89335 2.25447,-5.32014 z m 8.49516,5.49095 c -3.14319,-5.8731 -0.0462,-13.51897 5.1661,-12.75397 3.01954,0.44317 4.37214,-3.45157 1.58874,-4.5747 -0.6875,-0.27741 -0.0125,-0.53991 1.5,-0.58333 2.75,-0.0789 2.75,-0.0789 2.75,8.56081 0,6.98736 0.32609,8.8782 1.70502,9.8865 1.42534,1.04223 0.60438,1.25309 -5.00484,1.28545 -5.54176,0.032 -6.88311,-0.285 -7.70502,-1.82076 z m 6.80484,-1.19095 c 1.68675,-1.68675 1.49504,-7.31025 -0.3,-8.8 -3.1309,-2.59842 -5.85777,3.29813 -3.89301,8.41821 0.72178,1.88094 2.52928,2.04552 4.19301,0.38179 z m 9.47814,2.07814 c -1.20766,-1.20766 -0.63692,-3.87814 0.82885,-3.87814 0.49115,0 0.89301,0.7063 0.89301,1.56955 0,1.04234 0.72946,1.46221 2.17167,1.25 3.41629,-0.50269 3.15184,-2.19052 -0.66528,-4.24618 -3.77647,-2.03376 -4.68715,-5.34854 -2.06686,-7.52318 2.07091,-1.71871 6.973,-0.92123 7.37524,1.19981 0.37118,1.95726 -2.40553,2.47773 -3.04141,0.57009 -0.24462,-0.73387 -1.12669,-0.8948 -2.33333,-0.42571 -1.83986,0.71526 -1.81095,0.85097 0.55997,2.62836 6.51204,4.88183 7.00911,5.8253 4.42857,8.40583 -1.8226,1.8226 -6.51838,2.08162 -8.15043,0.44957 z m 75.47186,-32.95824 c -2.018,-1.17537 -2.34559,-4.75416 -0.5,-5.46224 1.28244,-0.49202 1.59674,-5.94425 0.41102,-7.12997 -1.14799,-1.14799 -0.71629,-5.03693 0.68856,-6.20285 2.25581,-1.87216 10.65042,-2.33956 10.65042,-0.59301 0,0.8075 -0.42149,1.46817 -0.93664,1.46817 -0.51515,0 -1.07765,1.44831 -1.25,3.21846 -0.25948,2.66502 -0.87222,3.37773 -3.56336,4.14466 -4.20112,1.19726 -4.17382,2.63688 0.05,2.63688 1.815,0 3.84,0.54 4.5,1.2 4.38341,4.38342 -4.20362,10.12511 -10.05,6.7199 z m 8.06513,-3.1699 c 0.2656,-1.40202 -0.37902,-1.75 -3.24181,-1.75 -2.94323,0 -3.57332,0.36384 -3.57332,2.06336 0,2.73345 6.29277,2.44411 6.81513,-0.31336 z m -1.98056,-11.14128 c 0.52218,-2.69311 -0.59803,-4.63672 -2.29672,-3.98487 -1.55096,0.59516 -2.12399,4.45668 -0.85035,5.73032 1.085,1.085 2.78061,0.14457 3.14707,-1.74545 z M 17.181235,177.1097 c -5.15752,-4.0569 -3.97198,-14.84184 1.87592,-17.06521 5.23312,-1.98963 11.31036,1.19627 7.8152,4.097 -0.97105,0.80589 -1.44056,0.84119 -1.44056,0.10829 0,-0.59799 -0.88969,-1.5634 -1.97708,-2.14536 -4.99726,-2.67445 -8.47085,8.5398 -4.02292,12.98773 2.16561,2.16561 4.51555,2.59288 5.5,1 0.33992,-0.55 1.33622,-1 2.214,-1 1.38996,0 1.36234,0.25817 -0.214,2 -2.30841,2.55077 -6.52046,2.55835 -9.75056,0.0175 z m 15.32314,-0.65241 c -3.9782,-5.05745 -1.41947,-12.61514 4.27098,-12.61514 4.07408,0 6.65644,2.87276 6.65644,7.40499 0,7.22497 -6.79436,10.46449 -10.92742,5.21015 z m 7.30041,-2.48442 c 1.42311,-4.04658 0.05472,-7.88072 -2.81259,-7.88072 -2.91691,0 -4.20695,4.16926 -2.59879,8.39904 1.29729,3.41213 4.12434,3.14135 5.41138,-0.51832 z m 6.12701,4.11928 c -0.33992,-0.55 0.0835,-1 0.94098,-1 1.28975,0 1.55902,-1.4681 1.55902,-8.5 0,-6.88889 -0.28431,-8.5 -1.5,-8.5 -0.825,0 -1.5,-0.45 -1.5,-1 0,-0.55 1.35,-1 3,-1 3,0 3,0 3,9.5 0,5.66667 0.40351,9.5 1,9.5 0.55,0 1,0.45 1,1 0,0.55 -1.54844,1 -3.44098,1 -1.89254,0 -3.7191,-0.45 -4.05902,-1 z m 12.72251,-0.5567 c -4.7025,-3.29376 -2.2762,-13.6933 3.19476,-13.6933 6.69762,0 8.42191,7.58076 1.83273,8.0575 -4.50809,0.32617 -5.50032,1.90994 -2.6688,4.25989 1.27834,1.06093 1.96738,1.07111 3.59738,0.0532 2.46454,-1.53913 3.56901,-0.72626 1.84148,1.35529 -1.6265,1.95981 -4.97302,1.94584 -7.79755,-0.0325 z m 5.77749,-9.51285 c 0,-1.57185 -0.53864,-1.9927 -2.23978,-1.75 -3.32375,0.4742 -3.61588,3.81955 -0.33354,3.81955 1.93548,0 2.57332,-0.51297 2.57332,-2.06955 z m 6,10.06955 c 0,-0.55 0.45,-1 1,-1 1.39816,0 1.25613,-10.34387 -0.1615,-11.7615 -0.882,-0.882 0.75218,-1.12549 6.79107,-1.01185 4.37391,0.0823 8.48017,-0.17644 9.12502,-0.57498 2.39258,-1.47869 5.24541,3.06174 5.24541,8.34833 0,2.85243 0.45486,5 1.05902,5 0.58246,0 0.7809,0.45 0.44098,1 -1.94625,3.1491 -4.5,0.92552 -4.5,-3.91821 0,-6.20487 -0.72157,-8.08179 -3.10699,-8.08179 -2.29322,0 -2.8885,10.46149 -0.64301,11.30025 0.84836,0.31688 0.6877,0.69935 -0.5,1.19032 -3.58621,1.48246 -4.75,-0.1001 -4.75,-6.45918 0,-6.10876 -2.70497,-8.84857 -4.39301,-4.4496 -1.28412,3.34635 -0.67035,9.41821 0.95203,9.41821 0.85746,0 1.2809,0.45 0.94098,1 -0.33992,0.55 -2.16648,1 -4.05902,1 -1.89254,0 -3.44098,-0.45 -3.44098,-1 z m 28.125,0.0984 c -3.57426,-2.26402 -0.97864,-8.05177 3.624995,-8.0831 1.55527,-0.0106 2.25,-0.61463 2.25,-1.9563 0,-2.85603 -1.65708,-3.38669 -3.29102,-1.05391 -1.194305,1.70511 -1.616425,1.81133 -2.580745,0.6494 -1.99847,-2.408 2.790745,-4.9794 6.621765,-3.55533 1.94746,0.72392 2.25,1.55337 2.25,6.1686 0,2.93273 0.5325,5.86473 1.18333,6.51556 1.72889,1.72889 0.0502,2.84362 -2.18245,1.44929 -1.20572,-0.75298 -2.13101,-0.83108 -2.51354,-0.21214 -0.74585,1.20681 -3.51659,1.24708 -5.362335,0.0779 z m 5.694545,-3.85863 c 0.2427,-1.70115 -0.17815,-2.23979 -1.75,-2.23979 -1.55658,0 -2.06955,0.63784 -2.06955,2.57333 0,3.28234 3.34535,2.99021 3.81955,-0.33354 z m 7.68045,3.76021 c -0.33992,-0.55 -0.14148,-1 0.44098,-1 0.6623,0 1.05902,-3.1842 1.05902,-8.5 0,-5 -0.41176,-8.5 -1,-8.5 -0.55,0 -1,-0.45 -1,-1 0,-0.55 1.35,-1 3,-1 3,0 3,0 3,6.12245 0,5.44932 0.17256,5.97923 1.56952,4.81985 0.86324,-0.71642 1.35537,-2.12152 1.09362,-3.12244 -0.39424,-1.50759 0.13364,-1.81986 3.0765,-1.81986 h 3.55241 l -2.64603,2.45225 c -1.45531,1.34874 -2.64434,2.81124 -2.64228,3.25 0.008,1.65182 4.01648,7.29775 5.18156,7.29775 0.9146,0 0.93092,0.28379 0.0661,1.14866 -1.47361,1.4736 -5.81082,-1.18531 -6.7475,-4.13654 -0.35631,-1.12264 -1.06544,-1.78307 -1.57585,-1.46762 -1.28023,0.7912 -1.17248,4.4555 0.13097,4.4555 0.58246,0 0.7809,0.45 0.44098,1 -0.33992,0.55 -1.91492,1 -3.5,1 -1.58508,0 -3.16008,-0.45 -3.5,-1 z m 28.0257,-0.97159 c -4.52311,-4.99799 0.23338,-15.68217 5.7243,-12.8581 1.44316,0.74225 1.75,0.45555 1.75,-1.63512 0,-1.39435 -0.45,-2.53519 -1,-2.53519 -0.55,0 -1,-0.45 -1,-1 0,-0.55 1.125,-1 2.5,-1 2.49123,0 2.5,0.0333 2.5,9.5 0,7.93761 0.2564,9.5 1.55902,9.5 0.85746,0 1.32063,0.38572 1.02927,0.85715 -1.0137,1.6402 -11.42605,0.9796 -13.06259,-0.82874 z m 6.2743,-1.22841 c 1.38187,-1.38187 1.57408,-6.66139 0.31486,-8.64839 -1.71977,-2.71373 -4.59628,-0.86011 -4.92939,3.1765 -0.4346,5.26659 1.9693,8.11712 4.61453,5.47189 z m 8.2,2.2 c 0,-0.55 0.45,-1 1,-1 0.58824,0 1,-3.5 1,-8.5 0,-5 -0.41176,-8.5 -1,-8.5 -0.55,0 -1,-0.45 -1,-1 0,-0.55 1.125,-1 2.5,-1 2.19522,0 2.5,0.43099 2.5,3.53519 0,3.04305 0.24362,3.40988 1.75,2.63512 4.11384,-2.11582 7.25,1.35378 7.25,8.02082 0,2.71791 0.46048,4.80887 1.05902,4.80887 0.58246,0 0.7809,0.45 0.44098,1 -1.7953,2.90485 -4.50014,0.95727 -4.51365,-3.25 -0.0213,-6.63194 -0.91505,-8.90231 -3.3667,-8.55247 -2.31971,0.33102 -3.94039,10.80247 -1.67191,10.80247 0.57874,0 1.05226,0.45 1.05226,1 0,0.55 -1.575,1 -3.5,1 -1.925,0 -3.5,-0.45 -3.5,-1 z m 30.50985,0.0159 c -0.3345,-0.54123 -1.30697,-3.35373 -2.16105,-6.25 -0.85407,-2.89626 -2.01205,-5.82844 -2.57328,-6.51594 -0.78296,-0.95913 -0.14899,-1.25 2.72448,-1.25 3.06179,0 3.537,0.2505 2.60519,1.37326 -0.62683,0.75528 -0.90693,2.10528 -0.62244,3 1.63433,5.13994 1.68894,5.15147 3.35774,0.70934 2.28325,-6.07773 3.64822,-6.07852 5.91442,-0.004 l 1.93453,5.18593 1.02999,-4.05782 c 0.72316,-2.84902 0.70983,-4.37798 -0.0447,-5.13254 -0.7663,-0.76624 -0.12122,-1.07467 2.24771,-1.07467 2.80229,0 3.13239,0.22901 2.10849,1.46274 -0.66768,0.80451 -1.98707,4.06701 -2.93198,7.25 -2.1747,7.32569 -4.01847,7.47755 -6.12036,0.50407 l -1.59242,-5.28319 -1.74419,5.53319 c -1.68255,5.33767 -2.85027,6.62323 -4.13213,4.54913 z m 18.49015,-0.0159 c 0,-0.55 0.45,-1 1,-1 1.42042,0 1.24491,-10.35508 -0.2,-11.8 -0.93333,-0.93333 -0.48889,-1.2 2,-1.2 3.2,0 3.2,0 3.2,6.5 0,3.66667 0.4359,6.5 1,6.5 0.55,0 1,0.45 1,1 0,0.55 -1.8,1 -4,1 -2.2,0 -4,-0.45 -4,-1 z m 12.03518,-0.93426 c -0.56935,-1.06384 -1.03518,-3.98884 -1.03518,-6.5 0,-2.51292 -0.4706,-4.56574 -1.04668,-4.56574 -1.16092,0 2.10256,-4.91854 3.29668,-4.96857 0.4125,-0.0173 0.75,0.64357 0.75,1.46857 0,0.83334 0.88889,1.5 2,1.5 1.1,0 2,0.45 2,1 0,0.55 -0.9,1 -2,1 -1.65971,0 -2,0.66667 -2,3.91822 0,4.88562 0.80847,7.08178 2.60699,7.08178 0.76615,0 1.39301,0.45 1.39301,1 0,1.82528 -4.89858,1.05803 -5.96482,-0.93426 z m 7.96482,0.93426 c 0,-0.55 0.45,-1 1,-1 0.58824,0 1,-3.5 1,-8.5 0,-5 -0.41176,-8.5 -1,-8.5 -0.55,0 -1,-0.45 -1,-1 0,-0.55 1.125,-1 2.5,-1 2.19714,0 2.5,0.43002 2.5,3.54969 0,2.99817 0.25513,3.40692 1.64203,2.63077 4.18691,-2.34312 7.35797,1.44998 7.35797,8.80131 0,2.16557 0.54718,4.05595 1.25,4.31848 0.84836,0.31688 0.6877,0.69935 -0.5,1.19032 -3.59733,1.48706 -4.75,-0.0973 -4.75,-6.52873 0,-5.75491 -0.12761,-6.08281 -2.25,-5.78139 -2.43184,0.34538 -4.17657,10.81955 -1.80226,10.81955 0.57874,0 1.05226,0.45 1.05226,1 0,0.55 -1.575,1 -3.5,1 -1.925,0 -3.5,-0.45 -3.5,-1 z m 27.2,-0.2 c -3.14158,-3.14157 -0.27258,-7.8 4.80381,-7.8 1.62299,0 2.05862,-0.52103 1.81574,-2.17167 -0.42449,-2.88488 -2.81227,-3.57218 -3.48415,-1.00288 -0.59045,2.25785 -3.3354,1.8816 -3.3354,-0.45719 0,-2.08534 4.50368,-3.50745 7.5,-2.36826 2.2795,0.86667 2.5,1.47454 2.5,6.89192 0,3.83745 0.44265,6.10676 1.25,6.40833 0.82733,0.30903 0.62414,0.72461 -0.60092,1.22905 -1.07863,0.44413 -2.13277,0.30611 -2.5264,-0.33079 -0.43622,-0.70583 -1.19741,-0.76286 -2.14907,-0.16103 -2.03314,1.28574 -4.3455,1.19064 -5.77361,-0.23748 z m 5.21821,-1.40699 c 2.30772,-0.88555 2.02093,-4.39301 -0.35919,-4.39301 -2.30122,0 -3.45442,1.52722 -2.67902,3.54789 0.62849,1.63782 0.82792,1.69329 3.03821,0.84512 z m 9.29608,1.98795 c -0.34048,-0.34048 0.0345,-1.27262 0.83333,-2.07143 1.96081,-1.96082 1.84037,-8.22332 -0.20155,-10.47962 -1.57706,-1.74262 -1.46827,-1.8203 2.34036,-1.67106 2.19686,0.0861 4.4428,-0.12068 4.99096,-0.45947 2.63093,-1.626 5.32261,2.3475 5.32261,7.85733 0,2.99381 0.45,5.44329 1,5.44329 0.55,0 1,0.45 1,1 0,5.30852 -4.93664,0.32659 -5.20228,-5.25 -0.4144,-8.6994 -4.11044,-9.50289 -4.59998,-1 -0.19374,3.36513 0.0967,5.25 0.80902,5.25 0.6112,0 0.83316,0.45 0.49324,1 -0.67452,1.09141 -5.78818,1.37849 -6.78571,0.38096 z m 32.28571,-0.38096 c 0,-0.55 0.45,-1 1,-1 0.58824,0 1,-3.5 1,-8.5 0,-5 -0.41176,-8.5 -1,-8.5 -0.55,0 -1,-0.45 -1,-1 0,-0.55 1.125,-1 2.5,-1 2.48213,0 2.5,0.0646 2.5,9.03139 0,7.08998 0.32121,9.15464 1.49426,9.60478 0.82184,0.31537 1.24528,0.97625 0.94098,1.46862 -0.76018,1.22999 -7.43524,1.13592 -7.43524,-0.10479 z m 12,-1 c -5.85594,-5.85593 1.10412,-16.85234 7.48811,-11.83069 4.40482,3.46483 3.42516,6.83069 -1.98811,6.83069 -4.81771,0 -5.29113,0.53581 -3.10955,3.5193 1.19361,1.63235 1.7599,1.73323 4,0.71257 2.74074,-1.24876 3.44403,-0.46634 1.40955,1.56813 -1.82118,1.82118 -5.56255,1.43745 -7.8,-0.8 z m 7,-7.41821 c 0,-3.57956 -4.42156,-4.90174 -5.28975,-1.58179 -0.43441,1.66121 -0.0307,2 2.38337,2 1.59851,0 2.90638,-0.18819 2.90638,-0.41821 z m 15.2,8.21821 c -3.11865,-3.11864 -0.27727,-7.8 4.73426,-7.8 1.37814,0 2.06574,-0.64607 2.06574,-1.94098 0,-2.6973 -2.05788,-3.70035 -3.51195,-1.71179 -1.51565,2.07278 -3.48805,2.14518 -3.48805,0.12802 0,-2.53679 4.8607,-3.79654 7.63498,-1.97876 2.00283,1.3123 2.36502,2.37562 2.36502,6.94323 0,3.39921 0.46221,5.56627 1.25,5.86053 0.82733,0.30903 0.62414,0.72461 -0.60092,1.22905 -1.19098,0.49039 -2.15665,0.26747 -2.70836,-0.62522 -0.68287,-1.1049 -1.11022,-1.13457 -2.09908,-0.14572 -1.57355,1.57356 -4.09114,1.59214 -5.64164,0.0416 z m 5.6,-2 c 1.82165,-1.82165 1.43588,-3.8 -0.74098,-3.8 -2.30122,0 -3.45442,1.52722 -2.67902,3.54789 0.67773,1.76612 1.82167,1.85045 3.42,0.25211 z m 8.7,2.2 c -0.33992,-0.55 -0.14148,-1 0.44098,-1 1.47307,0 1.34932,-10.3097 -0.14164,-11.80066 -0.93422,-0.93422 -0.30391,-1.16553 2.84036,-1.04232 2.22256,0.0871 4.54645,-0.15403 5.16419,-0.53581 2.34822,-1.45128 5.19611,3.14098 5.19611,8.37879 0,2.75 0.45,5 1,5 0.55,0 1,0.45 1,1 0,5.30852 -4.93664,0.32659 -5.20228,-5.25 -0.4144,-8.6994 -4.11044,-9.50289 -4.59998,-1 -0.19374,3.36513 0.0967,5.25 0.80902,5.25 0.6112,0 0.83316,0.45 0.49324,1 -0.33992,0.55 -1.91492,1 -3.5,1 -1.58508,0 -3.16008,-0.45 -3.5,-1 z m 20.5596,0.0368 c -5.7135,-3.53113 -0.73192,-17.07257 5.12707,-13.93693 1.52946,0.81855 1.81333,0.5736 1.81333,-1.56471 0,-1.39435 -0.45,-2.53519 -1,-2.53519 -0.55,0 -1,-0.45 -1,-1 0,-0.55 1.125,-1 2.5,-1 2.49123,0 2.5,0.0333 2.5,9.5 0,5.66667 0.40351,9.5 1,9.5 0.55,0 1,0.38572 1,0.85715 0,1.01064 -10.34402,1.1663 -11.9404,0.17969 z m 6.33405,-4.22811 c 1.40578,-3.97648 -0.009,-8.00327 -2.679,-7.62364 -1.84403,0.26222 -2.26734,1.0514 -2.52952,4.71581 -0.44821,6.26461 3.28501,8.3488 5.20852,2.90783 z M 128.43179,171.0921 c 0,-0.55 1.575,-1 3.5,-1 1.925,0 3.5,0.45 3.5,1 0,0.55 -1.575,1 -3.5,1 -1.925,0 -3.5,-0.45 -3.5,-1 z m 77.44615,-10.08713 c -1.03052,-1.66742 1.28721,-3.57951 2.66672,-2.2 1.15392,1.15393 0.43172,3.28713 -1.11287,3.28713 -0.48508,0 -1.18431,-0.48921 -1.55385,-1.08713 z M 65.295865,143.03375 c 3.90299,-2.3795 3.87015,-4.48036 -0.20307,-12.99138 l -2.36909,-4.95022 3.60405,0.0153 c 2.40549,0.0102 3.15198,0.30174 2.24469,0.8766 -1.37869,0.87355 0.30988,8.10809 1.89246,8.10809 1.3391,0 2.75669,-6.8102 1.6483,-7.91858 -0.77521,-0.77522 -0.16882,-1.08142 2.14164,-1.08142 3.08511,0 3.16393,0.0963 1.8415,2.25 -0.75986,1.2375 -2.41853,5.175 -3.68593,8.75 -2.92287,8.2446 -3.54079,9.00082 -7.35106,8.99627 l -3.12756,-0.004 z m -14.22921,-5.01418 c -4.96612,-3.90635 -2.54483,-13.92742 3.36514,-13.92742 2.57556,0 6,3.42444 6,6 0,1.70371 -0.66667,2 -4.5,2 -4.55803,0 -5.4434,0.96175 -3.5859,3.89525 0.6029,0.95215 1.86833,1.19827 3.98468,0.775 3.45408,-0.69082 4.15821,0.6937 1.16696,2.29457 -2.69463,1.44212 -3.42936,1.3236 -6.43088,-1.0374 z m 5.36514,-9.3684 c 0,-2.10995 -1.8687,-2.91287 -3.5438,-1.52266 -2.17357,1.8039 -1.76511,2.96364 1.0438,2.96364 1.51005,0 2.5,-0.5706 2.5,-1.44098 z m 33.24243,9.89824 c -5.49252,-3.84712 -1.42438,-15.91933 4.70861,-13.9728 2.64781,0.84039 2.90094,-2.88884 0.29896,-4.40436 -1.44957,-0.8443 -1.19206,-1.0245 1.5,-1.04969 3.25,-0.0304 3.25,-0.0304 3.25,8.76959 0,5.69926 0.43975,9.23976 1.248025,10.04803 0.99737,0.99738 0.54548,1.21225 -2.249995,1.06987 -1.92392,-0.098 -4.17643,0.11168 -5.0056,0.46593 -0.82916,0.35425 -2.51666,-0.0627 -3.75,-0.92657 z m 6.25757,-6.45726 c 0,-5.99737 -4.75763,-7.03002 -5.32046,-1.1548 -0.44775,4.67395 0.41315,6.35165 3.06599,5.97494 1.95787,-0.27802 2.25447,-0.91216 2.25447,-4.82014 z m 12.499995,7.30602 c -6.33236,-2.26313 -4.72248,-15.30602 1.88922,-15.30602 3.74381,0 6.38351,3.30815 6.38351,8 0,5.90493 -3.51275,9.0072 -8.27273,7.30602 z m 5,-7.82147 c 0,-4.58875 -2.04365,-6.52313 -4.62675,-4.37935 -2.02997,1.68472 -1.7718,8.57239 0.36617,9.76885 2.6599,1.48856 4.26058,-0.53626 4.26058,-5.3895 z m 33.22919,7.34464 c -0.67606,-0.67605 -1.22919,-3.57669 -1.22919,-6.44585 0,-3.2003 -0.46897,-5.37299 -1.2133,-5.6211 -0.82298,-0.27433 -0.48719,-1.32754 1.04379,-3.27387 2.20802,-2.80705 2.26955,-2.82181 2.82994,-0.6789 0.31506,1.20479 1.19535,2.19053 1.9562,2.19053 0.76085,0 1.38337,0.45 1.38337,1 0,0.55 -0.69852,1 -1.55226,1 -1.24428,0 -1.49229,1.04163 -1.25,5.25 0.21632,3.75734 0.68431,5.17004 1.64601,4.96875 0.73906,-0.15468 1.15177,0.29532 0.91713,1 -0.58741,1.76418 -3.04668,2.09545 -4.53169,0.61044 z m 52.40567,-0.90177 c -4.8068,-3.78103 -3.22781,-12.07268 2.56482,-13.46846 6.38311,-1.53807 10.32371,8.10856 5.34577,13.0865 -2.9947,2.9947 -4.49683,3.06723 -7.91059,0.38196 z m 6.62273,-3.4946 c 0.66193,-3.46266 -0.28467,-7.50598 -1.90261,-8.12684 -2.23839,-0.85895 -4.35498,1.69022 -4.35498,5.24504 0,5.90952 5.21932,8.31317 6.25759,2.8818 z m 60.49241,4.49059 c -1.32439,-0.77404 -1.75,-2.33626 -1.75,-6.42341 0,-4.08848 -0.42518,-5.64826 -1.75,-6.4199 -1.44957,-0.8443 -1.19206,-1.0245 1.5,-1.04969 3.25,-0.0304 3.25,-0.0304 3.25,6.03914 0,5.72237 0.1287,6.05128 2.25,5.75 2.61214,-0.37098 3.82274,-7.82204 1.68866,-10.39345 -0.97361,-1.17314 -0.71838,-1.4261 1.4389,-1.4261 2.52849,0 2.62244,0.20779 2.62244,5.8 0,3.19 0.54,6.34 1.2,7 0.93333,0.93334 0.39595,1.2 -2.41821,1.2 -1.99002,0 -4.21752,0.2129 -4.95,0.47311 -0.73249,0.2602 -2.11929,0.0129 -3.08179,-0.5497 z m 16.08514,0.39219 c -2.31689,-0.59764 -2.99974,-2.9341 -1.2757,-4.36493 1.14961,-0.95409 1.44056,-0.87979 1.44056,0.36787 0,2.00607 1.38971,2.85288 3.40976,2.07772 2.61512,-1.00352 1.81483,-2.91873 -1.97475,-4.72586 -4.54549,-2.16759 -4.63684,-6.53858 -0.16929,-8.10056 3.14137,-1.09832 6.60012,1.22019 5.19996,3.48569 -0.58118,0.94037 -1.09082,0.81003 -2.07028,-0.52946 -0.85134,-1.16428 -1.91923,-1.53567 -3.09736,-1.0772 -1.63032,0.63445 -1.56484,0.87454 0.70196,2.57387 6.38228,4.78455 6.82435,5.54633 4.75,8.18516 -1.42418,1.81173 -4.46688,2.73917 -6.91486,2.1077 z m 14.54006,-0.30044 c -4.83642,-1.95314 -4.9494,-11.2696 -0.16923,-13.95567 3.36972,-1.8935 7.79403,0.64026 7.79403,4.46357 0,2.23016 -0.40546,2.47694 -4.06955,2.47694 -3.64829,0 -4.03647,0.23291 -3.75,2.25 0.27006,1.90155 0.9003,2.23234 4.06955,2.13594 4.32078,-0.13142 4.92601,1.21645 1.1849,2.63881 -1.4108,0.53639 -2.6483,0.94673 -2.75,0.91187 -0.10169,-0.0349 -1.14106,-0.44952 -2.3097,-0.92146 z m 4.6248,-10.45614 c 0,-2.10995 -1.8687,-2.91287 -3.5438,-1.52266 -2.17357,1.8039 -1.76511,2.96364 1.0438,2.96364 1.51005,0 2.5,-0.5706 2.5,-1.44098 z m -284.199995,9.24098 c 1.58889,-1.58889 1.64307,-15.8 0.0602,-15.8 -0.62686,0 -1.71507,0.7868 -2.41824,1.74843 -1.60079,2.18922 -2.54764,1.37154 -1.78571,-1.5421 0.95259,-3.64255 15.34375,-3.36711 15.34375,0.29367 0,2.75 -1.45386,3.36561 -2.36163,1 -0.31658,-0.825 -1.26472,-1.5 -2.10699,-1.5 -1.94362,0 -2.23508,13.89631 -0.33138,15.8 0.93333,0.93334 0.22222,1.2 -3.2,1.2 -3.42222,0 -4.13333,-0.26666 -3.2,-1.2 z m 13.45,-0.19204 c 1.38474,-1.05117 1.75,-2.84782 1.75,-8.60796 0,-5.76013 -0.36526,-7.55678 -1.75,-8.60795 -1.57027,-1.192 -1.41621,-1.33171 1.5,-1.36024 2.96722,-0.029 3.25,0.23508 3.25,3.03558 0,2.59263 0.30371,2.971 1.96223,2.4446 4.0152,-1.27437 6.03777,1.07829 6.03777,7.0232 0,3.00565 0.45,5.46481 1,5.46481 0.55,0 1,0.45 1,1 0,0.55 -1.125,1 -2.5,1 -2.39207,0 -2.5,-0.26203 -2.5,-6.06955 0,-5.72236 -0.1287,-6.05127 -2.25,-5.75 -2.61214,0.37099 -3.82274,7.82205 -1.68866,10.39346 0.99459,1.19842 0.48549,1.42102 -3.1889,1.39429 -3.85021,-0.028 -4.16343,-0.19047 -2.62244,-1.36024 z m 90.095005,-0.4367 c 2.28128,-2.52079 2.21989,-9.72438 -0.095,-11.14837 -1.47078,-0.90473 -1.27134,-1.04328 1.25,-0.86837 1.65,0.11447 3.9955,-0.1234 5.21223,-0.52859 4.18412,-1.39341 6.28777,0.85125 6.28777,6.70926 0,2.89565 0.54,5.80481 1.2,6.46481 0.93333,0.93334 0.6,1.2 -1.5,1.2 -2.63333,0 -2.7,-0.14814 -2.7,-6 0,-5.73333 -0.11111,-6 -2.5,-6 -2.80972,0 -3.80785,8.29215 -1.3,10.8 0.93333,0.93334 0.23222,1.2 -3.15499,1.2 -4.1557,0 -4.27925,-0.0837 -2.7,-1.82874 z m 41.45499,0.62874 c 1.60327,-1.60326 1.60327,-15.99673 0,-17.6 -0.93333,-0.93333 -0.6,-1.2 1.5,-1.2 2.64089,0 2.7,0.13476 2.7,6.15499 0,6.1272 0.009,6.14667 2.03527,4.3131 1.11939,-1.01304 1.80852,-2.43279 1.53138,-3.15499 -0.35042,-0.91318 0.45723,-1.3131 2.65183,-1.3131 h 3.1557 l -2.81776,2.94111 -2.81776,2.94111 3.2147,4.05889 c 4.10619,5.1845 1.10303,5.96779 -3.13589,0.81791 -2.46508,-2.99484 -2.74311,-3.10176 -3.42991,-1.31899 -0.46298,1.2018 -0.29839,2.0897 0.43253,2.33334 2.54545,0.84848 0.98566,2.22663 -2.52009,2.22663 -2.87778,0 -3.43333,-0.26666 -2.5,-1.2 z m 16.45,-0.19204 c 2.36472,-1.79508 2.45462,-10.11425 0.12339,-11.41887 -1.19081,-0.66641 -0.18611,-1.05156 3.75,-1.43754 7.57686,-0.74301 8.87661,0.19754 8.87661,6.42339 0,3.68876 0.48538,5.47304 1.75,6.43302 1.57027,1.192 1.41621,1.3317 -1.5,1.36024 -3.25,0.0318 -3.25,0.0318 -3.25,-6.03775 0,-5.72236 -0.1287,-6.05127 -2.25,-5.75 -2.61214,0.37099 -3.82274,7.82205 -1.68866,10.39346 0.99459,1.19842 0.48549,1.42102 -3.1889,1.39429 -3.85021,-0.028 -4.16343,-0.19047 -2.62244,-1.36024 z m 36.15721,-4.35796 c -0.90676,-3.1625 -2.09943,-6.3125 -2.65037,-7 -0.76744,-0.95764 -0.096,-1.24642 2.87072,-1.23468 2.32853,0.009 3.36939,0.33465 2.6107,0.81627 -1.30992,0.83154 -0.66753,7.16841 0.72668,7.16841 0.39322,0 1.30899,-1.8 2.03506,-4 1.65418,-5.01222 3.49231,-5.10334 5.04325,-0.25 1.7547,5.49096 2.72895,5.98122 3.51884,1.77075 0.50708,-2.70298 0.31849,-3.98238 -0.68026,-4.61494 -0.92316,-0.58468 -0.0541,-0.87518 2.61817,-0.87518 2.50985,0 3.5117,0.30967 2.68926,0.83124 -0.72091,0.45719 -2.13157,3.4878 -3.1348,6.73469 -2.30475,7.45915 -4.32227,8.09021 -6.05695,1.89455 -1.41134,-5.04081 -2.14595,-4.89982 -3.95426,0.75889 -1.73387,5.4258 -3.70772,4.72536 -5.63604,-2 z m 29.84279,4.35796 c 2.36026,-1.7917 2.56631,-14.35748 0.25,-15.24633 -2.83926,-1.08953 -1.49262,-2.36163 2.5,-2.36163 2.2,0 4,0.45 4,1 0,0.55 -0.45,1 -1,1 -1.45261,0 -1.27123,14.32877 0.2,15.8 0.93333,0.93334 0.21111,1.19294 -3.25,1.1682 -3.91474,-0.028 -4.2395,-0.19159 -2.7,-1.36024 z m -106.61084,-12.1059 c -1.10661,-2.8838 -0.69697,-5.50206 0.86084,-5.50206 1.63829,0 2.02566,3.62244 0.62385,5.83385 -0.67448,1.06402 -0.97482,0.9969 -1.48469,-0.33179 z"
       id="path1" />
  </g>
</svg>
