<?xml version="1.0" encoding="UTF-8" standalone="no"?>
<!-- Created with Inkscape (http://www.inkscape.org/) -->

<svg
   width="172.86427mm"
   height="27.640587mm"
   viewBox="0 0 172.86427 27.640587"
   version="1.1"
   id="svg1"
   xmlns="http://www.w3.org/2000/svg"
   xmlns:svg="http://www.w3.org/2000/svg">
  <defs
     id="defs1" />
  <g
     id="layer1"
     transform="translate(-6.381742,-28.807057)">
    <path
       style="fill:#e3e2db;stroke-width:1.5"
       id="path7"
       d="m 13.558335,56.447639 c -0.139058,-0.423696 -0.346213,-0.81352 -0.578129,-1.191895 -0.194083,-0.304236 -0.224708,-0.657662 -0.282345,-1.003797 -0.129711,-0.56664 -0.08729,-1.12794 0.04889,-1.687293 0.251603,-0.68148 0.61618,-1.329177 1.06255,-1.902378 0.221437,-0.305612 0.645521,-0.59445 0.700673,-0.998773 0.0082,-0.06004 -0.0086,-0.120878 -0.01291,-0.181319 -0.179719,-0.47665 -0.453907,-0.909302 -0.706771,-1.349129 -0.345791,-0.526016 -0.676382,-1.062053 -0.996447,-1.604089 -0.221646,-0.446942 -0.480419,-0.873723 -0.712785,-1.314847 -0.195214,-0.392594 -0.236358,-0.834544 -0.307501,-1.261568 -0.109632,-0.58805 -0.101917,-1.181375 0.07208,-1.75373 0.245314,-0.567026 0.747681,-0.957834 1.194351,-1.363853 0.472337,-0.393377 0.997469,-0.715878 1.408459,-1.177157 0.353418,-0.412862 0.656347,-0.852985 0.830699,-1.369484 0.01576,-0.07267 0.03152,-0.14533 0.04728,-0.217993 0,0 -0.07049,-0.03783 -0.07049,-0.03783 v 0 c -0.01562,0.0724 -0.03124,0.144804 -0.04685,0.217207 -0.173679,0.515615 -0.476378,0.954665 -0.829087,1.366692 -0.411067,0.46077 -0.936301,0.782794 -1.408021,1.176441 -0.447751,0.407051 -0.950722,0.799065 -1.196516,1.36757 -0.174792,0.573286 -0.18344,1.167749 -0.07377,1.757 0.07111,0.427641 0.112217,0.870252 0.306416,1.263881 0.231946,0.441438 0.491607,0.86783 0.712626,1.315201 0.319761,0.542184 0.650325,1.078264 0.996485,1.604005 0.252378,0.439398 0.525237,0.871318 0.708293,1.345906 0.0048,0.05949 0.0222,0.11929 0.01442,0.178459 -0.05304,0.403291 -0.479949,0.691605 -0.699347,0.99646 -0.446888,0.574244 -0.812077,1.222799 -1.064217,1.905315 -0.136779,0.560139 -0.180175,1.122553 -0.05036,1.690169 0.05799,0.346718 0.08739,0.701307 0.281048,1.006589 0.231667,0.378007 0.439759,0.766662 0.579034,1.189918 z" />
    <path
       style="fill:#e3e2db;stroke-width:1.5"
       id="path8"
       d="m 14.220272,53.794768 c 0.367821,-0.471689 0.735834,-0.943121 1.105404,-1.413433 0.405755,-0.578567 0.834883,-1.142183 1.215618,-1.737792 0.16816,-0.36981 0.458241,-0.759648 0.476352,-1.182052 0.0035,-0.08149 -0.0157,-0.16238 -0.02355,-0.243568 -0.09688,-0.511553 -0.400396,-0.95165 -0.6925,-1.372237 -0.319992,-0.554919 -0.795149,-0.980287 -1.253976,-1.415741 -0.397843,-0.392329 -0.805794,-0.773932 -1.228745,-1.139089 -0.388853,-0.321286 -0.821388,-0.581157 -1.225402,-0.88187 -0.114823,-0.07393 -0.812153,-0.751742 -0.721595,-0.825553 0.356587,-0.290639 1.370289,0.695153 -0.249636,-0.529926 -0.222851,-0.497469 -0.292228,-1.0317 -0.327203,-1.569696 -0.0088,-0.473154 -0.04907,-0.950531 0.0019,-1.42213 0.02632,-0.403365 0.24578,-0.748009 0.377371,-1.121193 0.108689,-0.340643 0.127659,-0.698341 0.139812,-1.05293 -0.0065,-0.28184 -0.07906,-0.55099 -0.153147,-0.820606 0,0 -0.07223,-0.03439 -0.07223,-0.03439 v 0 c 0.0741,0.268949 0.14708,0.537255 0.15422,0.818439 -0.01196,0.353819 -0.0305,0.710787 -0.138665,1.050776 -0.131621,0.373812 -0.351663,0.718876 -0.378244,1.122818 -0.05178,0.471942 -0.0111,0.949796 -0.0026,1.42336 0.03469,0.538718 0.103421,1.073854 0.325987,1.572231 -0.158033,0.0011 -0.541238,-0.140255 -0.474097,0.0028 0.126826,0.270245 0.500296,0.329649 0.723273,0.52814 0.07568,0.06737 0.102452,0.175072 0.160206,0.258323 0.154503,0.222708 0.339884,0.412086 0.560232,0.569992 0.403695,0.301122 0.836255,0.56075 1.225615,0.881335 0.423079,0.364961 0.831205,0.746284 1.228889,1.13874 0.458457,0.435388 0.93505,0.85925 1.25461,1.414238 0.291991,0.419431 0.595589,0.858567 0.694219,1.368549 0.0082,0.08051 0.02781,0.160666 0.02461,0.241528 -0.01671,0.421333 -0.307707,0.810612 -0.474868,1.179393 -0.380621,0.595373 -0.809576,1.158796 -1.215224,1.737122 -0.36968,0.470487 -0.737895,0.942022 -1.105722,1.413968 z" />
    <path
       style="fill:#e3e2db;stroke-width:1.5"
       id="path7-1"
       d="m 77.684739,55.87962 c -0.139058,-0.423696 -0.346213,-0.81352 -0.578129,-1.191895 -0.194083,-0.304236 -0.224708,-0.657662 -0.282345,-1.003797 -0.129711,-0.56664 -0.08729,-1.12794 0.04889,-1.687293 0.251603,-0.68148 0.61618,-1.329177 1.06255,-1.902378 0.221437,-0.305612 0.645521,-0.59445 0.700673,-0.998773 0.0082,-0.06004 -0.0086,-0.120878 -0.01291,-0.181319 -0.179719,-0.47665 -0.453907,-0.909302 -0.706771,-1.349129 -0.345791,-0.526016 -0.676382,-1.062053 -0.996447,-1.604089 -0.221646,-0.446942 -0.480419,-0.873723 -0.712785,-1.314847 -0.195214,-0.392594 -0.236358,-0.834544 -0.307501,-1.261568 -0.109632,-0.58805 -0.101917,-1.181375 0.07208,-1.75373 0.245314,-0.567026 0.747681,-0.957834 1.194351,-1.363853 0.472337,-0.393377 0.997469,-0.715878 1.408459,-1.177157 0.353418,-0.412862 0.656347,-0.852985 0.830699,-1.369484 0.01576,-0.07267 0.03152,-0.14533 0.04728,-0.217993 0,0 -0.07049,-0.03783 -0.07049,-0.03783 v 0 c -0.01562,0.0724 -0.03124,0.144804 -0.04685,0.217207 -0.173679,0.515615 -0.476378,0.954665 -0.829087,1.366692 -0.411067,0.46077 -0.936301,0.782794 -1.408021,1.176441 -0.447751,0.407051 -0.950722,0.799065 -1.196516,1.36757 -0.174792,0.573286 -0.18344,1.167749 -0.07377,1.757 0.07111,0.427641 0.112217,0.870252 0.306416,1.263881 0.231946,0.441438 0.491607,0.86783 0.712626,1.315201 0.319761,0.542184 0.650325,1.078264 0.996485,1.604005 0.252378,0.439398 0.525237,0.871318 0.708293,1.345906 0.0048,0.05949 0.0222,0.11929 0.01442,0.178459 -0.05304,0.403291 -0.479949,0.691605 -0.699347,0.99646 -0.446888,0.574244 -0.812077,1.222799 -1.064217,1.905315 -0.136779,0.560139 -0.180175,1.122553 -0.05036,1.690169 0.05799,0.346718 0.08739,0.701307 0.281048,1.006589 0.231667,0.378007 0.439759,0.766662 0.579034,1.189918 z" />
    <path
       style="fill:#e3e2db;stroke-width:1.5"
       id="path8-2"
       d="m 78.346676,53.226749 c 0.367821,-0.471689 0.735834,-0.943121 1.105404,-1.413433 0.405755,-0.578567 0.834883,-1.142183 1.215618,-1.737792 0.16816,-0.36981 0.458241,-0.759648 0.476352,-1.182052 0.0035,-0.08149 -0.0157,-0.16238 -0.02355,-0.243568 -0.09688,-0.511553 -0.400396,-0.95165 -0.6925,-1.372237 -0.319992,-0.554919 -0.795149,-0.980287 -1.253976,-1.415741 -0.397843,-0.392329 -0.805794,-0.773932 -1.228745,-1.139089 -0.388853,-0.321286 -0.821388,-0.581157 -1.225402,-0.88187 -0.114823,-0.07393 -0.812153,-0.751742 -0.721595,-0.825553 0.356587,-0.290639 1.370289,0.695153 -0.249636,-0.529926 -0.222851,-0.497469 -0.292228,-1.0317 -0.327203,-1.569696 -0.0088,-0.473154 -0.04907,-0.950531 0.0019,-1.42213 0.02632,-0.403365 0.24578,-0.748009 0.377371,-1.121193 0.108689,-0.340643 0.127659,-0.698341 0.139812,-1.05293 -0.0065,-0.28184 -0.07906,-0.55099 -0.153147,-0.820606 0,0 -0.07223,-0.03439 -0.07223,-0.03439 v 0 c 0.0741,0.268949 0.14708,0.537255 0.15422,0.818439 -0.01196,0.353819 -0.0305,0.710787 -0.138665,1.050776 -0.131621,0.373812 -0.351663,0.718876 -0.378244,1.122818 -0.05178,0.471942 -0.0111,0.949796 -0.0026,1.42336 0.03469,0.538718 0.103421,1.073854 0.325987,1.572231 -0.158033,0.0011 -0.541238,-0.140255 -0.474097,0.0028 0.126826,0.270245 0.500296,0.329649 0.723273,0.52814 0.07568,0.06737 0.102452,0.175072 0.160206,0.258323 0.154503,0.222708 0.339884,0.412086 0.560232,0.569992 0.403695,0.301122 0.836255,0.56075 1.225615,0.881335 0.423079,0.364961 0.831205,0.746284 1.228889,1.13874 0.458457,0.435388 0.93505,0.85925 1.25461,1.414238 0.291991,0.419431 0.595589,0.858567 0.694219,1.368549 0.0082,0.08051 0.02781,0.160666 0.02461,0.241528 -0.01671,0.421333 -0.307707,0.810612 -0.474868,1.179393 -0.380621,0.595373 -0.809576,1.158796 -1.215224,1.737122 -0.36968,0.470487 -0.737895,0.942022 -1.105722,1.413968 z" />
    <path
       style="fill:#e3e2db;stroke-width:1.5"
       id="path7-1-1"
       d="m 175.78618,55.203418 c -0.13906,-0.423696 -0.34621,-0.81352 -0.57813,-1.191895 -0.19408,-0.304236 -0.22471,-0.657662 -0.28234,-1.003797 -0.12971,-0.56664 -0.0873,-1.12794 0.0489,-1.687293 0.2516,-0.68148 0.61618,-1.329177 1.06255,-1.902378 0.22143,-0.305612 0.64552,-0.59445 0.70067,-0.998773 0.008,-0.06004 -0.009,-0.120878 -0.0129,-0.181319 -0.17972,-0.47665 -0.45391,-0.909302 -0.70677,-1.349129 -0.34579,-0.526016 -0.67638,-1.062053 -0.99645,-1.604089 -0.22164,-0.446942 -0.48042,-0.873723 -0.71278,-1.314847 -0.19522,-0.392594 -0.23636,-0.834544 -0.3075,-1.261568 -0.10964,-0.58805 -0.10192,-1.181375 0.0721,-1.75373 0.24531,-0.567026 0.74768,-0.957834 1.19435,-1.363853 0.47233,-0.393377 0.99747,-0.715878 1.40846,-1.177157 0.35341,-0.412862 0.65634,-0.852985 0.8307,-1.369484 0.0158,-0.07267 0.0315,-0.14533 0.0473,-0.217993 0,0 -0.0705,-0.03783 -0.0705,-0.03783 v 0 c -0.0156,0.0724 -0.0312,0.144804 -0.0468,0.217207 -0.17368,0.515615 -0.47638,0.954665 -0.82909,1.366692 -0.41107,0.46077 -0.9363,0.782794 -1.40802,1.176441 -0.44775,0.407051 -0.95072,0.799065 -1.19652,1.36757 -0.17479,0.573286 -0.18344,1.167749 -0.0738,1.757 0.0711,0.427641 0.11222,0.870252 0.30642,1.263881 0.23194,0.441438 0.4916,0.86783 0.71262,1.315201 0.31976,0.542184 0.65033,1.078264 0.99649,1.604005 0.25238,0.439398 0.52524,0.871318 0.70829,1.345906 0.005,0.05949 0.0222,0.11929 0.0144,0.178459 -0.053,0.403291 -0.47995,0.691605 -0.69935,0.99646 -0.44688,0.574244 -0.81207,1.222799 -1.06421,1.905315 -0.13678,0.560139 -0.18018,1.122553 -0.0504,1.690169 0.058,0.346718 0.0874,0.701307 0.28105,1.006589 0.23166,0.378007 0.43975,0.766662 0.57903,1.189918 z" />
    <path
       style="fill:#e3e2db;stroke-width:1.5"
       id="path8-2-8"
       d="m 176.44812,52.550547 c 0.36782,-0.471689 0.73583,-0.943121 1.1054,-1.413433 0.40576,-0.578567 0.83489,-1.142183 1.21562,-1.737792 0.16816,-0.36981 0.45824,-0.759648 0.47635,-1.182052 0.004,-0.08149 -0.0157,-0.16238 -0.0236,-0.243568 -0.0969,-0.511553 -0.40039,-0.95165 -0.6925,-1.372237 -0.31999,-0.554919 -0.79515,-0.980287 -1.25397,-1.415741 -0.39785,-0.392329 -0.8058,-0.773932 -1.22875,-1.139089 -0.38885,-0.321286 -0.82139,-0.581157 -1.2254,-0.88187 -0.11482,-0.07393 -0.81215,-0.751742 -0.7216,-0.825553 0.35659,-0.290639 1.37029,0.695153 -0.24963,-0.529926 -0.22285,-0.497469 -0.29223,-1.0317 -0.3272,-1.569696 -0.009,-0.473154 -0.0491,-0.950531 0.002,-1.42213 0.0263,-0.403365 0.24578,-0.748009 0.37737,-1.121193 0.10869,-0.340643 0.12766,-0.698341 0.13981,-1.05293 -0.007,-0.28184 -0.0791,-0.55099 -0.15315,-0.820606 0,0 -0.0722,-0.03439 -0.0722,-0.03439 v 0 c 0.0741,0.268949 0.14708,0.537255 0.15422,0.818439 -0.012,0.353819 -0.0305,0.710787 -0.13866,1.050776 -0.13162,0.373812 -0.35167,0.718876 -0.37825,1.122818 -0.0518,0.471942 -0.0111,0.949796 -0.003,1.42336 0.0347,0.538718 0.10342,1.073854 0.32599,1.572231 -0.15803,0.0011 -0.54124,-0.140255 -0.4741,0.0028 0.12683,0.270245 0.5003,0.329649 0.72328,0.52814 0.0757,0.06737 0.10245,0.175072 0.1602,0.258323 0.1545,0.222708 0.33989,0.412086 0.56023,0.569992 0.4037,0.301122 0.83626,0.56075 1.22562,0.881335 0.42308,0.364961 0.8312,0.746284 1.22889,1.13874 0.45845,0.435388 0.93505,0.85925 1.25461,1.414238 0.29199,0.419431 0.59559,0.858567 0.69422,1.368549 0.008,0.08051 0.0278,0.160666 0.0246,0.241528 -0.0167,0.421333 -0.30771,0.810612 -0.47487,1.179393 -0.38062,0.595373 -0.80958,1.158796 -1.21523,1.737122 -0.36968,0.470487 -0.73789,0.942022 -1.10572,1.413968 z" />
    <path
       style="fill:#e3e2db;stroke-width:1.5"
       id="path17"
       d="m 6.4611207,44.847076 c -0.033428,-1.297708 0.040488,-2.590621 0.1528395,-3.882761 0.1826598,-1.914332 0.7089682,-3.764224 1.3437943,-5.57163 0.4533866,-1.271754 1.0111089,-2.506615 1.7241317,-3.653808 0.6436478,-1.017067 1.6010328,-1.691511 2.6543168,-2.229374 0.890432,-0.361016 1.795374,-0.650553 2.762307,-0.655471 1.031887,0.05232 1.83722,0.490273 2.658932,1.074475 0.973341,0.757542 1.669679,1.781003 2.266751,2.845181 0.572563,1.086681 1.096114,2.200762 1.585409,3.32735 0.340256,0.817229 0.720301,1.615808 1.044053,2.439839 0.07769,0.227251 0.304571,0.580337 0.131177,0.82803 -0.179565,0.256505 -0.639634,0.213159 -0.896941,0.222043 -0.67596,-0.06251 -1.310892,-0.291528 -1.916647,-0.585356 -0.291435,-0.158795 -0.193865,-0.206819 0.06455,-0.239075 0.336458,-0.02265 0.674126,-0.01685 1.011138,-0.01553 0.361291,0.0019 0.722585,0.0029 1.083881,0.0035 0.453843,0.03002 0.695235,-0.123571 0.993653,-0.442939 0.424408,-0.52433 0.704943,-1.142984 0.979726,-1.753806 0.230377,-0.474755 0.422027,-0.966994 0.604788,-1.461588 0,0 -0.06995,-0.03882 -0.06995,-0.03882 v 0 c -0.182651,0.494438 -0.37421,0.986523 -0.604519,1.461106 -0.274384,0.610026 -0.554422,1.22799 -0.978395,1.751534 -0.297956,0.318378 -0.537954,0.467424 -0.990017,0.437475 -0.361291,-5.29e-4 -0.722582,-0.0016 -1.08387,-0.0035 -0.337214,-0.0013 -0.675142,-0.0072 -1.011751,0.01638 -0.433021,0.05714 -0.227344,0.176254 0.0633,0.33516 0.60638,0.293524 1.242479,0.521587 1.919003,0.582253 0.263498,-0.0098 0.72001,0.03088 0.90248,-0.230891 0.17449,-0.250328 -0.0491,-0.602287 -0.129017,-0.832345 -0.323653,-0.824153 -0.703483,-1.622867 -1.043934,-2.440096 -0.489048,-1.126881 -1.012933,-2.241005 -1.585075,-3.328088 -0.596545,-1.065035 -1.292749,-2.089332 -2.265383,-2.848435 -0.845695,-0.60275 -1.735472,-1.1019 -2.798092,-1.150834 -0.963681,0.0071 -1.877406,0.296571 -2.764426,0.65854 -1.054142,0.53916 -2.01232,1.214786 -2.6565991,2.233062 -0.7132904,1.147709 -1.2713904,2.383028 -1.7249931,3.655327 -0.63515,1.807972 -1.1617483,3.658462 -1.3447437,5.5734 -0.1124847,1.292342 -0.1866529,2.585456 -0.1531575,3.883377 z" />
  </g>
</svg>
